%
M48
M72
T01C0.0200
T02C0.0400
%
T01
X1580Y1130
X13430Y2480
X15648Y3985
X18980Y5830
X17980Y1580
T02
X11380Y1330
X10380Y1330
X9380Y1330
X8380Y1330
X8380Y2830
X9380Y2830
X10380Y2830
X9380Y4230
X8380Y4230
X8380Y5730
X9380Y5730
X8880Y6980
X7880Y6980
X6880Y6980
X5880Y6980
X4880Y6980
X3880Y6980
X2880Y6980
X1880Y6980
X880Y6980
X880Y7980
X1880Y7980
X2880Y7980
X3880Y7980
X4880Y7980
X5880Y7980
X6880Y7980
X7880Y7980
X8880Y7980
X9880Y7980
X10880Y7980
X11880Y7980
X12880Y7980
X13880Y7980
X14880Y7980
X15880Y7980
X16880Y7980
X17880Y7980
X18880Y7980
X19880Y7980
X19880Y6980
X18880Y6980
X17880Y6980
X16880Y6980
X15880Y6980
X14880Y6980
X13880Y6980
X12880Y6980
X11880Y6980
X10880Y6980
X9880Y6980
M30
