%
M48
M72
T01C0.0200
T02C0.0400
%
T01
X2000Y1320
X13850Y2670
X16068Y4175
X19400Y6020
X18500Y1920
T02
X11800Y1520
X10800Y1520
X9800Y1520
X8800Y1520
X8800Y3020
X9800Y3020
X10800Y3020
X9800Y4420
X8800Y4420
X8800Y5920
X9800Y5920
X9300Y7320
X8300Y7320
X7300Y7320
X6300Y7320
X5300Y7320
X4300Y7320
X3300Y7320
X2300Y7320
X1300Y7320
X1300Y8320
X2300Y8320
X3300Y8320
X4300Y8320
X5300Y8320
X6300Y8320
X7300Y8320
X8300Y8320
X9300Y8320
X10300Y8320
X11300Y8320
X12300Y8320
X13300Y8320
X14300Y8320
X15300Y8320
X16300Y8320
X17300Y8320
X18300Y8320
X19300Y8320
X20300Y8320
X20300Y7320
X19300Y7320
X18300Y7320
X17300Y7320
X16300Y7320
X15300Y7320
X14300Y7320
X13300Y7320
X12300Y7320
X11300Y7320
X10300Y7320
M30
