G75*
%MOIN*%
%OFA0B0*%
%FSLAX24Y24*%
%IPPOS*%
%LPD*%
%AMOC8*
5,1,8,0,0,1.08239X$1,22.5*
%
%ADD10C,0.0080*%
%ADD11C,0.0000*%
%ADD12C,0.0650*%
%ADD13R,0.0650X0.0650*%
%ADD14R,0.0236X0.0472*%
%ADD15R,0.0394X0.0551*%
%ADD16R,0.0551X0.0394*%
%ADD17R,0.0512X0.0610*%
%ADD18R,0.0472X0.0472*%
%ADD19R,0.0870X0.0240*%
%ADD20R,0.0315X0.0354*%
%ADD21C,0.0740*%
%ADD22C,0.0160*%
%ADD23C,0.0100*%
%ADD24C,0.0400*%
D10*
X000480Y000180D02*
X000444Y000190D01*
X000408Y000202D01*
X000375Y000218D01*
X000342Y000238D01*
X000312Y000260D01*
X000285Y000285D01*
X000259Y000313D01*
X000237Y000343D01*
X000218Y000375D01*
X000202Y000409D01*
X000189Y000444D01*
X000180Y000481D01*
X000175Y000518D01*
X000173Y000555D01*
X000175Y000593D01*
X000180Y000630D01*
X000180Y008280D01*
X000182Y008319D01*
X000188Y008358D01*
X000197Y008396D01*
X000210Y008433D01*
X000227Y008469D01*
X000247Y008502D01*
X000271Y008534D01*
X000297Y008563D01*
X000326Y008589D01*
X000358Y008613D01*
X000391Y008633D01*
X000427Y008650D01*
X000464Y008663D01*
X000502Y008672D01*
X000541Y008678D01*
X000580Y008680D01*
X020280Y008680D01*
X020314Y008678D01*
X020347Y008672D01*
X020379Y008663D01*
X020410Y008650D01*
X020440Y008634D01*
X020467Y008615D01*
X020492Y008592D01*
X020515Y008567D01*
X020534Y008540D01*
X020550Y008510D01*
X020563Y008479D01*
X020572Y008447D01*
X020578Y008414D01*
X020580Y008380D01*
X020580Y000630D01*
X020585Y000593D01*
X020587Y000555D01*
X020585Y000518D01*
X020580Y000481D01*
X020571Y000444D01*
X020558Y000409D01*
X020542Y000375D01*
X020523Y000343D01*
X020501Y000313D01*
X020475Y000285D01*
X020448Y000260D01*
X020418Y000238D01*
X020385Y000218D01*
X020352Y000202D01*
X020316Y000190D01*
X020280Y000180D01*
D11*
X000480Y000180D01*
D12*
X001880Y006980D03*
X002880Y006980D03*
X003880Y006980D03*
X004880Y006980D03*
X005880Y006980D03*
X006880Y006980D03*
X007880Y006980D03*
X008880Y006980D03*
X009880Y006980D03*
X010880Y006980D03*
X011880Y006980D03*
X012880Y006980D03*
X013880Y006980D03*
X014880Y006980D03*
X015880Y006980D03*
X016880Y006980D03*
X017880Y006980D03*
X018880Y006980D03*
X019880Y006980D03*
X019880Y007980D03*
X018880Y007980D03*
X017880Y007980D03*
X016880Y007980D03*
X015880Y007980D03*
X014880Y007980D03*
X013880Y007980D03*
X012880Y007980D03*
X011880Y007980D03*
X010880Y007980D03*
X009880Y007980D03*
X008880Y007980D03*
X007880Y007980D03*
X006880Y007980D03*
X005880Y007980D03*
X004880Y007980D03*
X003880Y007980D03*
X002880Y007980D03*
X001880Y007980D03*
X000880Y007980D03*
D13*
X000880Y006980D03*
D14*
X019026Y004039D03*
X019734Y004039D03*
X019734Y002621D03*
X019026Y002621D03*
D15*
X019006Y001580D03*
X019754Y001580D03*
X019854Y005080D03*
X019106Y005080D03*
X018454Y005080D03*
X017706Y005080D03*
X014154Y005730D03*
X013406Y005730D03*
X005954Y005830D03*
X005206Y005830D03*
X005206Y004830D03*
X005954Y004830D03*
X005954Y003830D03*
X005206Y003830D03*
X005206Y002830D03*
X005954Y002830D03*
X005954Y001930D03*
X005206Y001930D03*
X005206Y000930D03*
X005954Y000930D03*
D16*
X000880Y001156D03*
X000880Y001904D03*
X013430Y003006D03*
X013430Y003754D03*
X017880Y003604D03*
X017880Y002856D03*
D17*
X002466Y002615D03*
X000694Y002615D03*
X000694Y005745D03*
X002466Y005745D03*
D18*
X003467Y005830D03*
X004293Y005830D03*
X004293Y004830D03*
X003467Y004830D03*
X003467Y003830D03*
X004293Y003830D03*
X004293Y002830D03*
X003467Y002830D03*
X003467Y001930D03*
X004293Y001930D03*
X004293Y000930D03*
X003467Y000930D03*
D19*
X014510Y002928D03*
X014510Y003428D03*
X014510Y003928D03*
X014510Y004428D03*
X016570Y004428D03*
X016570Y003928D03*
X016570Y003428D03*
X016570Y002928D03*
D20*
X015854Y001724D03*
X015106Y001724D03*
X015480Y000897D03*
D21*
X011380Y001330D03*
X010380Y001330D03*
X009380Y001330D03*
X008380Y001330D03*
X008380Y002830D03*
X009380Y002830D03*
X010380Y002830D03*
X009380Y004230D03*
X008380Y004230D03*
X008380Y005730D03*
X009380Y005730D03*
D22*
X009910Y005728D02*
X013049Y005728D01*
X013049Y005886D02*
X009889Y005886D01*
X009910Y005835D02*
X009829Y006030D01*
X009680Y006179D01*
X009485Y006260D01*
X009275Y006260D01*
X009080Y006179D01*
X008931Y006030D01*
X008880Y005908D01*
X008829Y006030D01*
X008680Y006179D01*
X008485Y006260D01*
X008275Y006260D01*
X008159Y006212D01*
X008467Y006520D01*
X008723Y006520D01*
X008784Y006495D02*
X008976Y006495D01*
X009155Y006569D01*
X009291Y006705D01*
X009365Y006884D01*
X009365Y007076D01*
X009291Y007255D01*
X009155Y007391D01*
X008976Y007465D01*
X008784Y007465D01*
X008605Y007391D01*
X008590Y007376D01*
X008590Y007584D01*
X008605Y007569D01*
X008784Y007495D01*
X008976Y007495D01*
X009155Y007569D01*
X009291Y007705D01*
X009365Y007884D01*
X009365Y008076D01*
X009291Y008255D01*
X009155Y008391D01*
X008976Y008465D01*
X008784Y008465D01*
X008605Y008391D01*
X008469Y008255D01*
X008406Y008103D01*
X008370Y008067D01*
X008365Y008062D01*
X008365Y008076D01*
X008291Y008255D01*
X008155Y008391D01*
X007976Y008465D01*
X007784Y008465D01*
X007605Y008391D01*
X007469Y008255D01*
X007395Y008076D01*
X007395Y007992D01*
X007363Y007960D01*
X006900Y007960D01*
X006900Y008000D01*
X007385Y008000D01*
X007385Y008020D01*
X007373Y008098D01*
X007348Y008174D01*
X007312Y008245D01*
X007265Y008309D01*
X007209Y008365D01*
X007145Y008412D01*
X007074Y008448D01*
X006998Y008473D01*
X006951Y008480D01*
X009809Y008480D01*
X009762Y008473D01*
X009686Y008448D01*
X009615Y008412D01*
X009551Y008365D01*
X009495Y008309D01*
X009448Y008245D01*
X009412Y008174D01*
X009387Y008098D01*
X009375Y008020D01*
X009375Y008000D01*
X009860Y008000D01*
X009860Y007960D01*
X009900Y007960D01*
X009900Y008000D01*
X010385Y008000D01*
X010385Y008020D01*
X010373Y008098D01*
X010348Y008174D01*
X010312Y008245D01*
X010265Y008309D01*
X010209Y008365D01*
X010145Y008412D01*
X010074Y008448D01*
X009998Y008473D01*
X009951Y008480D01*
X014809Y008480D01*
X014762Y008473D01*
X014686Y008448D01*
X014615Y008412D01*
X014551Y008365D01*
X014495Y008309D01*
X014448Y008245D01*
X014412Y008174D01*
X014387Y008098D01*
X014375Y008020D01*
X014375Y008000D01*
X014860Y008000D01*
X014860Y007960D01*
X014900Y007960D01*
X014900Y008000D01*
X015385Y008000D01*
X015385Y008020D01*
X015373Y008098D01*
X015348Y008174D01*
X015312Y008245D01*
X015265Y008309D01*
X015209Y008365D01*
X015145Y008412D01*
X015074Y008448D01*
X014998Y008473D01*
X014951Y008480D01*
X016809Y008480D01*
X016762Y008473D01*
X016686Y008448D01*
X016615Y008412D01*
X016551Y008365D01*
X016495Y008309D01*
X016448Y008245D01*
X016412Y008174D01*
X016387Y008098D01*
X016375Y008020D01*
X016375Y008000D01*
X016860Y008000D01*
X016860Y007960D01*
X016900Y007960D01*
X016900Y008000D01*
X017385Y008000D01*
X017385Y008020D01*
X017373Y008098D01*
X017348Y008174D01*
X017312Y008245D01*
X017265Y008309D01*
X017209Y008365D01*
X017145Y008412D01*
X017074Y008448D01*
X016998Y008473D01*
X016951Y008480D01*
X020280Y008480D01*
X020300Y008478D01*
X020336Y008463D01*
X020363Y008436D01*
X020378Y008400D01*
X020380Y008380D01*
X020380Y007051D01*
X020373Y007098D01*
X020348Y007174D01*
X020312Y007245D01*
X020265Y007309D01*
X020209Y007365D01*
X020145Y007412D01*
X020074Y007448D01*
X019998Y007473D01*
X019920Y007485D01*
X019900Y007485D01*
X019900Y007000D01*
X019860Y007000D01*
X019860Y007485D01*
X019840Y007485D01*
X019762Y007473D01*
X019686Y007448D01*
X019615Y007412D01*
X019551Y007365D01*
X019495Y007309D01*
X019448Y007245D01*
X019412Y007174D01*
X019387Y007098D01*
X019375Y007020D01*
X019375Y007000D01*
X019860Y007000D01*
X019860Y006960D01*
X019900Y006960D01*
X019900Y006475D01*
X019920Y006475D01*
X019998Y006487D01*
X020074Y006512D01*
X020145Y006548D01*
X020209Y006595D01*
X020265Y006651D01*
X020312Y006715D01*
X020348Y006786D01*
X020373Y006862D01*
X020380Y006909D01*
X020380Y000691D01*
X020368Y000672D01*
X020380Y000610D01*
X020380Y000547D01*
X020385Y000542D01*
X020374Y000485D01*
X020334Y000426D01*
X020275Y000387D01*
X020241Y000376D01*
X020160Y000360D01*
X020146Y000340D01*
X000614Y000340D01*
X000600Y000360D01*
X000519Y000376D01*
X000485Y000387D01*
X000426Y000426D01*
X000386Y000485D01*
X000375Y000542D01*
X000380Y000547D01*
X000380Y000610D01*
X000392Y000672D01*
X000380Y000691D01*
X000380Y002150D01*
X000444Y002150D01*
X000444Y001641D01*
X000538Y001547D01*
X001222Y001547D01*
X001316Y001641D01*
X001316Y002167D01*
X001222Y002261D01*
X001110Y002261D01*
X001110Y002986D01*
X001016Y003080D01*
X000904Y003080D01*
X000904Y005280D01*
X001016Y005280D01*
X001110Y005374D01*
X001110Y006116D01*
X001056Y006170D01*
X002075Y006170D01*
X002066Y006161D01*
X002042Y006120D01*
X002030Y006074D01*
X002030Y005793D01*
X002418Y005793D01*
X002418Y005697D01*
X002514Y005697D01*
X002514Y005793D01*
X002902Y005793D01*
X002902Y006074D01*
X002889Y006120D01*
X002866Y006161D01*
X002856Y006170D01*
X003082Y006170D01*
X003063Y006136D01*
X003050Y006090D01*
X003050Y005868D01*
X003428Y005868D01*
X003428Y005792D01*
X003050Y005792D01*
X003050Y005570D01*
X003063Y005524D01*
X003086Y005483D01*
X003120Y005450D01*
X003161Y005426D01*
X003207Y005414D01*
X003429Y005414D01*
X003429Y005792D01*
X003505Y005792D01*
X003505Y005868D01*
X003883Y005868D01*
X003883Y006090D01*
X003871Y006136D01*
X003851Y006170D01*
X003867Y006170D01*
X003967Y006270D01*
X004090Y006393D01*
X004090Y006542D01*
X004155Y006569D01*
X004291Y006705D01*
X004365Y006884D01*
X004365Y007076D01*
X004291Y007255D01*
X004155Y007391D01*
X003976Y007465D01*
X003784Y007465D01*
X003605Y007391D01*
X003469Y007255D01*
X003395Y007076D01*
X003395Y006884D01*
X003469Y006705D01*
X003584Y006590D01*
X003176Y006590D01*
X003291Y006705D01*
X003365Y006884D01*
X003365Y007076D01*
X003291Y007255D01*
X003155Y007391D01*
X002976Y007465D01*
X002784Y007465D01*
X002605Y007391D01*
X002469Y007255D01*
X002395Y007076D01*
X002395Y006884D01*
X002469Y006705D01*
X002584Y006590D01*
X002176Y006590D01*
X002291Y006705D01*
X002365Y006884D01*
X002365Y007076D01*
X002291Y007255D01*
X002155Y007391D01*
X001976Y007465D01*
X001784Y007465D01*
X001605Y007391D01*
X001469Y007255D01*
X001395Y007076D01*
X001395Y006884D01*
X001469Y006705D01*
X001584Y006590D01*
X001365Y006590D01*
X001365Y007371D01*
X001271Y007465D01*
X000489Y007465D01*
X000395Y007371D01*
X000395Y006589D01*
X000489Y006495D01*
X000698Y006495D01*
X000670Y006467D01*
X000607Y006404D01*
X000484Y006281D01*
X000484Y006210D01*
X000380Y006210D01*
X000380Y008280D01*
X000384Y008319D01*
X000414Y008391D01*
X000469Y008446D01*
X000541Y008476D01*
X000580Y008480D01*
X002809Y008480D01*
X002762Y008473D01*
X002686Y008448D01*
X002615Y008412D01*
X002551Y008365D01*
X002495Y008309D01*
X002448Y008245D01*
X002412Y008174D01*
X002387Y008098D01*
X002375Y008020D01*
X002375Y008000D01*
X002860Y008000D01*
X002860Y007960D01*
X002900Y007960D01*
X002900Y008000D01*
X003385Y008000D01*
X003385Y008020D01*
X003373Y008098D01*
X003348Y008174D01*
X003312Y008245D01*
X003265Y008309D01*
X003209Y008365D01*
X003145Y008412D01*
X003074Y008448D01*
X002998Y008473D01*
X002951Y008480D01*
X006809Y008480D01*
X006762Y008473D01*
X006686Y008448D01*
X006615Y008412D01*
X006551Y008365D01*
X006495Y008309D01*
X006448Y008245D01*
X006412Y008174D01*
X006387Y008098D01*
X006375Y008020D01*
X006375Y008000D01*
X006860Y008000D01*
X006860Y007960D01*
X006900Y007960D01*
X006900Y007475D01*
X006920Y007475D01*
X006998Y007487D01*
X007074Y007512D01*
X007145Y007548D01*
X007170Y007566D01*
X007170Y007376D01*
X007155Y007391D01*
X006976Y007465D01*
X006784Y007465D01*
X006605Y007391D01*
X006590Y007376D01*
X006590Y007566D01*
X006615Y007548D01*
X006686Y007512D01*
X006762Y007487D01*
X006840Y007475D01*
X006860Y007475D01*
X006860Y007960D01*
X006397Y007960D01*
X006365Y007992D01*
X006365Y008076D01*
X006291Y008255D01*
X006155Y008391D01*
X005976Y008465D01*
X005784Y008465D01*
X005605Y008391D01*
X005469Y008255D01*
X005395Y008076D01*
X005395Y007884D01*
X005469Y007705D01*
X005605Y007569D01*
X005784Y007495D01*
X005976Y007495D01*
X006155Y007569D01*
X006170Y007584D01*
X006170Y007376D01*
X006155Y007391D01*
X005976Y007465D01*
X005784Y007465D01*
X005605Y007391D01*
X005469Y007255D01*
X005395Y007076D01*
X005395Y006884D01*
X005469Y006705D01*
X005605Y006569D01*
X005670Y006542D01*
X005670Y006245D01*
X005597Y006172D01*
X005597Y005488D01*
X005691Y005394D01*
X006170Y005394D01*
X006170Y005321D01*
X006111Y005266D01*
X005691Y005266D01*
X005597Y005172D01*
X005597Y004488D01*
X005691Y004394D01*
X006217Y004394D01*
X006311Y004488D01*
X006311Y004877D01*
X006463Y005020D01*
X006467Y005020D01*
X006470Y005023D01*
X006470Y004542D01*
X006194Y004266D01*
X005691Y004266D01*
X005597Y004172D01*
X005597Y003488D01*
X005691Y003394D01*
X006147Y003394D01*
X006019Y003266D01*
X005691Y003266D01*
X005597Y003172D01*
X005597Y002488D01*
X005691Y002394D01*
X006147Y002394D01*
X006119Y002366D01*
X005691Y002366D01*
X005597Y002272D01*
X005597Y001588D01*
X005691Y001494D01*
X006217Y001494D01*
X006311Y001588D01*
X006311Y001964D01*
X006670Y002323D01*
X006670Y001917D01*
X006119Y001366D01*
X005691Y001366D01*
X005597Y001272D01*
X005597Y000588D01*
X005691Y000494D01*
X006217Y000494D01*
X006311Y000588D01*
X006311Y000964D01*
X007090Y001743D01*
X007090Y002643D01*
X007667Y003220D01*
X007790Y003343D01*
X007790Y005843D01*
X007898Y005951D01*
X007850Y005835D01*
X007850Y005625D01*
X007931Y005430D01*
X008080Y005281D01*
X008275Y005200D01*
X008485Y005200D01*
X008680Y005281D01*
X008829Y005430D01*
X008880Y005552D01*
X008931Y005430D01*
X009020Y005340D01*
X008893Y005340D01*
X008770Y005217D01*
X008313Y004760D01*
X008275Y004760D01*
X008080Y004679D01*
X007931Y004530D01*
X007850Y004335D01*
X007850Y004125D01*
X007931Y003930D01*
X008080Y003781D01*
X008275Y003700D01*
X008485Y003700D01*
X008680Y003781D01*
X008829Y003930D01*
X008880Y004052D01*
X008931Y003930D01*
X009080Y003781D01*
X009275Y003700D01*
X009485Y003700D01*
X009680Y003781D01*
X009829Y003930D01*
X009910Y004125D01*
X009910Y004220D01*
X013220Y004220D01*
X013220Y004111D01*
X013088Y004111D01*
X012994Y004017D01*
X012994Y003491D01*
X013088Y003397D01*
X013772Y003397D01*
X013866Y003491D01*
X013866Y004017D01*
X013772Y004111D01*
X013640Y004111D01*
X013640Y004219D01*
X013937Y004219D01*
X013965Y004192D01*
X013964Y004192D01*
X013931Y004158D01*
X013907Y004117D01*
X013895Y004071D01*
X013895Y003928D01*
X014510Y003928D01*
X015125Y003928D01*
X015125Y004071D01*
X015113Y004117D01*
X015089Y004158D01*
X015056Y004192D01*
X015055Y004192D01*
X015105Y004241D01*
X015105Y004614D01*
X015011Y004707D01*
X014009Y004707D01*
X013940Y004639D01*
X013467Y004640D01*
X013380Y004640D01*
X013293Y004640D01*
X009720Y004640D01*
X009680Y004679D01*
X009485Y004760D01*
X009275Y004760D01*
X009080Y004679D01*
X008931Y004530D01*
X008880Y004408D01*
X008829Y004530D01*
X008753Y004606D01*
X009067Y004920D01*
X016393Y004920D01*
X016408Y004906D01*
X016408Y004707D01*
X016069Y004707D01*
X015975Y004614D01*
X015975Y004241D01*
X016039Y004177D01*
X015999Y004137D01*
X015974Y004137D01*
X015953Y004189D01*
X015851Y004290D01*
X015719Y004345D01*
X015576Y004345D01*
X015444Y004290D01*
X015342Y004189D01*
X015288Y004057D01*
X015288Y003913D01*
X015342Y003781D01*
X015444Y003680D01*
X015576Y003625D01*
X015719Y003625D01*
X015851Y003680D01*
X015889Y003718D01*
X015999Y003718D01*
X016025Y003692D01*
X016024Y003692D01*
X015991Y003658D01*
X015967Y003617D01*
X015955Y003571D01*
X015955Y003428D01*
X016570Y003428D01*
X016570Y003427D01*
X015955Y003427D01*
X015955Y003284D01*
X015967Y003238D01*
X015991Y003197D01*
X016024Y003163D01*
X016025Y003163D01*
X015975Y003114D01*
X015975Y002741D01*
X016069Y002648D01*
X017071Y002648D01*
X017141Y002717D01*
X017444Y002717D01*
X017444Y002593D01*
X017538Y002499D01*
X018222Y002499D01*
X018316Y002593D01*
X018316Y002717D01*
X018595Y002717D01*
X018748Y002585D01*
X018748Y002319D01*
X018841Y002225D01*
X019210Y002225D01*
X019304Y002319D01*
X019304Y002924D01*
X019210Y003018D01*
X018890Y003018D01*
X018817Y003081D01*
X018761Y003137D01*
X018752Y003137D01*
X018746Y003143D01*
X018666Y003137D01*
X018297Y003137D01*
X018222Y003213D01*
X017538Y003213D01*
X017463Y003137D01*
X017142Y003137D01*
X017115Y003163D01*
X017116Y003163D01*
X017149Y003197D01*
X017173Y003238D01*
X017185Y003284D01*
X017185Y003427D01*
X016570Y003427D01*
X016570Y003428D01*
X017185Y003428D01*
X017185Y003571D01*
X017173Y003617D01*
X017149Y003658D01*
X017116Y003692D01*
X017115Y003692D01*
X017165Y003741D01*
X017165Y003893D01*
X017317Y004045D01*
X018722Y004045D01*
X018748Y004020D01*
X018748Y003736D01*
X018841Y003642D01*
X019210Y003642D01*
X019304Y003736D01*
X019304Y004341D01*
X019248Y004397D01*
X019316Y004465D01*
X019316Y004644D01*
X019369Y004644D01*
X019463Y004738D01*
X019463Y005422D01*
X019369Y005516D01*
X019316Y005516D01*
X019316Y005700D01*
X019340Y005758D01*
X019340Y005902D01*
X019285Y006034D01*
X019184Y006135D01*
X019052Y006190D01*
X018908Y006190D01*
X018776Y006135D01*
X018675Y006034D01*
X018620Y005902D01*
X018620Y005758D01*
X018675Y005626D01*
X018776Y005525D01*
X018830Y005503D01*
X018780Y005453D01*
X018717Y005516D01*
X018191Y005516D01*
X018097Y005422D01*
X018097Y004738D01*
X018191Y004644D01*
X018717Y004644D01*
X018780Y004707D01*
X018843Y004644D01*
X018896Y004644D01*
X018896Y004639D01*
X018722Y004465D01*
X017440Y004465D01*
X017440Y004637D01*
X017485Y004624D01*
X017688Y004624D01*
X017688Y005062D01*
X017724Y005062D01*
X017724Y005098D01*
X017688Y005098D01*
X017688Y005536D01*
X017485Y005536D01*
X017440Y005523D01*
X017436Y005521D01*
X017317Y005640D01*
X017017Y005940D01*
X014511Y005940D01*
X014511Y006072D01*
X014417Y006166D01*
X013891Y006166D01*
X013797Y006072D01*
X013797Y005388D01*
X013845Y005340D01*
X013715Y005340D01*
X013763Y005388D01*
X013763Y006072D01*
X013669Y006166D01*
X013143Y006166D01*
X013049Y006072D01*
X013049Y005388D01*
X013097Y005340D01*
X009740Y005340D01*
X009829Y005430D01*
X009910Y005625D01*
X009910Y005835D01*
X009815Y006045D02*
X013049Y006045D01*
X013763Y006045D02*
X013797Y006045D01*
X013797Y005886D02*
X013763Y005886D01*
X013763Y005728D02*
X013797Y005728D01*
X013797Y005569D02*
X013763Y005569D01*
X013763Y005411D02*
X013797Y005411D01*
X013049Y005411D02*
X009810Y005411D01*
X009887Y005569D02*
X013049Y005569D01*
X014511Y006045D02*
X018685Y006045D01*
X018620Y005886D02*
X017071Y005886D01*
X017229Y005728D02*
X018633Y005728D01*
X018732Y005569D02*
X017388Y005569D01*
X017724Y005536D02*
X017724Y005098D01*
X018083Y005098D01*
X018083Y005379D01*
X018071Y005425D01*
X018047Y005466D01*
X018013Y005500D01*
X017972Y005523D01*
X017927Y005536D01*
X017724Y005536D01*
X017724Y005411D02*
X017688Y005411D01*
X017688Y005252D02*
X017724Y005252D01*
X017724Y005094D02*
X018097Y005094D01*
X018083Y005062D02*
X017724Y005062D01*
X017724Y004624D01*
X017927Y004624D01*
X017972Y004637D01*
X018013Y004660D01*
X018047Y004694D01*
X018071Y004735D01*
X018083Y004781D01*
X018083Y005062D01*
X018454Y005080D02*
X019106Y005080D01*
X019463Y005094D02*
X019836Y005094D01*
X019836Y005098D02*
X019836Y005062D01*
X019477Y005062D01*
X019477Y004781D01*
X019489Y004735D01*
X019513Y004694D01*
X019547Y004660D01*
X019588Y004637D01*
X019633Y004624D01*
X019836Y004624D01*
X019836Y005062D01*
X019872Y005062D01*
X019872Y004624D01*
X020075Y004624D01*
X020120Y004637D01*
X020161Y004660D01*
X020195Y004694D01*
X020219Y004735D01*
X020231Y004781D01*
X020231Y005062D01*
X019872Y005062D01*
X019872Y005098D01*
X019836Y005098D01*
X019477Y005098D01*
X019477Y005379D01*
X019489Y005425D01*
X019513Y005466D01*
X019547Y005500D01*
X019588Y005523D01*
X019633Y005536D01*
X019836Y005536D01*
X019836Y005098D01*
X019872Y005098D02*
X019872Y005536D01*
X020075Y005536D01*
X020120Y005523D01*
X020161Y005500D01*
X020195Y005466D01*
X020219Y005425D01*
X020231Y005379D01*
X020231Y005098D01*
X019872Y005098D01*
X019872Y005094D02*
X020380Y005094D01*
X020380Y005252D02*
X020231Y005252D01*
X020223Y005411D02*
X020380Y005411D01*
X020380Y005569D02*
X019316Y005569D01*
X019463Y005411D02*
X019486Y005411D01*
X019477Y005252D02*
X019463Y005252D01*
X019836Y005252D02*
X019872Y005252D01*
X019872Y005411D02*
X019836Y005411D01*
X019327Y005728D02*
X020380Y005728D01*
X020380Y005886D02*
X019340Y005886D01*
X019275Y006045D02*
X020380Y006045D01*
X020380Y006203D02*
X009623Y006203D01*
X009137Y006203D02*
X008623Y006203D01*
X008308Y006362D02*
X020380Y006362D01*
X020380Y006520D02*
X020090Y006520D01*
X019900Y006520D02*
X019860Y006520D01*
X019860Y006475D02*
X019860Y006960D01*
X019375Y006960D01*
X019375Y006940D01*
X019387Y006862D01*
X019412Y006786D01*
X019448Y006715D01*
X019495Y006651D01*
X019551Y006595D01*
X019615Y006548D01*
X019686Y006512D01*
X019762Y006487D01*
X019840Y006475D01*
X019860Y006475D01*
X019670Y006520D02*
X019037Y006520D01*
X018976Y006495D02*
X019155Y006569D01*
X019291Y006705D01*
X019365Y006884D01*
X019365Y007076D01*
X019291Y007255D01*
X019155Y007391D01*
X018976Y007465D01*
X018784Y007465D01*
X018605Y007391D01*
X018469Y007255D01*
X018395Y007076D01*
X018395Y006884D01*
X018469Y006705D01*
X018605Y006569D01*
X018784Y006495D01*
X018976Y006495D01*
X018723Y006520D02*
X018037Y006520D01*
X017976Y006495D02*
X018155Y006569D01*
X018291Y006705D01*
X018365Y006884D01*
X018365Y007076D01*
X018291Y007255D01*
X018155Y007391D01*
X017976Y007465D01*
X017784Y007465D01*
X017605Y007391D01*
X017469Y007255D01*
X017395Y007076D01*
X017395Y006884D01*
X017469Y006705D01*
X017605Y006569D01*
X017784Y006495D01*
X017976Y006495D01*
X017723Y006520D02*
X017037Y006520D01*
X016976Y006495D02*
X017155Y006569D01*
X017291Y006705D01*
X017365Y006884D01*
X017365Y007076D01*
X017291Y007255D01*
X017155Y007391D01*
X016976Y007465D01*
X016784Y007465D01*
X016605Y007391D01*
X016469Y007255D01*
X016395Y007076D01*
X016395Y006884D01*
X016469Y006705D01*
X016605Y006569D01*
X016784Y006495D01*
X016976Y006495D01*
X016723Y006520D02*
X016037Y006520D01*
X015976Y006495D02*
X016155Y006569D01*
X016291Y006705D01*
X016365Y006884D01*
X016365Y007076D01*
X016291Y007255D01*
X016155Y007391D01*
X015976Y007465D01*
X015784Y007465D01*
X015605Y007391D01*
X015469Y007255D01*
X015395Y007076D01*
X015395Y006884D01*
X015469Y006705D01*
X015605Y006569D01*
X015784Y006495D01*
X015976Y006495D01*
X015723Y006520D02*
X015037Y006520D01*
X014976Y006495D02*
X015155Y006569D01*
X015291Y006705D01*
X015365Y006884D01*
X015365Y007076D01*
X015291Y007255D01*
X015155Y007391D01*
X014976Y007465D01*
X014784Y007465D01*
X014605Y007391D01*
X014469Y007255D01*
X014395Y007076D01*
X014395Y006884D01*
X014469Y006705D01*
X014605Y006569D01*
X014784Y006495D01*
X014976Y006495D01*
X014723Y006520D02*
X014037Y006520D01*
X013976Y006495D02*
X014155Y006569D01*
X014291Y006705D01*
X014365Y006884D01*
X014365Y007076D01*
X014291Y007255D01*
X014155Y007391D01*
X013976Y007465D01*
X013784Y007465D01*
X013605Y007391D01*
X013469Y007255D01*
X013395Y007076D01*
X013395Y006884D01*
X013469Y006705D01*
X013605Y006569D01*
X013784Y006495D01*
X013976Y006495D01*
X013723Y006520D02*
X013090Y006520D01*
X013074Y006512D02*
X013145Y006548D01*
X013209Y006595D01*
X013265Y006651D01*
X013312Y006715D01*
X013348Y006786D01*
X013373Y006862D01*
X013385Y006940D01*
X013385Y006960D01*
X012900Y006960D01*
X012900Y007000D01*
X013385Y007000D01*
X013385Y007020D01*
X013373Y007098D01*
X013348Y007174D01*
X013312Y007245D01*
X013265Y007309D01*
X013209Y007365D01*
X013145Y007412D01*
X013074Y007448D01*
X012998Y007473D01*
X012920Y007485D01*
X012900Y007485D01*
X012900Y007000D01*
X012860Y007000D01*
X012860Y007485D01*
X012840Y007485D01*
X012762Y007473D01*
X012686Y007448D01*
X012615Y007412D01*
X012551Y007365D01*
X012495Y007309D01*
X012448Y007245D01*
X012412Y007174D01*
X012387Y007098D01*
X012375Y007020D01*
X012375Y007000D01*
X012860Y007000D01*
X012860Y006960D01*
X012900Y006960D01*
X012900Y006475D01*
X012920Y006475D01*
X012998Y006487D01*
X013074Y006512D01*
X012900Y006520D02*
X012860Y006520D01*
X012860Y006475D02*
X012860Y006960D01*
X012375Y006960D01*
X012375Y006940D01*
X012387Y006862D01*
X012412Y006786D01*
X012448Y006715D01*
X012495Y006651D01*
X012551Y006595D01*
X012615Y006548D01*
X012686Y006512D01*
X012762Y006487D01*
X012840Y006475D01*
X012860Y006475D01*
X012670Y006520D02*
X012037Y006520D01*
X011976Y006495D02*
X012155Y006569D01*
X012291Y006705D01*
X012365Y006884D01*
X012365Y007076D01*
X012291Y007255D01*
X012155Y007391D01*
X011976Y007465D01*
X011784Y007465D01*
X011605Y007391D01*
X011469Y007255D01*
X011395Y007076D01*
X011395Y006884D01*
X011469Y006705D01*
X011605Y006569D01*
X011784Y006495D01*
X011976Y006495D01*
X011723Y006520D02*
X011037Y006520D01*
X010976Y006495D02*
X011155Y006569D01*
X011291Y006705D01*
X011365Y006884D01*
X011365Y007076D01*
X011291Y007255D01*
X011155Y007391D01*
X010976Y007465D01*
X010784Y007465D01*
X010605Y007391D01*
X010469Y007255D01*
X010395Y007076D01*
X010395Y006884D01*
X010469Y006705D01*
X010605Y006569D01*
X010784Y006495D01*
X010976Y006495D01*
X010723Y006520D02*
X010037Y006520D01*
X009976Y006495D02*
X010155Y006569D01*
X010291Y006705D01*
X010365Y006884D01*
X010365Y007076D01*
X010291Y007255D01*
X010155Y007391D01*
X009976Y007465D01*
X009784Y007465D01*
X009605Y007391D01*
X009469Y007255D01*
X009395Y007076D01*
X009395Y006884D01*
X009469Y006705D01*
X009605Y006569D01*
X009784Y006495D01*
X009976Y006495D01*
X009723Y006520D02*
X009037Y006520D01*
X008784Y006495D02*
X008605Y006569D01*
X008561Y006614D01*
X008467Y006520D01*
X009264Y006679D02*
X009496Y006679D01*
X009414Y006837D02*
X009346Y006837D01*
X009365Y006996D02*
X009395Y006996D01*
X009427Y007154D02*
X009333Y007154D01*
X009233Y007313D02*
X009527Y007313D01*
X009615Y007548D02*
X009686Y007512D01*
X009762Y007487D01*
X009840Y007475D01*
X009860Y007475D01*
X009860Y007960D01*
X009375Y007960D01*
X009375Y007940D01*
X009387Y007862D01*
X009412Y007786D01*
X009448Y007715D01*
X009495Y007651D01*
X009551Y007595D01*
X009615Y007548D01*
X009516Y007630D02*
X009215Y007630D01*
X009325Y007788D02*
X009411Y007788D01*
X009375Y007947D02*
X009365Y007947D01*
X009353Y008105D02*
X009390Y008105D01*
X009462Y008264D02*
X009282Y008264D01*
X009080Y008422D02*
X009635Y008422D01*
X010125Y008422D02*
X010680Y008422D01*
X010605Y008391D02*
X010784Y008465D01*
X010976Y008465D01*
X011155Y008391D01*
X011291Y008255D01*
X011365Y008076D01*
X011365Y007884D01*
X011291Y007705D01*
X011155Y007569D01*
X010976Y007495D01*
X010784Y007495D01*
X010605Y007569D01*
X010469Y007705D01*
X010395Y007884D01*
X010395Y008076D01*
X010469Y008255D01*
X010605Y008391D01*
X010478Y008264D02*
X010298Y008264D01*
X010370Y008105D02*
X010407Y008105D01*
X010385Y007960D02*
X009900Y007960D01*
X009900Y007475D01*
X009920Y007475D01*
X009998Y007487D01*
X010074Y007512D01*
X010145Y007548D01*
X010209Y007595D01*
X010265Y007651D01*
X010312Y007715D01*
X010348Y007786D01*
X010373Y007862D01*
X010385Y007940D01*
X010385Y007960D01*
X010385Y007947D02*
X010395Y007947D01*
X010435Y007788D02*
X010349Y007788D01*
X010244Y007630D02*
X010545Y007630D01*
X009900Y007630D02*
X009860Y007630D01*
X009860Y007788D02*
X009900Y007788D01*
X009900Y007947D02*
X009860Y007947D01*
X008680Y008422D02*
X008080Y008422D01*
X008282Y008264D02*
X008478Y008264D01*
X008407Y008105D02*
X008353Y008105D01*
X007680Y008422D02*
X007125Y008422D01*
X007298Y008264D02*
X007478Y008264D01*
X007407Y008105D02*
X007370Y008105D01*
X006900Y007947D02*
X006860Y007947D01*
X006860Y007788D02*
X006900Y007788D01*
X006900Y007630D02*
X006860Y007630D01*
X006590Y007471D02*
X007170Y007471D01*
X006170Y007471D02*
X005003Y007471D01*
X004998Y007473D02*
X004920Y007485D01*
X004900Y007485D01*
X004900Y007000D01*
X005385Y007000D01*
X005385Y007020D01*
X005373Y007098D01*
X005348Y007174D01*
X005312Y007245D01*
X005265Y007309D01*
X005209Y007365D01*
X005145Y007412D01*
X005074Y007448D01*
X004998Y007473D01*
X004976Y007495D02*
X005155Y007569D01*
X005291Y007705D01*
X005365Y007884D01*
X005365Y008076D01*
X005291Y008255D01*
X005155Y008391D01*
X004976Y008465D01*
X004784Y008465D01*
X004605Y008391D01*
X004469Y008255D01*
X004395Y008076D01*
X004395Y007884D01*
X004469Y007705D01*
X004605Y007569D01*
X004784Y007495D01*
X004976Y007495D01*
X004900Y007471D02*
X004860Y007471D01*
X004860Y007485D02*
X004840Y007485D01*
X004762Y007473D01*
X004686Y007448D01*
X004615Y007412D01*
X004551Y007365D01*
X004495Y007309D01*
X004448Y007245D01*
X004412Y007174D01*
X004387Y007098D01*
X004375Y007020D01*
X004375Y007000D01*
X004860Y007000D01*
X004860Y007485D01*
X004757Y007471D02*
X000380Y007471D01*
X000605Y007569D02*
X000784Y007495D01*
X000976Y007495D01*
X001155Y007569D01*
X001291Y007705D01*
X001365Y007884D01*
X001365Y008076D01*
X001291Y008255D01*
X001155Y008391D01*
X000976Y008465D01*
X000784Y008465D01*
X000605Y008391D01*
X000469Y008255D01*
X000395Y008076D01*
X000395Y007884D01*
X000469Y007705D01*
X000605Y007569D01*
X000545Y007630D02*
X000380Y007630D01*
X000380Y007788D02*
X000435Y007788D01*
X000395Y007947D02*
X000380Y007947D01*
X000380Y008105D02*
X000407Y008105D01*
X000380Y008264D02*
X000478Y008264D01*
X000445Y008422D02*
X000680Y008422D01*
X001080Y008422D02*
X001680Y008422D01*
X001605Y008391D02*
X001784Y008465D01*
X001976Y008465D01*
X002155Y008391D01*
X002291Y008255D01*
X002365Y008076D01*
X002365Y007884D01*
X002291Y007705D01*
X002155Y007569D01*
X001976Y007495D01*
X001784Y007495D01*
X001605Y007569D01*
X001469Y007705D01*
X001395Y007884D01*
X001395Y008076D01*
X001469Y008255D01*
X001605Y008391D01*
X001478Y008264D02*
X001282Y008264D01*
X001353Y008105D02*
X001407Y008105D01*
X001395Y007947D02*
X001365Y007947D01*
X001325Y007788D02*
X001435Y007788D01*
X001545Y007630D02*
X001215Y007630D01*
X001365Y007313D02*
X001527Y007313D01*
X001427Y007154D02*
X001365Y007154D01*
X001365Y006996D02*
X001395Y006996D01*
X001414Y006837D02*
X001365Y006837D01*
X001365Y006679D02*
X001496Y006679D01*
X002264Y006679D02*
X002496Y006679D01*
X002414Y006837D02*
X002346Y006837D01*
X002365Y006996D02*
X002395Y006996D01*
X002427Y007154D02*
X002333Y007154D01*
X002233Y007313D02*
X002527Y007313D01*
X002615Y007548D02*
X002686Y007512D01*
X002762Y007487D01*
X002840Y007475D01*
X002860Y007475D01*
X002860Y007960D01*
X002375Y007960D01*
X002375Y007940D01*
X002387Y007862D01*
X002412Y007786D01*
X002448Y007715D01*
X002495Y007651D01*
X002551Y007595D01*
X002615Y007548D01*
X002516Y007630D02*
X002215Y007630D01*
X002325Y007788D02*
X002411Y007788D01*
X002375Y007947D02*
X002365Y007947D01*
X002353Y008105D02*
X002390Y008105D01*
X002462Y008264D02*
X002282Y008264D01*
X002080Y008422D02*
X002635Y008422D01*
X003125Y008422D02*
X003680Y008422D01*
X003605Y008391D02*
X003469Y008255D01*
X003395Y008076D01*
X003395Y007884D01*
X003469Y007705D01*
X003605Y007569D01*
X003784Y007495D01*
X003976Y007495D01*
X004155Y007569D01*
X004291Y007705D01*
X004365Y007884D01*
X004365Y008076D01*
X004291Y008255D01*
X004155Y008391D01*
X003976Y008465D01*
X003784Y008465D01*
X003605Y008391D01*
X003478Y008264D02*
X003298Y008264D01*
X003370Y008105D02*
X003407Y008105D01*
X003385Y007960D02*
X002900Y007960D01*
X002900Y007475D01*
X002920Y007475D01*
X002998Y007487D01*
X003074Y007512D01*
X003145Y007548D01*
X003209Y007595D01*
X003265Y007651D01*
X003312Y007715D01*
X003348Y007786D01*
X003373Y007862D01*
X003385Y007940D01*
X003385Y007960D01*
X003385Y007947D02*
X003395Y007947D01*
X003435Y007788D02*
X003349Y007788D01*
X003244Y007630D02*
X003545Y007630D01*
X004215Y007630D02*
X004545Y007630D01*
X004435Y007788D02*
X004325Y007788D01*
X004365Y007947D02*
X004395Y007947D01*
X004407Y008105D02*
X004353Y008105D01*
X004282Y008264D02*
X004478Y008264D01*
X004680Y008422D02*
X004080Y008422D01*
X005080Y008422D02*
X005680Y008422D01*
X005478Y008264D02*
X005282Y008264D01*
X005353Y008105D02*
X005407Y008105D01*
X005395Y007947D02*
X005365Y007947D01*
X005325Y007788D02*
X005435Y007788D01*
X005545Y007630D02*
X005215Y007630D01*
X005262Y007313D02*
X005527Y007313D01*
X005427Y007154D02*
X005354Y007154D01*
X005395Y006996D02*
X004900Y006996D01*
X004900Y007000D02*
X004900Y006960D01*
X005385Y006960D01*
X005385Y006940D01*
X005373Y006862D01*
X005348Y006786D01*
X005312Y006715D01*
X005265Y006651D01*
X005209Y006595D01*
X005145Y006548D01*
X005074Y006512D01*
X004998Y006487D01*
X004920Y006475D01*
X004900Y006475D01*
X004900Y006960D01*
X004860Y006960D01*
X004860Y006475D01*
X004840Y006475D01*
X004762Y006487D01*
X004686Y006512D01*
X004615Y006548D01*
X004551Y006595D01*
X004495Y006651D01*
X004448Y006715D01*
X004412Y006786D01*
X004387Y006862D01*
X004375Y006940D01*
X004375Y006960D01*
X004860Y006960D01*
X004860Y007000D01*
X004900Y007000D01*
X004860Y006996D02*
X004365Y006996D01*
X004346Y006837D02*
X004395Y006837D01*
X004475Y006679D02*
X004264Y006679D01*
X004090Y006520D02*
X004670Y006520D01*
X004860Y006520D02*
X004900Y006520D01*
X005090Y006520D02*
X005670Y006520D01*
X005670Y006362D02*
X004058Y006362D01*
X003991Y006226D02*
X003897Y006132D01*
X003897Y005528D01*
X003991Y005434D01*
X004596Y005434D01*
X004690Y005528D01*
X004690Y005620D01*
X004849Y005620D01*
X004849Y005488D01*
X004943Y005394D01*
X005469Y005394D01*
X005563Y005488D01*
X005563Y006172D01*
X005469Y006266D01*
X004943Y006266D01*
X004849Y006172D01*
X004849Y006040D01*
X004690Y006040D01*
X004690Y006132D01*
X004596Y006226D01*
X003991Y006226D01*
X003968Y006203D02*
X003900Y006203D01*
X003883Y006045D02*
X003897Y006045D01*
X003883Y005886D02*
X003897Y005886D01*
X003883Y005792D02*
X003505Y005792D01*
X003505Y005414D01*
X003727Y005414D01*
X003772Y005426D01*
X003813Y005450D01*
X003847Y005483D01*
X003871Y005524D01*
X003883Y005570D01*
X003883Y005792D01*
X003883Y005728D02*
X003897Y005728D01*
X003883Y005569D02*
X003897Y005569D01*
X003505Y005569D02*
X003429Y005569D01*
X003429Y005728D02*
X003505Y005728D01*
X003050Y005728D02*
X002514Y005728D01*
X002514Y005697D02*
X002902Y005697D01*
X002902Y005416D01*
X002889Y005370D01*
X002866Y005329D01*
X002832Y005296D01*
X002791Y005272D01*
X002745Y005260D01*
X002514Y005260D01*
X002514Y005697D01*
X002418Y005697D02*
X002418Y005260D01*
X002186Y005260D01*
X002140Y005272D01*
X002099Y005296D01*
X002066Y005329D01*
X002042Y005370D01*
X002030Y005416D01*
X002030Y005697D01*
X002418Y005697D01*
X002418Y005728D02*
X001110Y005728D01*
X001110Y005886D02*
X002030Y005886D01*
X002030Y006045D02*
X001110Y006045D01*
X000565Y006362D02*
X000380Y006362D01*
X000380Y006520D02*
X000464Y006520D01*
X000395Y006679D02*
X000380Y006679D01*
X000380Y006837D02*
X000395Y006837D01*
X000380Y006996D02*
X000395Y006996D01*
X000380Y007154D02*
X000395Y007154D01*
X000380Y007313D02*
X000395Y007313D01*
X002860Y007630D02*
X002900Y007630D01*
X002900Y007788D02*
X002860Y007788D01*
X002860Y007947D02*
X002900Y007947D01*
X003233Y007313D02*
X003527Y007313D01*
X003427Y007154D02*
X003333Y007154D01*
X003365Y006996D02*
X003395Y006996D01*
X003414Y006837D02*
X003346Y006837D01*
X003264Y006679D02*
X003496Y006679D01*
X004333Y007154D02*
X004406Y007154D01*
X004498Y007313D02*
X004233Y007313D01*
X004860Y007313D02*
X004900Y007313D01*
X004900Y007154D02*
X004860Y007154D01*
X004860Y006837D02*
X004900Y006837D01*
X004900Y006679D02*
X004860Y006679D01*
X005285Y006679D02*
X005496Y006679D01*
X005414Y006837D02*
X005365Y006837D01*
X005532Y006203D02*
X005628Y006203D01*
X005597Y006045D02*
X005563Y006045D01*
X005563Y005886D02*
X005597Y005886D01*
X005597Y005728D02*
X005563Y005728D01*
X005563Y005569D02*
X005597Y005569D01*
X005675Y005411D02*
X005485Y005411D01*
X005469Y005266D02*
X004943Y005266D01*
X004849Y005172D01*
X004849Y005040D01*
X004690Y005040D01*
X004690Y005132D01*
X004596Y005226D01*
X003991Y005226D01*
X003897Y005132D01*
X003897Y004528D01*
X003991Y004434D01*
X004596Y004434D01*
X004690Y004528D01*
X004690Y004620D01*
X004849Y004620D01*
X004849Y004488D01*
X004943Y004394D01*
X005469Y004394D01*
X005563Y004488D01*
X005563Y005172D01*
X005469Y005266D01*
X005483Y005252D02*
X005677Y005252D01*
X005597Y005094D02*
X005563Y005094D01*
X005563Y004935D02*
X005597Y004935D01*
X005597Y004777D02*
X005563Y004777D01*
X005563Y004618D02*
X005597Y004618D01*
X005626Y004460D02*
X005534Y004460D01*
X005469Y004266D02*
X004943Y004266D01*
X004849Y004172D01*
X004849Y004040D01*
X004690Y004040D01*
X004690Y004132D01*
X004596Y004226D01*
X003991Y004226D01*
X003897Y004132D01*
X003897Y003528D01*
X003991Y003434D01*
X004596Y003434D01*
X004690Y003528D01*
X004690Y003620D01*
X004849Y003620D01*
X004849Y003488D01*
X004943Y003394D01*
X005469Y003394D01*
X005563Y003488D01*
X005563Y004172D01*
X005469Y004266D01*
X005563Y004143D02*
X005597Y004143D01*
X005597Y003984D02*
X005563Y003984D01*
X005563Y003826D02*
X005597Y003826D01*
X005597Y003667D02*
X005563Y003667D01*
X005563Y003509D02*
X005597Y003509D01*
X005469Y003266D02*
X004943Y003266D01*
X004849Y003172D01*
X004849Y003040D01*
X004690Y003040D01*
X004690Y003132D01*
X004596Y003226D01*
X003991Y003226D01*
X003897Y003132D01*
X003897Y002528D01*
X003991Y002434D01*
X004596Y002434D01*
X004690Y002528D01*
X004690Y002620D01*
X004849Y002620D01*
X004849Y002488D01*
X004943Y002394D01*
X005469Y002394D01*
X005563Y002488D01*
X005563Y003172D01*
X005469Y003266D01*
X005543Y003192D02*
X005617Y003192D01*
X005597Y003033D02*
X005563Y003033D01*
X005563Y002875D02*
X005597Y002875D01*
X005597Y002716D02*
X005563Y002716D01*
X005563Y002558D02*
X005597Y002558D01*
X005686Y002399D02*
X005474Y002399D01*
X005469Y002366D02*
X004943Y002366D01*
X004849Y002272D01*
X004849Y002140D01*
X004690Y002140D01*
X004690Y002232D01*
X004596Y002326D01*
X003991Y002326D01*
X003897Y002232D01*
X003897Y001628D01*
X003991Y001534D01*
X004596Y001534D01*
X004690Y001628D01*
X004690Y001720D01*
X004849Y001720D01*
X004849Y001588D01*
X004943Y001494D01*
X005469Y001494D01*
X005563Y001588D01*
X005563Y002272D01*
X005469Y002366D01*
X005563Y002241D02*
X005597Y002241D01*
X005597Y002082D02*
X005563Y002082D01*
X005563Y001924D02*
X005597Y001924D01*
X005597Y001765D02*
X005563Y001765D01*
X005563Y001607D02*
X005597Y001607D01*
X005469Y001366D02*
X004943Y001366D01*
X004849Y001272D01*
X004849Y001140D01*
X004690Y001140D01*
X004690Y001232D01*
X004596Y001326D01*
X003991Y001326D01*
X003897Y001232D01*
X003897Y000628D01*
X003991Y000534D01*
X004596Y000534D01*
X004690Y000628D01*
X004690Y000720D01*
X004849Y000720D01*
X004849Y000588D01*
X004943Y000494D01*
X005469Y000494D01*
X005563Y000588D01*
X005563Y001272D01*
X005469Y001366D01*
X005545Y001290D02*
X005615Y001290D01*
X005597Y001131D02*
X005563Y001131D01*
X005563Y000973D02*
X005597Y000973D01*
X005597Y000814D02*
X005563Y000814D01*
X005563Y000656D02*
X005597Y000656D01*
X005688Y000497D02*
X005472Y000497D01*
X004940Y000497D02*
X000384Y000497D01*
X000389Y000656D02*
X003054Y000656D01*
X003050Y000670D02*
X003063Y000624D01*
X003086Y000583D01*
X003120Y000550D01*
X003161Y000526D01*
X003207Y000514D01*
X003429Y000514D01*
X003429Y000892D01*
X003505Y000892D01*
X003505Y000968D01*
X003883Y000968D01*
X003883Y001190D01*
X003871Y001236D01*
X003847Y001277D01*
X003813Y001310D01*
X003772Y001334D01*
X003727Y001346D01*
X003505Y001346D01*
X003505Y000968D01*
X003429Y000968D01*
X003429Y001346D01*
X003207Y001346D01*
X003161Y001334D01*
X003120Y001310D01*
X003086Y001277D01*
X003063Y001236D01*
X003050Y001190D01*
X003050Y000968D01*
X003428Y000968D01*
X003428Y000892D01*
X003050Y000892D01*
X003050Y000670D01*
X003050Y000814D02*
X001758Y000814D01*
X001784Y000825D02*
X001885Y000926D01*
X001940Y001058D01*
X001940Y001202D01*
X001885Y001334D01*
X001784Y001435D01*
X001652Y001490D01*
X001508Y001490D01*
X001376Y001435D01*
X001316Y001375D01*
X001316Y001419D01*
X001222Y001513D01*
X000538Y001513D01*
X000444Y001419D01*
X000444Y000893D01*
X000538Y000799D01*
X001222Y000799D01*
X001312Y000889D01*
X001376Y000825D01*
X001508Y000770D01*
X001652Y000770D01*
X001784Y000825D01*
X001904Y000973D02*
X003050Y000973D01*
X003050Y001131D02*
X001940Y001131D01*
X001904Y001290D02*
X003099Y001290D01*
X003429Y001290D02*
X003505Y001290D01*
X003505Y001131D02*
X003429Y001131D01*
X003429Y000973D02*
X003505Y000973D01*
X003505Y000892D02*
X003883Y000892D01*
X003883Y000670D01*
X003871Y000624D01*
X003847Y000583D01*
X003813Y000550D01*
X003772Y000526D01*
X003727Y000514D01*
X003505Y000514D01*
X003505Y000892D01*
X003505Y000814D02*
X003429Y000814D01*
X003429Y000656D02*
X003505Y000656D01*
X003879Y000656D02*
X003897Y000656D01*
X003883Y000814D02*
X003897Y000814D01*
X003883Y000973D02*
X003897Y000973D01*
X003883Y001131D02*
X003897Y001131D01*
X003954Y001290D02*
X003834Y001290D01*
X003772Y001526D02*
X003727Y001514D01*
X003505Y001514D01*
X003505Y001892D01*
X003505Y001968D01*
X003883Y001968D01*
X003883Y002190D01*
X003871Y002236D01*
X003847Y002277D01*
X003813Y002310D01*
X003772Y002334D01*
X003727Y002346D01*
X003505Y002346D01*
X003505Y001968D01*
X003429Y001968D01*
X003429Y002346D01*
X003207Y002346D01*
X003161Y002334D01*
X003120Y002310D01*
X003086Y002277D01*
X003063Y002236D01*
X003050Y002190D01*
X003050Y001968D01*
X003428Y001968D01*
X003428Y001892D01*
X003050Y001892D01*
X003050Y001670D01*
X003063Y001624D01*
X003086Y001583D01*
X003120Y001550D01*
X003161Y001526D01*
X003207Y001514D01*
X003429Y001514D01*
X003429Y001892D01*
X003505Y001892D01*
X003883Y001892D01*
X003883Y001670D01*
X003871Y001624D01*
X003847Y001583D01*
X003813Y001550D01*
X003772Y001526D01*
X003860Y001607D02*
X003918Y001607D01*
X003897Y001765D02*
X003883Y001765D01*
X003897Y001924D02*
X003505Y001924D01*
X003428Y001924D02*
X001316Y001924D01*
X001316Y002082D02*
X003050Y002082D01*
X002866Y002199D02*
X002889Y002240D01*
X002902Y002286D01*
X002902Y002567D01*
X002514Y002567D01*
X002514Y002663D01*
X002902Y002663D01*
X002902Y002944D01*
X002889Y002990D01*
X002866Y003031D01*
X002832Y003064D01*
X002791Y003088D01*
X002745Y003100D01*
X002514Y003100D01*
X002514Y002663D01*
X002418Y002663D01*
X002418Y003100D01*
X002186Y003100D01*
X002140Y003088D01*
X002099Y003064D01*
X002066Y003031D01*
X002042Y002990D01*
X002030Y002944D01*
X002030Y002663D01*
X002418Y002663D01*
X002418Y002567D01*
X002514Y002567D01*
X002514Y002130D01*
X002745Y002130D01*
X002791Y002142D01*
X002832Y002166D01*
X002866Y002199D01*
X002889Y002241D02*
X003065Y002241D01*
X003161Y002426D02*
X003207Y002414D01*
X003429Y002414D01*
X003429Y002792D01*
X003505Y002792D01*
X003505Y002868D01*
X003883Y002868D01*
X003883Y003090D01*
X003871Y003136D01*
X003847Y003177D01*
X003813Y003210D01*
X003772Y003234D01*
X003727Y003246D01*
X003505Y003246D01*
X003505Y002868D01*
X003429Y002868D01*
X003429Y003246D01*
X003207Y003246D01*
X003161Y003234D01*
X003120Y003210D01*
X003086Y003177D01*
X003063Y003136D01*
X003050Y003090D01*
X003050Y002868D01*
X003428Y002868D01*
X003428Y002792D01*
X003050Y002792D01*
X003050Y002570D01*
X003063Y002524D01*
X003086Y002483D01*
X003120Y002450D01*
X003161Y002426D01*
X003054Y002558D02*
X002902Y002558D01*
X002902Y002399D02*
X004938Y002399D01*
X004849Y002558D02*
X004690Y002558D01*
X004682Y002241D02*
X004849Y002241D01*
X003905Y002241D02*
X003868Y002241D01*
X003883Y002082D02*
X003897Y002082D01*
X003505Y002082D02*
X003429Y002082D01*
X003429Y002241D02*
X003505Y002241D01*
X003505Y002414D02*
X003727Y002414D01*
X003772Y002426D01*
X003813Y002450D01*
X003847Y002483D01*
X003871Y002524D01*
X003883Y002570D01*
X003883Y002792D01*
X003505Y002792D01*
X003505Y002414D01*
X003505Y002558D02*
X003429Y002558D01*
X003429Y002716D02*
X003505Y002716D01*
X003505Y002875D02*
X003429Y002875D01*
X003429Y003033D02*
X003505Y003033D01*
X003505Y003192D02*
X003429Y003192D01*
X003429Y003414D02*
X003207Y003414D01*
X003161Y003426D01*
X003120Y003450D01*
X003086Y003483D01*
X003063Y003524D01*
X003050Y003570D01*
X003050Y003792D01*
X003428Y003792D01*
X003428Y003868D01*
X003050Y003868D01*
X003050Y004090D01*
X003063Y004136D01*
X003086Y004177D01*
X003120Y004210D01*
X003161Y004234D01*
X003207Y004246D01*
X003429Y004246D01*
X003429Y003868D01*
X003505Y003868D01*
X003883Y003868D01*
X003883Y004090D01*
X003871Y004136D01*
X003847Y004177D01*
X003813Y004210D01*
X003772Y004234D01*
X003727Y004246D01*
X003505Y004246D01*
X003505Y003868D01*
X003505Y003792D01*
X003883Y003792D01*
X003883Y003570D01*
X003871Y003524D01*
X003847Y003483D01*
X003813Y003450D01*
X003772Y003426D01*
X003727Y003414D01*
X003505Y003414D01*
X003505Y003792D01*
X003429Y003792D01*
X003429Y003414D01*
X003429Y003509D02*
X003505Y003509D01*
X003505Y003667D02*
X003429Y003667D01*
X003428Y003826D02*
X000904Y003826D01*
X000904Y003984D02*
X003050Y003984D01*
X003067Y004143D02*
X000904Y004143D01*
X000904Y004301D02*
X006229Y004301D01*
X006282Y004460D02*
X006388Y004460D01*
X006311Y004618D02*
X006470Y004618D01*
X006470Y004777D02*
X006311Y004777D01*
X006373Y004935D02*
X006470Y004935D01*
X007790Y004935D02*
X008488Y004935D01*
X008330Y004777D02*
X007790Y004777D01*
X007790Y004618D02*
X008018Y004618D01*
X007901Y004460D02*
X007790Y004460D01*
X007790Y004301D02*
X007850Y004301D01*
X007850Y004143D02*
X007790Y004143D01*
X007790Y003984D02*
X007908Y003984D01*
X007790Y003826D02*
X008035Y003826D01*
X007790Y003667D02*
X012994Y003667D01*
X012994Y003509D02*
X007790Y003509D01*
X007790Y003350D02*
X008250Y003350D01*
X008275Y003360D02*
X008080Y003279D01*
X007931Y003130D01*
X007850Y002935D01*
X007850Y002725D01*
X007931Y002530D01*
X008080Y002381D01*
X008275Y002300D01*
X008485Y002300D01*
X008680Y002381D01*
X008829Y002530D01*
X008880Y002652D01*
X008931Y002530D01*
X009080Y002381D01*
X009275Y002300D01*
X009485Y002300D01*
X009680Y002381D01*
X009829Y002530D01*
X009869Y002624D01*
X009870Y002619D01*
X009910Y002542D01*
X009960Y002472D01*
X010022Y002410D01*
X010092Y002360D01*
X010169Y002320D01*
X010251Y002294D01*
X010337Y002280D01*
X010360Y002280D01*
X010360Y002810D01*
X010400Y002810D01*
X010400Y002850D01*
X010360Y002850D01*
X010360Y003380D01*
X010337Y003380D01*
X010251Y003366D01*
X010169Y003340D01*
X010092Y003300D01*
X010022Y003250D01*
X009960Y003188D01*
X009910Y003118D01*
X009870Y003041D01*
X009869Y003036D01*
X009829Y003130D01*
X009680Y003279D01*
X009485Y003360D01*
X009275Y003360D01*
X009080Y003279D01*
X008931Y003130D01*
X008880Y003008D01*
X008829Y003130D01*
X008680Y003279D01*
X008485Y003360D01*
X008275Y003360D01*
X008510Y003350D02*
X009250Y003350D01*
X009510Y003350D02*
X010201Y003350D01*
X010360Y003350D02*
X010400Y003350D01*
X010400Y003380D02*
X010400Y002850D01*
X010930Y002850D01*
X010930Y002873D01*
X010916Y002959D01*
X010890Y003041D01*
X010850Y003118D01*
X010800Y003188D01*
X010738Y003250D01*
X010668Y003300D01*
X010591Y003340D01*
X010509Y003366D01*
X010423Y003380D01*
X010400Y003380D01*
X010559Y003350D02*
X013075Y003350D01*
X013088Y003363D02*
X012994Y003269D01*
X012994Y002743D01*
X013088Y002649D01*
X013110Y002649D01*
X013070Y002552D01*
X013070Y002408D01*
X013125Y002276D01*
X013226Y002175D01*
X013358Y002120D01*
X013502Y002120D01*
X013634Y002175D01*
X013735Y002276D01*
X013790Y002408D01*
X013790Y002552D01*
X013750Y002649D01*
X013772Y002649D01*
X013866Y002743D01*
X013866Y003269D01*
X013772Y003363D01*
X013088Y003363D01*
X012994Y003192D02*
X010796Y003192D01*
X010892Y003033D02*
X012994Y003033D01*
X012994Y002875D02*
X010930Y002875D01*
X010930Y002810D02*
X010400Y002810D01*
X010400Y002280D01*
X010423Y002280D01*
X010509Y002294D01*
X010591Y002320D01*
X010668Y002360D01*
X010738Y002410D01*
X010800Y002472D01*
X010850Y002542D01*
X010890Y002619D01*
X010916Y002701D01*
X010930Y002787D01*
X010930Y002810D01*
X010919Y002716D02*
X013021Y002716D01*
X013072Y002558D02*
X010858Y002558D01*
X010722Y002399D02*
X013074Y002399D01*
X013160Y002241D02*
X007090Y002241D01*
X007090Y002399D02*
X008061Y002399D01*
X007919Y002558D02*
X007090Y002558D01*
X007163Y002716D02*
X007854Y002716D01*
X007850Y002875D02*
X007321Y002875D01*
X007480Y003033D02*
X007890Y003033D01*
X007992Y003192D02*
X007638Y003192D01*
X007667Y003220D02*
X007667Y003220D01*
X008768Y003192D02*
X008992Y003192D01*
X008890Y003033D02*
X008870Y003033D01*
X009768Y003192D02*
X009964Y003192D01*
X010360Y003192D02*
X010400Y003192D01*
X010400Y003033D02*
X010360Y003033D01*
X010360Y002875D02*
X010400Y002875D01*
X010400Y002716D02*
X010360Y002716D01*
X010360Y002558D02*
X010400Y002558D01*
X010400Y002399D02*
X010360Y002399D01*
X010037Y002399D02*
X009699Y002399D01*
X009841Y002558D02*
X009902Y002558D01*
X009061Y002399D02*
X008699Y002399D01*
X008841Y002558D02*
X008919Y002558D01*
X009275Y001860D02*
X009080Y001779D01*
X008931Y001630D01*
X008880Y001508D01*
X008829Y001630D01*
X008680Y001779D01*
X008485Y001860D01*
X008275Y001860D01*
X008080Y001779D01*
X007931Y001630D01*
X007850Y001435D01*
X007850Y001225D01*
X007931Y001030D01*
X008080Y000881D01*
X008275Y000800D01*
X008485Y000800D01*
X008680Y000881D01*
X008829Y001030D01*
X008880Y001152D01*
X008931Y001030D01*
X009080Y000881D01*
X009275Y000800D01*
X009485Y000800D01*
X009680Y000881D01*
X009829Y001030D01*
X009880Y001152D01*
X009931Y001030D01*
X010080Y000881D01*
X010275Y000800D01*
X010485Y000800D01*
X010680Y000881D01*
X010829Y001030D01*
X010880Y001152D01*
X010931Y001030D01*
X011080Y000881D01*
X011275Y000800D01*
X011485Y000800D01*
X011680Y000881D01*
X011829Y001030D01*
X011910Y001225D01*
X011910Y001435D01*
X011829Y001630D01*
X011680Y001779D01*
X011485Y001860D01*
X011275Y001860D01*
X011080Y001779D01*
X010931Y001630D01*
X010880Y001508D01*
X010829Y001630D01*
X010680Y001779D01*
X010485Y001860D01*
X010275Y001860D01*
X010080Y001779D01*
X009931Y001630D01*
X009880Y001508D01*
X009829Y001630D01*
X009680Y001779D01*
X009485Y001860D01*
X009275Y001860D01*
X009065Y001765D02*
X008695Y001765D01*
X008839Y001607D02*
X008921Y001607D01*
X009695Y001765D02*
X010065Y001765D01*
X009921Y001607D02*
X009839Y001607D01*
X010695Y001765D02*
X011065Y001765D01*
X010921Y001607D02*
X010839Y001607D01*
X011695Y001765D02*
X014348Y001765D01*
X014393Y001720D02*
X014599Y001514D01*
X014789Y001514D01*
X014789Y001480D01*
X014882Y001387D01*
X015330Y001387D01*
X015423Y001480D01*
X015423Y001967D01*
X015330Y002061D01*
X014882Y002061D01*
X014789Y001967D01*
X014789Y001934D01*
X014773Y001934D01*
X014690Y002017D01*
X014690Y002648D01*
X015011Y002648D01*
X015105Y002741D01*
X015105Y003114D01*
X015055Y003163D01*
X015056Y003163D01*
X015089Y003197D01*
X015113Y003238D01*
X015125Y003284D01*
X015125Y003427D01*
X014510Y003427D01*
X014510Y003428D01*
X014510Y003628D01*
X014510Y003927D01*
X014510Y003428D01*
X014510Y003428D01*
X015125Y003428D01*
X015125Y003571D01*
X015113Y003617D01*
X015089Y003658D01*
X015070Y003678D01*
X015089Y003697D01*
X015113Y003738D01*
X015125Y003784D01*
X015125Y003927D01*
X014510Y003927D01*
X014510Y003927D01*
X014510Y003928D01*
X014510Y003927D01*
X013895Y003927D01*
X013895Y003784D01*
X013907Y003738D01*
X013931Y003697D01*
X013950Y003677D01*
X013931Y003658D01*
X013907Y003617D01*
X013895Y003571D01*
X013895Y003428D01*
X014510Y003428D01*
X014510Y003427D01*
X013895Y003427D01*
X013895Y003284D01*
X013907Y003238D01*
X013931Y003197D01*
X013964Y003163D01*
X013965Y003163D01*
X013915Y003114D01*
X013915Y002741D01*
X014009Y002648D01*
X014270Y002648D01*
X014270Y001843D01*
X014393Y001720D01*
X014507Y001607D02*
X011839Y001607D01*
X011905Y001448D02*
X014821Y001448D01*
X015212Y001218D02*
X015253Y001242D01*
X015299Y001254D01*
X015480Y001254D01*
X015480Y000897D01*
X015480Y000897D01*
X015480Y001254D01*
X015661Y001254D01*
X015707Y001242D01*
X015748Y001218D01*
X015782Y001185D01*
X015805Y001144D01*
X015817Y001098D01*
X015817Y000897D01*
X015480Y000897D01*
X015480Y000897D01*
X015480Y000897D01*
X015143Y000897D01*
X015143Y001098D01*
X015155Y001144D01*
X015178Y001185D01*
X015212Y001218D01*
X015151Y001131D02*
X011871Y001131D01*
X011910Y001290D02*
X017761Y001290D01*
X017776Y001275D02*
X017908Y001220D01*
X018052Y001220D01*
X018184Y001275D01*
X018279Y001370D01*
X018649Y001370D01*
X018649Y001238D01*
X018743Y001144D01*
X019269Y001144D01*
X019363Y001238D01*
X019363Y001922D01*
X019269Y002016D01*
X018743Y002016D01*
X018649Y001922D01*
X018649Y001790D01*
X018279Y001790D01*
X018184Y001885D01*
X018052Y001940D01*
X017908Y001940D01*
X017776Y001885D01*
X017681Y001790D01*
X016171Y001790D01*
X016171Y001967D01*
X016078Y002061D01*
X015630Y002061D01*
X015537Y001967D01*
X015537Y001480D01*
X015630Y001387D01*
X015894Y001387D01*
X015911Y001370D01*
X017681Y001370D01*
X017776Y001275D01*
X018199Y001290D02*
X018649Y001290D01*
X019363Y001290D02*
X019397Y001290D01*
X019397Y001238D02*
X019491Y001144D01*
X020017Y001144D01*
X020111Y001238D01*
X020111Y001922D01*
X020017Y002016D01*
X019944Y002016D01*
X019944Y002251D01*
X020012Y002319D01*
X020012Y002924D01*
X019919Y003018D01*
X019550Y003018D01*
X019456Y002924D01*
X019456Y002319D01*
X019524Y002251D01*
X019524Y002016D01*
X019491Y002016D01*
X019397Y001922D01*
X019397Y001238D01*
X019397Y001448D02*
X019363Y001448D01*
X019363Y001607D02*
X019397Y001607D01*
X019397Y001765D02*
X019363Y001765D01*
X019361Y001924D02*
X019399Y001924D01*
X019524Y002082D02*
X014690Y002082D01*
X014690Y002241D02*
X018826Y002241D01*
X018748Y002399D02*
X014690Y002399D01*
X014690Y002558D02*
X017480Y002558D01*
X017444Y002716D02*
X017140Y002716D01*
X016000Y002716D02*
X015080Y002716D01*
X015105Y002875D02*
X015975Y002875D01*
X015975Y003033D02*
X015105Y003033D01*
X015084Y003192D02*
X015996Y003192D01*
X015955Y003350D02*
X015125Y003350D01*
X015125Y003509D02*
X015955Y003509D01*
X016000Y003667D02*
X015821Y003667D01*
X015474Y003667D02*
X015080Y003667D01*
X015125Y003826D02*
X015324Y003826D01*
X015288Y003984D02*
X015125Y003984D01*
X015098Y004143D02*
X015323Y004143D01*
X015470Y004301D02*
X015105Y004301D01*
X015105Y004460D02*
X015975Y004460D01*
X015979Y004618D02*
X015101Y004618D01*
X015825Y004301D02*
X015975Y004301D01*
X015972Y004143D02*
X016004Y004143D01*
X017165Y003826D02*
X017425Y003826D01*
X017424Y003825D02*
X017424Y003622D01*
X017862Y003622D01*
X017862Y003586D01*
X017898Y003586D01*
X017898Y003622D01*
X017862Y003622D01*
X017862Y003981D01*
X017581Y003981D01*
X017535Y003969D01*
X017494Y003945D01*
X017460Y003911D01*
X017437Y003870D01*
X017424Y003825D01*
X017256Y003984D02*
X018748Y003984D01*
X018748Y003826D02*
X018335Y003826D01*
X018336Y003825D02*
X018323Y003870D01*
X018300Y003911D01*
X018266Y003945D01*
X018225Y003969D01*
X018179Y003981D01*
X017898Y003981D01*
X017898Y003622D01*
X018336Y003622D01*
X018336Y003825D01*
X018336Y003667D02*
X018817Y003667D01*
X019235Y003667D02*
X019497Y003667D01*
X019506Y003658D02*
X019547Y003635D01*
X019593Y003622D01*
X019734Y003622D01*
X019734Y004039D01*
X019734Y004455D01*
X019593Y004455D01*
X019547Y004443D01*
X019506Y004419D01*
X019472Y004385D01*
X019448Y004344D01*
X019436Y004299D01*
X019436Y004039D01*
X019734Y004039D01*
X019734Y004039D01*
X019734Y004039D01*
X019734Y004455D01*
X019876Y004455D01*
X019922Y004443D01*
X019963Y004419D01*
X019996Y004385D01*
X020020Y004344D01*
X020032Y004299D01*
X020032Y004039D01*
X019734Y004039D01*
X019436Y004039D01*
X019436Y003779D01*
X019448Y003733D01*
X019472Y003692D01*
X019506Y003658D01*
X019436Y003826D02*
X019304Y003826D01*
X019304Y003984D02*
X019436Y003984D01*
X019436Y004143D02*
X019304Y004143D01*
X019304Y004301D02*
X019437Y004301D01*
X019311Y004460D02*
X020380Y004460D01*
X020380Y004618D02*
X019316Y004618D01*
X019463Y004777D02*
X019478Y004777D01*
X019463Y004935D02*
X019477Y004935D01*
X019836Y004935D02*
X019872Y004935D01*
X019872Y004777D02*
X019836Y004777D01*
X020230Y004777D02*
X020380Y004777D01*
X020380Y004935D02*
X020231Y004935D01*
X020380Y004301D02*
X020032Y004301D01*
X019734Y004301D02*
X019734Y004301D01*
X019734Y004143D02*
X019734Y004143D01*
X019734Y004039D02*
X019734Y004039D01*
X019734Y004039D01*
X020032Y004039D01*
X020032Y003779D01*
X020020Y003733D01*
X019996Y003692D01*
X019963Y003658D01*
X019922Y003635D01*
X019876Y003622D01*
X019734Y003622D01*
X019734Y004039D01*
X019734Y003984D02*
X019734Y003984D01*
X019734Y003826D02*
X019734Y003826D01*
X020032Y003826D02*
X020380Y003826D01*
X020380Y003984D02*
X020032Y003984D01*
X020032Y004143D02*
X020380Y004143D01*
X020380Y003667D02*
X019972Y003667D01*
X019734Y003667D02*
X019734Y003667D01*
X020380Y003509D02*
X018336Y003509D01*
X018336Y003586D02*
X018336Y003383D01*
X018323Y003338D01*
X018300Y003297D01*
X018266Y003263D01*
X018225Y003239D01*
X018179Y003227D01*
X017898Y003227D01*
X017898Y003586D01*
X018336Y003586D01*
X017898Y003509D02*
X017862Y003509D01*
X017862Y003586D02*
X017862Y003227D01*
X017581Y003227D01*
X017535Y003239D01*
X017494Y003263D01*
X017460Y003297D01*
X017437Y003338D01*
X017424Y003383D01*
X017424Y003586D01*
X017862Y003586D01*
X017862Y003667D02*
X017898Y003667D01*
X017898Y003826D02*
X017862Y003826D01*
X017424Y003667D02*
X017140Y003667D01*
X017185Y003509D02*
X017424Y003509D01*
X017433Y003350D02*
X017185Y003350D01*
X017144Y003192D02*
X017517Y003192D01*
X017862Y003350D02*
X017898Y003350D01*
X018243Y003192D02*
X020380Y003192D01*
X020380Y003350D02*
X018327Y003350D01*
X018872Y003033D02*
X020380Y003033D01*
X020380Y002875D02*
X020012Y002875D01*
X020012Y002716D02*
X020380Y002716D01*
X020380Y002558D02*
X020012Y002558D01*
X020012Y002399D02*
X020380Y002399D01*
X020380Y002241D02*
X019944Y002241D01*
X019944Y002082D02*
X020380Y002082D01*
X020380Y001924D02*
X020109Y001924D01*
X020111Y001765D02*
X020380Y001765D01*
X020380Y001607D02*
X020111Y001607D01*
X020111Y001448D02*
X020380Y001448D01*
X020380Y001290D02*
X020111Y001290D01*
X020380Y001131D02*
X015809Y001131D01*
X015817Y000973D02*
X020380Y000973D01*
X020380Y000814D02*
X015817Y000814D01*
X015817Y000897D02*
X015480Y000897D01*
X015143Y000897D01*
X015143Y000696D01*
X015155Y000650D01*
X015178Y000609D01*
X015212Y000576D01*
X015253Y000552D01*
X015299Y000540D01*
X015480Y000540D01*
X015661Y000540D01*
X015707Y000552D01*
X015748Y000576D01*
X015782Y000609D01*
X015805Y000650D01*
X015817Y000696D01*
X015817Y000897D01*
X015480Y000897D02*
X015480Y000540D01*
X015480Y000897D01*
X015480Y000897D01*
X015480Y000973D02*
X015480Y000973D01*
X015480Y000814D02*
X015480Y000814D01*
X015480Y000656D02*
X015480Y000656D01*
X015807Y000656D02*
X020371Y000656D01*
X020376Y000497D02*
X006220Y000497D01*
X006311Y000656D02*
X015153Y000656D01*
X015143Y000814D02*
X011519Y000814D01*
X011241Y000814D02*
X010519Y000814D01*
X010241Y000814D02*
X009519Y000814D01*
X009241Y000814D02*
X008519Y000814D01*
X008772Y000973D02*
X008988Y000973D01*
X008889Y001131D02*
X008871Y001131D01*
X008241Y000814D02*
X006311Y000814D01*
X006319Y000973D02*
X007988Y000973D01*
X007889Y001131D02*
X006478Y001131D01*
X006636Y001290D02*
X007850Y001290D01*
X007855Y001448D02*
X006795Y001448D01*
X006953Y001607D02*
X007921Y001607D01*
X008065Y001765D02*
X007090Y001765D01*
X007090Y001924D02*
X014270Y001924D01*
X014270Y002082D02*
X007090Y002082D01*
X006670Y002082D02*
X006429Y002082D01*
X006311Y001924D02*
X006670Y001924D01*
X006518Y001765D02*
X006311Y001765D01*
X006311Y001607D02*
X006360Y001607D01*
X006201Y001448D02*
X001753Y001448D01*
X001407Y001448D02*
X001287Y001448D01*
X001281Y001607D02*
X003073Y001607D01*
X003050Y001765D02*
X001316Y001765D01*
X000479Y001607D02*
X000380Y001607D01*
X000380Y001765D02*
X000444Y001765D01*
X000444Y001924D02*
X000380Y001924D01*
X000380Y002082D02*
X000444Y002082D01*
X001242Y002241D02*
X002042Y002241D01*
X002042Y002240D02*
X002066Y002199D01*
X002099Y002166D01*
X002140Y002142D01*
X002186Y002130D01*
X002418Y002130D01*
X002418Y002567D01*
X002030Y002567D01*
X002030Y002286D01*
X002042Y002240D01*
X002030Y002399D02*
X001110Y002399D01*
X001110Y002558D02*
X002030Y002558D01*
X002030Y002716D02*
X001110Y002716D01*
X001110Y002875D02*
X002030Y002875D01*
X002068Y003033D02*
X001064Y003033D01*
X000904Y003192D02*
X003101Y003192D01*
X003050Y003033D02*
X002863Y003033D01*
X002514Y003033D02*
X002418Y003033D01*
X002418Y002875D02*
X002514Y002875D01*
X002902Y002875D02*
X003050Y002875D01*
X003050Y002716D02*
X002902Y002716D01*
X002514Y002716D02*
X002418Y002716D01*
X002418Y002558D02*
X002514Y002558D01*
X002514Y002399D02*
X002418Y002399D01*
X002418Y002241D02*
X002514Y002241D01*
X003429Y001765D02*
X003505Y001765D01*
X003505Y001607D02*
X003429Y001607D01*
X004669Y001607D02*
X004849Y001607D01*
X004867Y001290D02*
X004633Y001290D01*
X004690Y000656D02*
X004849Y000656D01*
X001402Y000814D02*
X001237Y000814D01*
X000523Y000814D02*
X000380Y000814D01*
X000380Y000973D02*
X000444Y000973D01*
X000444Y001131D02*
X000380Y001131D01*
X000380Y001290D02*
X000444Y001290D01*
X000473Y001448D02*
X000380Y001448D01*
X003879Y002558D02*
X003897Y002558D01*
X003883Y002716D02*
X003897Y002716D01*
X003883Y002875D02*
X003897Y002875D01*
X003883Y003033D02*
X003897Y003033D01*
X003956Y003192D02*
X003832Y003192D01*
X003861Y003509D02*
X003916Y003509D01*
X003897Y003667D02*
X003883Y003667D01*
X003897Y003826D02*
X003505Y003826D01*
X003505Y003984D02*
X003429Y003984D01*
X003429Y004143D02*
X003505Y004143D01*
X003867Y004143D02*
X003907Y004143D01*
X003897Y003984D02*
X003883Y003984D01*
X004680Y004143D02*
X004849Y004143D01*
X004878Y004460D02*
X004622Y004460D01*
X004690Y004618D02*
X004849Y004618D01*
X003965Y004460D02*
X003823Y004460D01*
X003813Y004450D02*
X003847Y004483D01*
X003871Y004524D01*
X003883Y004570D01*
X003883Y004792D01*
X003505Y004792D01*
X003505Y004868D01*
X003883Y004868D01*
X003883Y005090D01*
X003871Y005136D01*
X003847Y005177D01*
X003813Y005210D01*
X003772Y005234D01*
X003727Y005246D01*
X003505Y005246D01*
X003505Y004868D01*
X003429Y004868D01*
X003429Y005246D01*
X003207Y005246D01*
X003161Y005234D01*
X003120Y005210D01*
X003086Y005177D01*
X003063Y005136D01*
X003050Y005090D01*
X003050Y004868D01*
X003428Y004868D01*
X003428Y004792D01*
X003050Y004792D01*
X003050Y004570D01*
X003063Y004524D01*
X003086Y004483D01*
X003120Y004450D01*
X003161Y004426D01*
X003207Y004414D01*
X003429Y004414D01*
X003429Y004792D01*
X003505Y004792D01*
X003505Y004414D01*
X003727Y004414D01*
X003772Y004426D01*
X003813Y004450D01*
X003883Y004618D02*
X003897Y004618D01*
X003883Y004777D02*
X003897Y004777D01*
X003883Y004935D02*
X003897Y004935D01*
X003882Y005094D02*
X003897Y005094D01*
X003505Y005094D02*
X003429Y005094D01*
X003429Y004935D02*
X003505Y004935D01*
X003505Y004777D02*
X003429Y004777D01*
X003429Y004618D02*
X003505Y004618D01*
X003505Y004460D02*
X003429Y004460D01*
X003110Y004460D02*
X000904Y004460D01*
X000904Y004618D02*
X003050Y004618D01*
X003050Y004777D02*
X000904Y004777D01*
X000904Y004935D02*
X003050Y004935D01*
X003051Y005094D02*
X000904Y005094D01*
X000904Y005252D02*
X004929Y005252D01*
X004927Y005411D02*
X002900Y005411D01*
X002902Y005569D02*
X003051Y005569D01*
X002514Y005569D02*
X002418Y005569D01*
X002418Y005411D02*
X002514Y005411D01*
X002031Y005411D02*
X001110Y005411D01*
X001110Y005569D02*
X002030Y005569D01*
X002902Y005886D02*
X003050Y005886D01*
X003050Y006045D02*
X002902Y006045D01*
X004619Y006203D02*
X004880Y006203D01*
X004849Y006045D02*
X004690Y006045D01*
X004690Y005569D02*
X004849Y005569D01*
X004849Y005094D02*
X004690Y005094D01*
X007790Y005094D02*
X008647Y005094D01*
X008611Y005252D02*
X008805Y005252D01*
X008810Y005411D02*
X008950Y005411D01*
X008149Y005252D02*
X007790Y005252D01*
X007790Y005411D02*
X007950Y005411D01*
X007873Y005569D02*
X007790Y005569D01*
X007790Y005728D02*
X007850Y005728D01*
X007833Y005886D02*
X007871Y005886D01*
X008815Y006045D02*
X008945Y006045D01*
X010264Y006679D02*
X010496Y006679D01*
X010414Y006837D02*
X010346Y006837D01*
X010365Y006996D02*
X010395Y006996D01*
X010427Y007154D02*
X010333Y007154D01*
X010233Y007313D02*
X010527Y007313D01*
X011233Y007313D02*
X011527Y007313D01*
X011427Y007154D02*
X011333Y007154D01*
X011365Y006996D02*
X011395Y006996D01*
X011414Y006837D02*
X011346Y006837D01*
X011264Y006679D02*
X011496Y006679D01*
X012264Y006679D02*
X012475Y006679D01*
X012860Y006679D02*
X012900Y006679D01*
X013285Y006679D02*
X013496Y006679D01*
X013414Y006837D02*
X013365Y006837D01*
X013395Y006996D02*
X012900Y006996D01*
X012860Y006996D02*
X012365Y006996D01*
X012346Y006837D02*
X012395Y006837D01*
X012860Y006837D02*
X012900Y006837D01*
X012900Y007154D02*
X012860Y007154D01*
X012860Y007313D02*
X012900Y007313D01*
X013262Y007313D02*
X013527Y007313D01*
X013427Y007154D02*
X013354Y007154D01*
X013155Y007569D02*
X012976Y007495D01*
X012784Y007495D01*
X012605Y007569D01*
X012469Y007705D01*
X012395Y007884D01*
X012395Y008076D01*
X012469Y008255D01*
X012605Y008391D01*
X012784Y008465D01*
X012976Y008465D01*
X013155Y008391D01*
X013291Y008255D01*
X013365Y008076D01*
X013365Y007884D01*
X013291Y007705D01*
X013155Y007569D01*
X013215Y007630D02*
X013545Y007630D01*
X013605Y007569D02*
X013784Y007495D01*
X013976Y007495D01*
X014155Y007569D01*
X014291Y007705D01*
X014365Y007884D01*
X014365Y008076D01*
X014291Y008255D01*
X014155Y008391D01*
X013976Y008465D01*
X013784Y008465D01*
X013605Y008391D01*
X013469Y008255D01*
X013395Y008076D01*
X013395Y007884D01*
X013469Y007705D01*
X013605Y007569D01*
X013435Y007788D02*
X013325Y007788D01*
X013365Y007947D02*
X013395Y007947D01*
X013407Y008105D02*
X013353Y008105D01*
X013282Y008264D02*
X013478Y008264D01*
X013680Y008422D02*
X013080Y008422D01*
X012680Y008422D02*
X012080Y008422D01*
X012155Y008391D02*
X011976Y008465D01*
X011784Y008465D01*
X011605Y008391D01*
X011469Y008255D01*
X011395Y008076D01*
X011395Y007884D01*
X011469Y007705D01*
X011605Y007569D01*
X011784Y007495D01*
X011976Y007495D01*
X012155Y007569D01*
X012291Y007705D01*
X012365Y007884D01*
X012365Y008076D01*
X012291Y008255D01*
X012155Y008391D01*
X012282Y008264D02*
X012478Y008264D01*
X012407Y008105D02*
X012353Y008105D01*
X012365Y007947D02*
X012395Y007947D01*
X012435Y007788D02*
X012325Y007788D01*
X012215Y007630D02*
X012545Y007630D01*
X012757Y007471D02*
X008590Y007471D01*
X006462Y008264D02*
X006282Y008264D01*
X006353Y008105D02*
X006390Y008105D01*
X006635Y008422D02*
X006080Y008422D01*
X011080Y008422D02*
X011680Y008422D01*
X011478Y008264D02*
X011282Y008264D01*
X011353Y008105D02*
X011407Y008105D01*
X011395Y007947D02*
X011365Y007947D01*
X011325Y007788D02*
X011435Y007788D01*
X011545Y007630D02*
X011215Y007630D01*
X012233Y007313D02*
X012498Y007313D01*
X012406Y007154D02*
X012333Y007154D01*
X012860Y007471D02*
X012900Y007471D01*
X013003Y007471D02*
X019757Y007471D01*
X019784Y007495D02*
X019976Y007495D01*
X020155Y007569D01*
X020291Y007705D01*
X020365Y007884D01*
X020365Y008076D01*
X020291Y008255D01*
X020155Y008391D01*
X019976Y008465D01*
X019784Y008465D01*
X019605Y008391D01*
X019469Y008255D01*
X019395Y008076D01*
X019395Y007884D01*
X019469Y007705D01*
X019605Y007569D01*
X019784Y007495D01*
X019860Y007471D02*
X019900Y007471D01*
X020003Y007471D02*
X020380Y007471D01*
X020380Y007313D02*
X020262Y007313D01*
X020354Y007154D02*
X020380Y007154D01*
X020365Y006837D02*
X020380Y006837D01*
X020380Y006679D02*
X020285Y006679D01*
X019900Y006679D02*
X019860Y006679D01*
X019860Y006837D02*
X019900Y006837D01*
X019860Y006996D02*
X019365Y006996D01*
X019346Y006837D02*
X019395Y006837D01*
X019475Y006679D02*
X019264Y006679D01*
X018496Y006679D02*
X018264Y006679D01*
X018346Y006837D02*
X018414Y006837D01*
X018395Y006996D02*
X018365Y006996D01*
X018333Y007154D02*
X018427Y007154D01*
X018527Y007313D02*
X018233Y007313D01*
X018155Y007569D02*
X017976Y007495D01*
X017784Y007495D01*
X017605Y007569D01*
X017469Y007705D01*
X017395Y007884D01*
X017395Y008076D01*
X017469Y008255D01*
X017605Y008391D01*
X017784Y008465D01*
X017976Y008465D01*
X018155Y008391D01*
X018291Y008255D01*
X018365Y008076D01*
X018365Y007884D01*
X018291Y007705D01*
X018155Y007569D01*
X018215Y007630D02*
X018545Y007630D01*
X018605Y007569D02*
X018784Y007495D01*
X018976Y007495D01*
X019155Y007569D01*
X019291Y007705D01*
X019365Y007884D01*
X019365Y008076D01*
X019291Y008255D01*
X019155Y008391D01*
X018976Y008465D01*
X018784Y008465D01*
X018605Y008391D01*
X018469Y008255D01*
X018395Y008076D01*
X018395Y007884D01*
X018469Y007705D01*
X018605Y007569D01*
X018435Y007788D02*
X018325Y007788D01*
X018365Y007947D02*
X018395Y007947D01*
X018407Y008105D02*
X018353Y008105D01*
X018282Y008264D02*
X018478Y008264D01*
X018680Y008422D02*
X018080Y008422D01*
X017680Y008422D02*
X017125Y008422D01*
X017298Y008264D02*
X017478Y008264D01*
X017407Y008105D02*
X017370Y008105D01*
X017385Y007960D02*
X016900Y007960D01*
X016900Y007475D01*
X016920Y007475D01*
X016998Y007487D01*
X017074Y007512D01*
X017145Y007548D01*
X017209Y007595D01*
X017265Y007651D01*
X017312Y007715D01*
X017348Y007786D01*
X017373Y007862D01*
X017385Y007940D01*
X017385Y007960D01*
X017385Y007947D02*
X017395Y007947D01*
X017435Y007788D02*
X017349Y007788D01*
X017244Y007630D02*
X017545Y007630D01*
X016900Y007630D02*
X016860Y007630D01*
X016860Y007788D02*
X016900Y007788D01*
X016900Y007947D02*
X016860Y007947D01*
X016860Y007960D02*
X016860Y007475D01*
X016840Y007475D01*
X016762Y007487D01*
X016686Y007512D01*
X016615Y007548D01*
X016551Y007595D01*
X016495Y007651D01*
X016448Y007715D01*
X016412Y007786D01*
X016387Y007862D01*
X016375Y007940D01*
X016375Y007960D01*
X016860Y007960D01*
X016411Y007788D02*
X016325Y007788D01*
X016291Y007705D02*
X016365Y007884D01*
X016365Y008076D01*
X016291Y008255D01*
X016155Y008391D01*
X015976Y008465D01*
X015784Y008465D01*
X015605Y008391D01*
X015469Y008255D01*
X015395Y008076D01*
X015395Y007884D01*
X015469Y007705D01*
X015605Y007569D01*
X015784Y007495D01*
X015976Y007495D01*
X016155Y007569D01*
X016291Y007705D01*
X016215Y007630D02*
X016516Y007630D01*
X016375Y007947D02*
X016365Y007947D01*
X016353Y008105D02*
X016390Y008105D01*
X016462Y008264D02*
X016282Y008264D01*
X016080Y008422D02*
X016635Y008422D01*
X015680Y008422D02*
X015125Y008422D01*
X015298Y008264D02*
X015478Y008264D01*
X015407Y008105D02*
X015370Y008105D01*
X015385Y007960D02*
X014900Y007960D01*
X014900Y007475D01*
X014920Y007475D01*
X014998Y007487D01*
X015074Y007512D01*
X015145Y007548D01*
X015209Y007595D01*
X015265Y007651D01*
X015312Y007715D01*
X015348Y007786D01*
X015373Y007862D01*
X015385Y007940D01*
X015385Y007960D01*
X015385Y007947D02*
X015395Y007947D01*
X015435Y007788D02*
X015349Y007788D01*
X015244Y007630D02*
X015545Y007630D01*
X014900Y007630D02*
X014860Y007630D01*
X014860Y007788D02*
X014900Y007788D01*
X014900Y007947D02*
X014860Y007947D01*
X014860Y007960D02*
X014860Y007475D01*
X014840Y007475D01*
X014762Y007487D01*
X014686Y007512D01*
X014615Y007548D01*
X014551Y007595D01*
X014495Y007651D01*
X014448Y007715D01*
X014412Y007786D01*
X014387Y007862D01*
X014375Y007940D01*
X014375Y007960D01*
X014860Y007960D01*
X014411Y007788D02*
X014325Y007788D01*
X014215Y007630D02*
X014516Y007630D01*
X014375Y007947D02*
X014365Y007947D01*
X014353Y008105D02*
X014390Y008105D01*
X014462Y008264D02*
X014282Y008264D01*
X014080Y008422D02*
X014635Y008422D01*
X014527Y007313D02*
X014233Y007313D01*
X014333Y007154D02*
X014427Y007154D01*
X014395Y006996D02*
X014365Y006996D01*
X014346Y006837D02*
X014414Y006837D01*
X014496Y006679D02*
X014264Y006679D01*
X015264Y006679D02*
X015496Y006679D01*
X015414Y006837D02*
X015346Y006837D01*
X015365Y006996D02*
X015395Y006996D01*
X015427Y007154D02*
X015333Y007154D01*
X015233Y007313D02*
X015527Y007313D01*
X016233Y007313D02*
X016527Y007313D01*
X016427Y007154D02*
X016333Y007154D01*
X016365Y006996D02*
X016395Y006996D01*
X016414Y006837D02*
X016346Y006837D01*
X016264Y006679D02*
X016496Y006679D01*
X017264Y006679D02*
X017496Y006679D01*
X017414Y006837D02*
X017346Y006837D01*
X017365Y006996D02*
X017395Y006996D01*
X017427Y007154D02*
X017333Y007154D01*
X017233Y007313D02*
X017527Y007313D01*
X019233Y007313D02*
X019498Y007313D01*
X019406Y007154D02*
X019333Y007154D01*
X019860Y007154D02*
X019900Y007154D01*
X019900Y007313D02*
X019860Y007313D01*
X019545Y007630D02*
X019215Y007630D01*
X019325Y007788D02*
X019435Y007788D01*
X019395Y007947D02*
X019365Y007947D01*
X019353Y008105D02*
X019407Y008105D01*
X019478Y008264D02*
X019282Y008264D01*
X019080Y008422D02*
X019680Y008422D01*
X020080Y008422D02*
X020369Y008422D01*
X020380Y008264D02*
X020282Y008264D01*
X020353Y008105D02*
X020380Y008105D01*
X020365Y007947D02*
X020380Y007947D01*
X020380Y007788D02*
X020325Y007788D01*
X020380Y007630D02*
X020215Y007630D01*
X018097Y005411D02*
X018074Y005411D01*
X018083Y005252D02*
X018097Y005252D01*
X018083Y004935D02*
X018097Y004935D01*
X018082Y004777D02*
X018097Y004777D01*
X017724Y004777D02*
X017688Y004777D01*
X017440Y004618D02*
X018875Y004618D01*
X017724Y004935D02*
X017688Y004935D01*
X016408Y004777D02*
X008923Y004777D01*
X009018Y004618D02*
X008765Y004618D01*
X008859Y004460D02*
X008901Y004460D01*
X009910Y004143D02*
X013220Y004143D01*
X012994Y003984D02*
X009852Y003984D01*
X009725Y003826D02*
X012994Y003826D01*
X013640Y004143D02*
X013922Y004143D01*
X013895Y003984D02*
X013866Y003984D01*
X013866Y003826D02*
X013895Y003826D01*
X013866Y003667D02*
X013940Y003667D01*
X013895Y003509D02*
X013866Y003509D01*
X013895Y003350D02*
X013785Y003350D01*
X013866Y003192D02*
X013936Y003192D01*
X013915Y003033D02*
X013866Y003033D01*
X013866Y002875D02*
X013915Y002875D01*
X013940Y002716D02*
X013839Y002716D01*
X013788Y002558D02*
X014270Y002558D01*
X014270Y002399D02*
X013786Y002399D01*
X013700Y002241D02*
X014270Y002241D01*
X015423Y001924D02*
X015537Y001924D01*
X015537Y001765D02*
X015423Y001765D01*
X015423Y001607D02*
X015537Y001607D01*
X015569Y001448D02*
X015391Y001448D01*
X015480Y001131D02*
X015480Y001131D01*
X015143Y000973D02*
X011772Y000973D01*
X010988Y000973D02*
X010772Y000973D01*
X010871Y001131D02*
X010889Y001131D01*
X009988Y000973D02*
X009772Y000973D01*
X009871Y001131D02*
X009889Y001131D01*
X006670Y002241D02*
X006587Y002241D01*
X004869Y003192D02*
X004631Y003192D01*
X004671Y003509D02*
X004849Y003509D01*
X006103Y003350D02*
X000904Y003350D01*
X000904Y003509D02*
X003072Y003509D01*
X003050Y003667D02*
X000904Y003667D01*
X008725Y003826D02*
X009035Y003826D01*
X008908Y003984D02*
X008852Y003984D01*
X013293Y004640D02*
X013293Y004640D01*
X013467Y004640D02*
X013467Y004640D01*
X014510Y003826D02*
X014510Y003826D01*
X014510Y003667D02*
X014510Y003667D01*
X014510Y003509D02*
X014510Y003509D01*
X016171Y001924D02*
X017869Y001924D01*
X018091Y001924D02*
X018651Y001924D01*
X019225Y002241D02*
X019524Y002241D01*
X019456Y002399D02*
X019304Y002399D01*
X019304Y002558D02*
X019456Y002558D01*
X019456Y002716D02*
X019304Y002716D01*
X019304Y002875D02*
X019456Y002875D01*
X018748Y002558D02*
X018280Y002558D01*
X018316Y002716D02*
X018596Y002716D01*
D23*
X018674Y002927D02*
X019026Y002621D01*
X018674Y002927D02*
X017880Y002927D01*
X017880Y002856D01*
X017880Y002927D02*
X016570Y002927D01*
X016570Y002928D01*
X014510Y002928D02*
X014480Y002898D01*
X014480Y001930D01*
X014686Y001724D01*
X015106Y001724D01*
X015854Y001724D02*
X015998Y001580D01*
X017980Y001580D01*
X019006Y001580D01*
X019723Y001773D02*
X019754Y001580D01*
X019734Y001773D02*
X019734Y002621D01*
X019723Y001773D02*
X019734Y001773D01*
X015860Y001730D02*
X015854Y001724D01*
X013430Y002480D02*
X013430Y003006D01*
X013430Y003754D02*
X013430Y004380D01*
X013380Y004430D01*
X014510Y004428D01*
X013380Y004430D02*
X009580Y004430D01*
X009380Y004230D01*
X008980Y005130D02*
X008380Y004530D01*
X008380Y004230D01*
X007280Y003730D02*
X006480Y002930D01*
X006480Y002430D01*
X005980Y001930D01*
X005954Y001930D01*
X005206Y001930D02*
X004293Y001930D01*
X004293Y002830D02*
X005206Y002830D01*
X005932Y002894D02*
X005944Y002894D01*
X006980Y003930D01*
X006980Y006280D01*
X007380Y006680D01*
X007380Y007680D01*
X007680Y007980D01*
X007880Y007980D01*
X008380Y007780D02*
X008580Y007980D01*
X008880Y007980D01*
X008380Y007780D02*
X008380Y006730D01*
X007580Y005930D01*
X007580Y003430D01*
X006880Y002730D01*
X006880Y001830D01*
X005993Y000943D01*
X005980Y000943D01*
X005206Y000930D02*
X004293Y000930D01*
X001580Y001130D02*
X000906Y001130D01*
X000880Y001156D01*
X000880Y001904D02*
X000880Y002429D01*
X000694Y002615D01*
X000694Y005745D01*
X000694Y006194D01*
X000880Y006380D01*
X003780Y006380D01*
X003880Y006480D01*
X003880Y006980D01*
X005880Y006980D02*
X005880Y005904D01*
X005954Y005830D01*
X005206Y005830D02*
X004293Y005830D01*
X005954Y004830D02*
X006380Y005230D01*
X006380Y007680D01*
X006080Y007980D01*
X005880Y007980D01*
X006880Y006980D02*
X006680Y006743D01*
X006680Y004455D01*
X006055Y003830D01*
X005954Y003830D01*
X005206Y003830D02*
X004293Y003830D01*
X004293Y004830D02*
X005206Y004830D01*
X007280Y003730D02*
X007280Y006130D01*
X007880Y006730D01*
X007880Y006980D01*
X008980Y005130D02*
X013480Y005130D01*
X013380Y005230D01*
X013380Y005704D01*
X013406Y005730D01*
X014154Y005730D02*
X016930Y005730D01*
X017230Y005430D01*
X017230Y004255D01*
X018809Y004255D01*
X019106Y004552D01*
X019106Y005080D01*
X019106Y005704D01*
X018980Y005830D01*
X016618Y004993D02*
X016480Y005130D01*
X013480Y005130D01*
X015648Y003985D02*
X015705Y003928D01*
X016570Y003928D01*
X016598Y003955D01*
X016930Y003955D01*
X017230Y004255D01*
X016618Y004475D02*
X016618Y004993D01*
X016618Y004475D02*
X016570Y004428D01*
X018809Y004255D02*
X019026Y004039D01*
X018980Y004038D01*
D24*
X015648Y003985D03*
X013430Y002480D03*
X017980Y001580D03*
X018980Y005830D03*
X001580Y001130D03*
M02*
