G75*
%MOIN*%
%OFA0B0*%
%FSLAX24Y24*%
%IPPOS*%
%LPD*%
%AMOC8*
5,1,8,0,0,1.08239X$1,22.5*
%
%ADD10C,0.0650*%
%ADD11R,0.0650X0.0650*%
%ADD12C,0.0740*%
%ADD13C,0.0100*%
%ADD14C,0.0160*%
%ADD15C,0.0400*%
D10*
X002300Y007320D03*
X003300Y007320D03*
X004300Y007320D03*
X005300Y007320D03*
X006300Y007320D03*
X007300Y007320D03*
X008300Y007320D03*
X009300Y007320D03*
X010300Y007320D03*
X011300Y007320D03*
X012300Y007320D03*
X013300Y007320D03*
X014300Y007320D03*
X015300Y007320D03*
X016300Y007320D03*
X017300Y007320D03*
X018300Y007320D03*
X019300Y007320D03*
X020300Y007320D03*
X020300Y008320D03*
X019300Y008320D03*
X018300Y008320D03*
X017300Y008320D03*
X016300Y008320D03*
X015300Y008320D03*
X014300Y008320D03*
X013300Y008320D03*
X012300Y008320D03*
X011300Y008320D03*
X010300Y008320D03*
X009300Y008320D03*
X008300Y008320D03*
X007300Y008320D03*
X006300Y008320D03*
X005300Y008320D03*
X004300Y008320D03*
X003300Y008320D03*
X002300Y008320D03*
X001300Y008320D03*
D11*
X001300Y007320D03*
D12*
X008800Y005920D03*
X009800Y005920D03*
X009800Y004420D03*
X008800Y004420D03*
X008800Y003020D03*
X009800Y003020D03*
X010800Y003020D03*
X010800Y001520D03*
X009800Y001520D03*
X008800Y001520D03*
X011800Y001520D03*
D13*
X012600Y001520D01*
X012800Y001720D01*
X012800Y008120D01*
X012600Y008320D01*
X012300Y008320D01*
X012300Y007320D02*
X012300Y002320D01*
X012100Y002120D01*
X011400Y002120D01*
X010800Y001520D01*
X010400Y002120D02*
X009800Y001520D01*
X009400Y002120D02*
X008800Y001520D01*
X009400Y002120D02*
X009900Y002120D01*
X010300Y002520D01*
X010300Y007320D01*
X011300Y007320D02*
X011300Y002520D01*
X010900Y002120D01*
X010400Y002120D01*
X008800Y003020D02*
X002200Y003020D01*
X001800Y003420D01*
X001800Y007820D01*
X002300Y008320D01*
X001800Y007820D02*
X001300Y008320D01*
X002300Y007320D02*
X002300Y004620D01*
X002500Y004420D01*
X008800Y004420D01*
X009600Y004920D02*
X009800Y004720D01*
X009800Y004420D01*
X009600Y004920D02*
X003600Y004920D01*
X003300Y005220D01*
X003300Y007320D01*
X004500Y008320D02*
X004800Y008020D01*
X004800Y006120D01*
X005000Y005920D01*
X008800Y005920D01*
X009800Y005920D02*
X009800Y006320D01*
X009600Y006520D01*
X005900Y006520D01*
X005800Y006620D01*
X005800Y008020D01*
X005500Y008320D01*
X005300Y008320D01*
X004500Y008320D02*
X004300Y008320D01*
X013850Y004070D02*
X013850Y002670D01*
X013850Y004070D02*
X013955Y004175D01*
X016068Y004175D01*
D14*
X000817Y000764D02*
X000802Y000800D01*
X000800Y000820D01*
X000800Y006953D01*
X000807Y006926D01*
X000831Y006884D01*
X000864Y006851D01*
X000906Y006827D01*
X000951Y006815D01*
X001280Y006815D01*
X001280Y007300D01*
X001320Y007300D01*
X001320Y006815D01*
X001590Y006815D01*
X001590Y003333D01*
X001713Y003210D01*
X002113Y002810D01*
X008313Y002810D01*
X008351Y002720D01*
X008500Y002571D01*
X008695Y002490D01*
X008905Y002490D01*
X009100Y002571D01*
X009249Y002720D01*
X009289Y002814D01*
X009290Y002809D01*
X009330Y002732D01*
X009380Y002662D01*
X009442Y002600D01*
X009512Y002550D01*
X009589Y002510D01*
X009671Y002484D01*
X009757Y002470D01*
X009780Y002470D01*
X009780Y003000D01*
X009820Y003000D01*
X009820Y002470D01*
X009843Y002470D01*
X009929Y002484D01*
X009985Y002502D01*
X009813Y002330D01*
X009313Y002330D01*
X008996Y002013D01*
X008905Y002050D01*
X008695Y002050D01*
X008500Y001969D01*
X008351Y001820D01*
X008270Y001625D01*
X008270Y001415D01*
X008351Y001220D01*
X008500Y001071D01*
X008695Y000990D01*
X008905Y000990D01*
X009100Y001071D01*
X009249Y001220D01*
X009300Y001342D01*
X009351Y001220D01*
X009500Y001071D01*
X009695Y000990D01*
X009905Y000990D01*
X010100Y001071D01*
X010249Y001220D01*
X010300Y001342D01*
X010351Y001220D01*
X010500Y001071D01*
X010695Y000990D01*
X010905Y000990D01*
X011100Y001071D01*
X011249Y001220D01*
X011300Y001342D01*
X011351Y001220D01*
X011500Y001071D01*
X011695Y000990D01*
X011905Y000990D01*
X012100Y001071D01*
X012249Y001220D01*
X012287Y001310D01*
X012687Y001310D01*
X012810Y001433D01*
X013010Y001633D01*
X013010Y006924D01*
X013025Y006909D01*
X013204Y006835D01*
X013396Y006835D01*
X013575Y006909D01*
X013711Y007045D01*
X013785Y007224D01*
X013785Y007416D01*
X013711Y007595D01*
X013575Y007731D01*
X013396Y007805D01*
X013204Y007805D01*
X013025Y007731D01*
X013010Y007716D01*
X013010Y007924D01*
X013025Y007909D01*
X013204Y007835D01*
X013396Y007835D01*
X013575Y007909D01*
X013711Y008045D01*
X013785Y008224D01*
X013785Y008416D01*
X013711Y008595D01*
X013575Y008731D01*
X013396Y008805D01*
X013204Y008805D01*
X013025Y008731D01*
X012889Y008595D01*
X012815Y008416D01*
X012815Y008402D01*
X012774Y008443D01*
X012711Y008595D01*
X012575Y008731D01*
X012396Y008805D01*
X012204Y008805D01*
X012025Y008731D01*
X011889Y008595D01*
X011815Y008416D01*
X011815Y008224D01*
X011889Y008045D01*
X012025Y007909D01*
X012204Y007835D01*
X012396Y007835D01*
X012575Y007909D01*
X012590Y007924D01*
X012590Y007716D01*
X012575Y007731D01*
X012396Y007805D01*
X012204Y007805D01*
X012025Y007731D01*
X011889Y007595D01*
X011815Y007416D01*
X011815Y007224D01*
X011889Y007045D01*
X012025Y006909D01*
X012090Y006882D01*
X012090Y002407D01*
X012013Y002330D01*
X011407Y002330D01*
X011510Y002433D01*
X011510Y006882D01*
X011575Y006909D01*
X011711Y007045D01*
X011785Y007224D01*
X011785Y007416D01*
X011711Y007595D01*
X011575Y007731D01*
X011396Y007805D01*
X011204Y007805D01*
X011025Y007731D01*
X010889Y007595D01*
X010815Y007416D01*
X010815Y007224D01*
X010889Y007045D01*
X011025Y006909D01*
X011090Y006882D01*
X011090Y003474D01*
X010905Y003550D01*
X010695Y003550D01*
X010510Y003474D01*
X010510Y006882D01*
X010575Y006909D01*
X010711Y007045D01*
X010785Y007224D01*
X010785Y007416D01*
X010711Y007595D01*
X010575Y007731D01*
X010396Y007805D01*
X010204Y007805D01*
X010025Y007731D01*
X009889Y007595D01*
X009815Y007416D01*
X009815Y007224D01*
X009889Y007045D01*
X010025Y006909D01*
X010090Y006882D01*
X010090Y006374D01*
X010010Y006407D01*
X009887Y006530D01*
X009687Y006730D01*
X006010Y006730D01*
X006010Y006924D01*
X006025Y006909D01*
X006204Y006835D01*
X006396Y006835D01*
X006575Y006909D01*
X006711Y007045D01*
X006785Y007224D01*
X006785Y007416D01*
X006711Y007595D01*
X006575Y007731D01*
X006396Y007805D01*
X006204Y007805D01*
X006025Y007731D01*
X006010Y007716D01*
X006010Y007924D01*
X006025Y007909D01*
X006204Y007835D01*
X006396Y007835D01*
X006575Y007909D01*
X006711Y008045D01*
X006785Y008224D01*
X006785Y008416D01*
X006711Y008595D01*
X006575Y008731D01*
X006396Y008805D01*
X006204Y008805D01*
X006025Y008731D01*
X005889Y008595D01*
X005815Y008416D01*
X005815Y008302D01*
X005785Y008332D01*
X005785Y008416D01*
X005711Y008595D01*
X005575Y008731D01*
X005396Y008805D01*
X005204Y008805D01*
X005025Y008731D01*
X004889Y008595D01*
X004815Y008416D01*
X004815Y008302D01*
X004785Y008332D01*
X004785Y008416D01*
X004711Y008595D01*
X004575Y008731D01*
X004396Y008805D01*
X004204Y008805D01*
X004025Y008731D01*
X003889Y008595D01*
X003815Y008416D01*
X003815Y008224D01*
X003889Y008045D01*
X004025Y007909D01*
X004204Y007835D01*
X004396Y007835D01*
X004575Y007909D01*
X004590Y007924D01*
X004590Y007716D01*
X004575Y007731D01*
X004396Y007805D01*
X004204Y007805D01*
X004025Y007731D01*
X003889Y007595D01*
X003815Y007416D01*
X003815Y007224D01*
X003889Y007045D01*
X004025Y006909D01*
X004204Y006835D01*
X004396Y006835D01*
X004575Y006909D01*
X004590Y006924D01*
X004590Y006033D01*
X004790Y005833D01*
X004913Y005710D01*
X008313Y005710D01*
X008351Y005620D01*
X008500Y005471D01*
X008695Y005390D01*
X008905Y005390D01*
X009100Y005471D01*
X009249Y005620D01*
X009300Y005742D01*
X009351Y005620D01*
X009500Y005471D01*
X009695Y005390D01*
X009905Y005390D01*
X010090Y005466D01*
X010090Y004874D01*
X009905Y004950D01*
X009867Y004950D01*
X009687Y005130D01*
X003687Y005130D01*
X003510Y005307D01*
X003510Y006882D01*
X003575Y006909D01*
X003711Y007045D01*
X003785Y007224D01*
X003785Y007416D01*
X003711Y007595D01*
X003575Y007731D01*
X003396Y007805D01*
X003204Y007805D01*
X003025Y007731D01*
X002889Y007595D01*
X002815Y007416D01*
X002815Y007224D01*
X002889Y007045D01*
X003025Y006909D01*
X003090Y006882D01*
X003090Y005133D01*
X003390Y004833D01*
X003513Y004710D01*
X008346Y004710D01*
X008313Y004630D01*
X002587Y004630D01*
X002510Y004707D01*
X002510Y006882D01*
X002575Y006909D01*
X002711Y007045D01*
X002785Y007224D01*
X002785Y007416D01*
X002711Y007595D01*
X002575Y007731D01*
X002396Y007805D01*
X002204Y007805D01*
X002025Y007731D01*
X002010Y007716D01*
X002010Y007733D01*
X002139Y007862D01*
X002204Y007835D01*
X002396Y007835D01*
X002575Y007909D01*
X002711Y008045D01*
X002785Y008224D01*
X002785Y008416D01*
X002711Y008595D01*
X002575Y008731D01*
X002396Y008805D01*
X002204Y008805D01*
X002025Y008731D01*
X001889Y008595D01*
X001815Y008416D01*
X001815Y008224D01*
X001842Y008159D01*
X001800Y008117D01*
X001758Y008159D01*
X001785Y008224D01*
X001785Y008416D01*
X001711Y008595D01*
X001575Y008731D01*
X001396Y008805D01*
X001204Y008805D01*
X001025Y008731D01*
X000889Y008595D01*
X000815Y008416D01*
X000815Y008224D01*
X000889Y008045D01*
X001025Y007909D01*
X001204Y007835D01*
X001396Y007835D01*
X001461Y007862D01*
X001498Y007825D01*
X001320Y007825D01*
X001320Y007340D01*
X001280Y007340D01*
X001280Y007825D01*
X000951Y007825D01*
X000906Y007813D01*
X000864Y007789D01*
X000831Y007756D01*
X000807Y007714D01*
X000800Y007687D01*
X000800Y008620D01*
X000804Y008659D01*
X000834Y008731D01*
X000889Y008786D01*
X000961Y008816D01*
X001000Y008820D01*
X020700Y008820D01*
X020720Y008818D01*
X020756Y008803D01*
X020783Y008776D01*
X020798Y008740D01*
X020800Y008720D01*
X020800Y000820D01*
X020798Y000800D01*
X020783Y000764D01*
X020756Y000737D01*
X020720Y000722D01*
X020700Y000720D01*
X000900Y000720D01*
X000880Y000722D01*
X000844Y000737D01*
X000817Y000764D01*
X000800Y000837D02*
X020800Y000837D01*
X020800Y000996D02*
X011919Y000996D01*
X011681Y000996D02*
X010919Y000996D01*
X010681Y000996D02*
X009919Y000996D01*
X009681Y000996D02*
X008919Y000996D01*
X009184Y001154D02*
X009416Y001154D01*
X009312Y001313D02*
X009288Y001313D01*
X008681Y000996D02*
X000800Y000996D01*
X000800Y001154D02*
X008416Y001154D01*
X008312Y001313D02*
X000800Y001313D01*
X000800Y001471D02*
X008270Y001471D01*
X008272Y001630D02*
X000800Y001630D01*
X000800Y001788D02*
X008337Y001788D01*
X008477Y001947D02*
X000800Y001947D01*
X000800Y002105D02*
X009088Y002105D01*
X009247Y002264D02*
X000800Y002264D01*
X000800Y002422D02*
X009905Y002422D01*
X009820Y002581D02*
X009780Y002581D01*
X009780Y002739D02*
X009820Y002739D01*
X009820Y002898D02*
X009780Y002898D01*
X009780Y003040D02*
X009780Y003570D01*
X009757Y003570D01*
X009671Y003556D01*
X009589Y003530D01*
X009512Y003490D01*
X009442Y003440D01*
X009380Y003378D01*
X009330Y003308D01*
X009290Y003231D01*
X009289Y003226D01*
X009249Y003320D01*
X009100Y003469D01*
X008905Y003550D01*
X008695Y003550D01*
X008500Y003469D01*
X008351Y003320D01*
X008313Y003230D01*
X002287Y003230D01*
X002010Y003507D01*
X002010Y006924D01*
X002025Y006909D01*
X002090Y006882D01*
X002090Y004533D01*
X002290Y004333D01*
X002413Y004210D01*
X008313Y004210D01*
X008351Y004120D01*
X008500Y003971D01*
X008695Y003890D01*
X008905Y003890D01*
X009100Y003971D01*
X009249Y004120D01*
X009300Y004242D01*
X009351Y004120D01*
X009500Y003971D01*
X009695Y003890D01*
X009905Y003890D01*
X010090Y003966D01*
X010090Y003489D01*
X010088Y003490D01*
X010011Y003530D01*
X009929Y003556D01*
X009843Y003570D01*
X009820Y003570D01*
X009820Y003040D01*
X009780Y003040D01*
X009780Y003056D02*
X009820Y003056D01*
X009820Y003215D02*
X009780Y003215D01*
X009780Y003373D02*
X009820Y003373D01*
X009820Y003532D02*
X009780Y003532D01*
X009594Y003532D02*
X008950Y003532D01*
X009197Y003373D02*
X009377Y003373D01*
X010006Y003532D02*
X010090Y003532D01*
X010090Y003690D02*
X002010Y003690D01*
X002010Y003849D02*
X010090Y003849D01*
X010510Y003849D02*
X011090Y003849D01*
X011090Y003690D02*
X010510Y003690D01*
X010510Y003532D02*
X010650Y003532D01*
X010950Y003532D02*
X011090Y003532D01*
X011510Y003532D02*
X012090Y003532D01*
X012090Y003690D02*
X011510Y003690D01*
X011510Y003849D02*
X012090Y003849D01*
X012090Y004007D02*
X011510Y004007D01*
X011510Y004166D02*
X012090Y004166D01*
X012090Y004324D02*
X011510Y004324D01*
X011510Y004483D02*
X012090Y004483D01*
X012090Y004641D02*
X011510Y004641D01*
X011510Y004800D02*
X012090Y004800D01*
X012090Y004958D02*
X011510Y004958D01*
X011510Y005117D02*
X012090Y005117D01*
X012090Y005275D02*
X011510Y005275D01*
X011510Y005434D02*
X012090Y005434D01*
X012090Y005592D02*
X011510Y005592D01*
X011510Y005751D02*
X012090Y005751D01*
X012090Y005909D02*
X011510Y005909D01*
X011510Y006068D02*
X012090Y006068D01*
X012090Y006226D02*
X011510Y006226D01*
X011510Y006385D02*
X012090Y006385D01*
X012090Y006543D02*
X011510Y006543D01*
X011510Y006702D02*
X012090Y006702D01*
X012090Y006860D02*
X011510Y006860D01*
X011684Y007019D02*
X011916Y007019D01*
X011834Y007177D02*
X011766Y007177D01*
X011785Y007336D02*
X011815Y007336D01*
X011847Y007494D02*
X011753Y007494D01*
X011653Y007653D02*
X011947Y007653D01*
X011575Y007909D02*
X011711Y008045D01*
X011785Y008224D01*
X011785Y008416D01*
X011711Y008595D01*
X011575Y008731D01*
X011396Y008805D01*
X011204Y008805D01*
X011025Y008731D01*
X010889Y008595D01*
X010815Y008416D01*
X010815Y008224D01*
X010889Y008045D01*
X011025Y007909D01*
X011204Y007835D01*
X011396Y007835D01*
X011575Y007909D01*
X011635Y007970D02*
X011965Y007970D01*
X011855Y008128D02*
X011745Y008128D01*
X011785Y008287D02*
X011815Y008287D01*
X011827Y008445D02*
X011773Y008445D01*
X011702Y008604D02*
X011898Y008604D01*
X012100Y008762D02*
X011500Y008762D01*
X011100Y008762D02*
X010500Y008762D01*
X010575Y008731D02*
X010396Y008805D01*
X010204Y008805D01*
X010025Y008731D01*
X009889Y008595D01*
X009815Y008416D01*
X009815Y008224D01*
X009889Y008045D01*
X010025Y007909D01*
X010204Y007835D01*
X010396Y007835D01*
X010575Y007909D01*
X010711Y008045D01*
X010785Y008224D01*
X010785Y008416D01*
X010711Y008595D01*
X010575Y008731D01*
X010702Y008604D02*
X010898Y008604D01*
X010827Y008445D02*
X010773Y008445D01*
X010785Y008287D02*
X010815Y008287D01*
X010855Y008128D02*
X010745Y008128D01*
X010635Y007970D02*
X010965Y007970D01*
X010947Y007653D02*
X010653Y007653D01*
X010753Y007494D02*
X010847Y007494D01*
X010815Y007336D02*
X010785Y007336D01*
X010766Y007177D02*
X010834Y007177D01*
X010916Y007019D02*
X010684Y007019D01*
X010510Y006860D02*
X011090Y006860D01*
X011090Y006702D02*
X010510Y006702D01*
X010510Y006543D02*
X011090Y006543D01*
X011090Y006385D02*
X010510Y006385D01*
X010510Y006226D02*
X011090Y006226D01*
X011090Y006068D02*
X010510Y006068D01*
X010510Y005909D02*
X011090Y005909D01*
X011090Y005751D02*
X010510Y005751D01*
X010510Y005592D02*
X011090Y005592D01*
X011090Y005434D02*
X010510Y005434D01*
X010510Y005275D02*
X011090Y005275D01*
X011090Y005117D02*
X010510Y005117D01*
X010510Y004958D02*
X011090Y004958D01*
X011090Y004800D02*
X010510Y004800D01*
X010510Y004641D02*
X011090Y004641D01*
X011090Y004483D02*
X010510Y004483D01*
X010510Y004324D02*
X011090Y004324D01*
X011090Y004166D02*
X010510Y004166D01*
X010510Y004007D02*
X011090Y004007D01*
X011510Y003373D02*
X012090Y003373D01*
X012090Y003215D02*
X011510Y003215D01*
X011510Y003056D02*
X012090Y003056D01*
X012090Y002898D02*
X011510Y002898D01*
X011510Y002739D02*
X012090Y002739D01*
X012090Y002581D02*
X011510Y002581D01*
X011499Y002422D02*
X012090Y002422D01*
X013010Y002422D02*
X020800Y002422D01*
X020800Y002264D02*
X013010Y002264D01*
X013010Y002105D02*
X020800Y002105D01*
X020800Y001947D02*
X013010Y001947D01*
X013010Y001788D02*
X020800Y001788D01*
X020800Y001630D02*
X013006Y001630D01*
X012848Y001471D02*
X020800Y001471D01*
X020800Y001313D02*
X012689Y001313D01*
X012184Y001154D02*
X020800Y001154D01*
X020800Y002581D02*
X013010Y002581D01*
X013010Y002739D02*
X020800Y002739D01*
X020800Y002898D02*
X013010Y002898D01*
X013010Y003056D02*
X020800Y003056D01*
X020800Y003215D02*
X013010Y003215D01*
X013010Y003373D02*
X020800Y003373D01*
X020800Y003532D02*
X013010Y003532D01*
X013010Y003690D02*
X020800Y003690D01*
X020800Y003849D02*
X013010Y003849D01*
X013010Y004007D02*
X020800Y004007D01*
X020800Y004166D02*
X013010Y004166D01*
X013010Y004324D02*
X020800Y004324D01*
X020800Y004483D02*
X013010Y004483D01*
X013010Y004641D02*
X020800Y004641D01*
X020800Y004800D02*
X013010Y004800D01*
X013010Y004958D02*
X020800Y004958D01*
X020800Y005117D02*
X013010Y005117D01*
X013010Y005275D02*
X020800Y005275D01*
X020800Y005434D02*
X013010Y005434D01*
X013010Y005592D02*
X020800Y005592D01*
X020800Y005751D02*
X013010Y005751D01*
X013010Y005909D02*
X020800Y005909D01*
X020800Y006068D02*
X013010Y006068D01*
X013010Y006226D02*
X020800Y006226D01*
X020800Y006385D02*
X013010Y006385D01*
X013010Y006543D02*
X020800Y006543D01*
X020800Y006702D02*
X013010Y006702D01*
X013010Y006860D02*
X013143Y006860D01*
X013457Y006860D02*
X014143Y006860D01*
X014204Y006835D02*
X014025Y006909D01*
X013889Y007045D01*
X013815Y007224D01*
X013815Y007416D01*
X013889Y007595D01*
X014025Y007731D01*
X014204Y007805D01*
X014396Y007805D01*
X014575Y007731D01*
X014711Y007595D01*
X014785Y007416D01*
X014785Y007224D01*
X014711Y007045D01*
X014575Y006909D01*
X014396Y006835D01*
X014204Y006835D01*
X014457Y006860D02*
X015143Y006860D01*
X015204Y006835D02*
X015396Y006835D01*
X015575Y006909D01*
X015711Y007045D01*
X015785Y007224D01*
X015785Y007416D01*
X015711Y007595D01*
X015575Y007731D01*
X015396Y007805D01*
X015204Y007805D01*
X015025Y007731D01*
X014889Y007595D01*
X014815Y007416D01*
X014815Y007224D01*
X014889Y007045D01*
X015025Y006909D01*
X015204Y006835D01*
X015457Y006860D02*
X016143Y006860D01*
X016204Y006835D02*
X016396Y006835D01*
X016575Y006909D01*
X016711Y007045D01*
X016785Y007224D01*
X016785Y007416D01*
X016711Y007595D01*
X016575Y007731D01*
X016396Y007805D01*
X016204Y007805D01*
X016025Y007731D01*
X015889Y007595D01*
X015815Y007416D01*
X015815Y007224D01*
X015889Y007045D01*
X016025Y006909D01*
X016204Y006835D01*
X016457Y006860D02*
X017143Y006860D01*
X017204Y006835D02*
X017025Y006909D01*
X016889Y007045D01*
X016815Y007224D01*
X016815Y007416D01*
X016889Y007595D01*
X017025Y007731D01*
X017204Y007805D01*
X017396Y007805D01*
X017575Y007731D01*
X017711Y007595D01*
X017785Y007416D01*
X017785Y007224D01*
X017711Y007045D01*
X017575Y006909D01*
X017396Y006835D01*
X017204Y006835D01*
X017457Y006860D02*
X018143Y006860D01*
X018204Y006835D02*
X018396Y006835D01*
X018575Y006909D01*
X018711Y007045D01*
X018785Y007224D01*
X018785Y007416D01*
X018711Y007595D01*
X018575Y007731D01*
X018396Y007805D01*
X018204Y007805D01*
X018025Y007731D01*
X017889Y007595D01*
X017815Y007416D01*
X017815Y007224D01*
X017889Y007045D01*
X018025Y006909D01*
X018204Y006835D01*
X018457Y006860D02*
X019143Y006860D01*
X019204Y006835D02*
X019396Y006835D01*
X019575Y006909D01*
X019711Y007045D01*
X019785Y007224D01*
X019785Y007416D01*
X019711Y007595D01*
X019575Y007731D01*
X019396Y007805D01*
X019204Y007805D01*
X019025Y007731D01*
X018889Y007595D01*
X018815Y007416D01*
X018815Y007224D01*
X018889Y007045D01*
X019025Y006909D01*
X019204Y006835D01*
X019457Y006860D02*
X020143Y006860D01*
X020204Y006835D02*
X020396Y006835D01*
X020575Y006909D01*
X020711Y007045D01*
X020785Y007224D01*
X020785Y007416D01*
X020711Y007595D01*
X020575Y007731D01*
X020396Y007805D01*
X020204Y007805D01*
X020025Y007731D01*
X019889Y007595D01*
X019815Y007416D01*
X019815Y007224D01*
X019889Y007045D01*
X020025Y006909D01*
X020204Y006835D01*
X020457Y006860D02*
X020800Y006860D01*
X020800Y007019D02*
X020684Y007019D01*
X020766Y007177D02*
X020800Y007177D01*
X020785Y007336D02*
X020800Y007336D01*
X020800Y007494D02*
X020753Y007494D01*
X020800Y007653D02*
X020653Y007653D01*
X020800Y007811D02*
X013010Y007811D01*
X012590Y007811D02*
X009423Y007811D01*
X009418Y007813D02*
X009340Y007825D01*
X009320Y007825D01*
X009320Y007340D01*
X009805Y007340D01*
X009805Y007360D01*
X009793Y007438D01*
X009768Y007514D01*
X009732Y007585D01*
X009685Y007649D01*
X009629Y007705D01*
X009565Y007752D01*
X009494Y007788D01*
X009418Y007813D01*
X009396Y007835D02*
X009575Y007909D01*
X009711Y008045D01*
X009785Y008224D01*
X009785Y008416D01*
X009711Y008595D01*
X009575Y008731D01*
X009396Y008805D01*
X009204Y008805D01*
X009025Y008731D01*
X008889Y008595D01*
X008815Y008416D01*
X008815Y008224D01*
X008889Y008045D01*
X009025Y007909D01*
X009204Y007835D01*
X009396Y007835D01*
X009320Y007811D02*
X009280Y007811D01*
X009280Y007825D02*
X009260Y007825D01*
X009182Y007813D01*
X009106Y007788D01*
X009035Y007752D01*
X008971Y007705D01*
X008915Y007649D01*
X008868Y007585D01*
X008832Y007514D01*
X008807Y007438D01*
X008795Y007360D01*
X008795Y007340D01*
X009280Y007340D01*
X009280Y007825D01*
X009177Y007811D02*
X006010Y007811D01*
X006635Y007970D02*
X006965Y007970D01*
X007025Y007909D02*
X006889Y008045D01*
X006815Y008224D01*
X006815Y008416D01*
X006889Y008595D01*
X007025Y008731D01*
X007204Y008805D01*
X007396Y008805D01*
X007575Y008731D01*
X007711Y008595D01*
X007785Y008416D01*
X007785Y008224D01*
X007711Y008045D01*
X007575Y007909D01*
X007396Y007835D01*
X007204Y007835D01*
X007025Y007909D01*
X007025Y007731D02*
X007204Y007805D01*
X007396Y007805D01*
X007575Y007731D01*
X007711Y007595D01*
X007785Y007416D01*
X007785Y007224D01*
X007711Y007045D01*
X007575Y006909D01*
X007396Y006835D01*
X007204Y006835D01*
X007025Y006909D01*
X006889Y007045D01*
X006815Y007224D01*
X006815Y007416D01*
X006889Y007595D01*
X007025Y007731D01*
X006947Y007653D02*
X006653Y007653D01*
X006753Y007494D02*
X006847Y007494D01*
X006815Y007336D02*
X006785Y007336D01*
X006766Y007177D02*
X006834Y007177D01*
X006916Y007019D02*
X006684Y007019D01*
X006457Y006860D02*
X007143Y006860D01*
X007457Y006860D02*
X008143Y006860D01*
X008204Y006835D02*
X008396Y006835D01*
X008575Y006909D01*
X008711Y007045D01*
X008785Y007224D01*
X008785Y007416D01*
X008711Y007595D01*
X008575Y007731D01*
X008396Y007805D01*
X008204Y007805D01*
X008025Y007731D01*
X007889Y007595D01*
X007815Y007416D01*
X007815Y007224D01*
X007889Y007045D01*
X008025Y006909D01*
X008204Y006835D01*
X008457Y006860D02*
X009090Y006860D01*
X009106Y006852D02*
X009182Y006827D01*
X009260Y006815D01*
X009280Y006815D01*
X009280Y007300D01*
X009320Y007300D01*
X009320Y007340D01*
X009280Y007340D01*
X009280Y007300D01*
X008795Y007300D01*
X008795Y007280D01*
X008807Y007202D01*
X008832Y007126D01*
X008868Y007055D01*
X008915Y006991D01*
X008971Y006935D01*
X009035Y006888D01*
X009106Y006852D01*
X009280Y006860D02*
X009320Y006860D01*
X009320Y006815D02*
X009340Y006815D01*
X009418Y006827D01*
X009494Y006852D01*
X009565Y006888D01*
X009629Y006935D01*
X009685Y006991D01*
X009732Y007055D01*
X009768Y007126D01*
X009793Y007202D01*
X009805Y007280D01*
X009805Y007300D01*
X009320Y007300D01*
X009320Y006815D01*
X009510Y006860D02*
X010090Y006860D01*
X010090Y006702D02*
X009715Y006702D01*
X009874Y006543D02*
X010090Y006543D01*
X010010Y006407D02*
X010010Y006407D01*
X010064Y006385D02*
X010090Y006385D01*
X009916Y007019D02*
X009705Y007019D01*
X009320Y007019D02*
X009280Y007019D01*
X009280Y007177D02*
X009320Y007177D01*
X009320Y007336D02*
X009815Y007336D01*
X009834Y007177D02*
X009785Y007177D01*
X009774Y007494D02*
X009847Y007494D01*
X009947Y007653D02*
X009682Y007653D01*
X009320Y007653D02*
X009280Y007653D01*
X009280Y007494D02*
X009320Y007494D01*
X009280Y007336D02*
X008785Y007336D01*
X008766Y007177D02*
X008815Y007177D01*
X008895Y007019D02*
X008684Y007019D01*
X007916Y007019D02*
X007684Y007019D01*
X007766Y007177D02*
X007834Y007177D01*
X007815Y007336D02*
X007785Y007336D01*
X007753Y007494D02*
X007847Y007494D01*
X007947Y007653D02*
X007653Y007653D01*
X008025Y007909D02*
X008204Y007835D01*
X008396Y007835D01*
X008575Y007909D01*
X008711Y008045D01*
X008785Y008224D01*
X008785Y008416D01*
X008711Y008595D01*
X008575Y008731D01*
X008396Y008805D01*
X008204Y008805D01*
X008025Y008731D01*
X007889Y008595D01*
X007815Y008416D01*
X007815Y008224D01*
X007889Y008045D01*
X008025Y007909D01*
X007965Y007970D02*
X007635Y007970D01*
X007745Y008128D02*
X007855Y008128D01*
X007815Y008287D02*
X007785Y008287D01*
X007773Y008445D02*
X007827Y008445D01*
X007898Y008604D02*
X007702Y008604D01*
X007500Y008762D02*
X008100Y008762D01*
X008500Y008762D02*
X009100Y008762D01*
X008898Y008604D02*
X008702Y008604D01*
X008773Y008445D02*
X008827Y008445D01*
X008815Y008287D02*
X008785Y008287D01*
X008745Y008128D02*
X008855Y008128D01*
X008965Y007970D02*
X008635Y007970D01*
X008653Y007653D02*
X008918Y007653D01*
X008826Y007494D02*
X008753Y007494D01*
X009635Y007970D02*
X009965Y007970D01*
X009855Y008128D02*
X009745Y008128D01*
X009785Y008287D02*
X009815Y008287D01*
X009827Y008445D02*
X009773Y008445D01*
X009702Y008604D02*
X009898Y008604D01*
X010100Y008762D02*
X009500Y008762D01*
X007100Y008762D02*
X006500Y008762D01*
X006702Y008604D02*
X006898Y008604D01*
X006827Y008445D02*
X006773Y008445D01*
X006785Y008287D02*
X006815Y008287D01*
X006855Y008128D02*
X006745Y008128D01*
X005827Y008445D02*
X005773Y008445D01*
X005702Y008604D02*
X005898Y008604D01*
X006100Y008762D02*
X005500Y008762D01*
X005100Y008762D02*
X004500Y008762D01*
X004702Y008604D02*
X004898Y008604D01*
X004827Y008445D02*
X004773Y008445D01*
X004100Y008762D02*
X003500Y008762D01*
X003575Y008731D02*
X003396Y008805D01*
X003204Y008805D01*
X003025Y008731D01*
X002889Y008595D01*
X002815Y008416D01*
X002815Y008224D01*
X002889Y008045D01*
X003025Y007909D01*
X003204Y007835D01*
X003396Y007835D01*
X003575Y007909D01*
X003711Y008045D01*
X003785Y008224D01*
X003785Y008416D01*
X003711Y008595D01*
X003575Y008731D01*
X003702Y008604D02*
X003898Y008604D01*
X003827Y008445D02*
X003773Y008445D01*
X003785Y008287D02*
X003815Y008287D01*
X003855Y008128D02*
X003745Y008128D01*
X003635Y007970D02*
X003965Y007970D01*
X004590Y007811D02*
X002088Y007811D01*
X001811Y008128D02*
X001789Y008128D01*
X001785Y008287D02*
X001815Y008287D01*
X001827Y008445D02*
X001773Y008445D01*
X001702Y008604D02*
X001898Y008604D01*
X002100Y008762D02*
X001500Y008762D01*
X001100Y008762D02*
X000865Y008762D01*
X000898Y008604D02*
X000800Y008604D01*
X000800Y008445D02*
X000827Y008445D01*
X000815Y008287D02*
X000800Y008287D01*
X000800Y008128D02*
X000855Y008128D01*
X000800Y007970D02*
X000965Y007970D01*
X000903Y007811D02*
X000800Y007811D01*
X001280Y007811D02*
X001320Y007811D01*
X001320Y007653D02*
X001280Y007653D01*
X001280Y007494D02*
X001320Y007494D01*
X001320Y007177D02*
X001280Y007177D01*
X001280Y007019D02*
X001320Y007019D01*
X001320Y006860D02*
X001280Y006860D01*
X001590Y006702D02*
X000800Y006702D01*
X000800Y006860D02*
X000855Y006860D01*
X000800Y006543D02*
X001590Y006543D01*
X001590Y006385D02*
X000800Y006385D01*
X000800Y006226D02*
X001590Y006226D01*
X001590Y006068D02*
X000800Y006068D01*
X000800Y005909D02*
X001590Y005909D01*
X001590Y005751D02*
X000800Y005751D01*
X000800Y005592D02*
X001590Y005592D01*
X001590Y005434D02*
X000800Y005434D01*
X000800Y005275D02*
X001590Y005275D01*
X001590Y005117D02*
X000800Y005117D01*
X000800Y004958D02*
X001590Y004958D01*
X001590Y004800D02*
X000800Y004800D01*
X000800Y004641D02*
X001590Y004641D01*
X001590Y004483D02*
X000800Y004483D01*
X000800Y004324D02*
X001590Y004324D01*
X001590Y004166D02*
X000800Y004166D01*
X000800Y004007D02*
X001590Y004007D01*
X001590Y003849D02*
X000800Y003849D01*
X000800Y003690D02*
X001590Y003690D01*
X001590Y003532D02*
X000800Y003532D01*
X000800Y003373D02*
X001590Y003373D01*
X001709Y003215D02*
X000800Y003215D01*
X000800Y003056D02*
X001867Y003056D01*
X002026Y002898D02*
X000800Y002898D01*
X000800Y002739D02*
X008343Y002739D01*
X008490Y002581D02*
X000800Y002581D01*
X002144Y003373D02*
X008403Y003373D01*
X008650Y003532D02*
X002010Y003532D01*
X002010Y004007D02*
X008463Y004007D01*
X008332Y004166D02*
X002010Y004166D01*
X002010Y004324D02*
X002299Y004324D01*
X002141Y004483D02*
X002010Y004483D01*
X002010Y004641D02*
X002090Y004641D01*
X002090Y004800D02*
X002010Y004800D01*
X002010Y004958D02*
X002090Y004958D01*
X002090Y005117D02*
X002010Y005117D01*
X002010Y005275D02*
X002090Y005275D01*
X002090Y005434D02*
X002010Y005434D01*
X002010Y005592D02*
X002090Y005592D01*
X002090Y005751D02*
X002010Y005751D01*
X002010Y005909D02*
X002090Y005909D01*
X002090Y006068D02*
X002010Y006068D01*
X002010Y006226D02*
X002090Y006226D01*
X002090Y006385D02*
X002010Y006385D01*
X002010Y006543D02*
X002090Y006543D01*
X002090Y006702D02*
X002010Y006702D01*
X002010Y006860D02*
X002090Y006860D01*
X002510Y006860D02*
X003090Y006860D01*
X003090Y006702D02*
X002510Y006702D01*
X002510Y006543D02*
X003090Y006543D01*
X003090Y006385D02*
X002510Y006385D01*
X002510Y006226D02*
X003090Y006226D01*
X003090Y006068D02*
X002510Y006068D01*
X002510Y005909D02*
X003090Y005909D01*
X003090Y005751D02*
X002510Y005751D01*
X002510Y005592D02*
X003090Y005592D01*
X003090Y005434D02*
X002510Y005434D01*
X002510Y005275D02*
X003090Y005275D01*
X003107Y005117D02*
X002510Y005117D01*
X002510Y004958D02*
X003265Y004958D01*
X003424Y004800D02*
X002510Y004800D01*
X002576Y004641D02*
X008318Y004641D01*
X009268Y004166D02*
X009332Y004166D01*
X009463Y004007D02*
X009137Y004007D01*
X009859Y004958D02*
X010090Y004958D01*
X010090Y005117D02*
X009700Y005117D01*
X010090Y005275D02*
X003542Y005275D01*
X003510Y005434D02*
X008590Y005434D01*
X008378Y005592D02*
X003510Y005592D01*
X003510Y005751D02*
X004873Y005751D01*
X004714Y005909D02*
X003510Y005909D01*
X003510Y006068D02*
X004590Y006068D01*
X004590Y006226D02*
X003510Y006226D01*
X003510Y006385D02*
X004590Y006385D01*
X004590Y006543D02*
X003510Y006543D01*
X003510Y006702D02*
X004590Y006702D01*
X004590Y006860D02*
X004457Y006860D01*
X004143Y006860D02*
X003510Y006860D01*
X003684Y007019D02*
X003916Y007019D01*
X003834Y007177D02*
X003766Y007177D01*
X003785Y007336D02*
X003815Y007336D01*
X003847Y007494D02*
X003753Y007494D01*
X003653Y007653D02*
X003947Y007653D01*
X002947Y007653D02*
X002653Y007653D01*
X002753Y007494D02*
X002847Y007494D01*
X002815Y007336D02*
X002785Y007336D01*
X002766Y007177D02*
X002834Y007177D01*
X002916Y007019D02*
X002684Y007019D01*
X002635Y007970D02*
X002965Y007970D01*
X002855Y008128D02*
X002745Y008128D01*
X002785Y008287D02*
X002815Y008287D01*
X002827Y008445D02*
X002773Y008445D01*
X002702Y008604D02*
X002898Y008604D01*
X003100Y008762D02*
X002500Y008762D01*
X006010Y006860D02*
X006143Y006860D01*
X009010Y005434D02*
X009590Y005434D01*
X009378Y005592D02*
X009222Y005592D01*
X010010Y005434D02*
X010090Y005434D01*
X013684Y007019D02*
X013916Y007019D01*
X013834Y007177D02*
X013766Y007177D01*
X013785Y007336D02*
X013815Y007336D01*
X013847Y007494D02*
X013753Y007494D01*
X013653Y007653D02*
X013947Y007653D01*
X014025Y007909D02*
X014204Y007835D01*
X014396Y007835D01*
X014575Y007909D01*
X014711Y008045D01*
X014785Y008224D01*
X014785Y008416D01*
X014711Y008595D01*
X014575Y008731D01*
X014396Y008805D01*
X014204Y008805D01*
X014025Y008731D01*
X013889Y008595D01*
X013815Y008416D01*
X013815Y008224D01*
X013889Y008045D01*
X014025Y007909D01*
X013965Y007970D02*
X013635Y007970D01*
X013745Y008128D02*
X013855Y008128D01*
X013815Y008287D02*
X013785Y008287D01*
X013773Y008445D02*
X013827Y008445D01*
X013898Y008604D02*
X013702Y008604D01*
X013500Y008762D02*
X014100Y008762D01*
X014500Y008762D02*
X015100Y008762D01*
X015025Y008731D02*
X015204Y008805D01*
X015396Y008805D01*
X015575Y008731D01*
X015711Y008595D01*
X015785Y008416D01*
X015785Y008224D01*
X015711Y008045D01*
X015575Y007909D01*
X015396Y007835D01*
X015204Y007835D01*
X015025Y007909D01*
X014889Y008045D01*
X014815Y008224D01*
X014815Y008416D01*
X014889Y008595D01*
X015025Y008731D01*
X014898Y008604D02*
X014702Y008604D01*
X014773Y008445D02*
X014827Y008445D01*
X014815Y008287D02*
X014785Y008287D01*
X014745Y008128D02*
X014855Y008128D01*
X014965Y007970D02*
X014635Y007970D01*
X014653Y007653D02*
X014947Y007653D01*
X014847Y007494D02*
X014753Y007494D01*
X014785Y007336D02*
X014815Y007336D01*
X014834Y007177D02*
X014766Y007177D01*
X014684Y007019D02*
X014916Y007019D01*
X015684Y007019D02*
X015916Y007019D01*
X015834Y007177D02*
X015766Y007177D01*
X015785Y007336D02*
X015815Y007336D01*
X015847Y007494D02*
X015753Y007494D01*
X015653Y007653D02*
X015947Y007653D01*
X016025Y007909D02*
X016204Y007835D01*
X016396Y007835D01*
X016575Y007909D01*
X016711Y008045D01*
X016785Y008224D01*
X016785Y008416D01*
X016711Y008595D01*
X016575Y008731D01*
X016396Y008805D01*
X016204Y008805D01*
X016025Y008731D01*
X015889Y008595D01*
X015815Y008416D01*
X015815Y008224D01*
X015889Y008045D01*
X016025Y007909D01*
X015965Y007970D02*
X015635Y007970D01*
X015745Y008128D02*
X015855Y008128D01*
X015815Y008287D02*
X015785Y008287D01*
X015773Y008445D02*
X015827Y008445D01*
X015898Y008604D02*
X015702Y008604D01*
X015500Y008762D02*
X016100Y008762D01*
X016500Y008762D02*
X017100Y008762D01*
X017025Y008731D02*
X016889Y008595D01*
X016815Y008416D01*
X016815Y008224D01*
X016889Y008045D01*
X017025Y007909D01*
X017204Y007835D01*
X017396Y007835D01*
X017575Y007909D01*
X017711Y008045D01*
X017785Y008224D01*
X017785Y008416D01*
X017711Y008595D01*
X017575Y008731D01*
X017396Y008805D01*
X017204Y008805D01*
X017025Y008731D01*
X016898Y008604D02*
X016702Y008604D01*
X016773Y008445D02*
X016827Y008445D01*
X016815Y008287D02*
X016785Y008287D01*
X016745Y008128D02*
X016855Y008128D01*
X016965Y007970D02*
X016635Y007970D01*
X016653Y007653D02*
X016947Y007653D01*
X016847Y007494D02*
X016753Y007494D01*
X016785Y007336D02*
X016815Y007336D01*
X016834Y007177D02*
X016766Y007177D01*
X016684Y007019D02*
X016916Y007019D01*
X017684Y007019D02*
X017916Y007019D01*
X017834Y007177D02*
X017766Y007177D01*
X017785Y007336D02*
X017815Y007336D01*
X017847Y007494D02*
X017753Y007494D01*
X017653Y007653D02*
X017947Y007653D01*
X018025Y007909D02*
X018204Y007835D01*
X018396Y007835D01*
X018575Y007909D01*
X018711Y008045D01*
X018785Y008224D01*
X018785Y008416D01*
X018711Y008595D01*
X018575Y008731D01*
X018396Y008805D01*
X018204Y008805D01*
X018025Y008731D01*
X017889Y008595D01*
X017815Y008416D01*
X017815Y008224D01*
X017889Y008045D01*
X018025Y007909D01*
X017965Y007970D02*
X017635Y007970D01*
X017745Y008128D02*
X017855Y008128D01*
X017815Y008287D02*
X017785Y008287D01*
X017773Y008445D02*
X017827Y008445D01*
X017898Y008604D02*
X017702Y008604D01*
X017500Y008762D02*
X018100Y008762D01*
X018500Y008762D02*
X019100Y008762D01*
X019025Y008731D02*
X019204Y008805D01*
X019396Y008805D01*
X019575Y008731D01*
X019711Y008595D01*
X019785Y008416D01*
X019785Y008224D01*
X019711Y008045D01*
X019575Y007909D01*
X019396Y007835D01*
X019204Y007835D01*
X019025Y007909D01*
X018889Y008045D01*
X018815Y008224D01*
X018815Y008416D01*
X018889Y008595D01*
X019025Y008731D01*
X018898Y008604D02*
X018702Y008604D01*
X018773Y008445D02*
X018827Y008445D01*
X018815Y008287D02*
X018785Y008287D01*
X018745Y008128D02*
X018855Y008128D01*
X018965Y007970D02*
X018635Y007970D01*
X018653Y007653D02*
X018947Y007653D01*
X018847Y007494D02*
X018753Y007494D01*
X018785Y007336D02*
X018815Y007336D01*
X018834Y007177D02*
X018766Y007177D01*
X018684Y007019D02*
X018916Y007019D01*
X019684Y007019D02*
X019916Y007019D01*
X019834Y007177D02*
X019766Y007177D01*
X019785Y007336D02*
X019815Y007336D01*
X019847Y007494D02*
X019753Y007494D01*
X019653Y007653D02*
X019947Y007653D01*
X020025Y007909D02*
X020204Y007835D01*
X020396Y007835D01*
X020575Y007909D01*
X020711Y008045D01*
X020785Y008224D01*
X020785Y008416D01*
X020711Y008595D01*
X020575Y008731D01*
X020396Y008805D01*
X020204Y008805D01*
X020025Y008731D01*
X019889Y008595D01*
X019815Y008416D01*
X019815Y008224D01*
X019889Y008045D01*
X020025Y007909D01*
X019965Y007970D02*
X019635Y007970D01*
X019745Y008128D02*
X019855Y008128D01*
X019815Y008287D02*
X019785Y008287D01*
X019773Y008445D02*
X019827Y008445D01*
X019898Y008604D02*
X019702Y008604D01*
X019500Y008762D02*
X020100Y008762D01*
X020500Y008762D02*
X020789Y008762D01*
X020800Y008604D02*
X020702Y008604D01*
X020773Y008445D02*
X020800Y008445D01*
X020785Y008287D02*
X020800Y008287D01*
X020800Y008128D02*
X020745Y008128D01*
X020800Y007970D02*
X020635Y007970D01*
X013100Y008762D02*
X012500Y008762D01*
X012702Y008604D02*
X012898Y008604D01*
X012827Y008445D02*
X012773Y008445D01*
X009326Y002739D02*
X009257Y002739D01*
X009110Y002581D02*
X009469Y002581D01*
X010288Y001313D02*
X010312Y001313D01*
X010416Y001154D02*
X010184Y001154D01*
X011184Y001154D02*
X011416Y001154D01*
X011312Y001313D02*
X011288Y001313D01*
D15*
X013850Y002670D03*
X016068Y004175D03*
X019400Y006020D03*
X018500Y001920D03*
X002000Y001320D03*
M02*
