G75*
%MOIN*%
%OFA0B0*%
%FSLAX24Y24*%
%IPPOS*%
%LPD*%
%AMOC8*
5,1,8,0,0,1.08239X$1,22.5*
%
%ADD10R,0.0236X0.0472*%
%ADD11R,0.0394X0.0551*%
%ADD12R,0.0551X0.0394*%
%ADD13R,0.0512X0.0610*%
%ADD14R,0.0472X0.0472*%
%ADD15R,0.0870X0.0240*%
%ADD16R,0.0315X0.0354*%
D10*
X019026Y002621D03*
X019734Y002621D03*
X019734Y004039D03*
X019026Y004039D03*
D11*
X019106Y005080D03*
X019854Y005080D03*
X018454Y005080D03*
X017706Y005080D03*
X014154Y005730D03*
X013406Y005730D03*
X005954Y005830D03*
X005206Y005830D03*
X005206Y004830D03*
X005954Y004830D03*
X005954Y003830D03*
X005206Y003830D03*
X005206Y002830D03*
X005954Y002830D03*
X005954Y001930D03*
X005206Y001930D03*
X005206Y000930D03*
X005954Y000930D03*
X019006Y001580D03*
X019754Y001580D03*
D12*
X000880Y001156D03*
X000880Y001904D03*
X013430Y003006D03*
X013430Y003754D03*
X017880Y003604D03*
X017880Y002856D03*
D13*
X002466Y002615D03*
X000694Y002615D03*
X000694Y005745D03*
X002466Y005745D03*
D14*
X003467Y005830D03*
X004293Y005830D03*
X004293Y004830D03*
X003467Y004830D03*
X003467Y003830D03*
X004293Y003830D03*
X004293Y002830D03*
X003467Y002830D03*
X003467Y001930D03*
X004293Y001930D03*
X004293Y000930D03*
X003467Y000930D03*
D15*
X014510Y002928D03*
X014510Y003428D03*
X014510Y003928D03*
X014510Y004428D03*
X016570Y004428D03*
X016570Y003928D03*
X016570Y003428D03*
X016570Y002928D03*
D16*
X015854Y001724D03*
X015106Y001724D03*
X015480Y000897D03*
M02*
