G75*
%MOIN*%
%OFA0B0*%
%FSLAX24Y24*%
%IPPOS*%
%LPD*%
%AMOC8*
5,1,8,0,0,1.08239X$1,22.5*
%
%ADD10C,0.0650*%
%ADD11R,0.0650X0.0650*%
%ADD12C,0.0740*%
%ADD13C,0.0100*%
%ADD14C,0.0160*%
%ADD15C,0.0400*%
D10*
X001880Y006980D03*
X002880Y006980D03*
X003880Y006980D03*
X004880Y006980D03*
X005880Y006980D03*
X006880Y006980D03*
X007880Y006980D03*
X008880Y006980D03*
X009880Y006980D03*
X010880Y006980D03*
X011880Y006980D03*
X012880Y006980D03*
X013880Y006980D03*
X014880Y006980D03*
X015880Y006980D03*
X016880Y006980D03*
X017880Y006980D03*
X018880Y006980D03*
X019880Y006980D03*
X019880Y007980D03*
X018880Y007980D03*
X017880Y007980D03*
X016880Y007980D03*
X015880Y007980D03*
X014880Y007980D03*
X013880Y007980D03*
X012880Y007980D03*
X011880Y007980D03*
X010880Y007980D03*
X009880Y007980D03*
X008880Y007980D03*
X007880Y007980D03*
X006880Y007980D03*
X005880Y007980D03*
X004880Y007980D03*
X003880Y007980D03*
X002880Y007980D03*
X001880Y007980D03*
X000880Y007980D03*
D11*
X000880Y006980D03*
D12*
X008380Y005730D03*
X009380Y005730D03*
X009380Y004230D03*
X008380Y004230D03*
X008380Y002830D03*
X009380Y002830D03*
X010380Y002830D03*
X010380Y001330D03*
X011380Y001330D03*
X009380Y001330D03*
X008380Y001330D03*
D13*
X008980Y001930D01*
X009480Y001930D01*
X009880Y002330D01*
X009880Y006980D01*
X010880Y006980D02*
X010880Y002330D01*
X010480Y001930D01*
X009980Y001930D01*
X009380Y001330D01*
X010380Y001330D02*
X010980Y001930D01*
X011680Y001930D01*
X011880Y002130D01*
X011880Y006980D01*
X012380Y007780D02*
X012380Y001530D01*
X012180Y001330D01*
X011380Y001330D01*
X013430Y002480D02*
X013430Y003880D01*
X013535Y003985D01*
X015648Y003985D01*
X009380Y004230D02*
X009380Y004530D01*
X009180Y004730D01*
X003180Y004730D01*
X002880Y005030D01*
X002880Y006980D01*
X001880Y006980D02*
X001880Y004430D01*
X002080Y004230D01*
X008380Y004230D01*
X008380Y002830D02*
X001780Y002830D01*
X001380Y003230D01*
X001380Y007480D01*
X001880Y007980D01*
X001380Y007480D02*
X000880Y007980D01*
X003880Y007980D02*
X004080Y007980D01*
X004380Y007680D01*
X004380Y005930D01*
X004580Y005730D01*
X008380Y005730D01*
X009380Y005730D02*
X009380Y006130D01*
X009180Y006330D01*
X005480Y006330D01*
X005380Y006280D01*
X005380Y007680D01*
X005080Y007980D01*
X004880Y007980D01*
X011880Y007980D02*
X012180Y007980D01*
X012380Y007780D01*
D14*
X000614Y000340D02*
X000600Y000360D01*
X000519Y000376D01*
X000485Y000387D01*
X000426Y000426D01*
X000386Y000485D01*
X000375Y000542D01*
X000380Y000547D01*
X000380Y000610D01*
X000392Y000672D01*
X000380Y000691D01*
X000380Y006613D01*
X000387Y006586D01*
X000411Y006544D01*
X000444Y006511D01*
X000486Y006487D01*
X000531Y006475D01*
X000860Y006475D01*
X000860Y006960D01*
X000900Y006960D01*
X000900Y006475D01*
X001170Y006475D01*
X001170Y003143D01*
X001293Y003020D01*
X001693Y002620D01*
X007893Y002620D01*
X007931Y002530D01*
X008080Y002381D01*
X008275Y002300D01*
X008485Y002300D01*
X008680Y002381D01*
X008829Y002530D01*
X008869Y002624D01*
X008870Y002619D01*
X008910Y002542D01*
X008960Y002472D01*
X009022Y002410D01*
X009092Y002360D01*
X009169Y002320D01*
X009251Y002294D01*
X009337Y002280D01*
X009360Y002280D01*
X009360Y002810D01*
X009400Y002810D01*
X009400Y002280D01*
X009423Y002280D01*
X009509Y002294D01*
X009565Y002312D01*
X009393Y002140D01*
X008893Y002140D01*
X008576Y001823D01*
X008485Y001860D01*
X008275Y001860D01*
X008080Y001779D01*
X007931Y001630D01*
X007850Y001435D01*
X007850Y001225D01*
X007931Y001030D01*
X008080Y000881D01*
X008275Y000800D01*
X008485Y000800D01*
X008680Y000881D01*
X008829Y001030D01*
X008880Y001152D01*
X008931Y001030D01*
X009080Y000881D01*
X009275Y000800D01*
X009485Y000800D01*
X009680Y000881D01*
X009829Y001030D01*
X009880Y001152D01*
X009931Y001030D01*
X010080Y000881D01*
X010275Y000800D01*
X010485Y000800D01*
X010680Y000881D01*
X010829Y001030D01*
X010880Y001152D01*
X010931Y001030D01*
X011080Y000881D01*
X011275Y000800D01*
X011485Y000800D01*
X011680Y000881D01*
X011829Y001030D01*
X011867Y001120D01*
X012267Y001120D01*
X012390Y001243D01*
X012590Y001443D01*
X012590Y006584D01*
X012605Y006569D01*
X012784Y006495D01*
X012976Y006495D01*
X013155Y006569D01*
X013291Y006705D01*
X013365Y006884D01*
X013365Y007076D01*
X013291Y007255D01*
X013155Y007391D01*
X012976Y007465D01*
X012784Y007465D01*
X012605Y007391D01*
X012590Y007376D01*
X012590Y007584D01*
X012605Y007569D01*
X012784Y007495D01*
X012976Y007495D01*
X013155Y007569D01*
X013291Y007705D01*
X013365Y007884D01*
X013365Y008076D01*
X013291Y008255D01*
X013155Y008391D01*
X012976Y008465D01*
X012784Y008465D01*
X012605Y008391D01*
X012469Y008255D01*
X012395Y008076D01*
X012395Y008062D01*
X012354Y008103D01*
X012291Y008255D01*
X012155Y008391D01*
X011976Y008465D01*
X011784Y008465D01*
X011605Y008391D01*
X011469Y008255D01*
X011395Y008076D01*
X011395Y007884D01*
X011469Y007705D01*
X011605Y007569D01*
X011784Y007495D01*
X011976Y007495D01*
X012155Y007569D01*
X012170Y007584D01*
X012170Y007376D01*
X012155Y007391D01*
X011976Y007465D01*
X011784Y007465D01*
X011605Y007391D01*
X011469Y007255D01*
X011395Y007076D01*
X011395Y006884D01*
X011469Y006705D01*
X011605Y006569D01*
X011670Y006542D01*
X011670Y002217D01*
X011593Y002140D01*
X010987Y002140D01*
X011090Y002243D01*
X011090Y006542D01*
X011155Y006569D01*
X011291Y006705D01*
X011365Y006884D01*
X011365Y007076D01*
X011291Y007255D01*
X011155Y007391D01*
X010976Y007465D01*
X010784Y007465D01*
X010605Y007391D01*
X010469Y007255D01*
X010395Y007076D01*
X010395Y006884D01*
X010469Y006705D01*
X010605Y006569D01*
X010670Y006542D01*
X010670Y003284D01*
X010485Y003360D01*
X010275Y003360D01*
X010090Y003284D01*
X010090Y006542D01*
X010155Y006569D01*
X010291Y006705D01*
X010365Y006884D01*
X010365Y007076D01*
X010291Y007255D01*
X010155Y007391D01*
X009976Y007465D01*
X009784Y007465D01*
X009605Y007391D01*
X009469Y007255D01*
X009395Y007076D01*
X009395Y006884D01*
X009469Y006705D01*
X009605Y006569D01*
X009670Y006542D01*
X009670Y006184D01*
X009590Y006217D01*
X009467Y006340D01*
X009267Y006540D01*
X009129Y006540D01*
X009145Y006548D01*
X009209Y006595D01*
X009265Y006651D01*
X009312Y006715D01*
X009348Y006786D01*
X009373Y006862D01*
X009385Y006940D01*
X009385Y006960D01*
X008900Y006960D01*
X008900Y007000D01*
X008860Y007000D01*
X008860Y007485D01*
X008840Y007485D01*
X008762Y007473D01*
X008686Y007448D01*
X008615Y007412D01*
X008551Y007365D01*
X008495Y007309D01*
X008448Y007245D01*
X008412Y007174D01*
X008387Y007098D01*
X008375Y007020D01*
X008375Y007000D01*
X008860Y007000D01*
X008860Y006960D01*
X008375Y006960D01*
X008375Y006940D01*
X008387Y006862D01*
X008412Y006786D01*
X008448Y006715D01*
X008495Y006651D01*
X008551Y006595D01*
X008615Y006548D01*
X008631Y006540D01*
X008085Y006540D01*
X008155Y006569D01*
X008291Y006705D01*
X008365Y006884D01*
X008365Y007076D01*
X008291Y007255D01*
X008155Y007391D01*
X007976Y007465D01*
X007784Y007465D01*
X007605Y007391D01*
X007469Y007255D01*
X007395Y007076D01*
X007395Y006884D01*
X007469Y006705D01*
X007605Y006569D01*
X007675Y006540D01*
X007085Y006540D01*
X007155Y006569D01*
X007291Y006705D01*
X007365Y006884D01*
X007365Y007076D01*
X007291Y007255D01*
X007155Y007391D01*
X006976Y007465D01*
X006784Y007465D01*
X006605Y007391D01*
X006469Y007255D01*
X006395Y007076D01*
X006395Y006884D01*
X006469Y006705D01*
X006605Y006569D01*
X006675Y006540D01*
X006085Y006540D01*
X006155Y006569D01*
X006291Y006705D01*
X006365Y006884D01*
X006365Y007076D01*
X006291Y007255D01*
X006155Y007391D01*
X005976Y007465D01*
X005784Y007465D01*
X005605Y007391D01*
X005590Y007376D01*
X005590Y007584D01*
X005605Y007569D01*
X005784Y007495D01*
X005976Y007495D01*
X006155Y007569D01*
X006291Y007705D01*
X006365Y007884D01*
X006365Y008076D01*
X006291Y008255D01*
X006155Y008391D01*
X005976Y008465D01*
X005784Y008465D01*
X005605Y008391D01*
X005469Y008255D01*
X005395Y008076D01*
X005395Y007962D01*
X005365Y007992D01*
X005365Y008076D01*
X005291Y008255D01*
X005155Y008391D01*
X004976Y008465D01*
X004784Y008465D01*
X004605Y008391D01*
X004469Y008255D01*
X004395Y008076D01*
X004395Y007962D01*
X004365Y007992D01*
X004365Y008076D01*
X004291Y008255D01*
X004155Y008391D01*
X003976Y008465D01*
X003784Y008465D01*
X003605Y008391D01*
X003469Y008255D01*
X003395Y008076D01*
X003395Y007884D01*
X003469Y007705D01*
X003605Y007569D01*
X003784Y007495D01*
X003976Y007495D01*
X004155Y007569D01*
X004170Y007584D01*
X004170Y007376D01*
X004155Y007391D01*
X003976Y007465D01*
X003784Y007465D01*
X003605Y007391D01*
X003469Y007255D01*
X003395Y007076D01*
X003395Y006884D01*
X003469Y006705D01*
X003605Y006569D01*
X003784Y006495D01*
X003976Y006495D01*
X004155Y006569D01*
X004170Y006584D01*
X004170Y005843D01*
X004370Y005643D01*
X004493Y005520D01*
X007893Y005520D01*
X007931Y005430D01*
X008080Y005281D01*
X008275Y005200D01*
X008485Y005200D01*
X008680Y005281D01*
X008829Y005430D01*
X008880Y005552D01*
X008931Y005430D01*
X009080Y005281D01*
X009275Y005200D01*
X009485Y005200D01*
X009670Y005276D01*
X009670Y004684D01*
X009485Y004760D01*
X009447Y004760D01*
X009267Y004940D01*
X003267Y004940D01*
X003090Y005117D01*
X003090Y006542D01*
X003155Y006569D01*
X003291Y006705D01*
X003365Y006884D01*
X003365Y007076D01*
X003291Y007255D01*
X003155Y007391D01*
X002976Y007465D01*
X002784Y007465D01*
X002605Y007391D01*
X002469Y007255D01*
X002395Y007076D01*
X002395Y006884D01*
X002469Y006705D01*
X002605Y006569D01*
X002670Y006542D01*
X002670Y004943D01*
X002970Y004643D01*
X003093Y004520D01*
X007926Y004520D01*
X007893Y004440D01*
X002167Y004440D01*
X002090Y004517D01*
X002090Y006542D01*
X002155Y006569D01*
X002291Y006705D01*
X002365Y006884D01*
X002365Y007076D01*
X002291Y007255D01*
X002155Y007391D01*
X001976Y007465D01*
X001784Y007465D01*
X001605Y007391D01*
X001590Y007376D01*
X001590Y007393D01*
X001719Y007522D01*
X001784Y007495D01*
X001976Y007495D01*
X002155Y007569D01*
X002291Y007705D01*
X002365Y007884D01*
X002365Y008076D01*
X002291Y008255D01*
X002155Y008391D01*
X001976Y008465D01*
X001784Y008465D01*
X001605Y008391D01*
X001469Y008255D01*
X001395Y008076D01*
X001395Y007884D01*
X001422Y007819D01*
X001380Y007777D01*
X001338Y007819D01*
X001365Y007884D01*
X001365Y008076D01*
X001291Y008255D01*
X001155Y008391D01*
X000976Y008465D01*
X000784Y008465D01*
X000605Y008391D01*
X000469Y008255D01*
X000395Y008076D01*
X000395Y007884D01*
X000469Y007705D01*
X000605Y007569D01*
X000784Y007495D01*
X000976Y007495D01*
X001041Y007522D01*
X001078Y007485D01*
X000900Y007485D01*
X000900Y007000D01*
X000860Y007000D01*
X000860Y007485D01*
X000531Y007485D01*
X000486Y007473D01*
X000444Y007449D01*
X000411Y007416D01*
X000387Y007374D01*
X000380Y007347D01*
X000380Y008280D01*
X000384Y008319D01*
X000414Y008391D01*
X000469Y008446D01*
X000541Y008476D01*
X000580Y008480D01*
X020280Y008480D01*
X020300Y008478D01*
X020336Y008463D01*
X020363Y008436D01*
X020378Y008400D01*
X020380Y008380D01*
X020380Y000691D01*
X020368Y000672D01*
X020380Y000610D01*
X020380Y000547D01*
X020385Y000542D01*
X020374Y000485D01*
X020334Y000426D01*
X020275Y000387D01*
X020241Y000376D01*
X020160Y000360D01*
X020146Y000340D01*
X000614Y000340D01*
X000384Y000497D02*
X020376Y000497D01*
X020371Y000656D02*
X000389Y000656D01*
X000380Y000814D02*
X008241Y000814D01*
X007988Y000973D02*
X000380Y000973D01*
X000380Y001131D02*
X007889Y001131D01*
X007850Y001290D02*
X000380Y001290D01*
X000380Y001448D02*
X007855Y001448D01*
X007921Y001607D02*
X000380Y001607D01*
X000380Y001765D02*
X008065Y001765D01*
X008677Y001924D02*
X000380Y001924D01*
X000380Y002082D02*
X008835Y002082D01*
X009494Y002241D02*
X000380Y002241D01*
X000380Y002399D02*
X008061Y002399D01*
X007919Y002558D02*
X000380Y002558D01*
X000380Y002716D02*
X001597Y002716D01*
X001439Y002875D02*
X000380Y002875D01*
X000380Y003033D02*
X001280Y003033D01*
X001170Y003192D02*
X000380Y003192D01*
X000380Y003350D02*
X001170Y003350D01*
X001170Y003509D02*
X000380Y003509D01*
X000380Y003667D02*
X001170Y003667D01*
X001170Y003826D02*
X000380Y003826D01*
X000380Y003984D02*
X001170Y003984D01*
X001170Y004143D02*
X000380Y004143D01*
X000380Y004301D02*
X001170Y004301D01*
X001170Y004460D02*
X000380Y004460D01*
X000380Y004618D02*
X001170Y004618D01*
X001170Y004777D02*
X000380Y004777D01*
X000380Y004935D02*
X001170Y004935D01*
X001170Y005094D02*
X000380Y005094D01*
X000380Y005252D02*
X001170Y005252D01*
X001170Y005411D02*
X000380Y005411D01*
X000380Y005569D02*
X001170Y005569D01*
X001170Y005728D02*
X000380Y005728D01*
X000380Y005886D02*
X001170Y005886D01*
X001170Y006045D02*
X000380Y006045D01*
X000380Y006203D02*
X001170Y006203D01*
X001170Y006362D02*
X000380Y006362D01*
X000380Y006520D02*
X000435Y006520D01*
X000860Y006520D02*
X000900Y006520D01*
X000900Y006679D02*
X000860Y006679D01*
X000860Y006837D02*
X000900Y006837D01*
X000900Y007154D02*
X000860Y007154D01*
X000860Y007313D02*
X000900Y007313D01*
X000900Y007471D02*
X000860Y007471D01*
X000545Y007630D02*
X000380Y007630D01*
X000380Y007788D02*
X000435Y007788D01*
X000395Y007947D02*
X000380Y007947D01*
X000380Y008105D02*
X000407Y008105D01*
X000380Y008264D02*
X000478Y008264D01*
X000445Y008422D02*
X000680Y008422D01*
X001080Y008422D02*
X001680Y008422D01*
X001478Y008264D02*
X001282Y008264D01*
X001353Y008105D02*
X001407Y008105D01*
X001395Y007947D02*
X001365Y007947D01*
X001369Y007788D02*
X001391Y007788D01*
X001668Y007471D02*
X004170Y007471D01*
X003545Y007630D02*
X003215Y007630D01*
X003155Y007569D02*
X003291Y007705D01*
X003365Y007884D01*
X003365Y008076D01*
X003291Y008255D01*
X003155Y008391D01*
X002976Y008465D01*
X002784Y008465D01*
X002605Y008391D01*
X002469Y008255D01*
X002395Y008076D01*
X002395Y007884D01*
X002469Y007705D01*
X002605Y007569D01*
X002784Y007495D01*
X002976Y007495D01*
X003155Y007569D01*
X003325Y007788D02*
X003435Y007788D01*
X003395Y007947D02*
X003365Y007947D01*
X003353Y008105D02*
X003407Y008105D01*
X003478Y008264D02*
X003282Y008264D01*
X003080Y008422D02*
X003680Y008422D01*
X004080Y008422D02*
X004680Y008422D01*
X004478Y008264D02*
X004282Y008264D01*
X004353Y008105D02*
X004407Y008105D01*
X005080Y008422D02*
X005680Y008422D01*
X005478Y008264D02*
X005282Y008264D01*
X005353Y008105D02*
X005407Y008105D01*
X006080Y008422D02*
X006680Y008422D01*
X006605Y008391D02*
X006784Y008465D01*
X006976Y008465D01*
X007155Y008391D01*
X007291Y008255D01*
X007365Y008076D01*
X007365Y007884D01*
X007291Y007705D01*
X007155Y007569D01*
X006976Y007495D01*
X006784Y007495D01*
X006605Y007569D01*
X006469Y007705D01*
X006395Y007884D01*
X006395Y008076D01*
X006469Y008255D01*
X006605Y008391D01*
X006478Y008264D02*
X006282Y008264D01*
X006353Y008105D02*
X006407Y008105D01*
X006395Y007947D02*
X006365Y007947D01*
X006325Y007788D02*
X006435Y007788D01*
X006545Y007630D02*
X006215Y007630D01*
X005590Y007471D02*
X008757Y007471D01*
X008784Y007495D02*
X008976Y007495D01*
X009155Y007569D01*
X009291Y007705D01*
X009365Y007884D01*
X009365Y008076D01*
X009291Y008255D01*
X009155Y008391D01*
X008976Y008465D01*
X008784Y008465D01*
X008605Y008391D01*
X008469Y008255D01*
X008395Y008076D01*
X008395Y007884D01*
X008469Y007705D01*
X008605Y007569D01*
X008784Y007495D01*
X008860Y007471D02*
X008900Y007471D01*
X008900Y007485D02*
X008900Y007000D01*
X009385Y007000D01*
X009385Y007020D01*
X009373Y007098D01*
X009348Y007174D01*
X009312Y007245D01*
X009265Y007309D01*
X009209Y007365D01*
X009145Y007412D01*
X009074Y007448D01*
X008998Y007473D01*
X008920Y007485D01*
X008900Y007485D01*
X009003Y007471D02*
X012170Y007471D01*
X012590Y007471D02*
X020380Y007471D01*
X020291Y007255D02*
X020155Y007391D01*
X019976Y007465D01*
X019784Y007465D01*
X019605Y007391D01*
X019469Y007255D01*
X019395Y007076D01*
X019395Y006884D01*
X019469Y006705D01*
X019605Y006569D01*
X019784Y006495D01*
X019976Y006495D01*
X020155Y006569D01*
X020291Y006705D01*
X020365Y006884D01*
X020365Y007076D01*
X020291Y007255D01*
X020233Y007313D02*
X020380Y007313D01*
X020380Y007154D02*
X020333Y007154D01*
X020365Y006996D02*
X020380Y006996D01*
X020380Y006837D02*
X020346Y006837D01*
X020380Y006679D02*
X020264Y006679D01*
X020380Y006520D02*
X020037Y006520D01*
X019723Y006520D02*
X019037Y006520D01*
X018976Y006495D02*
X019155Y006569D01*
X019291Y006705D01*
X019365Y006884D01*
X019365Y007076D01*
X019291Y007255D01*
X019155Y007391D01*
X018976Y007465D01*
X018784Y007465D01*
X018605Y007391D01*
X018469Y007255D01*
X018395Y007076D01*
X018395Y006884D01*
X018469Y006705D01*
X018605Y006569D01*
X018784Y006495D01*
X018976Y006495D01*
X018723Y006520D02*
X018037Y006520D01*
X017976Y006495D02*
X018155Y006569D01*
X018291Y006705D01*
X018365Y006884D01*
X018365Y007076D01*
X018291Y007255D01*
X018155Y007391D01*
X017976Y007465D01*
X017784Y007465D01*
X017605Y007391D01*
X017469Y007255D01*
X017395Y007076D01*
X017395Y006884D01*
X017469Y006705D01*
X017605Y006569D01*
X017784Y006495D01*
X017976Y006495D01*
X017723Y006520D02*
X017037Y006520D01*
X016976Y006495D02*
X017155Y006569D01*
X017291Y006705D01*
X017365Y006884D01*
X017365Y007076D01*
X017291Y007255D01*
X017155Y007391D01*
X016976Y007465D01*
X016784Y007465D01*
X016605Y007391D01*
X016469Y007255D01*
X016395Y007076D01*
X016395Y006884D01*
X016469Y006705D01*
X016605Y006569D01*
X016784Y006495D01*
X016976Y006495D01*
X016723Y006520D02*
X016037Y006520D01*
X015976Y006495D02*
X016155Y006569D01*
X016291Y006705D01*
X016365Y006884D01*
X016365Y007076D01*
X016291Y007255D01*
X016155Y007391D01*
X015976Y007465D01*
X015784Y007465D01*
X015605Y007391D01*
X015469Y007255D01*
X015395Y007076D01*
X015395Y006884D01*
X015469Y006705D01*
X015605Y006569D01*
X015784Y006495D01*
X015976Y006495D01*
X015723Y006520D02*
X015037Y006520D01*
X014976Y006495D02*
X015155Y006569D01*
X015291Y006705D01*
X015365Y006884D01*
X015365Y007076D01*
X015291Y007255D01*
X015155Y007391D01*
X014976Y007465D01*
X014784Y007465D01*
X014605Y007391D01*
X014469Y007255D01*
X014395Y007076D01*
X014395Y006884D01*
X014469Y006705D01*
X014605Y006569D01*
X014784Y006495D01*
X014976Y006495D01*
X014723Y006520D02*
X014037Y006520D01*
X013976Y006495D02*
X014155Y006569D01*
X014291Y006705D01*
X014365Y006884D01*
X014365Y007076D01*
X014291Y007255D01*
X014155Y007391D01*
X013976Y007465D01*
X013784Y007465D01*
X013605Y007391D01*
X013469Y007255D01*
X013395Y007076D01*
X013395Y006884D01*
X013469Y006705D01*
X013605Y006569D01*
X013784Y006495D01*
X013976Y006495D01*
X013723Y006520D02*
X013037Y006520D01*
X012723Y006520D02*
X012590Y006520D01*
X012590Y006362D02*
X020380Y006362D01*
X020380Y006203D02*
X012590Y006203D01*
X012590Y006045D02*
X020380Y006045D01*
X020380Y005886D02*
X012590Y005886D01*
X012590Y005728D02*
X020380Y005728D01*
X020380Y005569D02*
X012590Y005569D01*
X012590Y005411D02*
X020380Y005411D01*
X020380Y005252D02*
X012590Y005252D01*
X012590Y005094D02*
X020380Y005094D01*
X020380Y004935D02*
X012590Y004935D01*
X012590Y004777D02*
X020380Y004777D01*
X020380Y004618D02*
X012590Y004618D01*
X012590Y004460D02*
X020380Y004460D01*
X020380Y004301D02*
X012590Y004301D01*
X012590Y004143D02*
X020380Y004143D01*
X020380Y003984D02*
X012590Y003984D01*
X012590Y003826D02*
X020380Y003826D01*
X020380Y003667D02*
X012590Y003667D01*
X012590Y003509D02*
X020380Y003509D01*
X020380Y003350D02*
X012590Y003350D01*
X012590Y003192D02*
X020380Y003192D01*
X020380Y003033D02*
X012590Y003033D01*
X012590Y002875D02*
X020380Y002875D01*
X020380Y002716D02*
X012590Y002716D01*
X012590Y002558D02*
X020380Y002558D01*
X020380Y002399D02*
X012590Y002399D01*
X012590Y002241D02*
X020380Y002241D01*
X020380Y002082D02*
X012590Y002082D01*
X012590Y001924D02*
X020380Y001924D01*
X020380Y001765D02*
X012590Y001765D01*
X012590Y001607D02*
X020380Y001607D01*
X020380Y001448D02*
X012590Y001448D01*
X012436Y001290D02*
X020380Y001290D01*
X020380Y001131D02*
X012278Y001131D01*
X011772Y000973D02*
X020380Y000973D01*
X020380Y000814D02*
X011519Y000814D01*
X011241Y000814D02*
X010519Y000814D01*
X010241Y000814D02*
X009519Y000814D01*
X009241Y000814D02*
X008519Y000814D01*
X008772Y000973D02*
X008988Y000973D01*
X008889Y001131D02*
X008871Y001131D01*
X009772Y000973D02*
X009988Y000973D01*
X009889Y001131D02*
X009871Y001131D01*
X010772Y000973D02*
X010988Y000973D01*
X010889Y001131D02*
X010871Y001131D01*
X011087Y002241D02*
X011670Y002241D01*
X011670Y002399D02*
X011090Y002399D01*
X011090Y002558D02*
X011670Y002558D01*
X011670Y002716D02*
X011090Y002716D01*
X011090Y002875D02*
X011670Y002875D01*
X011670Y003033D02*
X011090Y003033D01*
X011090Y003192D02*
X011670Y003192D01*
X011670Y003350D02*
X011090Y003350D01*
X011090Y003509D02*
X011670Y003509D01*
X011670Y003667D02*
X011090Y003667D01*
X011090Y003826D02*
X011670Y003826D01*
X011670Y003984D02*
X011090Y003984D01*
X011090Y004143D02*
X011670Y004143D01*
X011670Y004301D02*
X011090Y004301D01*
X011090Y004460D02*
X011670Y004460D01*
X011670Y004618D02*
X011090Y004618D01*
X011090Y004777D02*
X011670Y004777D01*
X011670Y004935D02*
X011090Y004935D01*
X011090Y005094D02*
X011670Y005094D01*
X011670Y005252D02*
X011090Y005252D01*
X011090Y005411D02*
X011670Y005411D01*
X011670Y005569D02*
X011090Y005569D01*
X011090Y005728D02*
X011670Y005728D01*
X011670Y005886D02*
X011090Y005886D01*
X011090Y006045D02*
X011670Y006045D01*
X011670Y006203D02*
X011090Y006203D01*
X011090Y006362D02*
X011670Y006362D01*
X011670Y006520D02*
X011090Y006520D01*
X011264Y006679D02*
X011496Y006679D01*
X011414Y006837D02*
X011346Y006837D01*
X011365Y006996D02*
X011395Y006996D01*
X011427Y007154D02*
X011333Y007154D01*
X011233Y007313D02*
X011527Y007313D01*
X011155Y007569D02*
X011291Y007705D01*
X011365Y007884D01*
X011365Y008076D01*
X011291Y008255D01*
X011155Y008391D01*
X010976Y008465D01*
X010784Y008465D01*
X010605Y008391D01*
X010469Y008255D01*
X010395Y008076D01*
X010395Y007884D01*
X010469Y007705D01*
X010605Y007569D01*
X010784Y007495D01*
X010976Y007495D01*
X011155Y007569D01*
X011215Y007630D02*
X011545Y007630D01*
X011435Y007788D02*
X011325Y007788D01*
X011365Y007947D02*
X011395Y007947D01*
X011407Y008105D02*
X011353Y008105D01*
X011282Y008264D02*
X011478Y008264D01*
X011680Y008422D02*
X011080Y008422D01*
X010680Y008422D02*
X010080Y008422D01*
X010155Y008391D02*
X009976Y008465D01*
X009784Y008465D01*
X009605Y008391D01*
X009469Y008255D01*
X009395Y008076D01*
X009395Y007884D01*
X009469Y007705D01*
X009605Y007569D01*
X009784Y007495D01*
X009976Y007495D01*
X010155Y007569D01*
X010291Y007705D01*
X010365Y007884D01*
X010365Y008076D01*
X010291Y008255D01*
X010155Y008391D01*
X010282Y008264D02*
X010478Y008264D01*
X010407Y008105D02*
X010353Y008105D01*
X010365Y007947D02*
X010395Y007947D01*
X010435Y007788D02*
X010325Y007788D01*
X010215Y007630D02*
X010545Y007630D01*
X010527Y007313D02*
X010233Y007313D01*
X010333Y007154D02*
X010427Y007154D01*
X010395Y006996D02*
X010365Y006996D01*
X010346Y006837D02*
X010414Y006837D01*
X010496Y006679D02*
X010264Y006679D01*
X010090Y006520D02*
X010670Y006520D01*
X010670Y006362D02*
X010090Y006362D01*
X010090Y006203D02*
X010670Y006203D01*
X010670Y006045D02*
X010090Y006045D01*
X010090Y005886D02*
X010670Y005886D01*
X010670Y005728D02*
X010090Y005728D01*
X010090Y005569D02*
X010670Y005569D01*
X010670Y005411D02*
X010090Y005411D01*
X010090Y005252D02*
X010670Y005252D01*
X010670Y005094D02*
X010090Y005094D01*
X010090Y004935D02*
X010670Y004935D01*
X010670Y004777D02*
X010090Y004777D01*
X010090Y004618D02*
X010670Y004618D01*
X010670Y004460D02*
X010090Y004460D01*
X010090Y004301D02*
X010670Y004301D01*
X010670Y004143D02*
X010090Y004143D01*
X010090Y003984D02*
X010670Y003984D01*
X010670Y003826D02*
X010090Y003826D01*
X010090Y003667D02*
X010670Y003667D01*
X010670Y003509D02*
X010090Y003509D01*
X010090Y003350D02*
X010250Y003350D01*
X010510Y003350D02*
X010670Y003350D01*
X009670Y003350D02*
X009559Y003350D01*
X009591Y003340D02*
X009509Y003366D01*
X009423Y003380D01*
X009400Y003380D01*
X009400Y002850D01*
X009360Y002850D01*
X009360Y003380D01*
X009337Y003380D01*
X009251Y003366D01*
X009169Y003340D01*
X009092Y003300D01*
X009022Y003250D01*
X008960Y003188D01*
X008910Y003118D01*
X008870Y003041D01*
X008869Y003036D01*
X008829Y003130D01*
X008680Y003279D01*
X008485Y003360D01*
X008275Y003360D01*
X008080Y003279D01*
X007931Y003130D01*
X007893Y003040D01*
X001867Y003040D01*
X001590Y003317D01*
X001590Y006584D01*
X001605Y006569D01*
X001670Y006542D01*
X001670Y004343D01*
X001870Y004143D01*
X001993Y004020D01*
X007893Y004020D01*
X007931Y003930D01*
X008080Y003781D01*
X008275Y003700D01*
X008485Y003700D01*
X008680Y003781D01*
X008829Y003930D01*
X008880Y004052D01*
X008931Y003930D01*
X009080Y003781D01*
X009275Y003700D01*
X009485Y003700D01*
X009670Y003776D01*
X009670Y003299D01*
X009668Y003300D01*
X009591Y003340D01*
X009400Y003350D02*
X009360Y003350D01*
X009360Y003192D02*
X009400Y003192D01*
X009201Y003350D02*
X008510Y003350D01*
X008250Y003350D02*
X001590Y003350D01*
X001715Y003192D02*
X007992Y003192D01*
X008768Y003192D02*
X008964Y003192D01*
X009360Y003033D02*
X009400Y003033D01*
X009400Y002875D02*
X009360Y002875D01*
X009360Y002716D02*
X009400Y002716D01*
X009400Y002558D02*
X009360Y002558D01*
X009360Y002399D02*
X009400Y002399D01*
X009037Y002399D02*
X008699Y002399D01*
X008841Y002558D02*
X008902Y002558D01*
X009670Y003509D02*
X001590Y003509D01*
X001590Y003667D02*
X009670Y003667D01*
X009035Y003826D02*
X008725Y003826D01*
X008852Y003984D02*
X008908Y003984D01*
X008035Y003826D02*
X001590Y003826D01*
X001590Y003984D02*
X007908Y003984D01*
X007901Y004460D02*
X002147Y004460D01*
X002090Y004618D02*
X002995Y004618D01*
X002837Y004777D02*
X002090Y004777D01*
X002090Y004935D02*
X002678Y004935D01*
X002670Y005094D02*
X002090Y005094D01*
X002090Y005252D02*
X002670Y005252D01*
X002670Y005411D02*
X002090Y005411D01*
X002090Y005569D02*
X002670Y005569D01*
X002670Y005728D02*
X002090Y005728D01*
X002090Y005886D02*
X002670Y005886D01*
X002670Y006045D02*
X002090Y006045D01*
X002090Y006203D02*
X002670Y006203D01*
X002670Y006362D02*
X002090Y006362D01*
X002090Y006520D02*
X002670Y006520D01*
X002496Y006679D02*
X002264Y006679D01*
X002346Y006837D02*
X002414Y006837D01*
X002395Y006996D02*
X002365Y006996D01*
X002333Y007154D02*
X002427Y007154D01*
X002527Y007313D02*
X002233Y007313D01*
X002215Y007630D02*
X002545Y007630D01*
X002435Y007788D02*
X002325Y007788D01*
X002365Y007947D02*
X002395Y007947D01*
X002407Y008105D02*
X002353Y008105D01*
X002282Y008264D02*
X002478Y008264D01*
X002680Y008422D02*
X002080Y008422D01*
X000483Y007471D02*
X000380Y007471D01*
X001590Y006520D02*
X001670Y006520D01*
X001670Y006362D02*
X001590Y006362D01*
X001590Y006203D02*
X001670Y006203D01*
X001670Y006045D02*
X001590Y006045D01*
X001590Y005886D02*
X001670Y005886D01*
X001670Y005728D02*
X001590Y005728D01*
X001590Y005569D02*
X001670Y005569D01*
X001670Y005411D02*
X001590Y005411D01*
X001590Y005252D02*
X001670Y005252D01*
X001670Y005094D02*
X001590Y005094D01*
X001590Y004935D02*
X001670Y004935D01*
X001670Y004777D02*
X001590Y004777D01*
X001590Y004618D02*
X001670Y004618D01*
X001670Y004460D02*
X001590Y004460D01*
X001590Y004301D02*
X001712Y004301D01*
X001590Y004143D02*
X001871Y004143D01*
X003113Y005094D02*
X009670Y005094D01*
X009670Y005252D02*
X009611Y005252D01*
X009149Y005252D02*
X008611Y005252D01*
X008810Y005411D02*
X008950Y005411D01*
X008149Y005252D02*
X003090Y005252D01*
X003090Y005411D02*
X007950Y005411D01*
X009272Y004935D02*
X009670Y004935D01*
X009670Y004777D02*
X009430Y004777D01*
X009623Y006203D02*
X009670Y006203D01*
X009590Y006217D02*
X009590Y006217D01*
X009670Y006362D02*
X009445Y006362D01*
X009287Y006520D02*
X009670Y006520D01*
X009496Y006679D02*
X009285Y006679D01*
X009365Y006837D02*
X009414Y006837D01*
X009395Y006996D02*
X008900Y006996D01*
X008860Y006996D02*
X008365Y006996D01*
X008346Y006837D02*
X008395Y006837D01*
X008475Y006679D02*
X008264Y006679D01*
X007496Y006679D02*
X007264Y006679D01*
X007346Y006837D02*
X007414Y006837D01*
X007395Y006996D02*
X007365Y006996D01*
X007333Y007154D02*
X007427Y007154D01*
X007527Y007313D02*
X007233Y007313D01*
X007605Y007569D02*
X007784Y007495D01*
X007976Y007495D01*
X008155Y007569D01*
X008291Y007705D01*
X008365Y007884D01*
X008365Y008076D01*
X008291Y008255D01*
X008155Y008391D01*
X007976Y008465D01*
X007784Y008465D01*
X007605Y008391D01*
X007469Y008255D01*
X007395Y008076D01*
X007395Y007884D01*
X007469Y007705D01*
X007605Y007569D01*
X007545Y007630D02*
X007215Y007630D01*
X007325Y007788D02*
X007435Y007788D01*
X007395Y007947D02*
X007365Y007947D01*
X007353Y008105D02*
X007407Y008105D01*
X007478Y008264D02*
X007282Y008264D01*
X007080Y008422D02*
X007680Y008422D01*
X008080Y008422D02*
X008680Y008422D01*
X008478Y008264D02*
X008282Y008264D01*
X008353Y008105D02*
X008407Y008105D01*
X008395Y007947D02*
X008365Y007947D01*
X008325Y007788D02*
X008435Y007788D01*
X008545Y007630D02*
X008215Y007630D01*
X008233Y007313D02*
X008498Y007313D01*
X008406Y007154D02*
X008333Y007154D01*
X008860Y007154D02*
X008900Y007154D01*
X008900Y007313D02*
X008860Y007313D01*
X009262Y007313D02*
X009527Y007313D01*
X009427Y007154D02*
X009354Y007154D01*
X009215Y007630D02*
X009545Y007630D01*
X009435Y007788D02*
X009325Y007788D01*
X009365Y007947D02*
X009395Y007947D01*
X009407Y008105D02*
X009353Y008105D01*
X009282Y008264D02*
X009478Y008264D01*
X009680Y008422D02*
X009080Y008422D01*
X006527Y007313D02*
X006233Y007313D01*
X006333Y007154D02*
X006427Y007154D01*
X006395Y006996D02*
X006365Y006996D01*
X006346Y006837D02*
X006414Y006837D01*
X006496Y006679D02*
X006264Y006679D01*
X004170Y006520D02*
X004037Y006520D01*
X004170Y006362D02*
X003090Y006362D01*
X003090Y006203D02*
X004170Y006203D01*
X004170Y006045D02*
X003090Y006045D01*
X003090Y005886D02*
X004170Y005886D01*
X004286Y005728D02*
X003090Y005728D01*
X003090Y005569D02*
X004444Y005569D01*
X003723Y006520D02*
X003090Y006520D01*
X003264Y006679D02*
X003496Y006679D01*
X003414Y006837D02*
X003346Y006837D01*
X003365Y006996D02*
X003395Y006996D01*
X003427Y007154D02*
X003333Y007154D01*
X003233Y007313D02*
X003527Y007313D01*
X012080Y008422D02*
X012680Y008422D01*
X012478Y008264D02*
X012282Y008264D01*
X012353Y008105D02*
X012407Y008105D01*
X013080Y008422D02*
X013680Y008422D01*
X013605Y008391D02*
X013469Y008255D01*
X013395Y008076D01*
X013395Y007884D01*
X013469Y007705D01*
X013605Y007569D01*
X013784Y007495D01*
X013976Y007495D01*
X014155Y007569D01*
X014291Y007705D01*
X014365Y007884D01*
X014365Y008076D01*
X014291Y008255D01*
X014155Y008391D01*
X013976Y008465D01*
X013784Y008465D01*
X013605Y008391D01*
X013478Y008264D02*
X013282Y008264D01*
X013353Y008105D02*
X013407Y008105D01*
X013395Y007947D02*
X013365Y007947D01*
X013325Y007788D02*
X013435Y007788D01*
X013545Y007630D02*
X013215Y007630D01*
X013233Y007313D02*
X013527Y007313D01*
X013427Y007154D02*
X013333Y007154D01*
X013365Y006996D02*
X013395Y006996D01*
X013414Y006837D02*
X013346Y006837D01*
X013264Y006679D02*
X013496Y006679D01*
X014264Y006679D02*
X014496Y006679D01*
X014414Y006837D02*
X014346Y006837D01*
X014365Y006996D02*
X014395Y006996D01*
X014427Y007154D02*
X014333Y007154D01*
X014233Y007313D02*
X014527Y007313D01*
X014605Y007569D02*
X014784Y007495D01*
X014976Y007495D01*
X015155Y007569D01*
X015291Y007705D01*
X015365Y007884D01*
X015365Y008076D01*
X015291Y008255D01*
X015155Y008391D01*
X014976Y008465D01*
X014784Y008465D01*
X014605Y008391D01*
X014469Y008255D01*
X014395Y008076D01*
X014395Y007884D01*
X014469Y007705D01*
X014605Y007569D01*
X014545Y007630D02*
X014215Y007630D01*
X014325Y007788D02*
X014435Y007788D01*
X014395Y007947D02*
X014365Y007947D01*
X014353Y008105D02*
X014407Y008105D01*
X014478Y008264D02*
X014282Y008264D01*
X014080Y008422D02*
X014680Y008422D01*
X015080Y008422D02*
X015680Y008422D01*
X015605Y008391D02*
X015469Y008255D01*
X015395Y008076D01*
X015395Y007884D01*
X015469Y007705D01*
X015605Y007569D01*
X015784Y007495D01*
X015976Y007495D01*
X016155Y007569D01*
X016291Y007705D01*
X016365Y007884D01*
X016365Y008076D01*
X016291Y008255D01*
X016155Y008391D01*
X015976Y008465D01*
X015784Y008465D01*
X015605Y008391D01*
X015478Y008264D02*
X015282Y008264D01*
X015353Y008105D02*
X015407Y008105D01*
X015395Y007947D02*
X015365Y007947D01*
X015325Y007788D02*
X015435Y007788D01*
X015545Y007630D02*
X015215Y007630D01*
X015233Y007313D02*
X015527Y007313D01*
X015427Y007154D02*
X015333Y007154D01*
X015365Y006996D02*
X015395Y006996D01*
X015414Y006837D02*
X015346Y006837D01*
X015264Y006679D02*
X015496Y006679D01*
X016264Y006679D02*
X016496Y006679D01*
X016414Y006837D02*
X016346Y006837D01*
X016365Y006996D02*
X016395Y006996D01*
X016427Y007154D02*
X016333Y007154D01*
X016233Y007313D02*
X016527Y007313D01*
X016605Y007569D02*
X016784Y007495D01*
X016976Y007495D01*
X017155Y007569D01*
X017291Y007705D01*
X017365Y007884D01*
X017365Y008076D01*
X017291Y008255D01*
X017155Y008391D01*
X016976Y008465D01*
X016784Y008465D01*
X016605Y008391D01*
X016469Y008255D01*
X016395Y008076D01*
X016395Y007884D01*
X016469Y007705D01*
X016605Y007569D01*
X016545Y007630D02*
X016215Y007630D01*
X016325Y007788D02*
X016435Y007788D01*
X016395Y007947D02*
X016365Y007947D01*
X016353Y008105D02*
X016407Y008105D01*
X016478Y008264D02*
X016282Y008264D01*
X016080Y008422D02*
X016680Y008422D01*
X017080Y008422D02*
X017680Y008422D01*
X017605Y008391D02*
X017784Y008465D01*
X017976Y008465D01*
X018155Y008391D01*
X018291Y008255D01*
X018365Y008076D01*
X018365Y007884D01*
X018291Y007705D01*
X018155Y007569D01*
X017976Y007495D01*
X017784Y007495D01*
X017605Y007569D01*
X017469Y007705D01*
X017395Y007884D01*
X017395Y008076D01*
X017469Y008255D01*
X017605Y008391D01*
X017478Y008264D02*
X017282Y008264D01*
X017353Y008105D02*
X017407Y008105D01*
X017395Y007947D02*
X017365Y007947D01*
X017325Y007788D02*
X017435Y007788D01*
X017545Y007630D02*
X017215Y007630D01*
X017233Y007313D02*
X017527Y007313D01*
X017427Y007154D02*
X017333Y007154D01*
X017365Y006996D02*
X017395Y006996D01*
X017414Y006837D02*
X017346Y006837D01*
X017264Y006679D02*
X017496Y006679D01*
X018264Y006679D02*
X018496Y006679D01*
X018414Y006837D02*
X018346Y006837D01*
X018365Y006996D02*
X018395Y006996D01*
X018427Y007154D02*
X018333Y007154D01*
X018233Y007313D02*
X018527Y007313D01*
X018605Y007569D02*
X018784Y007495D01*
X018976Y007495D01*
X019155Y007569D01*
X019291Y007705D01*
X019365Y007884D01*
X019365Y008076D01*
X019291Y008255D01*
X019155Y008391D01*
X018976Y008465D01*
X018784Y008465D01*
X018605Y008391D01*
X018469Y008255D01*
X018395Y008076D01*
X018395Y007884D01*
X018469Y007705D01*
X018605Y007569D01*
X018545Y007630D02*
X018215Y007630D01*
X018325Y007788D02*
X018435Y007788D01*
X018395Y007947D02*
X018365Y007947D01*
X018353Y008105D02*
X018407Y008105D01*
X018478Y008264D02*
X018282Y008264D01*
X018080Y008422D02*
X018680Y008422D01*
X019080Y008422D02*
X019680Y008422D01*
X019605Y008391D02*
X019469Y008255D01*
X019395Y008076D01*
X019395Y007884D01*
X019469Y007705D01*
X019605Y007569D01*
X019784Y007495D01*
X019976Y007495D01*
X020155Y007569D01*
X020291Y007705D01*
X020365Y007884D01*
X020365Y008076D01*
X020291Y008255D01*
X020155Y008391D01*
X019976Y008465D01*
X019784Y008465D01*
X019605Y008391D01*
X019478Y008264D02*
X019282Y008264D01*
X019353Y008105D02*
X019407Y008105D01*
X019395Y007947D02*
X019365Y007947D01*
X019325Y007788D02*
X019435Y007788D01*
X019545Y007630D02*
X019215Y007630D01*
X019233Y007313D02*
X019527Y007313D01*
X019427Y007154D02*
X019333Y007154D01*
X019365Y006996D02*
X019395Y006996D01*
X019414Y006837D02*
X019346Y006837D01*
X019264Y006679D02*
X019496Y006679D01*
X020215Y007630D02*
X020380Y007630D01*
X020380Y007788D02*
X020325Y007788D01*
X020365Y007947D02*
X020380Y007947D01*
X020380Y008105D02*
X020353Y008105D01*
X020380Y008264D02*
X020282Y008264D01*
X020369Y008422D02*
X020080Y008422D01*
D15*
X018980Y005830D03*
X015648Y003985D03*
X013430Y002480D03*
X017980Y001580D03*
X001580Y001130D03*
M02*
