G75*
%MOIN*%
%OFA0B0*%
%FSLAX24Y24*%
%IPPOS*%
%LPD*%
%AMOC8*
5,1,8,0,0,1.08239X$1,22.5*
%
%ADD10C,0.0060*%
%ADD11C,0.0040*%
%ADD12C,0.0100*%
%ADD13C,0.0080*%
%ADD14C,0.0090*%
%ADD15R,0.0180X0.0300*%
%ADD16R,0.0300X0.0180*%
%ADD17C,0.0220*%
%ADD18R,0.0100X0.0300*%
%ADD19C,0.0059*%
%ADD20R,0.0337X0.0000*%
%ADD21R,0.0337X0.0000*%
%ADD22R,0.0344X0.0001*%
%ADD23R,0.0348X0.0000*%
%ADD24R,0.0347X0.0000*%
%ADD25R,0.0350X0.0000*%
%ADD26R,0.0350X0.0000*%
%ADD27R,0.0352X0.0001*%
%ADD28R,0.0355X0.0000*%
%ADD29R,0.0354X0.0000*%
%ADD30R,0.0356X0.0001*%
%ADD31R,0.0359X0.0000*%
%ADD32R,0.0360X0.0000*%
%ADD33R,0.0361X0.0001*%
%ADD34R,0.0363X0.0000*%
%ADD35R,0.0362X0.0000*%
%ADD36R,0.0365X0.0001*%
%ADD37R,0.0364X0.0001*%
%ADD38R,0.0365X0.0000*%
%ADD39R,0.0366X0.0000*%
%ADD40R,0.0366X0.0000*%
%ADD41R,0.0367X0.0001*%
%ADD42R,0.0369X0.0000*%
%ADD43R,0.0370X0.0001*%
%ADD44R,0.0369X0.0001*%
%ADD45R,0.0370X0.0000*%
%ADD46R,0.0371X0.0000*%
%ADD47R,0.0371X0.0000*%
%ADD48R,0.0372X0.0001*%
%ADD49R,0.0372X0.0001*%
%ADD50R,0.0373X0.0000*%
%ADD51R,0.0373X0.0000*%
%ADD52R,0.0374X0.0001*%
%ADD53R,0.0374X0.0001*%
%ADD54R,0.0375X0.0000*%
%ADD55R,0.0374X0.0000*%
%ADD56R,0.0375X0.0000*%
%ADD57R,0.0375X0.0000*%
%ADD58R,0.0375X0.0001*%
%ADD59R,0.0376X0.0001*%
%ADD60R,0.0376X0.0000*%
%ADD61R,0.0377X0.0001*%
%ADD62R,0.0376X0.0001*%
%ADD63R,0.0377X0.0000*%
%ADD64R,0.0378X0.0000*%
%ADD65R,0.0378X0.0000*%
%ADD66R,0.0379X0.0001*%
%ADD67R,0.0379X0.0000*%
%ADD68R,0.0379X0.0000*%
%ADD69R,0.0380X0.0001*%
%ADD70R,0.0379X0.0001*%
%ADD71R,0.0380X0.0000*%
%ADD72R,0.0379X0.0000*%
%ADD73R,0.0380X0.0000*%
%ADD74R,0.0380X0.0000*%
%ADD75R,0.0380X0.0001*%
%ADD76R,0.0381X0.0001*%
%ADD77R,0.0381X0.0000*%
%ADD78R,0.0381X0.0001*%
%ADD79R,0.0381X0.0001*%
%ADD80R,0.0381X0.0000*%
%ADD81R,0.0382X0.0001*%
%ADD82R,0.0381X0.0001*%
%ADD83R,0.0382X0.0000*%
%ADD84R,0.0382X0.0000*%
%ADD85R,0.0382X0.0001*%
%ADD86R,0.0382X0.0000*%
%ADD87R,0.0383X0.0000*%
%ADD88R,0.0383X0.0001*%
%ADD89R,0.0383X0.0001*%
%ADD90R,0.0383X0.0000*%
%ADD91R,0.0382X0.0001*%
%ADD92R,0.0379X0.0001*%
%ADD93R,0.0381X0.0000*%
%ADD94R,0.0378X0.0001*%
%ADD95R,0.0377X0.0000*%
%ADD96R,0.0376X0.0000*%
%ADD97R,0.0374X0.0000*%
%ADD98R,0.0377X0.0001*%
%ADD99R,0.0372X0.0000*%
%ADD100R,0.0371X0.0001*%
%ADD101R,0.0376X0.0001*%
%ADD102R,0.0371X0.0000*%
%ADD103R,0.0376X0.0000*%
%ADD104R,0.0370X0.0000*%
%ADD105R,0.0369X0.0001*%
%ADD106R,0.0374X0.0001*%
%ADD107R,0.0368X0.0000*%
%ADD108R,0.0374X0.0000*%
%ADD109R,0.0367X0.0001*%
%ADD110R,0.0373X0.0001*%
%ADD111R,0.0366X0.0000*%
%ADD112R,0.0372X0.0000*%
%ADD113R,0.0365X0.0000*%
%ADD114R,0.0371X0.0000*%
%ADD115R,0.0364X0.0001*%
%ADD116R,0.0371X0.0001*%
%ADD117R,0.0362X0.0000*%
%ADD118R,0.0369X0.0000*%
%ADD119R,0.0360X0.0001*%
%ADD120R,0.0369X0.0001*%
%ADD121R,0.0359X0.0000*%
%ADD122R,0.0367X0.0000*%
%ADD123R,0.0357X0.0000*%
%ADD124R,0.0355X0.0001*%
%ADD125R,0.0365X0.0001*%
%ADD126R,0.0354X0.0000*%
%ADD127R,0.0364X0.0000*%
%ADD128R,0.0351X0.0001*%
%ADD129R,0.0363X0.0001*%
%ADD130R,0.0348X0.0000*%
%ADD131R,0.0361X0.0000*%
%ADD132R,0.0345X0.0000*%
%ADD133R,0.0340X0.0001*%
%ADD134R,0.0359X0.0001*%
%ADD135R,0.0258X0.0000*%
%ADD136R,0.0356X0.0000*%
%ADD137R,0.0257X0.0001*%
%ADD138R,0.0354X0.0001*%
%ADD139R,0.0257X0.0000*%
%ADD140R,0.0352X0.0000*%
%ADD141R,0.0347X0.0001*%
%ADD142R,0.0257X0.0000*%
%ADD143R,0.0344X0.0000*%
%ADD144R,0.0257X0.0001*%
%ADD145R,0.0338X0.0001*%
%ADD146R,0.0239X0.0000*%
%ADD147R,0.0256X0.0000*%
%ADD148R,0.0256X0.0001*%
%ADD149R,0.0239X0.0001*%
%ADD150R,0.0239X0.0001*%
%ADD151R,0.0256X0.0000*%
%ADD152R,0.0239X0.0000*%
%ADD153R,0.0256X0.0001*%
%ADD154R,0.0255X0.0000*%
%ADD155R,0.0238X0.0000*%
%ADD156R,0.0255X0.0001*%
%ADD157R,0.0238X0.0001*%
%ADD158R,0.0255X0.0000*%
%ADD159R,0.0255X0.0001*%
%ADD160R,0.0238X0.0001*%
%ADD161R,0.0238X0.0000*%
%ADD162R,0.0255X0.0000*%
%ADD163R,0.0238X0.0000*%
%ADD164R,0.0255X0.0001*%
%ADD165R,0.0238X0.0001*%
%ADD166R,0.0254X0.0000*%
%ADD167R,0.0254X0.0001*%
%ADD168R,0.0237X0.0000*%
%ADD169R,0.0254X0.0001*%
%ADD170R,0.0237X0.0001*%
%ADD171R,0.0254X0.0000*%
%ADD172R,0.0253X0.0000*%
%ADD173R,0.0236X0.0000*%
%ADD174R,0.0253X0.0001*%
%ADD175R,0.0236X0.0001*%
%ADD176R,0.0253X0.0000*%
%ADD177R,0.0253X0.0001*%
%ADD178R,0.0236X0.0001*%
%ADD179R,0.0236X0.0000*%
%ADD180R,0.0252X0.0001*%
%ADD181R,0.0252X0.0000*%
%ADD182R,0.0235X0.0000*%
%ADD183R,0.0235X0.0001*%
%ADD184R,0.0251X0.0000*%
%ADD185R,0.0251X0.0001*%
%ADD186R,0.0235X0.0001*%
%ADD187R,0.0235X0.0000*%
%ADD188R,0.0251X0.0001*%
%ADD189R,0.0251X0.0000*%
%ADD190R,0.0234X0.0000*%
%ADD191R,0.0250X0.0001*%
%ADD192R,0.0234X0.0001*%
%ADD193R,0.0250X0.0000*%
%ADD194R,0.0250X0.0000*%
%ADD195R,0.0234X0.0000*%
%ADD196R,0.0250X0.0001*%
%ADD197R,0.0234X0.0001*%
%ADD198R,0.0250X0.0001*%
%ADD199R,0.0250X0.0000*%
%ADD200R,0.0233X0.0000*%
%ADD201R,0.0249X0.0001*%
%ADD202R,0.0233X0.0001*%
%ADD203R,0.0249X0.0000*%
%ADD204R,0.0233X0.0001*%
%ADD205R,0.0233X0.0000*%
%ADD206R,0.0249X0.0000*%
%ADD207R,0.0249X0.0001*%
%ADD208R,0.0232X0.0000*%
%ADD209R,0.0248X0.0001*%
%ADD210R,0.0232X0.0001*%
%ADD211R,0.0248X0.0000*%
%ADD212R,0.0248X0.0001*%
%ADD213R,0.0232X0.0001*%
%ADD214R,0.0248X0.0000*%
%ADD215R,0.0232X0.0000*%
%ADD216R,0.0247X0.0000*%
%ADD217R,0.0231X0.0000*%
%ADD218R,0.0247X0.0001*%
%ADD219R,0.0231X0.0001*%
%ADD220R,0.0246X0.0001*%
%ADD221R,0.0246X0.0000*%
%ADD222R,0.0231X0.0000*%
%ADD223R,0.0231X0.0001*%
%ADD224R,0.0246X0.0000*%
%ADD225R,0.0246X0.0001*%
%ADD226R,0.0230X0.0000*%
%ADD227R,0.0245X0.0000*%
%ADD228R,0.0245X0.0001*%
%ADD229R,0.0230X0.0001*%
%ADD230R,0.0245X0.0001*%
%ADD231R,0.0230X0.0001*%
%ADD232R,0.0245X0.0000*%
%ADD233R,0.0230X0.0000*%
%ADD234R,0.0245X0.0000*%
%ADD235R,0.0229X0.0000*%
%ADD236R,0.0245X0.0001*%
%ADD237R,0.0229X0.0001*%
%ADD238R,0.0244X0.0000*%
%ADD239R,0.0244X0.0001*%
%ADD240R,0.0229X0.0001*%
%ADD241R,0.0229X0.0000*%
%ADD242R,0.0244X0.0000*%
%ADD243R,0.0228X0.0000*%
%ADD244R,0.0244X0.0001*%
%ADD245R,0.0228X0.0001*%
%ADD246R,0.0243X0.0000*%
%ADD247R,0.0243X0.0001*%
%ADD248R,0.0243X0.0000*%
%ADD249R,0.0228X0.0000*%
%ADD250R,0.0243X0.0001*%
%ADD251R,0.0228X0.0001*%
%ADD252R,0.0242X0.0000*%
%ADD253R,0.0227X0.0000*%
%ADD254R,0.0242X0.0001*%
%ADD255R,0.0227X0.0001*%
%ADD256R,0.0241X0.0000*%
%ADD257R,0.0241X0.0001*%
%ADD258R,0.0227X0.0001*%
%ADD259R,0.0227X0.0000*%
%ADD260R,0.0241X0.0001*%
%ADD261R,0.0241X0.0000*%
%ADD262R,0.0226X0.0000*%
%ADD263R,0.0226X0.0001*%
%ADD264R,0.0240X0.0000*%
%ADD265R,0.0240X0.0001*%
%ADD266R,0.0226X0.0001*%
%ADD267R,0.0240X0.0000*%
%ADD268R,0.0226X0.0000*%
%ADD269R,0.0240X0.0001*%
%ADD270R,0.0225X0.0000*%
%ADD271R,0.0240X0.0001*%
%ADD272R,0.0225X0.0001*%
%ADD273R,0.0240X0.0000*%
%ADD274R,0.0225X0.0000*%
%ADD275R,0.0225X0.0001*%
%ADD276R,0.0239X0.0001*%
%ADD277R,0.0239X0.0000*%
%ADD278R,0.0224X0.0000*%
%ADD279R,0.0224X0.0001*%
%ADD280R,0.0224X0.0001*%
%ADD281R,0.0224X0.0000*%
%ADD282R,0.0223X0.0000*%
%ADD283R,0.0237X0.0001*%
%ADD284R,0.0223X0.0001*%
%ADD285R,0.0237X0.0000*%
%ADD286R,0.0223X0.0001*%
%ADD287R,0.0223X0.0000*%
%ADD288R,0.0236X0.0000*%
%ADD289R,0.0222X0.0000*%
%ADD290R,0.0236X0.0001*%
%ADD291R,0.0222X0.0001*%
%ADD292R,0.0222X0.0000*%
%ADD293R,0.0222X0.0001*%
%ADD294R,0.0221X0.0000*%
%ADD295R,0.0235X0.0000*%
%ADD296R,0.0235X0.0001*%
%ADD297R,0.0221X0.0001*%
%ADD298R,0.0221X0.0001*%
%ADD299R,0.0221X0.0000*%
%ADD300R,0.0234X0.0000*%
%ADD301R,0.0220X0.0000*%
%ADD302R,0.0234X0.0001*%
%ADD303R,0.0220X0.0001*%
%ADD304R,0.0220X0.0001*%
%ADD305R,0.0220X0.0000*%
%ADD306R,0.0219X0.0000*%
%ADD307R,0.0219X0.0001*%
%ADD308R,0.0232X0.0000*%
%ADD309R,0.0232X0.0001*%
%ADD310R,0.0219X0.0000*%
%ADD311R,0.0219X0.0001*%
%ADD312R,0.0231X0.0000*%
%ADD313R,0.0218X0.0000*%
%ADD314R,0.0231X0.0001*%
%ADD315R,0.0218X0.0001*%
%ADD316R,0.0218X0.0001*%
%ADD317R,0.0218X0.0000*%
%ADD318R,0.0217X0.0000*%
%ADD319R,0.0217X0.0001*%
%ADD320R,0.0230X0.0000*%
%ADD321R,0.0230X0.0001*%
%ADD322R,0.0217X0.0001*%
%ADD323R,0.0217X0.0000*%
%ADD324R,0.0216X0.0000*%
%ADD325R,0.0229X0.0001*%
%ADD326R,0.0216X0.0001*%
%ADD327R,0.0229X0.0000*%
%ADD328R,0.0216X0.0000*%
%ADD329R,0.0216X0.0001*%
%ADD330R,0.0215X0.0000*%
%ADD331R,0.0227X0.0001*%
%ADD332R,0.0215X0.0001*%
%ADD333R,0.0227X0.0000*%
%ADD334R,0.0215X0.0001*%
%ADD335R,0.0215X0.0000*%
%ADD336R,0.0214X0.0000*%
%ADD337R,0.0226X0.0001*%
%ADD338R,0.0214X0.0001*%
%ADD339R,0.0226X0.0000*%
%ADD340R,0.0214X0.0001*%
%ADD341R,0.0214X0.0000*%
%ADD342R,0.0213X0.0000*%
%ADD343R,0.0213X0.0001*%
%ADD344R,0.0225X0.0001*%
%ADD345R,0.0225X0.0000*%
%ADD346R,0.0213X0.0000*%
%ADD347R,0.0213X0.0001*%
%ADD348R,0.0213X0.0000*%
%ADD349R,0.0224X0.0000*%
%ADD350R,0.0224X0.0001*%
%ADD351R,0.0213X0.0001*%
%ADD352R,0.0212X0.0001*%
%ADD353R,0.0212X0.0000*%
%ADD354R,0.0211X0.0000*%
%ADD355R,0.0211X0.0001*%
%ADD356R,0.0222X0.0000*%
%ADD357R,0.0222X0.0001*%
%ADD358R,0.0211X0.0001*%
%ADD359R,0.0211X0.0000*%
%ADD360R,0.0210X0.0000*%
%ADD361R,0.0210X0.0001*%
%ADD362R,0.0221X0.0000*%
%ADD363R,0.0221X0.0001*%
%ADD364R,0.0210X0.0000*%
%ADD365R,0.0210X0.0001*%
%ADD366R,0.0209X0.0000*%
%ADD367R,0.0209X0.0001*%
%ADD368R,0.0220X0.0000*%
%ADD369R,0.0220X0.0001*%
%ADD370R,0.0209X0.0001*%
%ADD371R,0.0209X0.0000*%
%ADD372R,0.0208X0.0000*%
%ADD373R,0.0208X0.0001*%
%ADD374R,0.0219X0.0000*%
%ADD375R,0.0219X0.0001*%
%ADD376R,0.0208X0.0001*%
%ADD377R,0.0208X0.0000*%
%ADD378R,0.0208X0.0000*%
%ADD379R,0.0208X0.0001*%
%ADD380R,0.0217X0.0000*%
%ADD381R,0.0207X0.0000*%
%ADD382R,0.0217X0.0001*%
%ADD383R,0.0207X0.0001*%
%ADD384R,0.0206X0.0000*%
%ADD385R,0.0216X0.0001*%
%ADD386R,0.0206X0.0001*%
%ADD387R,0.0216X0.0000*%
%ADD388R,0.0206X0.0001*%
%ADD389R,0.0206X0.0000*%
%ADD390R,0.0205X0.0000*%
%ADD391R,0.0205X0.0001*%
%ADD392R,0.0215X0.0001*%
%ADD393R,0.0205X0.0001*%
%ADD394R,0.0215X0.0000*%
%ADD395R,0.0205X0.0000*%
%ADD396R,0.0204X0.0000*%
%ADD397R,0.0204X0.0001*%
%ADD398R,0.0214X0.0001*%
%ADD399R,0.0214X0.0000*%
%ADD400R,0.0204X0.0000*%
%ADD401R,0.0204X0.0001*%
%ADD402R,0.0203X0.0000*%
%ADD403R,0.0203X0.0001*%
%ADD404R,0.0212X0.0001*%
%ADD405R,0.0203X0.0001*%
%ADD406R,0.0212X0.0000*%
%ADD407R,0.0203X0.0000*%
%ADD408R,0.0203X0.0000*%
%ADD409R,0.0203X0.0001*%
%ADD410R,0.0211X0.0000*%
%ADD411R,0.0211X0.0001*%
%ADD412R,0.0202X0.0001*%
%ADD413R,0.0202X0.0000*%
%ADD414R,0.0201X0.0000*%
%ADD415R,0.0201X0.0001*%
%ADD416R,0.0210X0.0000*%
%ADD417R,0.0201X0.0000*%
%ADD418R,0.0210X0.0001*%
%ADD419R,0.0201X0.0001*%
%ADD420R,0.0200X0.0000*%
%ADD421R,0.0200X0.0001*%
%ADD422R,0.0209X0.0000*%
%ADD423R,0.0209X0.0001*%
%ADD424R,0.0200X0.0001*%
%ADD425R,0.0200X0.0000*%
%ADD426R,0.0199X0.0000*%
%ADD427R,0.0199X0.0001*%
%ADD428R,0.0199X0.0001*%
%ADD429R,0.0207X0.0000*%
%ADD430R,0.0199X0.0000*%
%ADD431R,0.0207X0.0001*%
%ADD432R,0.0198X0.0000*%
%ADD433R,0.0198X0.0001*%
%ADD434R,0.0206X0.0000*%
%ADD435R,0.0198X0.0000*%
%ADD436R,0.0206X0.0001*%
%ADD437R,0.0198X0.0001*%
%ADD438R,0.0198X0.0000*%
%ADD439R,0.0198X0.0001*%
%ADD440R,0.0197X0.0001*%
%ADD441R,0.0205X0.0000*%
%ADD442R,0.0197X0.0000*%
%ADD443R,0.0205X0.0001*%
%ADD444R,0.0196X0.0000*%
%ADD445R,0.0196X0.0001*%
%ADD446R,0.0204X0.0001*%
%ADD447R,0.0196X0.0001*%
%ADD448R,0.0204X0.0000*%
%ADD449R,0.0196X0.0000*%
%ADD450R,0.0195X0.0000*%
%ADD451R,0.0195X0.0001*%
%ADD452R,0.0195X0.0000*%
%ADD453R,0.0202X0.0001*%
%ADD454R,0.0195X0.0001*%
%ADD455R,0.0202X0.0000*%
%ADD456R,0.0194X0.0000*%
%ADD457R,0.0194X0.0001*%
%ADD458R,0.0201X0.0001*%
%ADD459R,0.0194X0.0001*%
%ADD460R,0.0201X0.0000*%
%ADD461R,0.0194X0.0000*%
%ADD462R,0.0193X0.0000*%
%ADD463R,0.0193X0.0001*%
%ADD464R,0.0193X0.0001*%
%ADD465R,0.0193X0.0000*%
%ADD466R,0.0200X0.0001*%
%ADD467R,0.0200X0.0000*%
%ADD468R,0.0192X0.0000*%
%ADD469R,0.0192X0.0001*%
%ADD470R,0.0199X0.0000*%
%ADD471R,0.0192X0.0000*%
%ADD472R,0.0199X0.0001*%
%ADD473R,0.0192X0.0001*%
%ADD474R,0.0191X0.0000*%
%ADD475R,0.0191X0.0001*%
%ADD476R,0.0191X0.0001*%
%ADD477R,0.0191X0.0000*%
%ADD478R,0.0197X0.0000*%
%ADD479R,0.0197X0.0001*%
%ADD480R,0.0190X0.0000*%
%ADD481R,0.0190X0.0001*%
%ADD482R,0.0190X0.0001*%
%ADD483R,0.0196X0.0000*%
%ADD484R,0.0190X0.0000*%
%ADD485R,0.0196X0.0001*%
%ADD486R,0.0189X0.0000*%
%ADD487R,0.0189X0.0001*%
%ADD488R,0.0189X0.0000*%
%ADD489R,0.0189X0.0001*%
%ADD490R,0.0195X0.0000*%
%ADD491R,0.0195X0.0001*%
%ADD492R,0.0188X0.0000*%
%ADD493R,0.0188X0.0001*%
%ADD494R,0.0188X0.0001*%
%ADD495R,0.0194X0.0000*%
%ADD496R,0.0188X0.0000*%
%ADD497R,0.0194X0.0001*%
%ADD498R,0.0187X0.0000*%
%ADD499R,0.0187X0.0001*%
%ADD500R,0.0187X0.0001*%
%ADD501R,0.0187X0.0000*%
%ADD502R,0.0192X0.0000*%
%ADD503R,0.0186X0.0000*%
%ADD504R,0.0192X0.0001*%
%ADD505R,0.0186X0.0001*%
%ADD506R,0.0186X0.0000*%
%ADD507R,0.0191X0.0001*%
%ADD508R,0.0186X0.0001*%
%ADD509R,0.0191X0.0000*%
%ADD510R,0.0185X0.0000*%
%ADD511R,0.0185X0.0001*%
%ADD512R,0.0185X0.0001*%
%ADD513R,0.0185X0.0000*%
%ADD514R,0.0190X0.0001*%
%ADD515R,0.0190X0.0000*%
%ADD516R,0.0184X0.0000*%
%ADD517R,0.0184X0.0001*%
%ADD518R,0.0184X0.0001*%
%ADD519R,0.0184X0.0000*%
%ADD520R,0.0189X0.0001*%
%ADD521R,0.0189X0.0000*%
%ADD522R,0.0183X0.0000*%
%ADD523R,0.0183X0.0001*%
%ADD524R,0.0183X0.0000*%
%ADD525R,0.0183X0.0001*%
%ADD526R,0.0187X0.0001*%
%ADD527R,0.0187X0.0000*%
%ADD528R,0.0182X0.0000*%
%ADD529R,0.0182X0.0001*%
%ADD530R,0.0182X0.0001*%
%ADD531R,0.0182X0.0000*%
%ADD532R,0.0186X0.0000*%
%ADD533R,0.0186X0.0001*%
%ADD534R,0.0181X0.0000*%
%ADD535R,0.0181X0.0001*%
%ADD536R,0.0181X0.0001*%
%ADD537R,0.0181X0.0000*%
%ADD538R,0.0185X0.0000*%
%ADD539R,0.0180X0.0000*%
%ADD540R,0.0185X0.0001*%
%ADD541R,0.0180X0.0001*%
%ADD542R,0.0180X0.0000*%
%ADD543R,0.0180X0.0001*%
%ADD544R,0.0184X0.0000*%
%ADD545R,0.0184X0.0001*%
%ADD546R,0.0179X0.0000*%
%ADD547R,0.0179X0.0001*%
%ADD548R,0.0179X0.0001*%
%ADD549R,0.0179X0.0000*%
%ADD550R,0.0182X0.0000*%
%ADD551R,0.0178X0.0000*%
%ADD552R,0.0182X0.0001*%
%ADD553R,0.0178X0.0001*%
%ADD554R,0.0178X0.0001*%
%ADD555R,0.0178X0.0000*%
%ADD556R,0.0181X0.0000*%
%ADD557R,0.0177X0.0000*%
%ADD558R,0.0181X0.0001*%
%ADD559R,0.0177X0.0001*%
%ADD560R,0.0177X0.0000*%
%ADD561R,0.0177X0.0001*%
%ADD562R,0.0180X0.0000*%
%ADD563R,0.0176X0.0000*%
%ADD564R,0.0180X0.0001*%
%ADD565R,0.0176X0.0001*%
%ADD566R,0.0176X0.0001*%
%ADD567R,0.0176X0.0000*%
%ADD568R,0.0179X0.0001*%
%ADD569R,0.0179X0.0000*%
%ADD570R,0.0175X0.0000*%
%ADD571R,0.0175X0.0001*%
%ADD572R,0.0175X0.0001*%
%ADD573R,0.0175X0.0000*%
%ADD574R,0.0174X0.0000*%
%ADD575R,0.0177X0.0001*%
%ADD576R,0.0174X0.0001*%
%ADD577R,0.0177X0.0000*%
%ADD578R,0.0174X0.0000*%
%ADD579R,0.0174X0.0001*%
%ADD580R,0.0176X0.0001*%
%ADD581R,0.0176X0.0000*%
%ADD582R,0.0173X0.0000*%
%ADD583R,0.0173X0.0001*%
%ADD584R,0.0173X0.0001*%
%ADD585R,0.0173X0.0000*%
%ADD586R,0.0173X0.0000*%
%ADD587R,0.0175X0.0001*%
%ADD588R,0.0173X0.0001*%
%ADD589R,0.0175X0.0000*%
%ADD590R,0.0172X0.0001*%
%ADD591R,0.0172X0.0000*%
%ADD592R,0.0174X0.0000*%
%ADD593R,0.0171X0.0000*%
%ADD594R,0.0174X0.0001*%
%ADD595R,0.0171X0.0001*%
%ADD596R,0.0171X0.0000*%
%ADD597R,0.0171X0.0001*%
%ADD598R,0.0170X0.0000*%
%ADD599R,0.0172X0.0000*%
%ADD600R,0.0172X0.0001*%
%ADD601R,0.0170X0.0001*%
%ADD602R,0.0170X0.0001*%
%ADD603R,0.0170X0.0000*%
%ADD604R,0.0171X0.0000*%
%ADD605R,0.0169X0.0000*%
%ADD606R,0.0171X0.0001*%
%ADD607R,0.0169X0.0001*%
%ADD608R,0.0169X0.0001*%
%ADD609R,0.0169X0.0000*%
%ADD610R,0.0168X0.0000*%
%ADD611R,0.0168X0.0001*%
%ADD612R,0.0170X0.0000*%
%ADD613R,0.0170X0.0001*%
%ADD614R,0.0168X0.0000*%
%ADD615R,0.0168X0.0001*%
%ADD616R,0.0169X0.0000*%
%ADD617R,0.0168X0.0000*%
%ADD618R,0.0169X0.0001*%
%ADD619R,0.0168X0.0001*%
%ADD620R,0.0167X0.0001*%
%ADD621R,0.0167X0.0000*%
%ADD622R,0.0166X0.0000*%
%ADD623R,0.0166X0.0001*%
%ADD624R,0.0167X0.0000*%
%ADD625R,0.0167X0.0001*%
%ADD626R,0.0166X0.0001*%
%ADD627R,0.0166X0.0000*%
%ADD628R,0.0165X0.0000*%
%ADD629R,0.0166X0.0001*%
%ADD630R,0.0165X0.0001*%
%ADD631R,0.0166X0.0000*%
%ADD632R,0.0165X0.0000*%
%ADD633R,0.0165X0.0001*%
%ADD634R,0.0164X0.0000*%
%ADD635R,0.0165X0.0001*%
%ADD636R,0.0164X0.0001*%
%ADD637R,0.0165X0.0000*%
%ADD638R,0.0164X0.0001*%
%ADD639R,0.0164X0.0000*%
%ADD640R,0.0163X0.0000*%
%ADD641R,0.0164X0.0001*%
%ADD642R,0.0163X0.0001*%
%ADD643R,0.0164X0.0000*%
%ADD644R,0.0163X0.0001*%
%ADD645R,0.0163X0.0000*%
%ADD646R,0.0163X0.0000*%
%ADD647R,0.0163X0.0001*%
%ADD648R,0.0162X0.0001*%
%ADD649R,0.0162X0.0000*%
%ADD650R,0.0162X0.0000*%
%ADD651R,0.0161X0.0001*%
%ADD652R,0.0162X0.0001*%
%ADD653R,0.0161X0.0000*%
%ADD654R,0.0161X0.0000*%
%ADD655R,0.0161X0.0001*%
%ADD656R,0.0160X0.0001*%
%ADD657R,0.0161X0.0001*%
%ADD658R,0.0160X0.0000*%
%ADD659R,0.0161X0.0000*%
%ADD660R,0.0160X0.0000*%
%ADD661R,0.0160X0.0001*%
%ADD662R,0.0160X0.0000*%
%ADD663R,0.0160X0.0001*%
%ADD664R,0.0159X0.0001*%
%ADD665R,0.0159X0.0000*%
%ADD666R,0.0159X0.0000*%
%ADD667R,0.0159X0.0001*%
%ADD668R,0.0159X0.0000*%
%ADD669R,0.0159X0.0001*%
%ADD670R,0.0158X0.0000*%
%ADD671R,0.0158X0.0001*%
%ADD672R,0.0158X0.0000*%
%ADD673R,0.0158X0.0000*%
%ADD674R,0.0158X0.0001*%
%ADD675R,0.0158X0.0001*%
%ADD676R,0.0157X0.0000*%
%ADD677R,0.0157X0.0001*%
%ADD678R,0.0156X0.0000*%
%ADD679R,0.0156X0.0001*%
%ADD680R,0.0156X0.0000*%
%ADD681R,0.0156X0.0001*%
%ADD682R,0.0157X0.0001*%
%ADD683R,0.0155X0.0000*%
%ADD684R,0.0157X0.0000*%
%ADD685R,0.0155X0.0001*%
%ADD686R,0.0155X0.0001*%
%ADD687R,0.0155X0.0000*%
%ADD688R,0.0155X0.0000*%
%ADD689R,0.0156X0.0000*%
%ADD690R,0.0155X0.0001*%
%ADD691R,0.0156X0.0001*%
%ADD692R,0.0154X0.0000*%
%ADD693R,0.0154X0.0001*%
%ADD694R,0.0154X0.0001*%
%ADD695R,0.0154X0.0000*%
%ADD696R,0.0153X0.0000*%
%ADD697R,0.0153X0.0001*%
%ADD698R,0.0154X0.0000*%
%ADD699R,0.0152X0.0001*%
%ADD700R,0.0154X0.0001*%
%ADD701R,0.0152X0.0000*%
%ADD702R,0.0152X0.0001*%
%ADD703R,0.0152X0.0000*%
%ADD704R,0.0151X0.0000*%
%ADD705R,0.0153X0.0000*%
%ADD706R,0.0151X0.0001*%
%ADD707R,0.0153X0.0001*%
%ADD708R,0.0151X0.0001*%
%ADD709R,0.0151X0.0000*%
%ADD710R,0.0150X0.0001*%
%ADD711R,0.0150X0.0000*%
%ADD712R,0.0150X0.0000*%
%ADD713R,0.0150X0.0001*%
%ADD714R,0.0150X0.0001*%
%ADD715R,0.0152X0.0001*%
%ADD716R,0.0150X0.0000*%
%ADD717R,0.0152X0.0000*%
%ADD718R,0.0149X0.0000*%
%ADD719R,0.0149X0.0001*%
%ADD720R,0.0149X0.0000*%
%ADD721R,0.0149X0.0001*%
%ADD722R,0.0151X0.0001*%
%ADD723R,0.0151X0.0000*%
%ADD724R,0.0148X0.0001*%
%ADD725R,0.0148X0.0000*%
%ADD726R,0.0260X0.0000*%
%ADD727R,0.0259X0.0000*%
%ADD728R,0.0260X0.0001*%
%ADD729R,0.0259X0.0001*%
%ADD730R,0.0868X0.0000*%
%ADD731R,0.0868X0.0001*%
%ADD732R,0.0321X0.0000*%
%ADD733R,0.0305X0.0000*%
%ADD734R,0.0321X0.0001*%
%ADD735R,0.0305X0.0001*%
%ADD736R,0.0867X0.0000*%
%ADD737R,0.0867X0.0001*%
%ADD738R,0.0867X0.0000*%
%ADD739R,0.0867X0.0001*%
%ADD740R,0.0866X0.0000*%
%ADD741R,0.0866X0.0000*%
%ADD742R,0.0866X0.0001*%
%ADD743R,0.0866X0.0000*%
%ADD744R,0.0866X0.0001*%
%ADD745R,0.0865X0.0000*%
%ADD746R,0.0865X0.0001*%
%ADD747R,0.0864X0.0001*%
%ADD748R,0.0864X0.0000*%
%ADD749R,0.0864X0.0001*%
%ADD750R,0.0864X0.0000*%
%ADD751R,0.0864X0.0001*%
%ADD752R,0.0864X0.0000*%
%ADD753R,0.0863X0.0001*%
%ADD754R,0.0863X0.0000*%
%ADD755R,0.0862X0.0001*%
%ADD756R,0.0862X0.0000*%
%ADD757R,0.0862X0.0001*%
%ADD758R,0.0862X0.0000*%
%ADD759R,0.0861X0.0001*%
%ADD760R,0.0861X0.0000*%
%ADD761R,0.0861X0.0001*%
%ADD762R,0.0860X0.0001*%
%ADD763R,0.0860X0.0000*%
%ADD764R,0.0859X0.0000*%
%ADD765R,0.0859X0.0001*%
%ADD766R,0.0858X0.0000*%
%ADD767R,0.0858X0.0001*%
%ADD768R,0.0857X0.0001*%
%ADD769R,0.0857X0.0000*%
%ADD770R,0.0856X0.0000*%
%ADD771R,0.0856X0.0001*%
%ADD772R,0.0855X0.0000*%
%ADD773R,0.0855X0.0001*%
%ADD774R,0.0855X0.0000*%
%ADD775R,0.0855X0.0001*%
%ADD776R,0.0854X0.0000*%
%ADD777R,0.0854X0.0001*%
%ADD778R,0.0853X0.0000*%
%ADD779R,0.0853X0.0001*%
%ADD780R,0.0853X0.0000*%
%ADD781R,0.0853X0.0000*%
%ADD782R,0.0852X0.0001*%
%ADD783R,0.0852X0.0000*%
%ADD784R,0.0852X0.0001*%
%ADD785R,0.0851X0.0000*%
%ADD786R,0.0850X0.0001*%
%ADD787R,0.0850X0.0000*%
%ADD788R,0.0850X0.0001*%
%ADD789R,0.0849X0.0000*%
%ADD790R,0.0848X0.0001*%
%ADD791R,0.0848X0.0000*%
%ADD792R,0.0848X0.0001*%
%ADD793R,0.0848X0.0000*%
%ADD794R,0.0847X0.0000*%
%ADD795R,0.0847X0.0001*%
%ADD796R,0.0846X0.0000*%
%ADD797R,0.0846X0.0001*%
%ADD798R,0.0845X0.0000*%
%ADD799R,0.0845X0.0000*%
%ADD800R,0.0845X0.0001*%
%ADD801R,0.0843X0.0000*%
%ADD802R,0.0843X0.0001*%
%ADD803R,0.0841X0.0000*%
%ADD804R,0.0840X0.0000*%
%ADD805R,0.0839X0.0001*%
%ADD806R,0.0838X0.0000*%
%ADD807R,0.0837X0.0001*%
%ADD808R,0.0836X0.0000*%
%ADD809R,0.0835X0.0000*%
%ADD810R,0.0834X0.0001*%
%ADD811R,0.0833X0.0000*%
%ADD812R,0.0832X0.0001*%
%ADD813R,0.0831X0.0000*%
%ADD814R,0.0830X0.0000*%
%ADD815R,0.0829X0.0001*%
%ADD816R,0.0828X0.0000*%
%ADD817R,0.0827X0.0001*%
%ADD818R,0.0826X0.0000*%
%ADD819R,0.0825X0.0000*%
%ADD820R,0.0824X0.0001*%
%ADD821R,0.0823X0.0000*%
%ADD822R,0.0822X0.0001*%
%ADD823R,0.0821X0.0000*%
%ADD824R,0.0820X0.0000*%
%ADD825R,0.0819X0.0001*%
%ADD826R,0.0818X0.0000*%
%ADD827R,0.0817X0.0001*%
%ADD828R,0.0816X0.0000*%
%ADD829R,0.0815X0.0000*%
%ADD830R,0.0814X0.0001*%
%ADD831R,0.0813X0.0000*%
%ADD832R,0.0812X0.0001*%
%ADD833R,0.0811X0.0000*%
%ADD834R,0.0810X0.0000*%
%ADD835R,0.0808X0.0001*%
%ADD836R,0.0808X0.0000*%
%ADD837R,0.0807X0.0001*%
%ADD838R,0.0805X0.0000*%
%ADD839R,0.0805X0.0000*%
%ADD840R,0.0803X0.0001*%
%ADD841R,0.0803X0.0000*%
%ADD842R,0.0802X0.0001*%
%ADD843R,0.0800X0.0000*%
%ADD844R,0.0800X0.0000*%
%ADD845R,0.0798X0.0001*%
%ADD846R,0.0798X0.0000*%
%ADD847R,0.0797X0.0001*%
%ADD848R,0.0795X0.0000*%
%ADD849R,0.0795X0.0000*%
%ADD850R,0.0793X0.0001*%
%ADD851R,0.0793X0.0000*%
%ADD852R,0.0791X0.0001*%
%ADD853R,0.0790X0.0000*%
%ADD854R,0.0789X0.0000*%
%ADD855R,0.0788X0.0001*%
%ADD856R,0.0787X0.0000*%
%ADD857R,0.0786X0.0001*%
%ADD858R,0.0785X0.0000*%
%ADD859R,0.0784X0.0000*%
%ADD860R,0.0783X0.0001*%
%ADD861R,0.0782X0.0000*%
%ADD862R,0.0781X0.0001*%
%ADD863R,0.0780X0.0000*%
%ADD864R,0.0779X0.0000*%
%ADD865R,0.0778X0.0001*%
%ADD866R,0.0777X0.0000*%
%ADD867R,0.0776X0.0001*%
%ADD868R,0.0775X0.0000*%
%ADD869R,0.0774X0.0000*%
%ADD870R,0.0773X0.0001*%
%ADD871R,0.0772X0.0000*%
%ADD872R,0.0771X0.0001*%
%ADD873R,0.0770X0.0000*%
%ADD874R,0.0769X0.0000*%
%ADD875R,0.0768X0.0001*%
%ADD876R,0.0767X0.0000*%
%ADD877R,0.0766X0.0001*%
%ADD878R,0.0765X0.0000*%
%ADD879R,0.0764X0.0000*%
%ADD880R,0.0763X0.0001*%
%ADD881R,0.0762X0.0000*%
%ADD882R,0.0761X0.0001*%
%ADD883R,0.0760X0.0000*%
%ADD884R,0.0758X0.0000*%
%ADD885R,0.0757X0.0001*%
%ADD886R,0.0757X0.0000*%
%ADD887R,0.0755X0.0001*%
%ADD888R,0.0755X0.0000*%
%ADD889R,0.0753X0.0000*%
%ADD890R,0.0752X0.0001*%
%ADD891R,0.0752X0.0000*%
%ADD892R,0.0750X0.0001*%
%ADD893R,0.0750X0.0000*%
%ADD894R,0.0748X0.0000*%
%ADD895R,0.0747X0.0001*%
%ADD896R,0.0747X0.0000*%
%ADD897R,0.0745X0.0001*%
%ADD898R,0.0745X0.0000*%
%ADD899R,0.0743X0.0000*%
%ADD900R,0.0742X0.0001*%
%ADD901R,0.0741X0.0000*%
%ADD902R,0.0740X0.0001*%
%ADD903R,0.0739X0.0000*%
%ADD904R,0.0738X0.0000*%
%ADD905R,0.0737X0.0001*%
%ADD906R,0.0736X0.0000*%
%ADD907R,0.0735X0.0001*%
%ADD908R,0.0734X0.0000*%
%ADD909R,0.0733X0.0000*%
%ADD910R,0.0732X0.0001*%
%ADD911R,0.0731X0.0000*%
%ADD912R,0.0730X0.0001*%
%ADD913R,0.0729X0.0000*%
%ADD914R,0.0728X0.0000*%
%ADD915R,0.0727X0.0001*%
%ADD916R,0.0726X0.0000*%
%ADD917R,0.0725X0.0001*%
%ADD918R,0.0724X0.0000*%
%ADD919R,0.0723X0.0000*%
%ADD920R,0.0722X0.0001*%
%ADD921R,0.0721X0.0000*%
%ADD922R,0.0720X0.0001*%
%ADD923R,0.0719X0.0000*%
%ADD924R,0.0718X0.0000*%
%ADD925R,0.0717X0.0001*%
%ADD926R,0.0716X0.0000*%
%ADD927R,0.0715X0.0001*%
%ADD928R,0.0714X0.0000*%
%ADD929R,0.0713X0.0000*%
%ADD930R,0.0712X0.0001*%
%ADD931R,0.0711X0.0000*%
%ADD932R,0.0710X0.0001*%
%ADD933R,0.0709X0.0000*%
%ADD934R,0.0707X0.0000*%
%ADD935R,0.0707X0.0001*%
%ADD936R,0.0705X0.0000*%
%ADD937R,0.0705X0.0001*%
%ADD938R,0.0703X0.0000*%
%ADD939R,0.0703X0.0000*%
%ADD940R,0.0702X0.0001*%
%ADD941R,0.0700X0.0000*%
%ADD942R,0.0700X0.0001*%
%ADD943R,0.0698X0.0000*%
%ADD944R,0.0698X0.0000*%
%ADD945R,0.0697X0.0001*%
%ADD946R,0.0695X0.0000*%
%ADD947R,0.0695X0.0001*%
%ADD948R,0.0693X0.0000*%
%ADD949R,0.0692X0.0000*%
%ADD950R,0.0691X0.0001*%
%ADD951R,0.0690X0.0000*%
%ADD952R,0.0689X0.0001*%
%ADD953R,0.0688X0.0000*%
%ADD954R,0.0687X0.0000*%
%ADD955R,0.0686X0.0001*%
%ADD956R,0.0685X0.0000*%
%ADD957R,0.0684X0.0001*%
%ADD958R,0.0683X0.0000*%
%ADD959R,0.0682X0.0000*%
%ADD960R,0.0681X0.0001*%
%ADD961R,0.0680X0.0000*%
%ADD962R,0.0679X0.0001*%
%ADD963R,0.0678X0.0000*%
%ADD964R,0.0677X0.0000*%
%ADD965R,0.0676X0.0001*%
%ADD966R,0.0675X0.0000*%
%ADD967R,0.0674X0.0001*%
%ADD968R,0.0673X0.0000*%
%ADD969R,0.0672X0.0000*%
%ADD970R,0.0671X0.0001*%
%ADD971R,0.0670X0.0000*%
%ADD972R,0.0669X0.0001*%
%ADD973R,0.0668X0.0000*%
%ADD974R,0.0667X0.0000*%
%ADD975R,0.0666X0.0001*%
%ADD976R,0.0665X0.0000*%
%ADD977R,0.0664X0.0001*%
%ADD978R,0.0663X0.0000*%
%ADD979R,0.0662X0.0000*%
%ADD980R,0.0661X0.0001*%
%ADD981R,0.0660X0.0000*%
%ADD982R,0.0659X0.0001*%
%ADD983R,0.0658X0.0000*%
%ADD984R,0.0657X0.0000*%
%ADD985R,0.0655X0.0001*%
%ADD986R,0.0655X0.0000*%
%ADD987R,0.0653X0.0001*%
%ADD988R,0.0653X0.0000*%
%ADD989R,0.0652X0.0000*%
%ADD990R,0.0650X0.0001*%
%ADD991R,0.0650X0.0000*%
%ADD992R,0.0648X0.0001*%
%ADD993R,0.0648X0.0000*%
%ADD994R,0.0647X0.0000*%
%ADD995R,0.0645X0.0001*%
%ADD996R,0.0645X0.0000*%
%ADD997R,0.0643X0.0001*%
%ADD998R,0.0642X0.0000*%
%ADD999R,0.0641X0.0000*%
%ADD1000R,0.0640X0.0001*%
%ADD1001R,0.0639X0.0000*%
%ADD1002R,0.0638X0.0001*%
%ADD1003R,0.0637X0.0000*%
%ADD1004R,0.0636X0.0000*%
%ADD1005R,0.0635X0.0001*%
%ADD1006R,0.0634X0.0000*%
%ADD1007R,0.0633X0.0001*%
%ADD1008R,0.0632X0.0000*%
%ADD1009R,0.0631X0.0000*%
%ADD1010R,0.0630X0.0001*%
%ADD1011R,0.0629X0.0000*%
%ADD1012R,0.0628X0.0001*%
%ADD1013R,0.0627X0.0000*%
%ADD1014R,0.0626X0.0000*%
%ADD1015R,0.0625X0.0001*%
%ADD1016R,0.0624X0.0000*%
%ADD1017R,0.0623X0.0001*%
%ADD1018R,0.0622X0.0000*%
%ADD1019R,0.0621X0.0000*%
%ADD1020R,0.0620X0.0001*%
%ADD1021R,0.0619X0.0000*%
%ADD1022R,0.0618X0.0001*%
%ADD1023R,0.0617X0.0000*%
%ADD1024R,0.0616X0.0000*%
%ADD1025R,0.0615X0.0001*%
%ADD1026R,0.0614X0.0000*%
%ADD1027R,0.0613X0.0001*%
%ADD1028R,0.0612X0.0000*%
%ADD1029R,0.0611X0.0000*%
%ADD1030R,0.0610X0.0001*%
%ADD1031R,0.0609X0.0000*%
%ADD1032R,0.0607X0.0001*%
%ADD1033R,0.0607X0.0000*%
%ADD1034R,0.0605X0.0000*%
%ADD1035R,0.0605X0.0001*%
%ADD1036R,0.0603X0.0000*%
%ADD1037R,0.0602X0.0001*%
%ADD1038R,0.0602X0.0000*%
%ADD1039R,0.0600X0.0000*%
%ADD1040R,0.0600X0.0001*%
%ADD1041R,0.0598X0.0000*%
%ADD1042R,0.0597X0.0001*%
%ADD1043R,0.0597X0.0000*%
%ADD1044R,0.0595X0.0000*%
%ADD1045R,0.0595X0.0001*%
%ADD1046R,0.0593X0.0000*%
%ADD1047R,0.0592X0.0001*%
%ADD1048R,0.0591X0.0000*%
%ADD1049R,0.0590X0.0000*%
%ADD1050R,0.0589X0.0001*%
%ADD1051R,0.0588X0.0000*%
%ADD1052R,0.0587X0.0001*%
%ADD1053R,0.0586X0.0000*%
%ADD1054R,0.0585X0.0000*%
%ADD1055R,0.0584X0.0001*%
%ADD1056R,0.0583X0.0000*%
%ADD1057R,0.0582X0.0001*%
%ADD1058R,0.0581X0.0000*%
%ADD1059R,0.0580X0.0000*%
%ADD1060R,0.0579X0.0001*%
%ADD1061R,0.0578X0.0000*%
%ADD1062R,0.0577X0.0001*%
%ADD1063R,0.0576X0.0000*%
%ADD1064R,0.0575X0.0000*%
%ADD1065R,0.0574X0.0001*%
%ADD1066R,0.0573X0.0000*%
%ADD1067R,0.0571X0.0001*%
%ADD1068R,0.0568X0.0000*%
%ADD1069R,0.0565X0.0000*%
%ADD1070R,0.0563X0.0001*%
%ADD1071R,0.0560X0.0000*%
%ADD1072R,0.0557X0.0001*%
%ADD1073R,0.0554X0.0000*%
%ADD1074R,0.0551X0.0000*%
%ADD1075R,0.0548X0.0001*%
%ADD1076R,0.0545X0.0000*%
%ADD1077R,0.0542X0.0001*%
%ADD1078R,0.0537X0.0000*%
%ADD1079R,0.0533X0.0000*%
%ADD1080R,0.0530X0.0001*%
%ADD1081R,0.0526X0.0000*%
%ADD1082R,0.0522X0.0001*%
%ADD1083R,0.0518X0.0000*%
%ADD1084R,0.0513X0.0000*%
%ADD1085R,0.0508X0.0001*%
%ADD1086R,0.0503X0.0000*%
%ADD1087R,0.0496X0.0001*%
%ADD1088R,0.0489X0.0000*%
%ADD1089R,0.0477X0.0000*%
%ADD1090C,0.0000*%
D10*
X001064Y001523D02*
X001064Y001917D01*
X001536Y001917D02*
X001536Y001523D01*
X001900Y002050D02*
X001900Y002390D01*
X001730Y002220D01*
X001957Y002220D01*
X001864Y002850D02*
X001750Y002850D01*
X001693Y002907D01*
X001750Y003020D02*
X001693Y003077D01*
X001693Y003134D01*
X001750Y003190D01*
X001864Y003190D01*
X001920Y003134D01*
X001864Y003020D02*
X001920Y002963D01*
X001920Y002907D01*
X001864Y002850D01*
X002062Y002850D02*
X002289Y002850D01*
X002175Y002850D02*
X002175Y003190D01*
X002062Y003077D01*
X001864Y003020D02*
X001750Y003020D01*
X005803Y002784D02*
X006197Y002784D01*
X006730Y002850D02*
X006957Y003077D01*
X006957Y003134D01*
X006900Y003190D01*
X006787Y003190D01*
X006730Y003134D01*
X007098Y003134D02*
X007155Y003190D01*
X007268Y003190D01*
X007325Y003134D01*
X007325Y003077D01*
X007268Y003020D01*
X007325Y002963D01*
X007325Y002907D01*
X007268Y002850D01*
X007155Y002850D01*
X007098Y002907D01*
X006957Y002850D02*
X006730Y002850D01*
X007212Y003020D02*
X007268Y003020D01*
X006197Y003256D02*
X005803Y003256D01*
X005803Y003784D02*
X006197Y003784D01*
X006730Y003850D02*
X006957Y004077D01*
X006957Y004134D01*
X006900Y004190D01*
X006787Y004190D01*
X006730Y004134D01*
X007098Y004190D02*
X007325Y004190D01*
X007325Y004134D01*
X007098Y003907D01*
X007098Y003850D01*
X006957Y003850D02*
X006730Y003850D01*
X006197Y004256D02*
X005803Y004256D01*
X005803Y004784D02*
X006197Y004784D01*
X006730Y004850D02*
X006957Y004850D01*
X006843Y004850D02*
X006843Y005190D01*
X006730Y005077D01*
X007098Y005077D02*
X007155Y005020D01*
X007268Y005020D01*
X007325Y004963D01*
X007325Y004907D01*
X007268Y004850D01*
X007155Y004850D01*
X007098Y004907D01*
X007098Y004963D01*
X007155Y005020D01*
X007098Y005077D02*
X007098Y005134D01*
X007155Y005190D01*
X007268Y005190D01*
X007325Y005134D01*
X007325Y005077D01*
X007268Y005020D01*
X006197Y005256D02*
X005803Y005256D01*
X005803Y005784D02*
X006197Y005784D01*
X006830Y005850D02*
X007057Y005850D01*
X006943Y005850D02*
X006943Y006190D01*
X006830Y006077D01*
X007198Y006190D02*
X007425Y006190D01*
X007425Y006134D01*
X007198Y005907D01*
X007198Y005850D01*
X006197Y006256D02*
X005803Y006256D01*
X013614Y003767D02*
X013614Y003373D01*
X014086Y003373D02*
X014086Y003767D01*
X015250Y002938D02*
X016670Y002938D01*
X016719Y002790D02*
X016549Y002790D01*
X016549Y002450D01*
X016719Y002450D01*
X016776Y002507D01*
X016776Y002734D01*
X016719Y002790D01*
X016917Y002734D02*
X016917Y002507D01*
X016974Y002450D01*
X017087Y002450D01*
X017144Y002507D01*
X017144Y002734D02*
X017087Y002790D01*
X016974Y002790D01*
X016917Y002734D01*
X016407Y002677D02*
X016407Y002450D01*
X016180Y002450D02*
X016180Y002677D01*
X016294Y002790D01*
X016407Y002677D01*
X016407Y002620D02*
X016180Y002620D01*
X015671Y002507D02*
X015614Y002450D01*
X015501Y002450D01*
X015444Y002507D01*
X015444Y002734D01*
X015501Y002790D01*
X015614Y002790D01*
X015671Y002734D01*
X015302Y002734D02*
X015302Y002677D01*
X015076Y002450D01*
X015302Y002450D01*
X014943Y002450D02*
X014830Y002450D01*
X014887Y002450D02*
X014887Y002790D01*
X014943Y002790D02*
X014830Y002790D01*
X015076Y002734D02*
X015132Y002790D01*
X015246Y002790D01*
X015302Y002734D01*
X017105Y001497D02*
X017105Y001440D01*
X017105Y001327D02*
X017105Y001100D01*
X017048Y001100D02*
X017162Y001100D01*
X017294Y001100D02*
X017521Y001100D01*
X017662Y001100D02*
X017889Y001327D01*
X018030Y001327D02*
X018144Y001327D01*
X018087Y001384D02*
X018087Y001157D01*
X018144Y001100D01*
X017889Y001100D02*
X017662Y001327D01*
X017521Y001440D02*
X017294Y001440D01*
X017294Y001100D01*
X017294Y001270D02*
X017407Y001270D01*
X017105Y001327D02*
X017048Y001327D01*
X016907Y001384D02*
X016907Y001270D01*
X016850Y001213D01*
X016680Y001213D01*
X016680Y001100D02*
X016680Y001440D01*
X016850Y001440D01*
X016907Y001384D01*
X018644Y001384D02*
X018644Y001327D01*
X018701Y001270D01*
X018814Y001270D01*
X018871Y001213D01*
X018871Y001157D01*
X018814Y001100D01*
X018701Y001100D01*
X018644Y001157D01*
X019013Y001327D02*
X019126Y001327D01*
X019069Y001384D02*
X019069Y001157D01*
X019126Y001100D01*
X019258Y001157D02*
X019315Y001213D01*
X019485Y001213D01*
X019485Y001270D02*
X019485Y001100D01*
X019315Y001100D01*
X019258Y001157D01*
X019315Y001327D02*
X019428Y001327D01*
X019485Y001270D01*
X019627Y001213D02*
X019740Y001327D01*
X019797Y001327D01*
X019933Y001327D02*
X020047Y001327D01*
X019990Y001384D02*
X019990Y001157D01*
X020047Y001100D01*
X020179Y001157D02*
X020179Y001270D01*
X020236Y001327D01*
X020349Y001327D01*
X020406Y001270D01*
X020406Y001213D01*
X020179Y001213D01*
X020179Y001157D02*
X020236Y001100D01*
X020349Y001100D01*
X020547Y001100D02*
X020547Y001327D01*
X020547Y001213D02*
X020661Y001327D01*
X020717Y001327D01*
X019997Y001684D02*
X019603Y001684D01*
X018871Y001384D02*
X018814Y001440D01*
X018701Y001440D01*
X018644Y001384D01*
X019627Y001327D02*
X019627Y001100D01*
X019603Y002156D02*
X019997Y002156D01*
X018536Y003223D02*
X018536Y003617D01*
X018064Y003617D02*
X018064Y003223D01*
X016670Y004797D02*
X015250Y004797D01*
X014397Y005684D02*
X014003Y005684D01*
X014003Y006156D02*
X014397Y006156D01*
X018064Y005417D02*
X018064Y005023D01*
X018536Y005023D02*
X018536Y005417D01*
X019503Y005456D02*
X019897Y005456D01*
X019897Y004984D02*
X019503Y004984D01*
X007325Y002234D02*
X007325Y002177D01*
X007098Y001950D01*
X007325Y001950D01*
X006957Y001950D02*
X006730Y001950D01*
X006957Y002177D01*
X006957Y002234D01*
X006900Y002290D01*
X006787Y002290D01*
X006730Y002234D01*
X007098Y002234D02*
X007155Y002290D01*
X007268Y002290D01*
X007325Y002234D01*
X006197Y002356D02*
X005803Y002356D01*
X005803Y001884D02*
X006197Y001884D01*
X006197Y001356D02*
X005803Y001356D01*
X005803Y000884D02*
X006197Y000884D01*
X006730Y000950D02*
X006957Y001177D01*
X006957Y001234D01*
X006900Y001290D01*
X006787Y001290D01*
X006730Y001234D01*
X007098Y001120D02*
X007325Y001120D01*
X007268Y001290D02*
X007098Y001120D01*
X006957Y000950D02*
X006730Y000950D01*
X007268Y000950D02*
X007268Y001290D01*
D11*
X008420Y000940D02*
X008487Y000873D01*
X008553Y000940D01*
X008553Y000740D01*
X008641Y000773D02*
X008674Y000740D01*
X008741Y000740D01*
X008774Y000773D01*
X008774Y000907D01*
X008741Y000940D01*
X008674Y000940D01*
X008641Y000907D01*
X008641Y000773D01*
X008862Y000773D02*
X008895Y000740D01*
X008962Y000740D01*
X008995Y000773D01*
X008995Y000807D01*
X008962Y000840D01*
X008895Y000840D01*
X008862Y000873D01*
X008862Y000907D01*
X008895Y000940D01*
X008962Y000940D01*
X008995Y000907D01*
X009083Y000940D02*
X009150Y000940D01*
X009116Y000940D02*
X009116Y000740D01*
X009083Y000740D02*
X009150Y000740D01*
X009520Y000740D02*
X009520Y000940D01*
X009587Y000873D01*
X009653Y000940D01*
X009653Y000740D01*
X009741Y000740D02*
X009808Y000740D01*
X009774Y000740D02*
X009774Y000940D01*
X009741Y000940D02*
X009808Y000940D01*
X009888Y000907D02*
X009888Y000873D01*
X009922Y000840D01*
X009988Y000840D01*
X010022Y000807D01*
X010022Y000773D01*
X009988Y000740D01*
X009922Y000740D01*
X009888Y000773D01*
X010109Y000773D02*
X010143Y000740D01*
X010209Y000740D01*
X010243Y000773D01*
X010243Y000907D01*
X010209Y000940D01*
X010143Y000940D01*
X010109Y000907D01*
X010109Y000773D01*
X010022Y000907D02*
X009988Y000940D01*
X009922Y000940D01*
X009888Y000907D01*
X010520Y000907D02*
X010520Y000873D01*
X010553Y000840D01*
X010620Y000840D01*
X010653Y000807D01*
X010653Y000773D01*
X010620Y000740D01*
X010553Y000740D01*
X010520Y000773D01*
X010741Y000773D02*
X010774Y000740D01*
X010841Y000740D01*
X010874Y000773D01*
X010962Y000740D02*
X011095Y000740D01*
X011183Y000740D02*
X011183Y000940D01*
X011216Y000840D02*
X011316Y000740D01*
X011183Y000807D02*
X011316Y000940D01*
X011520Y000907D02*
X011520Y000773D01*
X011553Y000740D01*
X011620Y000740D01*
X011653Y000773D01*
X011741Y000740D02*
X011874Y000740D01*
X011962Y000773D02*
X012095Y000907D01*
X012095Y000773D01*
X012062Y000740D01*
X011995Y000740D01*
X011962Y000773D01*
X011962Y000907D01*
X011995Y000940D01*
X012062Y000940D01*
X012095Y000907D01*
X011874Y000940D02*
X011741Y000940D01*
X011741Y000740D01*
X011741Y000840D02*
X011808Y000840D01*
X011653Y000907D02*
X011620Y000940D01*
X011553Y000940D01*
X011520Y000907D01*
X010962Y000940D02*
X010962Y000740D01*
X010741Y000773D02*
X010741Y000907D01*
X010774Y000940D01*
X010841Y000940D01*
X010874Y000907D01*
X010653Y000907D02*
X010620Y000940D01*
X010553Y000940D01*
X010520Y000907D01*
X008420Y000940D02*
X008420Y000740D01*
X008553Y002240D02*
X008520Y002273D01*
X008553Y002240D02*
X008620Y002240D01*
X008653Y002273D01*
X008653Y002340D01*
X008620Y002373D01*
X008587Y002373D01*
X008520Y002340D01*
X008520Y002440D01*
X008653Y002440D01*
X008741Y002440D02*
X008741Y002307D01*
X008808Y002240D01*
X008874Y002307D01*
X008874Y002440D01*
X008962Y002407D02*
X008995Y002440D01*
X009062Y002440D01*
X009095Y002407D01*
X008962Y002273D01*
X008995Y002240D01*
X009062Y002240D01*
X009095Y002273D01*
X009095Y002407D01*
X008962Y002407D02*
X008962Y002273D01*
X009520Y002273D02*
X009553Y002240D01*
X009620Y002240D01*
X009653Y002273D01*
X009653Y002307D01*
X009620Y002340D01*
X009587Y002340D01*
X009620Y002340D02*
X009653Y002373D01*
X009653Y002407D01*
X009620Y002440D01*
X009553Y002440D01*
X009520Y002407D01*
X009741Y002440D02*
X009741Y002307D01*
X009808Y002240D01*
X009874Y002307D01*
X009874Y002440D01*
X009962Y002407D02*
X009995Y002440D01*
X010062Y002440D01*
X010095Y002407D01*
X010095Y002373D01*
X010062Y002340D01*
X010095Y002307D01*
X010095Y002273D01*
X010062Y002240D01*
X009995Y002240D01*
X009962Y002273D01*
X010029Y002340D02*
X010062Y002340D01*
X010520Y002273D02*
X010553Y002240D01*
X010620Y002240D01*
X010653Y002273D01*
X010653Y002340D01*
X010587Y002340D01*
X010653Y002407D02*
X010620Y002440D01*
X010553Y002440D01*
X010520Y002407D01*
X010520Y002273D01*
X010741Y002240D02*
X010741Y002440D01*
X010874Y002240D01*
X010874Y002440D01*
X010962Y002440D02*
X011062Y002440D01*
X011095Y002407D01*
X011095Y002273D01*
X011062Y002240D01*
X010962Y002240D01*
X010962Y002440D01*
X010316Y003640D02*
X010183Y003640D01*
X010250Y003640D02*
X010250Y003840D01*
X010183Y003773D01*
X010095Y003640D02*
X009962Y003640D01*
X009962Y003840D01*
X009874Y003807D02*
X009841Y003840D01*
X009774Y003840D01*
X009741Y003807D01*
X009741Y003673D01*
X009774Y003640D01*
X009841Y003640D01*
X009874Y003673D01*
X009653Y003673D02*
X009653Y003707D01*
X009620Y003740D01*
X009553Y003740D01*
X009520Y003773D01*
X009520Y003807D01*
X009553Y003840D01*
X009620Y003840D01*
X009653Y003807D01*
X009653Y003673D02*
X009620Y003640D01*
X009553Y003640D01*
X009520Y003673D01*
X009216Y003640D02*
X009083Y003640D01*
X009150Y003640D02*
X009150Y003840D01*
X009083Y003773D01*
X008995Y003773D02*
X008995Y003640D01*
X008995Y003740D02*
X008862Y003740D01*
X008862Y003773D02*
X008929Y003840D01*
X008995Y003773D01*
X008862Y003773D02*
X008862Y003640D01*
X008774Y003673D02*
X008774Y003807D01*
X008741Y003840D01*
X008641Y003840D01*
X008641Y003640D01*
X008741Y003640D01*
X008774Y003673D01*
X008553Y003673D02*
X008553Y003707D01*
X008520Y003740D01*
X008453Y003740D01*
X008420Y003773D01*
X008420Y003807D01*
X008453Y003840D01*
X008520Y003840D01*
X008553Y003807D01*
X008553Y003673D02*
X008520Y003640D01*
X008453Y003640D01*
X008420Y003673D01*
X008587Y005140D02*
X008587Y005340D01*
X008653Y005340D02*
X008520Y005340D01*
X008741Y005340D02*
X008874Y005140D01*
X008962Y005173D02*
X009095Y005307D01*
X009095Y005173D01*
X009062Y005140D01*
X008995Y005140D01*
X008962Y005173D01*
X008962Y005307D01*
X008995Y005340D01*
X009062Y005340D01*
X009095Y005307D01*
X008874Y005340D02*
X008741Y005140D01*
X009620Y005140D02*
X009620Y005340D01*
X009720Y005340D01*
X009753Y005307D01*
X009753Y005240D01*
X009720Y005207D01*
X009620Y005207D01*
X009687Y005207D02*
X009753Y005140D01*
X009841Y005140D02*
X009974Y005340D01*
X010062Y005307D02*
X010095Y005340D01*
X010162Y005340D01*
X010195Y005307D01*
X010062Y005173D01*
X010095Y005140D01*
X010162Y005140D01*
X010195Y005173D01*
X010195Y005307D01*
X010062Y005307D02*
X010062Y005173D01*
X009974Y005140D02*
X009841Y005340D01*
X016670Y002207D02*
X016703Y002240D01*
X016770Y002240D01*
X016803Y002207D01*
X016891Y002240D02*
X016891Y002040D01*
X016803Y002073D02*
X016770Y002040D01*
X016703Y002040D01*
X016670Y002073D01*
X016670Y002207D01*
X016891Y002140D02*
X017024Y002140D01*
X017112Y002173D02*
X017179Y002240D01*
X017179Y002040D01*
X017245Y002040D02*
X017112Y002040D01*
X017024Y002040D02*
X017024Y002240D01*
X017333Y002173D02*
X017333Y002140D01*
X017366Y002140D01*
X017366Y002173D01*
X017333Y002173D01*
X017333Y002073D02*
X017333Y002040D01*
X017366Y002040D01*
X017366Y002073D01*
X017333Y002073D01*
X017510Y002040D02*
X017510Y002240D01*
X017443Y002240D02*
X017577Y002240D01*
X017664Y002140D02*
X017698Y002173D01*
X017765Y002173D01*
X017798Y002140D01*
X017798Y002107D01*
X017664Y002107D01*
X017664Y002140D02*
X017664Y002073D01*
X017698Y002040D01*
X017765Y002040D01*
X017885Y002040D02*
X017885Y002173D01*
X017919Y002173D01*
X017952Y002140D01*
X017986Y002173D01*
X018019Y002140D01*
X018019Y002040D01*
X017952Y002040D02*
X017952Y002140D01*
X018106Y002173D02*
X018207Y002173D01*
X018240Y002140D01*
X018240Y002073D01*
X018207Y002040D01*
X018106Y002040D01*
X018106Y001973D02*
X018106Y002173D01*
X020016Y000974D02*
X020016Y000940D01*
X020016Y000873D02*
X020016Y000740D01*
X020049Y000740D02*
X019982Y000740D01*
X020130Y000740D02*
X020230Y000740D01*
X020263Y000773D01*
X020263Y000840D01*
X020230Y000873D01*
X020130Y000873D01*
X020130Y000940D02*
X020130Y000740D01*
X020351Y000773D02*
X020384Y000807D01*
X020484Y000807D01*
X020484Y000840D02*
X020484Y000740D01*
X020384Y000740D01*
X020351Y000773D01*
X020451Y000873D02*
X020484Y000840D01*
X020451Y000873D02*
X020384Y000873D01*
X020572Y000873D02*
X020572Y000740D01*
X020572Y000807D02*
X020638Y000873D01*
X020672Y000873D01*
X020016Y000873D02*
X019982Y000873D01*
X019898Y000873D02*
X019865Y000873D01*
X019798Y000807D01*
X019798Y000873D02*
X019798Y000740D01*
X019711Y000740D02*
X019711Y000840D01*
X019677Y000873D01*
X019611Y000873D01*
X019577Y000840D01*
X019490Y000840D02*
X019490Y000807D01*
X019356Y000807D01*
X019356Y000840D02*
X019390Y000873D01*
X019456Y000873D01*
X019490Y000840D01*
X019456Y000740D02*
X019390Y000740D01*
X019356Y000773D01*
X019356Y000840D01*
X019269Y000740D02*
X019169Y000840D01*
X019135Y000807D02*
X019269Y000940D01*
X019135Y000940D02*
X019135Y000740D01*
X018827Y000740D02*
X018827Y000840D01*
X018793Y000873D01*
X018693Y000873D01*
X018693Y000740D01*
X018606Y000740D02*
X018606Y000840D01*
X018572Y000873D01*
X018506Y000873D01*
X018506Y000807D02*
X018606Y000807D01*
X018606Y000740D02*
X018506Y000740D01*
X018472Y000773D01*
X018506Y000807D01*
X018385Y000773D02*
X018351Y000807D01*
X018285Y000807D01*
X018251Y000840D01*
X018285Y000873D01*
X018385Y000873D01*
X018164Y000840D02*
X018164Y000740D01*
X018251Y000740D02*
X018351Y000740D01*
X018385Y000773D01*
X018164Y000840D02*
X018130Y000873D01*
X018064Y000873D01*
X018030Y000840D01*
X018030Y000940D02*
X018030Y000740D01*
X017950Y000740D02*
X017883Y000740D01*
X017916Y000740D02*
X017916Y000940D01*
X017883Y000940D02*
X017950Y000940D01*
X017574Y000873D02*
X017574Y000707D01*
X017541Y000673D01*
X017508Y000673D01*
X017474Y000740D02*
X017574Y000740D01*
X017474Y000740D02*
X017441Y000773D01*
X017441Y000873D01*
X017353Y000873D02*
X017320Y000840D01*
X017220Y000840D01*
X017220Y000740D02*
X017320Y000740D01*
X017353Y000773D01*
X017353Y000807D01*
X017320Y000840D01*
X017353Y000873D02*
X017353Y000907D01*
X017320Y000940D01*
X017220Y000940D01*
X017220Y000740D01*
X016463Y000708D02*
X016463Y000808D01*
X016429Y000841D01*
X016396Y000808D01*
X016396Y000708D01*
X016329Y000708D02*
X016329Y000841D01*
X016363Y000841D01*
X016396Y000808D01*
X016242Y000808D02*
X016242Y000741D01*
X016209Y000708D01*
X016142Y000708D01*
X016108Y000741D01*
X016108Y000808D01*
X016142Y000841D01*
X016209Y000841D01*
X016242Y000808D01*
X016021Y000841D02*
X015921Y000841D01*
X015887Y000808D01*
X015887Y000741D01*
X015921Y000708D01*
X016021Y000708D01*
X015810Y000708D02*
X015777Y000708D01*
X015777Y000741D01*
X015810Y000741D01*
X015810Y000708D01*
X015689Y000708D02*
X015589Y000708D01*
X015556Y000741D01*
X015556Y000808D01*
X015589Y000841D01*
X015689Y000841D01*
X015475Y000708D02*
X015409Y000708D01*
X015442Y000708D02*
X015442Y000841D01*
X015409Y000841D01*
X015442Y000908D02*
X015442Y000941D01*
X015328Y000841D02*
X015261Y000841D01*
X015295Y000874D02*
X015295Y000741D01*
X015328Y000708D01*
X015174Y000741D02*
X015174Y000808D01*
X015140Y000841D01*
X015074Y000841D01*
X015040Y000808D01*
X015040Y000741D01*
X015074Y000708D01*
X015140Y000708D01*
X015174Y000741D01*
X014953Y000741D02*
X014953Y000808D01*
X014919Y000841D01*
X014819Y000841D01*
X014819Y000908D02*
X014819Y000708D01*
X014919Y000708D01*
X014953Y000741D01*
X014732Y000741D02*
X014732Y000808D01*
X014698Y000841D01*
X014632Y000841D01*
X014598Y000808D01*
X014598Y000741D01*
X014632Y000708D01*
X014698Y000708D01*
X014732Y000741D01*
X014514Y000841D02*
X014481Y000841D01*
X014414Y000774D01*
X014414Y000708D02*
X014414Y000841D01*
X014327Y000841D02*
X014227Y000841D01*
X014193Y000808D01*
X014193Y000741D01*
X014227Y000708D01*
X014327Y000708D01*
X014106Y000708D02*
X014106Y000808D01*
X014072Y000841D01*
X014006Y000841D01*
X014006Y000774D02*
X013972Y000741D01*
X014006Y000708D01*
X014106Y000708D01*
X014106Y000774D02*
X014006Y000774D01*
X013895Y000741D02*
X013895Y000708D01*
X013862Y000708D01*
X013862Y000741D01*
X013895Y000741D01*
X013774Y000741D02*
X013774Y000841D01*
X013774Y000741D02*
X013741Y000708D01*
X013707Y000741D01*
X013674Y000708D01*
X013641Y000741D01*
X013641Y000841D01*
X013553Y000841D02*
X013553Y000741D01*
X013520Y000708D01*
X013486Y000741D01*
X013453Y000708D01*
X013420Y000741D01*
X013420Y000841D01*
X013332Y000841D02*
X013332Y000741D01*
X013299Y000708D01*
X013265Y000741D01*
X013232Y000708D01*
X013199Y000741D01*
X013199Y000841D01*
X019577Y000940D02*
X019577Y000740D01*
D12*
X012700Y000820D02*
X012700Y001283D01*
X012700Y001676D02*
X012700Y002139D01*
X012700Y002532D02*
X012700Y002995D01*
X012700Y003389D02*
X012700Y003851D01*
X012700Y004245D02*
X012700Y004708D01*
X012700Y005101D02*
X012700Y005564D01*
X012700Y005957D02*
X012700Y006420D01*
X007889Y006420D02*
X007889Y005958D01*
X007889Y005565D02*
X007889Y005103D01*
X007889Y004709D02*
X007889Y004248D01*
X007889Y003854D02*
X007889Y003392D01*
X007889Y002999D02*
X007889Y002537D01*
X007889Y002143D02*
X007889Y001682D01*
X007889Y001288D02*
X007889Y000826D01*
X003181Y003339D02*
X003181Y005701D01*
X000819Y005701D01*
X000819Y003339D01*
X003181Y003339D01*
X001311Y004520D02*
X001313Y004572D01*
X001319Y004624D01*
X001329Y004675D01*
X001342Y004725D01*
X001360Y004775D01*
X001381Y004822D01*
X001405Y004868D01*
X001434Y004912D01*
X001465Y004954D01*
X001499Y004993D01*
X001536Y005030D01*
X001576Y005063D01*
X001619Y005094D01*
X001663Y005121D01*
X001709Y005145D01*
X001758Y005165D01*
X001807Y005181D01*
X001858Y005194D01*
X001909Y005203D01*
X001961Y005208D01*
X002013Y005209D01*
X002065Y005206D01*
X002117Y005199D01*
X002168Y005188D01*
X002218Y005174D01*
X002267Y005155D01*
X002314Y005133D01*
X002359Y005108D01*
X002403Y005079D01*
X002444Y005047D01*
X002483Y005012D01*
X002518Y004974D01*
X002551Y004933D01*
X002581Y004891D01*
X002607Y004846D01*
X002630Y004799D01*
X002649Y004750D01*
X002665Y004700D01*
X002677Y004650D01*
X002685Y004598D01*
X002689Y004546D01*
X002689Y004494D01*
X002685Y004442D01*
X002677Y004390D01*
X002665Y004340D01*
X002649Y004290D01*
X002630Y004241D01*
X002607Y004194D01*
X002581Y004149D01*
X002551Y004107D01*
X002518Y004066D01*
X002483Y004028D01*
X002444Y003993D01*
X002403Y003961D01*
X002359Y003932D01*
X002314Y003907D01*
X002267Y003885D01*
X002218Y003866D01*
X002168Y003852D01*
X002117Y003841D01*
X002065Y003834D01*
X002013Y003831D01*
X001961Y003832D01*
X001909Y003837D01*
X001858Y003846D01*
X001807Y003859D01*
X001758Y003875D01*
X001709Y003895D01*
X001663Y003919D01*
X001619Y003946D01*
X001576Y003977D01*
X001536Y004010D01*
X001499Y004047D01*
X001465Y004086D01*
X001434Y004128D01*
X001405Y004172D01*
X001381Y004218D01*
X001360Y004265D01*
X001342Y004315D01*
X001329Y004365D01*
X001319Y004416D01*
X001313Y004468D01*
X001311Y004520D01*
X001650Y006520D02*
X000900Y006520D01*
D13*
X001050Y006820D02*
X000800Y007070D01*
X000800Y007570D01*
X001050Y007820D01*
X000800Y008070D01*
X000800Y008570D01*
X001050Y008820D01*
X001550Y008820D01*
X001800Y008570D01*
X002050Y008820D01*
X002550Y008820D01*
X002800Y008570D01*
X003050Y008820D01*
X003550Y008820D01*
X003800Y008570D01*
X004050Y008820D01*
X004550Y008820D01*
X004800Y008570D01*
X005050Y008820D01*
X005550Y008820D01*
X005800Y008570D01*
X006050Y008820D01*
X006550Y008820D01*
X006800Y008570D01*
X007050Y008820D01*
X007550Y008820D01*
X007800Y008570D01*
X008050Y008820D01*
X008550Y008820D01*
X008800Y008570D01*
X009050Y008820D01*
X009550Y008820D01*
X009800Y008570D01*
X010050Y008820D01*
X010550Y008820D01*
X010800Y008570D01*
X011050Y008820D01*
X011550Y008820D01*
X011800Y008570D01*
X012050Y008820D01*
X012550Y008820D01*
X012800Y008570D01*
X013050Y008820D01*
X013550Y008820D01*
X013800Y008570D01*
X014050Y008820D01*
X014550Y008820D01*
X014800Y008570D01*
X015050Y008820D01*
X015550Y008820D01*
X015800Y008570D01*
X016050Y008820D01*
X016550Y008820D01*
X016800Y008570D01*
X017050Y008820D01*
X017550Y008820D01*
X017800Y008570D01*
X018050Y008820D01*
X018550Y008820D01*
X018800Y008570D01*
X019050Y008820D01*
X019550Y008820D01*
X019800Y008570D01*
X020050Y008820D01*
X020550Y008820D01*
X020800Y008570D01*
X020800Y008070D01*
X020550Y007820D01*
X020800Y007570D01*
X020800Y007070D01*
X020550Y006820D01*
X020050Y006820D01*
X019800Y007070D01*
X019550Y006820D01*
X019050Y006820D01*
X018800Y007070D01*
X018550Y006820D01*
X018050Y006820D01*
X017800Y007070D01*
X017550Y006820D01*
X017050Y006820D01*
X016800Y007070D01*
X016550Y006820D01*
X016050Y006820D01*
X015800Y007070D01*
X015550Y006820D01*
X015050Y006820D01*
X014800Y007070D01*
X014550Y006820D01*
X014050Y006820D01*
X013800Y007070D01*
X013550Y006820D01*
X013050Y006820D01*
X012800Y007070D01*
X012550Y006820D01*
X012050Y006820D01*
X011800Y007070D01*
X011550Y006820D01*
X011050Y006820D01*
X010800Y007070D01*
X010550Y006820D01*
X010050Y006820D01*
X009800Y007070D01*
X009550Y006820D01*
X009050Y006820D01*
X008800Y007070D01*
X008550Y006820D01*
X008050Y006820D01*
X007800Y007070D01*
X007550Y006820D01*
X007050Y006820D01*
X006800Y007070D01*
X006550Y006820D01*
X006050Y006820D01*
X005800Y007070D01*
X005550Y006820D01*
X005050Y006820D01*
X004800Y007070D01*
X004550Y006820D01*
X004050Y006820D01*
X003800Y007070D01*
X003550Y006820D01*
X003050Y006820D01*
X002800Y007070D01*
X002550Y006820D01*
X002050Y006820D01*
X001800Y007070D01*
X001550Y006820D01*
X001050Y006820D01*
X000620Y006960D02*
X000340Y006960D01*
X000480Y006960D02*
X000480Y007380D01*
X000340Y007240D01*
X001800Y007320D02*
X001800Y008320D01*
X002800Y008320D02*
X002800Y007320D01*
X003800Y007320D02*
X003800Y008320D01*
X004800Y008320D02*
X004800Y007320D01*
X005800Y007320D02*
X005800Y008320D01*
X006800Y008320D02*
X006800Y007320D01*
X007800Y007320D02*
X007800Y008320D01*
X008800Y008320D02*
X008800Y007320D01*
X008800Y006980D02*
X008800Y006560D01*
X009081Y006560D01*
X009261Y006560D02*
X009261Y006980D01*
X009471Y006980D01*
X009541Y006910D01*
X009541Y006770D01*
X009471Y006700D01*
X009261Y006700D01*
X009401Y006700D02*
X009541Y006560D01*
X009721Y006560D02*
X009861Y006560D01*
X009791Y006560D02*
X009791Y006980D01*
X009721Y006980D02*
X009861Y006980D01*
X010028Y006840D02*
X010168Y006980D01*
X010308Y006840D01*
X010308Y006560D01*
X010300Y006420D02*
X010300Y005420D01*
X008300Y005420D01*
X008300Y006420D01*
X010300Y006420D01*
X010488Y006560D02*
X010769Y006560D01*
X010488Y006560D02*
X010488Y006980D01*
X010028Y006840D02*
X010028Y006560D01*
X010028Y006770D02*
X010308Y006770D01*
X010800Y007320D02*
X010800Y008320D01*
X009800Y008320D02*
X009800Y007320D01*
X009081Y006980D02*
X008800Y006980D01*
X008620Y006910D02*
X008550Y006980D01*
X008410Y006980D01*
X008340Y006910D01*
X008340Y006840D01*
X008410Y006770D01*
X008550Y006770D01*
X008620Y006700D01*
X008620Y006630D01*
X008550Y006560D01*
X008410Y006560D01*
X008340Y006630D01*
X008800Y006770D02*
X008941Y006770D01*
X008857Y005480D02*
X008717Y005480D01*
X008647Y005410D01*
X008480Y005480D02*
X008340Y005480D01*
X008410Y005480D02*
X008410Y005060D01*
X008340Y005060D02*
X008480Y005060D01*
X008647Y005060D02*
X008927Y005340D01*
X008927Y005410D01*
X008857Y005480D01*
X009107Y005410D02*
X009107Y005130D01*
X009177Y005060D01*
X009318Y005060D01*
X009388Y005130D01*
X008927Y005060D02*
X008647Y005060D01*
X008300Y004920D02*
X008300Y003920D01*
X010300Y003920D01*
X010300Y004920D01*
X008300Y004920D01*
X009107Y005410D02*
X009177Y005480D01*
X009318Y005480D01*
X009388Y005410D01*
X009261Y004080D02*
X009261Y003660D01*
X009401Y003800D01*
X009541Y003660D01*
X009541Y004080D01*
X009721Y004080D02*
X009721Y003660D01*
X010001Y003660D01*
X010182Y003660D02*
X010182Y004080D01*
X010392Y004080D01*
X010462Y004010D01*
X010462Y003870D01*
X010392Y003800D01*
X010182Y003800D01*
X010322Y003800D02*
X010462Y003660D01*
X009861Y003870D02*
X009721Y003870D01*
X009721Y004080D02*
X010001Y004080D01*
X009081Y004010D02*
X009081Y003730D01*
X009011Y003660D01*
X008870Y003660D01*
X008800Y003730D01*
X008800Y004010D01*
X008870Y004080D01*
X009011Y004080D01*
X009081Y004010D01*
X008620Y004010D02*
X008620Y003870D01*
X008550Y003800D01*
X008340Y003800D01*
X008340Y003660D02*
X008340Y004080D01*
X008550Y004080D01*
X008620Y004010D01*
X008300Y003520D02*
X008300Y002520D01*
X011300Y002520D01*
X011300Y003520D01*
X008300Y003520D01*
X006360Y003400D02*
X006360Y003330D01*
X006290Y003260D01*
X006150Y003260D01*
X006080Y003330D01*
X006080Y003470D01*
X006290Y003470D01*
X006360Y003400D01*
X006220Y003610D02*
X006080Y003470D01*
X005899Y003470D02*
X005829Y003400D01*
X005619Y003400D01*
X005759Y003400D02*
X005899Y003260D01*
X005619Y003260D02*
X005619Y003680D01*
X005829Y003680D01*
X005899Y003610D01*
X005899Y003470D01*
X006220Y003610D02*
X006360Y003680D01*
X006290Y004260D02*
X006150Y004260D01*
X006080Y004330D01*
X005899Y004260D02*
X005759Y004400D01*
X005829Y004400D02*
X005619Y004400D01*
X005829Y004400D02*
X005899Y004470D01*
X005899Y004610D01*
X005829Y004680D01*
X005619Y004680D01*
X005619Y004260D01*
X006080Y004470D02*
X006220Y004540D01*
X006290Y004540D01*
X006360Y004470D01*
X006360Y004330D01*
X006290Y004260D01*
X006080Y004470D02*
X006080Y004680D01*
X006360Y004680D01*
X006290Y005260D02*
X006290Y005680D01*
X006080Y005470D01*
X006360Y005470D01*
X005899Y005470D02*
X005829Y005400D01*
X005619Y005400D01*
X005619Y005260D02*
X005619Y005680D01*
X005829Y005680D01*
X005899Y005610D01*
X005899Y005470D01*
X005759Y005400D02*
X005899Y005260D01*
X004660Y005217D02*
X004380Y005217D01*
X004394Y005112D02*
X004272Y005020D01*
X004272Y004839D01*
X004394Y004934D02*
X004279Y005010D01*
X004272Y005020D02*
X004272Y005201D01*
X004199Y005288D02*
X004199Y005568D01*
X004129Y005638D01*
X003919Y005638D01*
X003919Y005217D01*
X004129Y005217D01*
X004199Y005288D01*
X004380Y005498D02*
X004520Y005638D01*
X004520Y005217D01*
X003739Y005217D02*
X003459Y005217D01*
X003459Y005638D01*
X003739Y005638D01*
X003599Y005428D02*
X003459Y005428D01*
X002998Y005638D02*
X002998Y005217D01*
X003279Y005217D01*
X003459Y004638D02*
X003459Y004217D01*
X003739Y004217D01*
X003919Y004217D02*
X004129Y004217D01*
X004199Y004288D01*
X004199Y004568D01*
X004129Y004638D01*
X003919Y004638D01*
X003919Y004217D01*
X004272Y004201D02*
X004272Y004020D01*
X004394Y004112D01*
X004380Y004217D02*
X004660Y004498D01*
X004660Y004568D01*
X004590Y004638D01*
X004450Y004638D01*
X004380Y004568D01*
X003739Y004638D02*
X003459Y004638D01*
X003459Y004428D02*
X003599Y004428D01*
X003279Y004217D02*
X002998Y004217D01*
X002998Y004638D01*
X004272Y004020D02*
X004272Y003839D01*
X004394Y003934D02*
X004279Y004010D01*
X004380Y004217D02*
X004660Y004217D01*
X004590Y003638D02*
X004660Y003568D01*
X004660Y003498D01*
X004590Y003428D01*
X004660Y003358D01*
X004660Y003288D01*
X004590Y003217D01*
X004450Y003217D01*
X004380Y003288D01*
X004272Y003201D02*
X004272Y003020D01*
X004394Y003112D01*
X004272Y003020D02*
X004272Y002839D01*
X004394Y002934D02*
X004279Y003010D01*
X004129Y003217D02*
X003919Y003217D01*
X003919Y003638D01*
X004129Y003638D01*
X004199Y003568D01*
X004199Y003288D01*
X004129Y003217D01*
X003739Y003217D02*
X003459Y003217D01*
X003459Y003638D01*
X003739Y003638D01*
X003599Y003428D02*
X003459Y003428D01*
X003279Y003217D02*
X002998Y003217D01*
X002998Y003638D01*
X004380Y003568D02*
X004450Y003638D01*
X004590Y003638D01*
X004590Y003428D02*
X004520Y003428D01*
X004590Y002638D02*
X004380Y002428D01*
X004660Y002428D01*
X004590Y002638D02*
X004590Y002217D01*
X004394Y002212D02*
X004272Y002120D01*
X004272Y001939D01*
X004394Y002034D02*
X004279Y002110D01*
X004272Y002120D02*
X004272Y002301D01*
X004199Y002288D02*
X004129Y002217D01*
X003919Y002217D01*
X003919Y002638D01*
X004129Y002638D01*
X004199Y002568D01*
X004199Y002288D01*
X003739Y002217D02*
X003459Y002217D01*
X003459Y002638D01*
X003739Y002638D01*
X003599Y002428D02*
X003459Y002428D01*
X002998Y002638D02*
X002998Y002217D01*
X003279Y002217D01*
X003459Y001738D02*
X003459Y001317D01*
X003739Y001317D01*
X003919Y001317D02*
X004129Y001317D01*
X004199Y001388D01*
X004199Y001668D01*
X004129Y001738D01*
X003919Y001738D01*
X003919Y001317D01*
X004272Y001301D02*
X004272Y001120D01*
X004394Y001212D01*
X004450Y001317D02*
X004380Y001388D01*
X004450Y001317D02*
X004590Y001317D01*
X004660Y001388D01*
X004660Y001528D01*
X004590Y001598D01*
X004520Y001598D01*
X004380Y001528D01*
X004380Y001738D01*
X004660Y001738D01*
X005619Y001780D02*
X005619Y001360D01*
X005619Y001500D02*
X005829Y001500D01*
X005899Y001570D01*
X005899Y001710D01*
X005829Y001780D01*
X005619Y001780D01*
X006080Y001710D02*
X006080Y001640D01*
X006150Y001570D01*
X006290Y001570D01*
X006360Y001500D01*
X006360Y001430D01*
X006290Y001360D01*
X006150Y001360D01*
X006080Y001430D01*
X006080Y001500D01*
X006150Y001570D01*
X006290Y001570D02*
X006360Y001640D01*
X006360Y001710D01*
X006290Y001780D01*
X006150Y001780D01*
X006080Y001710D01*
X005759Y001500D02*
X005899Y001360D01*
X005829Y000780D02*
X005619Y000780D01*
X005619Y000360D01*
X005759Y000500D02*
X005899Y000360D01*
X006080Y000430D02*
X006150Y000360D01*
X006290Y000360D01*
X006360Y000430D01*
X006360Y000710D01*
X006290Y000780D01*
X006150Y000780D01*
X006080Y000710D01*
X006080Y000640D01*
X006150Y000570D01*
X006360Y000570D01*
X005899Y000570D02*
X005829Y000500D01*
X005619Y000500D01*
X005899Y000570D02*
X005899Y000710D01*
X005829Y000780D01*
X004660Y000738D02*
X004520Y000668D01*
X004380Y000528D01*
X004590Y000528D01*
X004660Y000458D01*
X004660Y000388D01*
X004590Y000317D01*
X004450Y000317D01*
X004380Y000388D01*
X004380Y000528D01*
X004199Y000668D02*
X004129Y000738D01*
X003919Y000738D01*
X003919Y000317D01*
X004129Y000317D01*
X004199Y000388D01*
X004199Y000668D01*
X003739Y000738D02*
X003459Y000738D01*
X003459Y000317D01*
X003739Y000317D01*
X003599Y000528D02*
X003459Y000528D01*
X003279Y000317D02*
X002998Y000317D01*
X002998Y000738D01*
X002998Y001317D02*
X003279Y001317D01*
X002998Y001317D02*
X002998Y001738D01*
X003459Y001738D02*
X003739Y001738D01*
X003599Y001528D02*
X003459Y001528D01*
X004272Y001120D02*
X004272Y000939D01*
X004394Y001034D02*
X004279Y001110D01*
X005619Y002260D02*
X005619Y002680D01*
X005829Y002680D01*
X005899Y002610D01*
X005899Y002470D01*
X005829Y002400D01*
X005619Y002400D01*
X005759Y002400D02*
X005899Y002260D01*
X006080Y002260D02*
X006080Y002330D01*
X006360Y002610D01*
X006360Y002680D01*
X006080Y002680D01*
X008340Y002510D02*
X008340Y002440D01*
X008410Y002370D01*
X008550Y002370D01*
X008620Y002300D01*
X008620Y002230D01*
X008550Y002160D01*
X008410Y002160D01*
X008340Y002230D01*
X008340Y002510D02*
X008410Y002580D01*
X008550Y002580D01*
X008620Y002510D01*
X008800Y002580D02*
X009011Y002580D01*
X009081Y002510D01*
X009081Y002370D01*
X009011Y002300D01*
X008800Y002300D01*
X008800Y002160D02*
X008800Y002580D01*
X009261Y002580D02*
X009401Y002580D01*
X009331Y002580D02*
X009331Y002160D01*
X009261Y002160D02*
X009401Y002160D01*
X008300Y002020D02*
X008300Y001020D01*
X012300Y001020D01*
X012300Y002020D01*
X008300Y002020D01*
X014190Y002729D02*
X014190Y002939D01*
X014260Y003009D01*
X014400Y003009D01*
X014470Y002939D01*
X014470Y002729D01*
X014470Y002869D02*
X014610Y003009D01*
X014610Y003189D02*
X014610Y003469D01*
X014610Y003329D02*
X014190Y003329D01*
X014330Y003189D01*
X014190Y002729D02*
X014610Y002729D01*
X015369Y002828D02*
X015369Y002478D01*
X015439Y002408D01*
X015579Y002408D01*
X015649Y002478D01*
X015649Y002828D01*
X015829Y002758D02*
X015899Y002828D01*
X016039Y002828D01*
X016109Y002758D01*
X016039Y002618D02*
X015899Y002618D01*
X015829Y002688D01*
X015829Y002758D01*
X015969Y002898D02*
X015969Y002337D01*
X015899Y002408D02*
X016039Y002408D01*
X016109Y002478D01*
X016109Y002548D01*
X016039Y002618D01*
X016290Y002688D02*
X016430Y002828D01*
X016430Y002408D01*
X016290Y002408D02*
X016570Y002408D01*
X015899Y002408D02*
X015829Y002478D01*
X017540Y002960D02*
X017540Y003170D01*
X017610Y003240D01*
X017750Y003240D01*
X017820Y003170D01*
X017820Y002960D01*
X017960Y002960D02*
X017540Y002960D01*
X017820Y003100D02*
X017960Y003240D01*
X017960Y003420D02*
X017680Y003701D01*
X017610Y003701D01*
X017540Y003631D01*
X017540Y003490D01*
X017610Y003420D01*
X017960Y003420D02*
X017960Y003701D01*
X019131Y004071D02*
X019149Y004071D01*
X019131Y004071D02*
X019131Y002958D01*
X019159Y002958D01*
X019340Y002680D02*
X019550Y002680D01*
X019620Y002610D01*
X019620Y002470D01*
X019550Y002400D01*
X019340Y002400D01*
X019340Y002260D02*
X019340Y002680D01*
X019800Y002540D02*
X019941Y002680D01*
X019941Y002260D01*
X020081Y002260D02*
X019800Y002260D01*
X019620Y002260D02*
X019480Y002400D01*
X020361Y002981D02*
X020469Y003087D01*
X020469Y004071D01*
X020441Y004071D01*
X020060Y004460D02*
X019780Y004460D01*
X020060Y004740D01*
X020060Y004810D01*
X019990Y004880D01*
X019850Y004880D01*
X019780Y004810D01*
X019599Y004810D02*
X019529Y004880D01*
X019389Y004880D01*
X019319Y004810D01*
X019319Y004530D01*
X019389Y004460D01*
X019529Y004460D01*
X019599Y004530D01*
X019060Y004909D02*
X018990Y004839D01*
X018710Y004839D01*
X018640Y004909D01*
X018640Y005049D01*
X018710Y005119D01*
X018990Y005119D02*
X019060Y005049D01*
X019060Y004909D01*
X019060Y005300D02*
X019060Y005580D01*
X019060Y005440D02*
X018640Y005440D01*
X018780Y005300D01*
X014941Y006260D02*
X014661Y006260D01*
X014801Y006260D02*
X014801Y006680D01*
X014661Y006540D01*
X014341Y006680D02*
X014200Y006540D01*
X014020Y006470D02*
X013950Y006400D01*
X013740Y006400D01*
X013880Y006400D02*
X014020Y006260D01*
X014200Y006260D02*
X014481Y006260D01*
X014341Y006260D02*
X014341Y006680D01*
X014020Y006610D02*
X014020Y006470D01*
X014020Y006610D02*
X013950Y006680D01*
X013740Y006680D01*
X013740Y006260D01*
X013800Y007320D02*
X013800Y008320D01*
X014800Y008320D02*
X014800Y007320D01*
X015800Y007320D02*
X015800Y008320D01*
X016800Y008320D02*
X016800Y007320D01*
X017800Y007320D02*
X017800Y008320D01*
X018800Y008320D02*
X018800Y007320D01*
X019800Y007320D02*
X019800Y008320D01*
X012800Y008320D02*
X012800Y007320D01*
X011800Y007320D02*
X011800Y008320D01*
X004394Y006112D02*
X004272Y006020D01*
X004272Y005839D01*
X004394Y005934D02*
X004279Y006010D01*
X004272Y006020D02*
X004272Y006201D01*
X002041Y008960D02*
X001761Y008960D01*
X001901Y008960D02*
X001901Y009380D01*
X001761Y009240D01*
X001581Y009170D02*
X001511Y009100D01*
X001300Y009100D01*
X001300Y008960D02*
X001300Y009380D01*
X001511Y009380D01*
X001581Y009310D01*
X001581Y009170D01*
X001120Y009380D02*
X000980Y009380D01*
X001050Y009380D02*
X001050Y009030D01*
X000980Y008960D01*
X000910Y008960D01*
X000840Y009030D01*
X014190Y003860D02*
X014190Y003720D01*
X014260Y003650D01*
X014540Y003650D01*
X014260Y003930D01*
X014540Y003930D01*
X014610Y003860D01*
X014610Y003720D01*
X014540Y003650D01*
X014260Y003930D02*
X014190Y003860D01*
X015349Y001559D02*
X015349Y001244D01*
X015585Y001244D01*
X016215Y001244D02*
X016451Y001244D01*
X016451Y001559D01*
X016440Y000730D02*
X016300Y000730D01*
X016230Y000660D01*
X016049Y000730D02*
X016049Y000380D01*
X015979Y000310D01*
X015839Y000310D01*
X015769Y000380D01*
X015769Y000730D01*
X016230Y000310D02*
X016510Y000590D01*
X016510Y000660D01*
X016440Y000730D01*
X016510Y000310D02*
X016230Y000310D01*
X000960Y001260D02*
X000540Y001260D01*
X000540Y001470D01*
X000610Y001540D01*
X000750Y001540D01*
X000820Y001470D01*
X000820Y001260D01*
X000820Y001400D02*
X000960Y001540D01*
X000890Y001720D02*
X000960Y001790D01*
X000960Y001931D01*
X000890Y002001D01*
X000820Y002001D01*
X000750Y001931D01*
X000750Y001861D01*
X000750Y001931D02*
X000680Y002001D01*
X000610Y002001D01*
X000540Y001931D01*
X000540Y001790D01*
X000610Y001720D01*
D14*
X018245Y002065D02*
X018670Y002065D01*
X018755Y002150D01*
X018755Y002320D01*
X018670Y002405D01*
X018245Y002405D01*
X018415Y002617D02*
X018245Y002788D01*
X018755Y002788D01*
X018755Y002958D02*
X018755Y002617D01*
D15*
X019800Y001920D03*
X014200Y005920D03*
X006000Y006020D03*
X006000Y005020D03*
X006000Y004020D03*
X006000Y003020D03*
X006000Y002120D03*
X006000Y001120D03*
D16*
X001300Y001720D03*
X013850Y003570D03*
X018300Y003420D03*
D17*
X018288Y005220D02*
X018312Y005220D01*
X019700Y005232D02*
X019700Y005208D01*
D18*
X017540Y003118D03*
D19*
X002536Y000855D02*
X002435Y000956D01*
X002556Y001105D01*
X002525Y001165D01*
X002504Y001229D01*
X002314Y001248D01*
X002314Y001392D01*
X002504Y001411D01*
X002525Y001475D01*
X002556Y001535D01*
X002435Y001684D01*
X002536Y001785D01*
X002685Y001664D01*
X002745Y001695D01*
X002809Y001716D01*
X002828Y001906D01*
X002972Y001906D01*
X002991Y001716D01*
X003055Y001695D01*
X003115Y001664D01*
X003264Y001785D01*
X003365Y001684D01*
X003244Y001535D01*
X003275Y001475D01*
X003296Y001411D01*
X003486Y001392D01*
X003486Y001248D01*
X003296Y001229D01*
X003275Y001165D01*
X003244Y001105D01*
X003365Y000956D01*
X003264Y000855D01*
X003115Y000976D01*
X003055Y000945D01*
X002971Y001149D01*
X003009Y001171D01*
X003041Y001201D01*
X003065Y001238D01*
X003080Y001280D01*
X003084Y001324D01*
X003078Y001368D01*
X003062Y001409D01*
X003036Y001445D01*
X003002Y001473D01*
X002963Y001493D01*
X002920Y001503D01*
X002876Y001503D01*
X002833Y001492D01*
X002794Y001471D01*
X002761Y001442D01*
X002736Y001405D01*
X002721Y001364D01*
X002715Y001320D01*
X002721Y001277D01*
X002736Y001236D01*
X002760Y001200D01*
X002792Y001171D01*
X002829Y001149D01*
X002745Y000945D01*
X002685Y000976D01*
X002536Y000855D01*
X002526Y000865D02*
X002550Y000865D01*
X002620Y000923D02*
X002468Y000923D01*
X002454Y000980D02*
X002759Y000980D01*
X002783Y001038D02*
X002501Y001038D01*
X002548Y001096D02*
X002807Y001096D01*
X002823Y001153D02*
X002531Y001153D01*
X002510Y001211D02*
X002753Y001211D01*
X002724Y001268D02*
X002314Y001268D01*
X002314Y001326D02*
X002716Y001326D01*
X002728Y001383D02*
X002314Y001383D01*
X002514Y001441D02*
X002761Y001441D01*
X002858Y001498D02*
X002537Y001498D01*
X002539Y001556D02*
X003261Y001556D01*
X003263Y001498D02*
X002941Y001498D01*
X003039Y001441D02*
X003286Y001441D01*
X003486Y001383D02*
X003072Y001383D01*
X003084Y001326D02*
X003486Y001326D01*
X003486Y001268D02*
X003076Y001268D01*
X003047Y001211D02*
X003290Y001211D01*
X003269Y001153D02*
X002977Y001153D01*
X002993Y001096D02*
X003252Y001096D01*
X003299Y001038D02*
X003017Y001038D01*
X003041Y000980D02*
X003346Y000980D01*
X003332Y000923D02*
X003180Y000923D01*
X003250Y000865D02*
X003274Y000865D01*
X003308Y001614D02*
X002492Y001614D01*
X002445Y001671D02*
X002677Y001671D01*
X002698Y001671D02*
X003102Y001671D01*
X003123Y001671D02*
X003355Y001671D01*
X003320Y001729D02*
X003194Y001729D01*
X002990Y001729D02*
X002810Y001729D01*
X002816Y001786D02*
X002984Y001786D01*
X002978Y001844D02*
X002822Y001844D01*
X002828Y001901D02*
X002972Y001901D01*
X002606Y001729D02*
X002480Y001729D01*
D20*
X013366Y000995D03*
D21*
X013983Y000995D03*
D22*
X013983Y000995D03*
X013366Y000995D03*
D23*
X013366Y000996D03*
D24*
X013983Y000996D03*
D25*
X013366Y000996D03*
D26*
X013983Y000996D03*
X013983Y001246D03*
D27*
X013983Y000997D03*
X013366Y000997D03*
D28*
X013366Y000998D03*
D29*
X013983Y000998D03*
D30*
X013983Y000998D03*
X013366Y000998D03*
D31*
X013366Y000999D03*
X013983Y000999D03*
D32*
X013983Y000999D03*
X013983Y001244D03*
X013366Y000999D03*
D33*
X013366Y000999D03*
X013983Y000999D03*
D34*
X013366Y001000D03*
D35*
X013983Y001000D03*
D36*
X013366Y001000D03*
D37*
X013983Y001000D03*
D38*
X013366Y001001D03*
D39*
X013983Y001001D03*
D40*
X013983Y001001D03*
X013983Y001241D03*
X013366Y001001D03*
D41*
X013366Y001002D03*
X013983Y001002D03*
D42*
X013983Y001003D03*
X013366Y001003D03*
D43*
X013366Y001003D03*
D44*
X013983Y001003D03*
D45*
X013366Y001004D03*
D46*
X013983Y001004D03*
D47*
X013983Y001004D03*
X013366Y001004D03*
D48*
X013366Y001004D03*
D49*
X013983Y001004D03*
D50*
X013366Y001005D03*
D51*
X013983Y001005D03*
D52*
X013366Y001005D03*
D53*
X013366Y001234D03*
X013983Y001005D03*
D54*
X013366Y001006D03*
X013366Y001234D03*
D55*
X013983Y001006D03*
D56*
X013366Y001006D03*
D57*
X013983Y001006D03*
X013983Y001236D03*
D58*
X013366Y001233D03*
X013366Y001007D03*
D59*
X013983Y001007D03*
D60*
X013983Y001008D03*
X013983Y001235D03*
X013366Y001008D03*
D61*
X013366Y001008D03*
D62*
X013366Y001232D03*
X013983Y001008D03*
D63*
X013983Y001009D03*
X013366Y001009D03*
X013366Y001231D03*
D64*
X013366Y001009D03*
D65*
X013983Y001009D03*
X013983Y001234D03*
D66*
X013983Y001233D03*
X013983Y001009D03*
X013366Y001009D03*
D67*
X013366Y001010D03*
D68*
X013366Y001230D03*
X013983Y001234D03*
X013983Y001010D03*
D69*
X013366Y001010D03*
D70*
X013983Y001010D03*
X013983Y001232D03*
D71*
X013366Y001229D03*
X013366Y001011D03*
D72*
X013983Y001011D03*
X013983Y001233D03*
D73*
X013366Y001228D03*
X013366Y001013D03*
X013366Y001011D03*
D74*
X013366Y001229D03*
X013983Y001231D03*
X013983Y001011D03*
D75*
X013366Y001012D03*
X013366Y001228D03*
D76*
X013983Y001230D03*
X013983Y001012D03*
D77*
X013983Y001013D03*
X013983Y001231D03*
D78*
X013366Y001227D03*
X013366Y001013D03*
D79*
X013983Y001013D03*
D80*
X013983Y001014D03*
X013983Y001014D03*
X013983Y001229D03*
X013983Y001229D03*
X013366Y001226D03*
X013366Y001226D03*
X013366Y001014D03*
X013366Y001014D03*
D81*
X013366Y001014D03*
D82*
X013366Y001225D03*
X013983Y001229D03*
X013983Y001014D03*
D83*
X013366Y001015D03*
X013366Y001225D03*
D84*
X013983Y001015D03*
D85*
X013983Y001015D03*
X013983Y001017D03*
X013983Y001225D03*
X013983Y001227D03*
X013366Y001224D03*
X013366Y001223D03*
X013366Y001017D03*
X013366Y001015D03*
D86*
X013366Y001016D03*
X013366Y001016D03*
X013366Y001223D03*
X013366Y001224D03*
X013366Y001224D03*
X013983Y001226D03*
X013983Y001226D03*
X013983Y001228D03*
X013983Y001018D03*
X013983Y001016D03*
X013983Y001016D03*
D87*
X013366Y001018D03*
X013366Y001019D03*
X013366Y001019D03*
X013366Y001020D03*
X013366Y001021D03*
X013366Y001021D03*
X013366Y001023D03*
X013366Y001024D03*
X013366Y001024D03*
X013366Y001025D03*
X013366Y001026D03*
X013366Y001026D03*
X013366Y001028D03*
X013366Y001029D03*
X013366Y001029D03*
X013366Y001030D03*
X013366Y001031D03*
X013366Y001031D03*
X013366Y001033D03*
X013366Y001034D03*
X013366Y001034D03*
X013366Y001035D03*
X013366Y001036D03*
X013366Y001036D03*
X013366Y001038D03*
X013366Y001039D03*
X013366Y001039D03*
X013366Y001040D03*
X013366Y001041D03*
X013366Y001041D03*
X013366Y001043D03*
X013366Y001044D03*
X013366Y001044D03*
X013366Y001045D03*
X013366Y001046D03*
X013366Y001046D03*
X013366Y001048D03*
X013366Y001049D03*
X013366Y001049D03*
X013366Y001050D03*
X013366Y001051D03*
X013366Y001051D03*
X013366Y001053D03*
X013366Y001054D03*
X013366Y001054D03*
X013366Y001055D03*
X013366Y001056D03*
X013366Y001056D03*
X013366Y001058D03*
X013366Y001059D03*
X013366Y001059D03*
X013366Y001060D03*
X013366Y001061D03*
X013366Y001061D03*
X013366Y001063D03*
X013366Y001064D03*
X013366Y001064D03*
X013366Y001065D03*
X013366Y001066D03*
X013366Y001066D03*
X013366Y001068D03*
X013366Y001069D03*
X013366Y001069D03*
X013366Y001070D03*
X013366Y001071D03*
X013366Y001071D03*
X013366Y001073D03*
X013366Y001074D03*
X013366Y001074D03*
X013366Y001075D03*
X013366Y001076D03*
X013366Y001076D03*
X013366Y001078D03*
X013366Y001079D03*
X013366Y001079D03*
X013366Y001080D03*
X013366Y001081D03*
X013366Y001081D03*
X013366Y001083D03*
X013366Y001084D03*
X013366Y001084D03*
X013366Y001085D03*
X013366Y001086D03*
X013366Y001086D03*
X013366Y001088D03*
X013366Y001089D03*
X013366Y001089D03*
X013366Y001090D03*
X013366Y001091D03*
X013366Y001091D03*
X013366Y001093D03*
X013366Y001094D03*
X013366Y001094D03*
X013366Y001095D03*
X013366Y001096D03*
X013366Y001096D03*
X013366Y001098D03*
X013366Y001099D03*
X013366Y001099D03*
X013366Y001100D03*
X013366Y001101D03*
X013366Y001101D03*
X013366Y001103D03*
X013366Y001104D03*
X013366Y001104D03*
X013366Y001105D03*
X013366Y001106D03*
X013366Y001106D03*
X013366Y001108D03*
X013366Y001109D03*
X013366Y001109D03*
X013366Y001110D03*
X013366Y001111D03*
X013366Y001111D03*
X013366Y001113D03*
X013366Y001114D03*
X013366Y001114D03*
X013366Y001115D03*
X013366Y001116D03*
X013366Y001116D03*
X013366Y001118D03*
X013366Y001119D03*
X013366Y001119D03*
X013366Y001120D03*
X013366Y001121D03*
X013366Y001121D03*
X013366Y001123D03*
X013366Y001124D03*
X013366Y001124D03*
X013366Y001125D03*
X013366Y001126D03*
X013366Y001126D03*
X013366Y001128D03*
X013366Y001129D03*
X013366Y001129D03*
X013366Y001130D03*
X013366Y001131D03*
X013366Y001131D03*
X013366Y001133D03*
X013366Y001134D03*
X013366Y001134D03*
X013366Y001135D03*
X013366Y001136D03*
X013366Y001136D03*
X013366Y001138D03*
X013366Y001139D03*
X013366Y001139D03*
X013366Y001140D03*
X013366Y001141D03*
X013366Y001141D03*
X013366Y001143D03*
X013366Y001144D03*
X013366Y001144D03*
X013366Y001145D03*
X013366Y001146D03*
X013366Y001146D03*
X013366Y001148D03*
X013366Y001149D03*
X013366Y001149D03*
X013366Y001150D03*
X013366Y001151D03*
X013366Y001151D03*
X013366Y001153D03*
X013366Y001154D03*
X013366Y001154D03*
X013366Y001155D03*
X013366Y001156D03*
X013366Y001156D03*
X013366Y001158D03*
X013366Y001159D03*
X013366Y001159D03*
X013366Y001160D03*
X013366Y001161D03*
X013366Y001161D03*
X013366Y001163D03*
X013366Y001164D03*
X013366Y001164D03*
X013366Y001165D03*
X013366Y001166D03*
X013366Y001166D03*
X013366Y001168D03*
X013366Y001169D03*
X013366Y001169D03*
X013366Y001170D03*
X013366Y001171D03*
X013366Y001171D03*
X013366Y001173D03*
X013366Y001174D03*
X013366Y001174D03*
X013366Y001175D03*
X013366Y001176D03*
X013366Y001176D03*
X013366Y001178D03*
X013366Y001179D03*
X013366Y001179D03*
X013366Y001180D03*
X013366Y001181D03*
X013366Y001181D03*
X013366Y001183D03*
X013366Y001184D03*
X013366Y001184D03*
X013366Y001185D03*
X013366Y001186D03*
X013366Y001186D03*
X013366Y001188D03*
X013366Y001189D03*
X013366Y001189D03*
X013366Y001190D03*
X013366Y001191D03*
X013366Y001191D03*
X013366Y001193D03*
X013366Y001194D03*
X013366Y001194D03*
X013366Y001195D03*
X013366Y001196D03*
X013366Y001196D03*
X013366Y001198D03*
X013366Y001199D03*
X013366Y001199D03*
X013366Y001200D03*
X013366Y001201D03*
X013366Y001201D03*
X013366Y001203D03*
X013366Y001204D03*
X013366Y001204D03*
X013366Y001205D03*
X013366Y001206D03*
X013366Y001206D03*
X013366Y001208D03*
X013366Y001209D03*
X013366Y001209D03*
X013366Y001210D03*
X013366Y001211D03*
X013366Y001211D03*
X013366Y001213D03*
X013366Y001214D03*
X013366Y001214D03*
X013366Y001215D03*
X013366Y001216D03*
X013366Y001216D03*
X013366Y001218D03*
X013366Y001219D03*
X013366Y001219D03*
X013366Y001220D03*
X013366Y001221D03*
X013366Y001221D03*
D88*
X013366Y001220D03*
X013366Y001219D03*
X013366Y001218D03*
X013366Y001217D03*
X013366Y001215D03*
X013366Y001214D03*
X013366Y001213D03*
X013366Y001212D03*
X013366Y001210D03*
X013366Y001209D03*
X013366Y001208D03*
X013366Y001207D03*
X013366Y001205D03*
X013366Y001204D03*
X013366Y001203D03*
X013366Y001202D03*
X013366Y001200D03*
X013366Y001199D03*
X013366Y001198D03*
X013366Y001197D03*
X013366Y001195D03*
X013366Y001194D03*
X013366Y001193D03*
X013366Y001192D03*
X013366Y001190D03*
X013366Y001189D03*
X013366Y001188D03*
X013366Y001187D03*
X013366Y001185D03*
X013366Y001184D03*
X013366Y001183D03*
X013366Y001182D03*
X013366Y001180D03*
X013366Y001179D03*
X013366Y001178D03*
X013366Y001177D03*
X013366Y001175D03*
X013366Y001174D03*
X013366Y001173D03*
X013366Y001172D03*
X013366Y001170D03*
X013366Y001169D03*
X013366Y001168D03*
X013366Y001167D03*
X013366Y001165D03*
X013366Y001164D03*
X013366Y001163D03*
X013366Y001162D03*
X013366Y001160D03*
X013366Y001159D03*
X013366Y001158D03*
X013366Y001157D03*
X013366Y001155D03*
X013366Y001154D03*
X013366Y001153D03*
X013366Y001152D03*
X013366Y001150D03*
X013366Y001149D03*
X013366Y001148D03*
X013366Y001147D03*
X013366Y001145D03*
X013366Y001144D03*
X013366Y001143D03*
X013366Y001142D03*
X013366Y001140D03*
X013366Y001139D03*
X013366Y001138D03*
X013366Y001137D03*
X013366Y001135D03*
X013366Y001134D03*
X013366Y001133D03*
X013366Y001132D03*
X013366Y001130D03*
X013366Y001129D03*
X013366Y001128D03*
X013366Y001127D03*
X013366Y001125D03*
X013366Y001124D03*
X013366Y001123D03*
X013366Y001122D03*
X013366Y001120D03*
X013366Y001119D03*
X013366Y001118D03*
X013366Y001117D03*
X013366Y001115D03*
X013366Y001114D03*
X013366Y001113D03*
X013366Y001112D03*
X013366Y001110D03*
X013366Y001109D03*
X013366Y001108D03*
X013366Y001107D03*
X013366Y001105D03*
X013366Y001104D03*
X013366Y001103D03*
X013366Y001102D03*
X013366Y001100D03*
X013366Y001099D03*
X013366Y001098D03*
X013366Y001097D03*
X013366Y001095D03*
X013366Y001094D03*
X013366Y001093D03*
X013366Y001092D03*
X013366Y001090D03*
X013366Y001089D03*
X013366Y001088D03*
X013366Y001087D03*
X013366Y001085D03*
X013366Y001084D03*
X013366Y001083D03*
X013366Y001082D03*
X013366Y001080D03*
X013366Y001079D03*
X013366Y001078D03*
X013366Y001077D03*
X013366Y001075D03*
X013366Y001074D03*
X013366Y001073D03*
X013366Y001072D03*
X013366Y001070D03*
X013366Y001069D03*
X013366Y001068D03*
X013366Y001067D03*
X013366Y001065D03*
X013366Y001064D03*
X013366Y001063D03*
X013366Y001062D03*
X013366Y001060D03*
X013366Y001059D03*
X013366Y001058D03*
X013366Y001057D03*
X013366Y001055D03*
X013366Y001054D03*
X013366Y001053D03*
X013366Y001052D03*
X013366Y001050D03*
X013366Y001049D03*
X013366Y001048D03*
X013366Y001047D03*
X013366Y001045D03*
X013366Y001044D03*
X013366Y001043D03*
X013366Y001042D03*
X013366Y001040D03*
X013366Y001039D03*
X013366Y001038D03*
X013366Y001037D03*
X013366Y001035D03*
X013366Y001034D03*
X013366Y001033D03*
X013366Y001032D03*
X013366Y001030D03*
X013366Y001029D03*
X013366Y001028D03*
X013366Y001027D03*
X013366Y001025D03*
X013366Y001024D03*
X013366Y001023D03*
X013366Y001022D03*
X013366Y001020D03*
X013366Y001019D03*
X013366Y001018D03*
X013366Y001222D03*
D89*
X013983Y001223D03*
X013983Y001222D03*
X013983Y001220D03*
X013983Y001219D03*
X013983Y001218D03*
X013983Y001217D03*
X013983Y001215D03*
X013983Y001214D03*
X013983Y001213D03*
X013983Y001212D03*
X013983Y001210D03*
X013983Y001209D03*
X013983Y001208D03*
X013983Y001207D03*
X013983Y001205D03*
X013983Y001204D03*
X013983Y001203D03*
X013983Y001202D03*
X013983Y001200D03*
X013983Y001199D03*
X013983Y001198D03*
X013983Y001197D03*
X013983Y001195D03*
X013983Y001194D03*
X013983Y001193D03*
X013983Y001192D03*
X013983Y001190D03*
X013983Y001189D03*
X013983Y001188D03*
X013983Y001187D03*
X013983Y001185D03*
X013983Y001184D03*
X013983Y001183D03*
X013983Y001182D03*
X013983Y001180D03*
X013983Y001179D03*
X013983Y001178D03*
X013983Y001177D03*
X013983Y001175D03*
X013983Y001174D03*
X013983Y001173D03*
X013983Y001172D03*
X013983Y001170D03*
X013983Y001169D03*
X013983Y001168D03*
X013983Y001167D03*
X013983Y001165D03*
X013983Y001164D03*
X013983Y001163D03*
X013983Y001162D03*
X013983Y001160D03*
X013983Y001159D03*
X013983Y001158D03*
X013983Y001157D03*
X013983Y001155D03*
X013983Y001154D03*
X013983Y001153D03*
X013983Y001152D03*
X013983Y001150D03*
X013983Y001149D03*
X013983Y001148D03*
X013983Y001147D03*
X013983Y001145D03*
X013983Y001144D03*
X013983Y001143D03*
X013983Y001142D03*
X013983Y001140D03*
X013983Y001139D03*
X013983Y001138D03*
X013983Y001137D03*
X013983Y001135D03*
X013983Y001134D03*
X013983Y001133D03*
X013983Y001132D03*
X013983Y001130D03*
X013983Y001129D03*
X013983Y001128D03*
X013983Y001127D03*
X013983Y001125D03*
X013983Y001124D03*
X013983Y001123D03*
X013983Y001122D03*
X013983Y001120D03*
X013983Y001119D03*
X013983Y001118D03*
X013983Y001117D03*
X013983Y001115D03*
X013983Y001114D03*
X013983Y001113D03*
X013983Y001112D03*
X013983Y001110D03*
X013983Y001109D03*
X013983Y001108D03*
X013983Y001107D03*
X013983Y001105D03*
X013983Y001104D03*
X013983Y001103D03*
X013983Y001102D03*
X013983Y001100D03*
X013983Y001099D03*
X013983Y001098D03*
X013983Y001097D03*
X013983Y001095D03*
X013983Y001094D03*
X013983Y001093D03*
X013983Y001092D03*
X013983Y001090D03*
X013983Y001089D03*
X013983Y001088D03*
X013983Y001087D03*
X013983Y001085D03*
X013983Y001084D03*
X013983Y001083D03*
X013983Y001082D03*
X013983Y001080D03*
X013983Y001079D03*
X013983Y001078D03*
X013983Y001077D03*
X013983Y001075D03*
X013983Y001074D03*
X013983Y001073D03*
X013983Y001072D03*
X013983Y001070D03*
X013983Y001069D03*
X013983Y001068D03*
X013983Y001067D03*
X013983Y001065D03*
X013983Y001064D03*
X013983Y001063D03*
X013983Y001062D03*
X013983Y001060D03*
X013983Y001059D03*
X013983Y001058D03*
X013983Y001057D03*
X013983Y001055D03*
X013983Y001054D03*
X013983Y001053D03*
X013983Y001052D03*
X013983Y001050D03*
X013983Y001049D03*
X013983Y001048D03*
X013983Y001047D03*
X013983Y001045D03*
X013983Y001044D03*
X013983Y001043D03*
X013983Y001042D03*
X013983Y001040D03*
X013983Y001039D03*
X013983Y001038D03*
X013983Y001037D03*
X013983Y001035D03*
X013983Y001034D03*
X013983Y001033D03*
X013983Y001032D03*
X013983Y001030D03*
X013983Y001029D03*
X013983Y001028D03*
X013983Y001027D03*
X013983Y001025D03*
X013983Y001024D03*
X013983Y001023D03*
X013983Y001022D03*
X013983Y001020D03*
X013983Y001019D03*
X013983Y001018D03*
X013983Y001224D03*
D90*
X013983Y001224D03*
X013983Y001224D03*
X013983Y001225D03*
X013983Y001223D03*
X013983Y001221D03*
X013983Y001221D03*
X013983Y001220D03*
X013983Y001219D03*
X013983Y001219D03*
X013983Y001218D03*
X013983Y001216D03*
X013983Y001216D03*
X013983Y001215D03*
X013983Y001214D03*
X013983Y001214D03*
X013983Y001213D03*
X013983Y001211D03*
X013983Y001211D03*
X013983Y001210D03*
X013983Y001209D03*
X013983Y001209D03*
X013983Y001208D03*
X013983Y001206D03*
X013983Y001206D03*
X013983Y001205D03*
X013983Y001204D03*
X013983Y001204D03*
X013983Y001203D03*
X013983Y001201D03*
X013983Y001201D03*
X013983Y001200D03*
X013983Y001199D03*
X013983Y001199D03*
X013983Y001198D03*
X013983Y001196D03*
X013983Y001196D03*
X013983Y001195D03*
X013983Y001194D03*
X013983Y001194D03*
X013983Y001193D03*
X013983Y001191D03*
X013983Y001191D03*
X013983Y001190D03*
X013983Y001189D03*
X013983Y001189D03*
X013983Y001188D03*
X013983Y001186D03*
X013983Y001186D03*
X013983Y001185D03*
X013983Y001184D03*
X013983Y001184D03*
X013983Y001183D03*
X013983Y001181D03*
X013983Y001181D03*
X013983Y001180D03*
X013983Y001179D03*
X013983Y001179D03*
X013983Y001178D03*
X013983Y001176D03*
X013983Y001176D03*
X013983Y001175D03*
X013983Y001174D03*
X013983Y001174D03*
X013983Y001173D03*
X013983Y001171D03*
X013983Y001171D03*
X013983Y001170D03*
X013983Y001169D03*
X013983Y001169D03*
X013983Y001168D03*
X013983Y001166D03*
X013983Y001166D03*
X013983Y001165D03*
X013983Y001164D03*
X013983Y001164D03*
X013983Y001163D03*
X013983Y001161D03*
X013983Y001161D03*
X013983Y001160D03*
X013983Y001159D03*
X013983Y001159D03*
X013983Y001158D03*
X013983Y001156D03*
X013983Y001156D03*
X013983Y001155D03*
X013983Y001154D03*
X013983Y001154D03*
X013983Y001153D03*
X013983Y001151D03*
X013983Y001151D03*
X013983Y001150D03*
X013983Y001149D03*
X013983Y001149D03*
X013983Y001148D03*
X013983Y001146D03*
X013983Y001146D03*
X013983Y001145D03*
X013983Y001144D03*
X013983Y001144D03*
X013983Y001143D03*
X013983Y001141D03*
X013983Y001141D03*
X013983Y001140D03*
X013983Y001139D03*
X013983Y001139D03*
X013983Y001138D03*
X013983Y001136D03*
X013983Y001136D03*
X013983Y001135D03*
X013983Y001134D03*
X013983Y001134D03*
X013983Y001133D03*
X013983Y001131D03*
X013983Y001131D03*
X013983Y001130D03*
X013983Y001129D03*
X013983Y001129D03*
X013983Y001128D03*
X013983Y001126D03*
X013983Y001126D03*
X013983Y001125D03*
X013983Y001124D03*
X013983Y001124D03*
X013983Y001123D03*
X013983Y001121D03*
X013983Y001121D03*
X013983Y001120D03*
X013983Y001119D03*
X013983Y001119D03*
X013983Y001118D03*
X013983Y001116D03*
X013983Y001116D03*
X013983Y001115D03*
X013983Y001114D03*
X013983Y001114D03*
X013983Y001113D03*
X013983Y001111D03*
X013983Y001111D03*
X013983Y001110D03*
X013983Y001109D03*
X013983Y001109D03*
X013983Y001108D03*
X013983Y001106D03*
X013983Y001106D03*
X013983Y001105D03*
X013983Y001104D03*
X013983Y001104D03*
X013983Y001103D03*
X013983Y001101D03*
X013983Y001101D03*
X013983Y001100D03*
X013983Y001099D03*
X013983Y001099D03*
X013983Y001098D03*
X013983Y001096D03*
X013983Y001096D03*
X013983Y001095D03*
X013983Y001094D03*
X013983Y001094D03*
X013983Y001093D03*
X013983Y001091D03*
X013983Y001091D03*
X013983Y001090D03*
X013983Y001089D03*
X013983Y001089D03*
X013983Y001088D03*
X013983Y001086D03*
X013983Y001086D03*
X013983Y001085D03*
X013983Y001084D03*
X013983Y001084D03*
X013983Y001083D03*
X013983Y001081D03*
X013983Y001081D03*
X013983Y001080D03*
X013983Y001079D03*
X013983Y001079D03*
X013983Y001078D03*
X013983Y001076D03*
X013983Y001076D03*
X013983Y001075D03*
X013983Y001074D03*
X013983Y001074D03*
X013983Y001073D03*
X013983Y001071D03*
X013983Y001071D03*
X013983Y001070D03*
X013983Y001069D03*
X013983Y001069D03*
X013983Y001068D03*
X013983Y001066D03*
X013983Y001066D03*
X013983Y001065D03*
X013983Y001064D03*
X013983Y001064D03*
X013983Y001063D03*
X013983Y001061D03*
X013983Y001061D03*
X013983Y001060D03*
X013983Y001059D03*
X013983Y001059D03*
X013983Y001058D03*
X013983Y001056D03*
X013983Y001056D03*
X013983Y001055D03*
X013983Y001054D03*
X013983Y001054D03*
X013983Y001053D03*
X013983Y001051D03*
X013983Y001051D03*
X013983Y001050D03*
X013983Y001049D03*
X013983Y001049D03*
X013983Y001048D03*
X013983Y001046D03*
X013983Y001046D03*
X013983Y001045D03*
X013983Y001044D03*
X013983Y001044D03*
X013983Y001043D03*
X013983Y001041D03*
X013983Y001041D03*
X013983Y001040D03*
X013983Y001039D03*
X013983Y001039D03*
X013983Y001038D03*
X013983Y001036D03*
X013983Y001036D03*
X013983Y001035D03*
X013983Y001034D03*
X013983Y001034D03*
X013983Y001033D03*
X013983Y001031D03*
X013983Y001031D03*
X013983Y001030D03*
X013983Y001029D03*
X013983Y001029D03*
X013983Y001028D03*
X013983Y001026D03*
X013983Y001026D03*
X013983Y001025D03*
X013983Y001024D03*
X013983Y001024D03*
X013983Y001023D03*
X013983Y001021D03*
X013983Y001021D03*
X013983Y001020D03*
X013983Y001019D03*
X013983Y001019D03*
D91*
X013983Y001228D03*
D92*
X013366Y001229D03*
D93*
X013983Y001230D03*
D94*
X013366Y001230D03*
D95*
X013366Y001231D03*
D96*
X013366Y001233D03*
D97*
X013366Y001234D03*
D98*
X013983Y001234D03*
D99*
X013366Y001235D03*
D100*
X013366Y001235D03*
D101*
X013983Y001235D03*
D102*
X013366Y001236D03*
D103*
X013983Y001236D03*
D104*
X013366Y001236D03*
D105*
X013366Y001237D03*
D106*
X013983Y001237D03*
D107*
X013366Y001238D03*
D108*
X013983Y001238D03*
D109*
X013366Y001238D03*
D110*
X013983Y001238D03*
D111*
X013366Y001239D03*
D112*
X013983Y001239D03*
D113*
X013366Y001239D03*
D114*
X013983Y001239D03*
D115*
X013366Y001239D03*
D116*
X013983Y001239D03*
D117*
X013366Y001240D03*
D118*
X013983Y001240D03*
D119*
X013366Y001240D03*
D120*
X013983Y001240D03*
D121*
X013366Y001241D03*
D122*
X013983Y001241D03*
D123*
X013366Y001241D03*
D124*
X013366Y001242D03*
D125*
X013983Y001242D03*
D126*
X013366Y001243D03*
D127*
X013983Y001243D03*
D128*
X013366Y001243D03*
D129*
X013983Y001243D03*
D130*
X013366Y001244D03*
D131*
X013983Y001244D03*
D132*
X013366Y001244D03*
D133*
X013366Y001244D03*
D134*
X013983Y001244D03*
D135*
X013368Y001245D03*
D136*
X013983Y001245D03*
D137*
X013368Y001245D03*
X013368Y001247D03*
D138*
X013983Y001245D03*
D139*
X013368Y001246D03*
X013368Y001246D03*
D140*
X013983Y001246D03*
D141*
X013983Y001247D03*
D142*
X013367Y001248D03*
X013367Y001249D03*
D143*
X013983Y001248D03*
D144*
X013367Y001248D03*
D145*
X013983Y001248D03*
D146*
X013987Y001249D03*
X013987Y001249D03*
X013987Y001250D03*
D147*
X013367Y001250D03*
X013367Y001249D03*
D148*
X013367Y001249D03*
X013367Y001250D03*
D149*
X013987Y001249D03*
D150*
X013987Y001250D03*
X013987Y001252D03*
X013358Y001309D03*
D151*
X013367Y001251D03*
X013367Y001251D03*
D152*
X013358Y001309D03*
X013358Y001309D03*
X013358Y001310D03*
X013987Y001251D03*
X013987Y001251D03*
D153*
X013367Y001252D03*
D154*
X013366Y001253D03*
X013366Y001254D03*
D155*
X013988Y001254D03*
X013988Y001254D03*
X013988Y001253D03*
D156*
X013366Y001253D03*
D157*
X013988Y001253D03*
D158*
X013366Y001254D03*
X013366Y001255D03*
D159*
X013366Y001255D03*
X013366Y001254D03*
D160*
X013358Y001312D03*
X013358Y001313D03*
X013988Y001255D03*
X013988Y001254D03*
D161*
X013988Y001255D03*
X013988Y001256D03*
X013358Y001313D03*
D162*
X013366Y001256D03*
X013366Y001256D03*
D163*
X013358Y001314D03*
X013358Y001314D03*
X013358Y001315D03*
X013988Y001259D03*
X013988Y001258D03*
X013988Y001256D03*
D164*
X013366Y001257D03*
D165*
X013358Y001314D03*
X013988Y001258D03*
X013988Y001257D03*
D166*
X013366Y001258D03*
X013366Y001259D03*
X013366Y001259D03*
D167*
X013366Y001258D03*
D168*
X013988Y001259D03*
X013988Y001260D03*
D169*
X013365Y001259D03*
X013365Y001260D03*
D170*
X013988Y001259D03*
X013988Y001260D03*
D171*
X013365Y001260D03*
D172*
X013365Y001261D03*
X013365Y001261D03*
D173*
X013357Y001318D03*
X013357Y001319D03*
X013988Y001263D03*
X013988Y001261D03*
X013988Y001261D03*
D174*
X013365Y001262D03*
D175*
X013357Y001317D03*
X013357Y001318D03*
X013988Y001262D03*
D176*
X013365Y001263D03*
X013365Y001264D03*
X013365Y001264D03*
D177*
X013365Y001263D03*
D178*
X013989Y001263D03*
X013989Y001264D03*
D179*
X013989Y001264D03*
X013989Y001264D03*
D180*
X013365Y001264D03*
X013365Y001265D03*
D181*
X013365Y001265D03*
D182*
X013356Y001321D03*
X013356Y001321D03*
X013989Y001266D03*
X013989Y001266D03*
X013989Y001265D03*
D183*
X013989Y001265D03*
X013356Y001320D03*
D184*
X013364Y001268D03*
X013364Y001266D03*
X013364Y001266D03*
D185*
X013364Y001267D03*
D186*
X013356Y001322D03*
X013356Y001323D03*
X013989Y001268D03*
X013989Y001267D03*
D187*
X013989Y001268D03*
X013989Y001269D03*
X013356Y001323D03*
X013356Y001324D03*
D188*
X013364Y001268D03*
D189*
X013364Y001269D03*
X013364Y001269D03*
D190*
X013989Y001270D03*
X013989Y001271D03*
X013989Y001269D03*
D191*
X013364Y001269D03*
X013364Y001270D03*
D192*
X013989Y001270D03*
X013989Y001269D03*
D193*
X013364Y001270D03*
D194*
X013364Y001271D03*
X013364Y001271D03*
X013364Y001273D03*
D195*
X013356Y001326D03*
X013356Y001326D03*
X013990Y001273D03*
X013990Y001271D03*
D196*
X013364Y001272D03*
D197*
X013356Y001325D03*
X013356Y001327D03*
X013990Y001273D03*
X013990Y001272D03*
D198*
X013364Y001273D03*
D199*
X013364Y001274D03*
X013364Y001274D03*
D200*
X013990Y001275D03*
X013990Y001274D03*
X013990Y001274D03*
D201*
X013363Y001274D03*
X013363Y001275D03*
D202*
X013990Y001274D03*
D203*
X013363Y001275D03*
X013363Y001276D03*
D204*
X013355Y001329D03*
X013990Y001277D03*
X013990Y001275D03*
D205*
X013990Y001276D03*
X013990Y001276D03*
X013355Y001329D03*
X013355Y001330D03*
D206*
X013363Y001278D03*
X013363Y001276D03*
D207*
X013363Y001277D03*
D208*
X013355Y001331D03*
X013355Y001331D03*
X013990Y001279D03*
X013990Y001279D03*
X013990Y001278D03*
D209*
X013363Y001278D03*
D210*
X013355Y001330D03*
X013355Y001332D03*
X013990Y001278D03*
D211*
X013363Y001279D03*
X013363Y001279D03*
D212*
X013363Y001279D03*
X013363Y001280D03*
D213*
X013991Y001280D03*
X013991Y001279D03*
D214*
X013363Y001280D03*
X013363Y001281D03*
D215*
X013991Y001281D03*
X013991Y001280D03*
D216*
X013362Y001281D03*
X013362Y001283D03*
D217*
X013354Y001334D03*
X013354Y001335D03*
X013991Y001284D03*
X013991Y001283D03*
X013991Y001281D03*
D218*
X013362Y001282D03*
D219*
X013354Y001334D03*
X013354Y001335D03*
X013991Y001283D03*
X013991Y001282D03*
D220*
X013362Y001283D03*
X013362Y001284D03*
D221*
X013362Y001284D03*
X013362Y001284D03*
D222*
X013991Y001285D03*
X013991Y001284D03*
D223*
X013991Y001284D03*
X013991Y001285D03*
D224*
X013362Y001286D03*
X013362Y001285D03*
D225*
X013362Y001285D03*
D226*
X013354Y001338D03*
X013354Y001339D03*
X013991Y001288D03*
X013991Y001286D03*
X013991Y001286D03*
D227*
X013361Y001286D03*
X013361Y001288D03*
D228*
X013361Y001287D03*
D229*
X013354Y001338D03*
X013991Y001287D03*
D230*
X013361Y001288D03*
X013361Y001289D03*
D231*
X013354Y001339D03*
X013354Y001340D03*
X013992Y001289D03*
X013992Y001288D03*
D232*
X013361Y001289D03*
X013361Y001289D03*
D233*
X013354Y001339D03*
X013354Y001340D03*
X013992Y001289D03*
X013992Y001289D03*
D234*
X013361Y001290D03*
X013361Y001291D03*
D235*
X013992Y001291D03*
X013992Y001291D03*
X013992Y001290D03*
D236*
X013361Y001290D03*
D237*
X013992Y001290D03*
D238*
X013361Y001291D03*
X013361Y001293D03*
D239*
X013361Y001293D03*
X013361Y001292D03*
D240*
X013353Y001343D03*
X013992Y001293D03*
X013992Y001292D03*
D241*
X013992Y001293D03*
X013992Y001294D03*
X013353Y001343D03*
X013353Y001344D03*
X013353Y001344D03*
D242*
X013360Y001294D03*
X013360Y001294D03*
D243*
X013993Y001295D03*
X013993Y001296D03*
X013993Y001294D03*
D244*
X013360Y001294D03*
D245*
X013993Y001294D03*
X013993Y001295D03*
D246*
X013360Y001296D03*
X013360Y001295D03*
D247*
X013360Y001295D03*
D248*
X013360Y001296D03*
X013360Y001298D03*
D249*
X013353Y001346D03*
X013353Y001346D03*
X013993Y001298D03*
X013993Y001296D03*
D250*
X013360Y001297D03*
X013360Y001298D03*
D251*
X013353Y001347D03*
X013993Y001298D03*
X013993Y001297D03*
D252*
X013360Y001299D03*
X013360Y001299D03*
D253*
X013353Y001348D03*
X013353Y001349D03*
X013353Y001349D03*
X013993Y001300D03*
X013993Y001299D03*
X013993Y001299D03*
D254*
X013360Y001299D03*
D255*
X013353Y001348D03*
X013993Y001299D03*
D256*
X013359Y001300D03*
X013359Y001301D03*
X013359Y001301D03*
D257*
X013359Y001300D03*
D258*
X013993Y001300D03*
X013993Y001302D03*
D259*
X013993Y001301D03*
X013993Y001301D03*
D260*
X013359Y001302D03*
X013359Y001303D03*
D261*
X013359Y001303D03*
D262*
X013352Y001351D03*
X013352Y001351D03*
X013352Y001353D03*
X013993Y001304D03*
X013993Y001304D03*
X013993Y001303D03*
D263*
X013993Y001303D03*
X013352Y001352D03*
D264*
X013359Y001304D03*
X013359Y001304D03*
D265*
X013359Y001304D03*
D266*
X013994Y001304D03*
X013994Y001305D03*
D267*
X013359Y001306D03*
X013359Y001306D03*
X013359Y001305D03*
D268*
X013994Y001306D03*
X013994Y001305D03*
D269*
X013359Y001305D03*
D270*
X013351Y001355D03*
X013351Y001356D03*
X013994Y001309D03*
X013994Y001308D03*
X013994Y001306D03*
D271*
X013359Y001307D03*
X013359Y001308D03*
D272*
X013351Y001354D03*
X013351Y001355D03*
X013994Y001308D03*
X013994Y001307D03*
D273*
X013359Y001308D03*
D274*
X013351Y001356D03*
X013351Y001358D03*
X013994Y001310D03*
X013994Y001309D03*
D275*
X013994Y001309D03*
X013994Y001310D03*
X013351Y001357D03*
D276*
X013358Y001310D03*
D277*
X013358Y001311D03*
X013358Y001311D03*
D278*
X013994Y001311D03*
X013994Y001311D03*
X013994Y001313D03*
D279*
X013994Y001312D03*
D280*
X013995Y001313D03*
X013995Y001314D03*
X013351Y001359D03*
X013351Y001360D03*
D281*
X013351Y001360D03*
X013351Y001361D03*
X013995Y001314D03*
X013995Y001314D03*
D282*
X013995Y001315D03*
X013995Y001316D03*
X013995Y001316D03*
D283*
X013357Y001315D03*
D284*
X013995Y001315D03*
D285*
X013357Y001316D03*
X013357Y001316D03*
D286*
X013350Y001363D03*
X013350Y001364D03*
X013995Y001318D03*
X013995Y001317D03*
D287*
X013995Y001318D03*
X013995Y001319D03*
X013350Y001364D03*
X013350Y001364D03*
D288*
X013357Y001320D03*
X013357Y001319D03*
D289*
X013350Y001365D03*
X013350Y001366D03*
X013995Y001321D03*
X013995Y001320D03*
X013995Y001319D03*
D290*
X013357Y001319D03*
D291*
X013350Y001365D03*
X013995Y001320D03*
X013995Y001319D03*
D292*
X013996Y001321D03*
X013996Y001323D03*
D293*
X013996Y001323D03*
X013996Y001322D03*
D294*
X013996Y001324D03*
X013996Y001324D03*
X013996Y001325D03*
X013349Y001369D03*
X013349Y001369D03*
D295*
X013356Y001325D03*
X013356Y001324D03*
D296*
X013356Y001324D03*
D297*
X013349Y001368D03*
X013349Y001369D03*
X013996Y001324D03*
D298*
X013996Y001325D03*
X013996Y001327D03*
D299*
X013996Y001326D03*
X013996Y001326D03*
D300*
X013355Y001328D03*
X013355Y001329D03*
D301*
X013349Y001371D03*
X013349Y001373D03*
X013996Y001329D03*
X013996Y001329D03*
X013996Y001328D03*
D302*
X013355Y001328D03*
D303*
X013349Y001372D03*
X013349Y001373D03*
X013996Y001328D03*
D304*
X013997Y001329D03*
X013997Y001330D03*
X013349Y001374D03*
D305*
X013349Y001374D03*
X013349Y001374D03*
X013997Y001331D03*
X013997Y001330D03*
D306*
X013997Y001331D03*
X013997Y001333D03*
X013997Y001334D03*
D307*
X013997Y001333D03*
X013997Y001332D03*
D308*
X013355Y001333D03*
X013355Y001334D03*
D309*
X013355Y001333D03*
D310*
X013348Y001376D03*
X013348Y001378D03*
X013997Y001335D03*
X013997Y001334D03*
D311*
X013997Y001334D03*
X013997Y001335D03*
X013348Y001377D03*
X013348Y001378D03*
D312*
X013354Y001336D03*
X013354Y001336D03*
D313*
X013998Y001336D03*
X013998Y001336D03*
X013998Y001338D03*
D314*
X013354Y001337D03*
D315*
X013998Y001337D03*
D316*
X013998Y001338D03*
X013998Y001339D03*
X013348Y001380D03*
D317*
X013348Y001380D03*
X013348Y001381D03*
X013348Y001381D03*
X013998Y001339D03*
X013998Y001339D03*
D318*
X013998Y001340D03*
X013998Y001341D03*
X013998Y001341D03*
X013348Y001383D03*
D319*
X013348Y001383D03*
X013348Y001382D03*
X013998Y001340D03*
D320*
X013354Y001341D03*
X013354Y001341D03*
D321*
X013354Y001342D03*
D322*
X013998Y001343D03*
X013998Y001342D03*
D323*
X013998Y001343D03*
X013998Y001344D03*
D324*
X013998Y001344D03*
X013998Y001345D03*
X013998Y001346D03*
X013347Y001385D03*
X013347Y001386D03*
X013347Y001386D03*
D325*
X013353Y001345D03*
X013353Y001344D03*
D326*
X013347Y001385D03*
X013998Y001345D03*
X013998Y001344D03*
D327*
X013353Y001345D03*
D328*
X013999Y001346D03*
X013999Y001348D03*
D329*
X013999Y001348D03*
X013999Y001347D03*
D330*
X013999Y001349D03*
X013999Y001349D03*
X013999Y001350D03*
X013346Y001389D03*
X013346Y001389D03*
X013346Y001390D03*
D331*
X013352Y001350D03*
X013352Y001349D03*
D332*
X013346Y001389D03*
X013999Y001349D03*
D333*
X013352Y001350D03*
D334*
X013346Y001390D03*
X013999Y001352D03*
X013999Y001350D03*
D335*
X013999Y001351D03*
X013999Y001351D03*
X013346Y001391D03*
X013346Y001391D03*
D336*
X013999Y001354D03*
X013999Y001354D03*
X013999Y001353D03*
D337*
X013352Y001353D03*
D338*
X013999Y001353D03*
D339*
X013352Y001354D03*
X013352Y001354D03*
D340*
X013346Y001394D03*
X014000Y001355D03*
X014000Y001354D03*
D341*
X014000Y001355D03*
X014000Y001356D03*
X013346Y001394D03*
X013346Y001394D03*
X013346Y001395D03*
D342*
X014000Y001359D03*
X014000Y001358D03*
X014000Y001356D03*
D343*
X014000Y001357D03*
X014000Y001358D03*
D344*
X013351Y001358D03*
D345*
X013351Y001359D03*
X013351Y001359D03*
D346*
X013345Y001398D03*
X013345Y001399D03*
X014000Y001360D03*
X014000Y001359D03*
D347*
X014000Y001359D03*
X014000Y001360D03*
X013345Y001397D03*
X013345Y001398D03*
D348*
X013345Y001399D03*
X013345Y001400D03*
X014000Y001363D03*
X014000Y001361D03*
X014000Y001361D03*
D349*
X013350Y001361D03*
X013350Y001363D03*
D350*
X013350Y001362D03*
D351*
X013345Y001399D03*
X014000Y001362D03*
D352*
X014001Y001363D03*
X014001Y001364D03*
D353*
X014001Y001364D03*
X014001Y001364D03*
D354*
X014001Y001365D03*
X014001Y001366D03*
X014001Y001366D03*
X013344Y001403D03*
X013344Y001404D03*
D355*
X013344Y001403D03*
X013344Y001402D03*
X014001Y001365D03*
D356*
X013350Y001366D03*
X013350Y001368D03*
D357*
X013350Y001367D03*
D358*
X014001Y001368D03*
X014001Y001367D03*
D359*
X014001Y001368D03*
X014001Y001369D03*
D360*
X014001Y001369D03*
X014001Y001370D03*
X014001Y001371D03*
X013344Y001406D03*
X013344Y001406D03*
D361*
X013344Y001405D03*
X013344Y001407D03*
X014001Y001370D03*
X014001Y001369D03*
D362*
X013349Y001370D03*
X013349Y001371D03*
D363*
X013349Y001370D03*
D364*
X013344Y001408D03*
X013344Y001409D03*
X014002Y001373D03*
X014002Y001371D03*
D365*
X014002Y001372D03*
X014002Y001373D03*
X013344Y001408D03*
D366*
X014002Y001375D03*
X014002Y001374D03*
X014002Y001374D03*
D367*
X014002Y001374D03*
D368*
X013349Y001375D03*
X013349Y001376D03*
D369*
X013349Y001375D03*
D370*
X013343Y001410D03*
X013343Y001412D03*
X014002Y001377D03*
X014002Y001375D03*
D371*
X014002Y001376D03*
X014002Y001376D03*
X013343Y001411D03*
X013343Y001411D03*
D372*
X014003Y001379D03*
X014003Y001379D03*
X014003Y001378D03*
D373*
X014003Y001378D03*
D374*
X013348Y001379D03*
X013348Y001379D03*
D375*
X013348Y001379D03*
D376*
X013343Y001414D03*
X013343Y001415D03*
X014003Y001380D03*
X014003Y001379D03*
D377*
X014003Y001380D03*
X014003Y001381D03*
X013343Y001414D03*
X013343Y001415D03*
D378*
X013343Y001416D03*
X013343Y001416D03*
X014003Y001384D03*
X014003Y001383D03*
X014003Y001381D03*
D379*
X014003Y001382D03*
X014003Y001383D03*
X013343Y001417D03*
D380*
X013347Y001384D03*
X013347Y001384D03*
D381*
X014003Y001385D03*
X014003Y001384D03*
D382*
X013347Y001384D03*
D383*
X014003Y001384D03*
X014003Y001385D03*
D384*
X014003Y001386D03*
X014003Y001386D03*
X014003Y001388D03*
X013342Y001419D03*
X013342Y001420D03*
D385*
X013347Y001388D03*
X013347Y001387D03*
D386*
X013342Y001419D03*
X013342Y001420D03*
X014003Y001387D03*
D387*
X013347Y001388D03*
D388*
X014004Y001388D03*
X014004Y001389D03*
D389*
X014004Y001389D03*
X014004Y001389D03*
D390*
X014004Y001390D03*
X014004Y001391D03*
X014004Y001391D03*
X013341Y001423D03*
X013341Y001424D03*
X013341Y001424D03*
D391*
X013341Y001423D03*
X014004Y001390D03*
D392*
X013346Y001392D03*
X013346Y001393D03*
D393*
X013341Y001424D03*
X013341Y001425D03*
X014004Y001393D03*
X014004Y001392D03*
D394*
X013346Y001393D03*
D395*
X013341Y001425D03*
X014004Y001394D03*
X014004Y001393D03*
D396*
X014004Y001394D03*
X014004Y001395D03*
X014004Y001396D03*
D397*
X014004Y001395D03*
X014004Y001394D03*
D398*
X013345Y001395D03*
D399*
X013345Y001396D03*
X013345Y001396D03*
D400*
X013341Y001428D03*
X013341Y001429D03*
X013341Y001429D03*
X014005Y001398D03*
X014005Y001396D03*
D401*
X014005Y001397D03*
X014005Y001398D03*
X013341Y001428D03*
D402*
X014005Y001400D03*
X014005Y001399D03*
X014005Y001399D03*
D403*
X014005Y001399D03*
D404*
X013345Y001400D03*
D405*
X013340Y001432D03*
X014005Y001402D03*
X014005Y001400D03*
D406*
X013345Y001401D03*
X013345Y001401D03*
D407*
X013340Y001431D03*
X013340Y001431D03*
X013340Y001433D03*
X014005Y001401D03*
X014005Y001401D03*
D408*
X014005Y001403D03*
X014005Y001404D03*
X014005Y001404D03*
X013340Y001434D03*
X013340Y001434D03*
D409*
X013340Y001433D03*
X014005Y001403D03*
D410*
X013344Y001404D03*
X013344Y001405D03*
D411*
X013344Y001404D03*
D412*
X014006Y001404D03*
X014006Y001405D03*
D413*
X014006Y001405D03*
X014006Y001406D03*
D414*
X014006Y001406D03*
X014006Y001408D03*
X014006Y001409D03*
X013339Y001436D03*
X013339Y001436D03*
X013339Y001438D03*
D415*
X013339Y001437D03*
X014006Y001408D03*
X014006Y001407D03*
D416*
X013344Y001409D03*
X013344Y001410D03*
D417*
X014006Y001410D03*
X014006Y001409D03*
D418*
X013344Y001409D03*
D419*
X014006Y001409D03*
X014006Y001410D03*
D420*
X014006Y001411D03*
X014006Y001411D03*
X014006Y001413D03*
X013339Y001440D03*
X013339Y001441D03*
D421*
X013339Y001440D03*
X013339Y001439D03*
X014006Y001412D03*
D422*
X013343Y001413D03*
X013343Y001414D03*
D423*
X013343Y001413D03*
D424*
X013339Y001442D03*
X014007Y001414D03*
X014007Y001413D03*
D425*
X014007Y001414D03*
X014007Y001414D03*
X013339Y001441D03*
X013339Y001443D03*
D426*
X014007Y001416D03*
X014007Y001416D03*
X014007Y001415D03*
D427*
X014007Y001415D03*
D428*
X014007Y001417D03*
X014007Y001418D03*
X013338Y001444D03*
X013338Y001445D03*
D429*
X013342Y001419D03*
X013342Y001418D03*
D430*
X013338Y001445D03*
X013338Y001446D03*
X014007Y001419D03*
X014007Y001418D03*
D431*
X013342Y001418D03*
D432*
X014008Y001419D03*
X014008Y001420D03*
X014008Y001421D03*
D433*
X014008Y001420D03*
X014008Y001419D03*
D434*
X013342Y001421D03*
X013342Y001421D03*
D435*
X013338Y001449D03*
X013338Y001449D03*
X014008Y001423D03*
X014008Y001421D03*
D436*
X013342Y001422D03*
D437*
X013338Y001448D03*
X013338Y001449D03*
X014008Y001423D03*
X014008Y001422D03*
D438*
X014008Y001424D03*
X014008Y001424D03*
X014008Y001425D03*
X013338Y001450D03*
X013338Y001451D03*
D439*
X013338Y001450D03*
X014008Y001424D03*
D440*
X014008Y001425D03*
X014008Y001427D03*
D441*
X013341Y001426D03*
X013341Y001426D03*
D442*
X014008Y001426D03*
X014008Y001426D03*
D443*
X013341Y001427D03*
D444*
X013337Y001454D03*
X013337Y001454D03*
X014008Y001429D03*
X014008Y001429D03*
X014008Y001428D03*
D445*
X014008Y001428D03*
X013337Y001453D03*
X013337Y001454D03*
D446*
X013340Y001430D03*
X013340Y001429D03*
D447*
X014009Y001429D03*
X014009Y001430D03*
D448*
X013340Y001430D03*
D449*
X014009Y001431D03*
X014009Y001430D03*
D450*
X014009Y001431D03*
X014009Y001433D03*
X014009Y001434D03*
X013336Y001456D03*
X013336Y001458D03*
D451*
X013336Y001458D03*
X013336Y001457D03*
X014009Y001433D03*
X014009Y001432D03*
D452*
X014009Y001434D03*
X014009Y001435D03*
X013336Y001459D03*
X013336Y001459D03*
D453*
X013340Y001435D03*
X013340Y001434D03*
D454*
X013336Y001459D03*
X014009Y001435D03*
X014009Y001434D03*
D455*
X013340Y001435D03*
D456*
X014009Y001436D03*
X014009Y001436D03*
X014009Y001438D03*
D457*
X014009Y001437D03*
D458*
X013339Y001438D03*
D459*
X013336Y001462D03*
X013336Y001463D03*
X014010Y001439D03*
X014010Y001438D03*
D460*
X013339Y001439D03*
X013339Y001439D03*
D461*
X013336Y001461D03*
X013336Y001463D03*
X014010Y001439D03*
X014010Y001439D03*
D462*
X014010Y001440D03*
X014010Y001441D03*
X014010Y001441D03*
D463*
X014010Y001440D03*
D464*
X014010Y001442D03*
X014010Y001443D03*
X013335Y001465D03*
D465*
X013335Y001465D03*
X013335Y001466D03*
X013335Y001466D03*
X014010Y001444D03*
X014010Y001443D03*
D466*
X013339Y001443D03*
D467*
X013339Y001444D03*
X013339Y001444D03*
D468*
X013335Y001468D03*
X014010Y001446D03*
X014010Y001445D03*
X014010Y001444D03*
D469*
X014010Y001444D03*
X014010Y001445D03*
X013335Y001467D03*
X013335Y001468D03*
D470*
X013338Y001448D03*
X013338Y001446D03*
D471*
X014011Y001446D03*
X014011Y001448D03*
D472*
X013338Y001447D03*
D473*
X014011Y001448D03*
X014011Y001447D03*
D474*
X014011Y001449D03*
X014011Y001449D03*
X014011Y001450D03*
X013334Y001470D03*
X013334Y001471D03*
X013334Y001471D03*
D475*
X013334Y001470D03*
X014011Y001449D03*
D476*
X014011Y001450D03*
X014011Y001452D03*
D477*
X014011Y001451D03*
X014011Y001451D03*
D478*
X013337Y001451D03*
X013337Y001453D03*
D479*
X013337Y001452D03*
D480*
X013334Y001474D03*
X013334Y001474D03*
X013334Y001475D03*
X014011Y001454D03*
X014011Y001454D03*
X014011Y001453D03*
D481*
X014011Y001453D03*
X013334Y001474D03*
D482*
X013334Y001475D03*
X014012Y001455D03*
X014012Y001454D03*
D483*
X013337Y001455D03*
X013337Y001456D03*
D484*
X013334Y001476D03*
X013334Y001476D03*
X014012Y001456D03*
X014012Y001455D03*
D485*
X013337Y001455D03*
D486*
X014012Y001456D03*
X014012Y001458D03*
X014012Y001459D03*
D487*
X014012Y001458D03*
X014012Y001457D03*
D488*
X014012Y001459D03*
X014012Y001460D03*
X013333Y001479D03*
X013333Y001479D03*
X013333Y001480D03*
D489*
X013333Y001479D03*
X014012Y001460D03*
X014012Y001459D03*
D490*
X013336Y001460D03*
X013336Y001461D03*
D491*
X013336Y001460D03*
D492*
X014013Y001461D03*
X014013Y001461D03*
X014013Y001463D03*
D493*
X014013Y001462D03*
D494*
X014013Y001463D03*
X014013Y001464D03*
X013333Y001482D03*
X013333Y001483D03*
D495*
X013335Y001464D03*
X013335Y001464D03*
D496*
X013333Y001483D03*
X013333Y001484D03*
X014013Y001464D03*
X014013Y001464D03*
D497*
X013335Y001464D03*
D498*
X013333Y001484D03*
X013333Y001485D03*
X014013Y001466D03*
X014013Y001466D03*
X014013Y001465D03*
D499*
X014013Y001465D03*
X013333Y001484D03*
D500*
X014013Y001468D03*
X014013Y001467D03*
D501*
X014013Y001468D03*
X014013Y001469D03*
D502*
X013335Y001469D03*
X013335Y001469D03*
D503*
X013332Y001488D03*
X013332Y001489D03*
X014013Y001471D03*
X014013Y001470D03*
X014013Y001469D03*
D504*
X013335Y001469D03*
D505*
X013332Y001487D03*
X013332Y001488D03*
X014013Y001470D03*
X014013Y001469D03*
D506*
X014014Y001471D03*
X014014Y001473D03*
D507*
X013334Y001473D03*
X013334Y001472D03*
D508*
X014014Y001473D03*
X014014Y001472D03*
D509*
X013334Y001473D03*
D510*
X013331Y001491D03*
X013331Y001491D03*
X014014Y001475D03*
X014014Y001474D03*
X014014Y001474D03*
D511*
X014014Y001474D03*
X013331Y001490D03*
X013331Y001492D03*
D512*
X013331Y001493D03*
X014014Y001477D03*
X014014Y001475D03*
D513*
X014014Y001476D03*
X014014Y001476D03*
X013331Y001493D03*
X013331Y001494D03*
D514*
X013334Y001478D03*
X013334Y001477D03*
D515*
X013334Y001478D03*
D516*
X014014Y001479D03*
X014014Y001479D03*
X014014Y001478D03*
D517*
X014014Y001478D03*
D518*
X014015Y001479D03*
X014015Y001480D03*
X013331Y001495D03*
X013331Y001497D03*
D519*
X013331Y001496D03*
X013331Y001496D03*
X014015Y001481D03*
X014015Y001480D03*
D520*
X013333Y001480D03*
D521*
X013333Y001481D03*
X013333Y001481D03*
D522*
X014015Y001481D03*
X014015Y001483D03*
X014015Y001484D03*
D523*
X014015Y001483D03*
X014015Y001482D03*
D524*
X014015Y001484D03*
X014015Y001485D03*
X013330Y001499D03*
X013330Y001500D03*
D525*
X013330Y001500D03*
X013330Y001499D03*
X014015Y001485D03*
X014015Y001484D03*
D526*
X013332Y001485D03*
D527*
X013332Y001486D03*
X013332Y001486D03*
D528*
X013330Y001501D03*
X013330Y001501D03*
X014015Y001488D03*
X014015Y001486D03*
X014015Y001486D03*
D529*
X014015Y001487D03*
X013330Y001502D03*
D530*
X014016Y001489D03*
X014016Y001488D03*
D531*
X014016Y001489D03*
X014016Y001489D03*
D532*
X013332Y001490D03*
X013332Y001489D03*
D533*
X013332Y001489D03*
D534*
X013329Y001504D03*
X013329Y001505D03*
X014016Y001491D03*
X014016Y001491D03*
X014016Y001490D03*
D535*
X014016Y001490D03*
X013329Y001504D03*
X013329Y001505D03*
D536*
X014016Y001493D03*
X014016Y001492D03*
D537*
X014016Y001493D03*
X014016Y001494D03*
D538*
X013331Y001495D03*
X013331Y001494D03*
D539*
X013329Y001508D03*
X013329Y001509D03*
X013329Y001509D03*
X014016Y001496D03*
X014016Y001495D03*
X014016Y001494D03*
D540*
X013331Y001494D03*
D541*
X013329Y001508D03*
X014016Y001495D03*
X014016Y001494D03*
D542*
X014017Y001496D03*
X014017Y001498D03*
X013329Y001510D03*
D543*
X013329Y001510D03*
X013329Y001509D03*
X014017Y001498D03*
X014017Y001497D03*
D544*
X013330Y001498D03*
X013330Y001499D03*
D545*
X013330Y001498D03*
D546*
X014017Y001499D03*
X014017Y001499D03*
X014017Y001500D03*
D547*
X014017Y001499D03*
D548*
X014017Y001500D03*
X014017Y001502D03*
X013328Y001513D03*
D549*
X013328Y001513D03*
X013328Y001514D03*
X013328Y001514D03*
X014017Y001501D03*
X014017Y001501D03*
D550*
X013330Y001503D03*
X013330Y001504D03*
D551*
X014018Y001504D03*
X014018Y001504D03*
X014018Y001503D03*
D552*
X013330Y001503D03*
D553*
X014018Y001503D03*
D554*
X014018Y001504D03*
X014018Y001505D03*
X013328Y001517D03*
D555*
X013328Y001518D03*
X013328Y001516D03*
X013328Y001516D03*
X014018Y001506D03*
X014018Y001505D03*
D556*
X013329Y001506D03*
X013329Y001506D03*
D557*
X013328Y001519D03*
X013328Y001519D03*
X014018Y001509D03*
X014018Y001508D03*
X014018Y001506D03*
D558*
X013329Y001507D03*
D559*
X013328Y001518D03*
X014018Y001508D03*
X014018Y001507D03*
D560*
X014018Y001509D03*
X014018Y001510D03*
D561*
X014018Y001510D03*
X014018Y001509D03*
D562*
X013329Y001511D03*
X013329Y001511D03*
D563*
X013327Y001521D03*
X013327Y001521D03*
X013327Y001523D03*
X014018Y001513D03*
X014018Y001511D03*
X014018Y001511D03*
D564*
X013329Y001512D03*
D565*
X013327Y001522D03*
X014018Y001512D03*
D566*
X014019Y001513D03*
X014019Y001514D03*
D567*
X014019Y001514D03*
X014019Y001514D03*
D568*
X013328Y001514D03*
X013328Y001515D03*
D569*
X013328Y001515D03*
D570*
X013326Y001525D03*
X013326Y001526D03*
X014019Y001516D03*
X014019Y001516D03*
X014019Y001515D03*
D571*
X014019Y001515D03*
X013326Y001524D03*
X013326Y001525D03*
D572*
X013326Y001527D03*
X014019Y001518D03*
X014019Y001517D03*
D573*
X014019Y001518D03*
X014019Y001519D03*
X013326Y001526D03*
X013326Y001528D03*
D574*
X014019Y001521D03*
X014019Y001520D03*
X014019Y001519D03*
D575*
X013327Y001519D03*
X013327Y001520D03*
D576*
X014019Y001520D03*
X014019Y001519D03*
D577*
X013327Y001520D03*
D578*
X013326Y001530D03*
X013326Y001531D03*
X014020Y001523D03*
X014020Y001521D03*
D579*
X014020Y001522D03*
X014020Y001523D03*
X013326Y001529D03*
X013326Y001530D03*
D580*
X013327Y001523D03*
D581*
X013327Y001524D03*
X013327Y001524D03*
D582*
X014020Y001525D03*
X014020Y001524D03*
X014020Y001524D03*
D583*
X014020Y001524D03*
D584*
X014020Y001525D03*
X014020Y001527D03*
X013325Y001533D03*
X013325Y001534D03*
D585*
X013325Y001534D03*
X013325Y001534D03*
X014020Y001526D03*
X014020Y001526D03*
D586*
X014020Y001528D03*
X014020Y001529D03*
X014020Y001529D03*
X013325Y001535D03*
X013325Y001536D03*
D587*
X013326Y001528D03*
D588*
X013325Y001535D03*
X014020Y001528D03*
D589*
X013326Y001529D03*
X013326Y001529D03*
D590*
X014021Y001529D03*
X014021Y001530D03*
D591*
X014021Y001530D03*
X014021Y001531D03*
D592*
X013325Y001531D03*
X013325Y001533D03*
D593*
X013324Y001539D03*
X013324Y001539D03*
X014021Y001534D03*
X014021Y001533D03*
X014021Y001531D03*
D594*
X013325Y001532D03*
D595*
X013324Y001538D03*
X013324Y001539D03*
X014021Y001533D03*
X014021Y001532D03*
D596*
X014021Y001534D03*
X014021Y001535D03*
D597*
X014021Y001535D03*
X014021Y001534D03*
D598*
X014021Y001536D03*
X014021Y001536D03*
X014021Y001538D03*
X013324Y001541D03*
X013324Y001543D03*
D599*
X013325Y001538D03*
X013325Y001536D03*
D600*
X013325Y001537D03*
D601*
X013324Y001542D03*
X013324Y001543D03*
X014021Y001537D03*
D602*
X014022Y001538D03*
X014022Y001539D03*
X013324Y001544D03*
D603*
X013324Y001544D03*
X013324Y001544D03*
X014022Y001539D03*
X014022Y001539D03*
D604*
X013324Y001540D03*
X013324Y001541D03*
D605*
X014022Y001541D03*
X014022Y001541D03*
X014022Y001540D03*
D606*
X013324Y001540D03*
D607*
X014022Y001540D03*
D608*
X014022Y001542D03*
X014022Y001543D03*
X013323Y001547D03*
X013323Y001548D03*
D609*
X013323Y001548D03*
X013323Y001546D03*
X014022Y001544D03*
X014022Y001543D03*
D610*
X014023Y001544D03*
X014023Y001545D03*
X014023Y001546D03*
D611*
X014023Y001545D03*
X014023Y001544D03*
D612*
X013324Y001545D03*
X013324Y001546D03*
D613*
X013324Y001545D03*
D614*
X013323Y001550D03*
X013323Y001551D03*
X013323Y001551D03*
X014023Y001548D03*
X014023Y001546D03*
D615*
X014023Y001547D03*
X014023Y001548D03*
X013323Y001550D03*
D616*
X013323Y001549D03*
X013323Y001549D03*
D617*
X013323Y001553D03*
X014023Y001550D03*
X014023Y001549D03*
X014023Y001549D03*
D618*
X013323Y001549D03*
D619*
X013323Y001552D03*
X013323Y001553D03*
X014023Y001549D03*
D620*
X014023Y001550D03*
X014023Y001552D03*
D621*
X014023Y001551D03*
X014023Y001551D03*
D622*
X014023Y001553D03*
X014023Y001554D03*
X014023Y001554D03*
X013322Y001555D03*
X013322Y001556D03*
X013322Y001556D03*
D623*
X013322Y001555D03*
X014023Y001553D03*
D624*
X013322Y001554D03*
X013322Y001554D03*
D625*
X013322Y001554D03*
D626*
X014024Y001554D03*
X014024Y001555D03*
D627*
X014024Y001555D03*
X014024Y001556D03*
D628*
X014024Y001556D03*
X014024Y001558D03*
X014024Y001559D03*
X013321Y001560D03*
X013321Y001559D03*
X013321Y001559D03*
D629*
X013322Y001558D03*
X013322Y001557D03*
D630*
X013321Y001559D03*
X014024Y001558D03*
X014024Y001557D03*
D631*
X013322Y001558D03*
D632*
X013321Y001561D03*
X013321Y001561D03*
X014024Y001560D03*
X014024Y001559D03*
D633*
X014024Y001559D03*
X014024Y001560D03*
X013321Y001560D03*
D634*
X014024Y001561D03*
X014024Y001561D03*
X014024Y001563D03*
D635*
X013321Y001563D03*
X013321Y001562D03*
D636*
X014024Y001562D03*
D637*
X013321Y001563D03*
D638*
X013321Y001564D03*
X014025Y001564D03*
X014025Y001563D03*
D639*
X014025Y001564D03*
X014025Y001564D03*
X013321Y001565D03*
X013321Y001564D03*
X013321Y001564D03*
D640*
X014025Y001565D03*
X014025Y001566D03*
X014025Y001566D03*
D641*
X013320Y001565D03*
D642*
X014025Y001565D03*
D643*
X013320Y001566D03*
X013320Y001566D03*
D644*
X013320Y001567D03*
X013320Y001568D03*
X014025Y001568D03*
X014025Y001567D03*
D645*
X014025Y001568D03*
X014025Y001569D03*
X013320Y001569D03*
X013320Y001568D03*
D646*
X013320Y001569D03*
X013320Y001570D03*
X014025Y001571D03*
X014025Y001570D03*
X014025Y001569D03*
D647*
X014025Y001569D03*
X014025Y001570D03*
X013320Y001569D03*
D648*
X013320Y001570D03*
D649*
X013320Y001571D03*
X013320Y001571D03*
D650*
X014026Y001571D03*
X014026Y001573D03*
D651*
X014026Y001574D03*
X013319Y001573D03*
X013319Y001572D03*
D652*
X014026Y001573D03*
X014026Y001572D03*
D653*
X014026Y001574D03*
X014026Y001574D03*
X014026Y001575D03*
X013319Y001574D03*
X013319Y001573D03*
D654*
X013319Y001574D03*
X013319Y001575D03*
D655*
X013319Y001574D03*
D656*
X013319Y001575D03*
X013319Y001577D03*
X014026Y001578D03*
D657*
X014026Y001577D03*
X014026Y001575D03*
D658*
X014026Y001578D03*
X014026Y001579D03*
X014026Y001579D03*
X013319Y001576D03*
X013319Y001576D03*
D659*
X014026Y001576D03*
X014026Y001576D03*
D660*
X014027Y001580D03*
X014027Y001581D03*
X013319Y001579D03*
X013319Y001578D03*
D661*
X013319Y001578D03*
X014027Y001579D03*
X014027Y001580D03*
D662*
X013319Y001580D03*
X013319Y001579D03*
D663*
X013319Y001579D03*
D664*
X013318Y001580D03*
X013318Y001582D03*
X014027Y001584D03*
X014027Y001585D03*
D665*
X014027Y001585D03*
X014027Y001584D03*
X013318Y001581D03*
X013318Y001581D03*
D666*
X014027Y001581D03*
X014027Y001583D03*
X014027Y001584D03*
D667*
X014027Y001583D03*
X014027Y001582D03*
D668*
X013318Y001583D03*
X013318Y001584D03*
D669*
X013318Y001583D03*
D670*
X013318Y001584D03*
X013318Y001585D03*
X014028Y001589D03*
X014028Y001589D03*
D671*
X014028Y001589D03*
X014028Y001588D03*
X013318Y001585D03*
X013318Y001584D03*
D672*
X013318Y001586D03*
X013318Y001586D03*
X014028Y001590D03*
X014028Y001591D03*
X014028Y001591D03*
D673*
X014028Y001588D03*
X014028Y001586D03*
X014028Y001586D03*
D674*
X014028Y001590D03*
X013318Y001587D03*
D675*
X014028Y001587D03*
D676*
X013317Y001588D03*
X013317Y001589D03*
D677*
X013317Y001588D03*
D678*
X013317Y001589D03*
X013317Y001590D03*
X014028Y001594D03*
X014028Y001595D03*
X014028Y001596D03*
D679*
X014028Y001595D03*
X014028Y001594D03*
X013317Y001590D03*
X013317Y001589D03*
D680*
X013317Y001591D03*
X013317Y001591D03*
D681*
X013317Y001592D03*
D682*
X014028Y001593D03*
X014028Y001592D03*
D683*
X014029Y001599D03*
X014029Y001599D03*
X014029Y001600D03*
X013316Y001594D03*
X013316Y001594D03*
X013316Y001593D03*
D684*
X014028Y001594D03*
X014028Y001593D03*
D685*
X014029Y001599D03*
X013316Y001593D03*
D686*
X013316Y001594D03*
X013316Y001595D03*
X014029Y001600D03*
X014029Y001602D03*
D687*
X014029Y001601D03*
X014029Y001601D03*
X013316Y001595D03*
D688*
X013316Y001596D03*
X013316Y001596D03*
D689*
X014029Y001596D03*
X014029Y001598D03*
D690*
X013316Y001597D03*
D691*
X014029Y001598D03*
X014029Y001597D03*
D692*
X014030Y001605D03*
X014030Y001606D03*
X013316Y001599D03*
X013316Y001599D03*
X013316Y001598D03*
D693*
X013316Y001598D03*
X014030Y001604D03*
X014030Y001605D03*
D694*
X013315Y001600D03*
X013315Y001599D03*
D695*
X013315Y001600D03*
D696*
X013315Y001601D03*
X013315Y001601D03*
X013315Y001603D03*
X014030Y001609D03*
X014030Y001610D03*
D697*
X014030Y001610D03*
X014030Y001609D03*
X013315Y001602D03*
D698*
X014029Y001603D03*
X014029Y001604D03*
X014029Y001604D03*
D699*
X014030Y001612D03*
X013315Y001603D03*
D700*
X014029Y001603D03*
D701*
X014030Y001611D03*
X014030Y001611D03*
X014030Y001613D03*
X013315Y001604D03*
X013315Y001604D03*
D702*
X013315Y001604D03*
X013315Y001605D03*
D703*
X013315Y001605D03*
D704*
X013314Y001606D03*
X013314Y001606D03*
X013314Y001608D03*
X014031Y001615D03*
X014031Y001616D03*
X014031Y001616D03*
D705*
X014030Y001609D03*
X014030Y001608D03*
X014030Y001606D03*
D706*
X014031Y001615D03*
X013314Y001607D03*
D707*
X014030Y001608D03*
X014030Y001607D03*
D708*
X013314Y001608D03*
D709*
X013314Y001609D03*
X013314Y001609D03*
D710*
X013314Y001609D03*
X013314Y001610D03*
X014031Y001619D03*
D711*
X014031Y001619D03*
X013314Y001611D03*
X013314Y001610D03*
D712*
X013314Y001611D03*
X013314Y001613D03*
D713*
X013314Y001612D03*
D714*
X013314Y001613D03*
X013314Y001614D03*
D715*
X014031Y001614D03*
X014031Y001613D03*
D716*
X013314Y001614D03*
X013314Y001614D03*
D717*
X014031Y001614D03*
X014031Y001614D03*
D718*
X013313Y001615D03*
X013313Y001616D03*
D719*
X013313Y001615D03*
D720*
X013313Y001616D03*
X013313Y001618D03*
D721*
X013313Y001617D03*
D722*
X014031Y001618D03*
X014031Y001617D03*
D723*
X014031Y001618D03*
X014031Y001619D03*
D724*
X013313Y001619D03*
X013313Y001618D03*
D725*
X013313Y001619D03*
X013313Y001619D03*
D726*
X013369Y001620D03*
X013369Y001621D03*
X013369Y001621D03*
X013369Y001623D03*
X013369Y001624D03*
X013369Y001624D03*
X013369Y001625D03*
X013369Y001626D03*
X013369Y001626D03*
X013369Y001628D03*
X013369Y001629D03*
X013369Y001629D03*
X013369Y001630D03*
X013369Y001631D03*
X013369Y001631D03*
X013369Y001633D03*
X013369Y001634D03*
X013369Y001634D03*
X013369Y001635D03*
X013369Y001636D03*
X013369Y001636D03*
X013369Y001638D03*
X013369Y001639D03*
X013369Y001639D03*
X013369Y001640D03*
X013369Y001641D03*
X013369Y001641D03*
X013369Y001643D03*
X013369Y001644D03*
X013369Y001644D03*
X013369Y001645D03*
D727*
X013977Y001645D03*
X013977Y001644D03*
X013977Y001644D03*
X013977Y001643D03*
X013977Y001641D03*
X013977Y001641D03*
X013977Y001640D03*
X013977Y001639D03*
X013977Y001639D03*
X013977Y001638D03*
X013977Y001636D03*
X013977Y001636D03*
X013977Y001635D03*
X013977Y001634D03*
X013977Y001634D03*
X013977Y001633D03*
X013977Y001631D03*
X013977Y001631D03*
X013977Y001630D03*
X013977Y001629D03*
X013977Y001629D03*
X013977Y001628D03*
X013977Y001626D03*
X013977Y001626D03*
X013977Y001625D03*
X013977Y001624D03*
X013977Y001624D03*
X013977Y001623D03*
X013977Y001621D03*
X013977Y001621D03*
X013977Y001620D03*
D728*
X013369Y001620D03*
X013369Y001622D03*
X013369Y001623D03*
X013369Y001624D03*
X013369Y001625D03*
X013369Y001627D03*
X013369Y001628D03*
X013369Y001629D03*
X013369Y001630D03*
X013369Y001632D03*
X013369Y001633D03*
X013369Y001634D03*
X013369Y001635D03*
X013369Y001637D03*
X013369Y001638D03*
X013369Y001639D03*
X013369Y001640D03*
X013369Y001642D03*
X013369Y001643D03*
X013369Y001644D03*
X013369Y001645D03*
D729*
X013977Y001645D03*
X013977Y001644D03*
X013977Y001643D03*
X013977Y001642D03*
X013977Y001640D03*
X013977Y001639D03*
X013977Y001638D03*
X013977Y001637D03*
X013977Y001635D03*
X013977Y001634D03*
X013977Y001633D03*
X013977Y001632D03*
X013977Y001630D03*
X013977Y001629D03*
X013977Y001628D03*
X013977Y001627D03*
X013977Y001625D03*
X013977Y001624D03*
X013977Y001623D03*
X013977Y001622D03*
X013977Y001620D03*
D730*
X013673Y001646D03*
X013673Y001646D03*
X013673Y001648D03*
X013673Y001649D03*
X013673Y001649D03*
X013673Y001650D03*
X013673Y001651D03*
X013673Y001651D03*
X013673Y001653D03*
X013673Y001654D03*
X013673Y001654D03*
X013673Y001655D03*
X013673Y001656D03*
X013673Y001656D03*
X013673Y001658D03*
X013673Y001659D03*
X013673Y001659D03*
X013673Y001660D03*
X013673Y001661D03*
X013673Y001661D03*
X013673Y001663D03*
X013673Y001664D03*
X013673Y001664D03*
X013673Y001665D03*
X013673Y001666D03*
X013673Y001795D03*
X013673Y001796D03*
X013673Y001796D03*
X013673Y001798D03*
X013673Y001799D03*
X013673Y001799D03*
X013673Y001800D03*
X013673Y001801D03*
X013673Y001801D03*
X013673Y001803D03*
X013673Y001804D03*
X013673Y001804D03*
X013673Y001805D03*
X013673Y001806D03*
X013673Y001806D03*
X013673Y001808D03*
X013673Y001809D03*
X013673Y001809D03*
X013673Y001810D03*
X013673Y001811D03*
X013673Y001811D03*
X013673Y001813D03*
X013673Y001814D03*
X013673Y001814D03*
X013673Y001815D03*
X013673Y001816D03*
X013673Y001816D03*
X013673Y001818D03*
X013673Y001819D03*
X013673Y001819D03*
X013673Y001820D03*
X013673Y001821D03*
X013673Y001821D03*
X013673Y001823D03*
X013673Y001824D03*
X013673Y001824D03*
X013673Y001825D03*
X013673Y001826D03*
X013673Y001826D03*
X013673Y001828D03*
X013673Y001829D03*
X013673Y001829D03*
X013673Y001830D03*
X013673Y001831D03*
D731*
X013673Y001830D03*
X013673Y001829D03*
X013673Y001828D03*
X013673Y001827D03*
X013673Y001825D03*
X013673Y001824D03*
X013673Y001823D03*
X013673Y001822D03*
X013673Y001820D03*
X013673Y001819D03*
X013673Y001818D03*
X013673Y001817D03*
X013673Y001815D03*
X013673Y001814D03*
X013673Y001813D03*
X013673Y001812D03*
X013673Y001810D03*
X013673Y001809D03*
X013673Y001808D03*
X013673Y001807D03*
X013673Y001805D03*
X013673Y001804D03*
X013673Y001803D03*
X013673Y001802D03*
X013673Y001800D03*
X013673Y001799D03*
X013673Y001798D03*
X013673Y001797D03*
X013673Y001795D03*
X013673Y001665D03*
X013673Y001664D03*
X013673Y001663D03*
X013673Y001662D03*
X013673Y001660D03*
X013673Y001659D03*
X013673Y001658D03*
X013673Y001657D03*
X013673Y001655D03*
X013673Y001654D03*
X013673Y001653D03*
X013673Y001652D03*
X013673Y001650D03*
X013673Y001649D03*
X013673Y001648D03*
X013673Y001647D03*
D732*
X013399Y001666D03*
X013399Y001668D03*
X013399Y001669D03*
X013399Y001669D03*
X013399Y001670D03*
X013399Y001671D03*
X013399Y001671D03*
X013399Y001673D03*
X013399Y001674D03*
X013399Y001674D03*
X013399Y001675D03*
X013399Y001676D03*
X013399Y001676D03*
X013399Y001678D03*
X013399Y001679D03*
X013399Y001679D03*
X013399Y001680D03*
X013399Y001681D03*
X013399Y001681D03*
X013399Y001683D03*
X013399Y001684D03*
X013399Y001684D03*
X013399Y001685D03*
X013399Y001686D03*
X013399Y001686D03*
X013399Y001688D03*
X013399Y001689D03*
X013399Y001689D03*
X013399Y001690D03*
X013399Y001691D03*
X013399Y001691D03*
X013399Y001693D03*
X013399Y001694D03*
X013399Y001694D03*
X013399Y001695D03*
X013399Y001696D03*
X013399Y001696D03*
X013399Y001698D03*
X013399Y001699D03*
X013399Y001699D03*
X013399Y001700D03*
X013399Y001701D03*
X013399Y001701D03*
X013399Y001703D03*
X013399Y001704D03*
X013399Y001704D03*
X013399Y001705D03*
X013399Y001706D03*
X013399Y001706D03*
X013399Y001708D03*
X013399Y001709D03*
X013399Y001709D03*
X013399Y001710D03*
X013399Y001711D03*
X013399Y001711D03*
X013399Y001713D03*
X013399Y001714D03*
X013399Y001714D03*
X013399Y001715D03*
X013399Y001716D03*
X013399Y001716D03*
X013399Y001718D03*
X013399Y001719D03*
X013399Y001719D03*
X013399Y001720D03*
X013399Y001721D03*
X013399Y001721D03*
X013399Y001723D03*
X013399Y001724D03*
X013399Y001724D03*
X013399Y001725D03*
X013399Y001726D03*
X013399Y001726D03*
X013399Y001728D03*
X013399Y001729D03*
X013399Y001729D03*
X013399Y001730D03*
X013399Y001731D03*
X013399Y001731D03*
X013399Y001733D03*
X013399Y001734D03*
X013399Y001734D03*
X013399Y001735D03*
X013399Y001736D03*
X013399Y001736D03*
X013399Y001738D03*
X013399Y001739D03*
X013399Y001739D03*
X013399Y001740D03*
X013399Y001741D03*
X013399Y001741D03*
X013399Y001743D03*
X013399Y001744D03*
X013399Y001744D03*
X013399Y001745D03*
X013399Y001746D03*
X013399Y001746D03*
X013399Y001748D03*
X013399Y001749D03*
X013399Y001749D03*
X013399Y001750D03*
X013399Y001751D03*
X013399Y001751D03*
X013399Y001753D03*
X013399Y001754D03*
X013399Y001754D03*
X013399Y001755D03*
X013399Y001756D03*
X013399Y001756D03*
X013399Y001758D03*
X013399Y001759D03*
X013399Y001759D03*
X013399Y001760D03*
X013399Y001761D03*
X013399Y001761D03*
X013399Y001763D03*
X013399Y001764D03*
X013399Y001764D03*
X013399Y001765D03*
X013399Y001766D03*
X013399Y001766D03*
X013399Y001768D03*
X013399Y001769D03*
X013399Y001769D03*
X013399Y001770D03*
X013399Y001771D03*
X013399Y001771D03*
X013399Y001773D03*
X013399Y001774D03*
X013399Y001774D03*
X013399Y001775D03*
X013399Y001776D03*
X013399Y001776D03*
X013399Y001778D03*
X013399Y001779D03*
X013399Y001779D03*
X013399Y001780D03*
X013399Y001781D03*
X013399Y001781D03*
X013399Y001783D03*
X013399Y001784D03*
X013399Y001784D03*
X013399Y001785D03*
X013399Y001786D03*
X013399Y001786D03*
X013399Y001788D03*
X013399Y001789D03*
X013399Y001789D03*
X013399Y001790D03*
X013399Y001791D03*
X013399Y001791D03*
X013399Y001793D03*
X013399Y001794D03*
X013399Y001794D03*
D733*
X013954Y001794D03*
X013954Y001794D03*
X013954Y001793D03*
X013954Y001791D03*
X013954Y001791D03*
X013954Y001790D03*
X013954Y001789D03*
X013954Y001789D03*
X013954Y001788D03*
X013954Y001786D03*
X013954Y001786D03*
X013954Y001785D03*
X013954Y001784D03*
X013954Y001784D03*
X013954Y001783D03*
X013954Y001781D03*
X013954Y001781D03*
X013954Y001780D03*
X013954Y001779D03*
X013954Y001779D03*
X013954Y001778D03*
X013954Y001776D03*
X013954Y001776D03*
X013954Y001775D03*
X013954Y001774D03*
X013954Y001774D03*
X013954Y001773D03*
X013954Y001771D03*
X013954Y001771D03*
X013954Y001770D03*
X013954Y001769D03*
X013954Y001769D03*
X013954Y001768D03*
X013954Y001766D03*
X013954Y001766D03*
X013954Y001765D03*
X013954Y001764D03*
X013954Y001764D03*
X013954Y001763D03*
X013954Y001761D03*
X013954Y001761D03*
X013954Y001760D03*
X013954Y001759D03*
X013954Y001759D03*
X013954Y001758D03*
X013954Y001756D03*
X013954Y001756D03*
X013954Y001755D03*
X013954Y001754D03*
X013954Y001754D03*
X013954Y001753D03*
X013954Y001751D03*
X013954Y001751D03*
X013954Y001750D03*
X013954Y001749D03*
X013954Y001749D03*
X013954Y001748D03*
X013954Y001746D03*
X013954Y001746D03*
X013954Y001745D03*
X013954Y001744D03*
X013954Y001744D03*
X013954Y001743D03*
X013954Y001741D03*
X013954Y001741D03*
X013954Y001740D03*
X013954Y001739D03*
X013954Y001739D03*
X013954Y001738D03*
X013954Y001736D03*
X013954Y001736D03*
X013954Y001735D03*
X013954Y001734D03*
X013954Y001734D03*
X013954Y001733D03*
X013954Y001731D03*
X013954Y001731D03*
X013954Y001730D03*
X013954Y001729D03*
X013954Y001729D03*
X013954Y001728D03*
X013954Y001726D03*
X013954Y001726D03*
X013954Y001725D03*
X013954Y001724D03*
X013954Y001724D03*
X013954Y001723D03*
X013954Y001721D03*
X013954Y001721D03*
X013954Y001720D03*
X013954Y001719D03*
X013954Y001719D03*
X013954Y001718D03*
X013954Y001716D03*
X013954Y001716D03*
X013954Y001715D03*
X013954Y001714D03*
X013954Y001714D03*
X013954Y001713D03*
X013954Y001711D03*
X013954Y001711D03*
X013954Y001710D03*
X013954Y001709D03*
X013954Y001709D03*
X013954Y001708D03*
X013954Y001706D03*
X013954Y001706D03*
X013954Y001705D03*
X013954Y001704D03*
X013954Y001704D03*
X013954Y001703D03*
X013954Y001701D03*
X013954Y001701D03*
X013954Y001700D03*
X013954Y001699D03*
X013954Y001699D03*
X013954Y001698D03*
X013954Y001696D03*
X013954Y001696D03*
X013954Y001695D03*
X013954Y001694D03*
X013954Y001694D03*
X013954Y001693D03*
X013954Y001691D03*
X013954Y001691D03*
X013954Y001690D03*
X013954Y001689D03*
X013954Y001689D03*
X013954Y001688D03*
X013954Y001686D03*
X013954Y001686D03*
X013954Y001685D03*
X013954Y001684D03*
X013954Y001684D03*
X013954Y001683D03*
X013954Y001681D03*
X013954Y001681D03*
X013954Y001680D03*
X013954Y001679D03*
X013954Y001679D03*
X013954Y001678D03*
X013954Y001676D03*
X013954Y001676D03*
X013954Y001675D03*
X013954Y001674D03*
X013954Y001674D03*
X013954Y001673D03*
X013954Y001671D03*
X013954Y001671D03*
X013954Y001670D03*
X013954Y001669D03*
X013954Y001669D03*
X013954Y001668D03*
X013954Y001666D03*
D734*
X013399Y001667D03*
X013399Y001668D03*
X013399Y001669D03*
X013399Y001670D03*
X013399Y001672D03*
X013399Y001673D03*
X013399Y001674D03*
X013399Y001675D03*
X013399Y001677D03*
X013399Y001678D03*
X013399Y001679D03*
X013399Y001680D03*
X013399Y001682D03*
X013399Y001683D03*
X013399Y001684D03*
X013399Y001685D03*
X013399Y001687D03*
X013399Y001688D03*
X013399Y001689D03*
X013399Y001690D03*
X013399Y001692D03*
X013399Y001693D03*
X013399Y001694D03*
X013399Y001695D03*
X013399Y001697D03*
X013399Y001698D03*
X013399Y001699D03*
X013399Y001700D03*
X013399Y001702D03*
X013399Y001703D03*
X013399Y001704D03*
X013399Y001705D03*
X013399Y001707D03*
X013399Y001708D03*
X013399Y001709D03*
X013399Y001710D03*
X013399Y001712D03*
X013399Y001713D03*
X013399Y001714D03*
X013399Y001715D03*
X013399Y001717D03*
X013399Y001718D03*
X013399Y001719D03*
X013399Y001720D03*
X013399Y001722D03*
X013399Y001723D03*
X013399Y001724D03*
X013399Y001725D03*
X013399Y001727D03*
X013399Y001728D03*
X013399Y001729D03*
X013399Y001730D03*
X013399Y001732D03*
X013399Y001733D03*
X013399Y001734D03*
X013399Y001735D03*
X013399Y001737D03*
X013399Y001738D03*
X013399Y001739D03*
X013399Y001740D03*
X013399Y001742D03*
X013399Y001743D03*
X013399Y001744D03*
X013399Y001745D03*
X013399Y001747D03*
X013399Y001748D03*
X013399Y001749D03*
X013399Y001750D03*
X013399Y001752D03*
X013399Y001753D03*
X013399Y001754D03*
X013399Y001755D03*
X013399Y001757D03*
X013399Y001758D03*
X013399Y001759D03*
X013399Y001760D03*
X013399Y001762D03*
X013399Y001763D03*
X013399Y001764D03*
X013399Y001765D03*
X013399Y001767D03*
X013399Y001768D03*
X013399Y001769D03*
X013399Y001770D03*
X013399Y001772D03*
X013399Y001773D03*
X013399Y001774D03*
X013399Y001775D03*
X013399Y001777D03*
X013399Y001778D03*
X013399Y001779D03*
X013399Y001780D03*
X013399Y001782D03*
X013399Y001783D03*
X013399Y001784D03*
X013399Y001785D03*
X013399Y001787D03*
X013399Y001788D03*
X013399Y001789D03*
X013399Y001790D03*
X013399Y001792D03*
X013399Y001793D03*
X013399Y001794D03*
D735*
X013954Y001794D03*
X013954Y001793D03*
X013954Y001792D03*
X013954Y001790D03*
X013954Y001789D03*
X013954Y001788D03*
X013954Y001787D03*
X013954Y001785D03*
X013954Y001784D03*
X013954Y001783D03*
X013954Y001782D03*
X013954Y001780D03*
X013954Y001779D03*
X013954Y001778D03*
X013954Y001777D03*
X013954Y001775D03*
X013954Y001774D03*
X013954Y001773D03*
X013954Y001772D03*
X013954Y001770D03*
X013954Y001769D03*
X013954Y001768D03*
X013954Y001767D03*
X013954Y001765D03*
X013954Y001764D03*
X013954Y001763D03*
X013954Y001762D03*
X013954Y001760D03*
X013954Y001759D03*
X013954Y001758D03*
X013954Y001757D03*
X013954Y001755D03*
X013954Y001754D03*
X013954Y001753D03*
X013954Y001752D03*
X013954Y001750D03*
X013954Y001749D03*
X013954Y001748D03*
X013954Y001747D03*
X013954Y001745D03*
X013954Y001744D03*
X013954Y001743D03*
X013954Y001742D03*
X013954Y001740D03*
X013954Y001739D03*
X013954Y001738D03*
X013954Y001737D03*
X013954Y001735D03*
X013954Y001734D03*
X013954Y001733D03*
X013954Y001732D03*
X013954Y001730D03*
X013954Y001729D03*
X013954Y001728D03*
X013954Y001727D03*
X013954Y001725D03*
X013954Y001724D03*
X013954Y001723D03*
X013954Y001722D03*
X013954Y001720D03*
X013954Y001719D03*
X013954Y001718D03*
X013954Y001717D03*
X013954Y001715D03*
X013954Y001714D03*
X013954Y001713D03*
X013954Y001712D03*
X013954Y001710D03*
X013954Y001709D03*
X013954Y001708D03*
X013954Y001707D03*
X013954Y001705D03*
X013954Y001704D03*
X013954Y001703D03*
X013954Y001702D03*
X013954Y001700D03*
X013954Y001699D03*
X013954Y001698D03*
X013954Y001697D03*
X013954Y001695D03*
X013954Y001694D03*
X013954Y001693D03*
X013954Y001692D03*
X013954Y001690D03*
X013954Y001689D03*
X013954Y001688D03*
X013954Y001687D03*
X013954Y001685D03*
X013954Y001684D03*
X013954Y001683D03*
X013954Y001682D03*
X013954Y001680D03*
X013954Y001679D03*
X013954Y001678D03*
X013954Y001677D03*
X013954Y001675D03*
X013954Y001674D03*
X013954Y001673D03*
X013954Y001672D03*
X013954Y001670D03*
X013954Y001669D03*
X013954Y001668D03*
X013954Y001667D03*
D736*
X013673Y001831D03*
D737*
X013673Y001832D03*
D738*
X013673Y001833D03*
X013673Y001834D03*
X013673Y001834D03*
X013673Y001835D03*
D739*
X013673Y001835D03*
X013673Y001834D03*
X013673Y001833D03*
D740*
X013673Y001836D03*
D741*
X013673Y001836D03*
X013673Y001838D03*
X013673Y001839D03*
D742*
X013673Y001838D03*
X013673Y001837D03*
D743*
X013673Y001839D03*
D744*
X013673Y001839D03*
D745*
X013673Y001840D03*
X013673Y001841D03*
X013673Y001841D03*
D746*
X013673Y001840D03*
D747*
X013673Y001842D03*
D748*
X013673Y001843D03*
D749*
X013673Y001843D03*
D750*
X013673Y001844D03*
X013673Y001844D03*
D751*
X013673Y001844D03*
D752*
X013673Y001845D03*
D753*
X013673Y001845D03*
D754*
X013673Y001846D03*
X013673Y001846D03*
D755*
X013673Y001847D03*
D756*
X013673Y001848D03*
D757*
X013673Y001848D03*
D758*
X013673Y001849D03*
X013673Y001849D03*
D759*
X013673Y001849D03*
D760*
X013673Y001850D03*
X013673Y001851D03*
X013673Y001851D03*
D761*
X013673Y001850D03*
D762*
X013673Y001852D03*
X013673Y001853D03*
D763*
X013673Y001853D03*
X013673Y001854D03*
D764*
X013673Y001854D03*
X013673Y001855D03*
D765*
X013673Y001855D03*
X013673Y001854D03*
D766*
X013673Y001856D03*
X013673Y001856D03*
X013673Y001858D03*
D767*
X013673Y001857D03*
D768*
X013673Y001858D03*
X013673Y001859D03*
D769*
X013673Y001859D03*
X013673Y001859D03*
D770*
X013673Y001860D03*
X013673Y001861D03*
D771*
X013673Y001860D03*
D772*
X013673Y001861D03*
D773*
X013673Y001862D03*
D774*
X013673Y001863D03*
D775*
X013673Y001863D03*
D776*
X013673Y001864D03*
X013673Y001864D03*
D777*
X013673Y001864D03*
D778*
X013673Y001865D03*
D779*
X013673Y001865D03*
D780*
X013673Y001866D03*
D781*
X013673Y001866D03*
D782*
X013673Y001867D03*
D783*
X013673Y001868D03*
D784*
X013673Y001868D03*
D785*
X013673Y001869D03*
X013673Y001869D03*
D786*
X013673Y001869D03*
D787*
X013673Y001870D03*
D788*
X013673Y001870D03*
D789*
X013673Y001871D03*
X013673Y001871D03*
D790*
X013673Y001872D03*
D791*
X013673Y001873D03*
D792*
X013673Y001873D03*
D793*
X013673Y001874D03*
D794*
X013673Y001874D03*
D795*
X013673Y001874D03*
D796*
X013673Y001875D03*
D797*
X013673Y001875D03*
D798*
X013673Y001876D03*
D799*
X013673Y001876D03*
D800*
X013673Y001877D03*
D801*
X013673Y001878D03*
D802*
X013673Y001878D03*
D803*
X013673Y001879D03*
D804*
X013673Y001879D03*
D805*
X013673Y001879D03*
D806*
X013673Y001880D03*
D807*
X013673Y001880D03*
D808*
X013673Y001881D03*
D809*
X013673Y001881D03*
D810*
X013673Y001882D03*
D811*
X013673Y001883D03*
D812*
X013673Y001883D03*
D813*
X013673Y001884D03*
D814*
X013673Y001884D03*
D815*
X013673Y001884D03*
D816*
X013673Y001885D03*
D817*
X013673Y001885D03*
D818*
X013673Y001886D03*
D819*
X013673Y001886D03*
D820*
X013673Y001887D03*
D821*
X013673Y001888D03*
D822*
X013673Y001888D03*
D823*
X013673Y001889D03*
D824*
X013673Y001889D03*
D825*
X013673Y001889D03*
D826*
X013673Y001890D03*
D827*
X013673Y001890D03*
D828*
X013673Y001891D03*
D829*
X013673Y001891D03*
D830*
X013673Y001892D03*
D831*
X013673Y001893D03*
D832*
X013673Y001893D03*
D833*
X013673Y001894D03*
D834*
X013673Y001894D03*
D835*
X013673Y001894D03*
D836*
X013673Y001895D03*
D837*
X013673Y001895D03*
D838*
X013673Y001896D03*
D839*
X013673Y001896D03*
D840*
X013673Y001897D03*
D841*
X013673Y001898D03*
D842*
X013673Y001898D03*
D843*
X013673Y001899D03*
D844*
X013673Y001899D03*
D845*
X013673Y001899D03*
D846*
X013673Y001900D03*
D847*
X013673Y001900D03*
D848*
X013673Y001901D03*
D849*
X013673Y001901D03*
D850*
X013673Y001902D03*
D851*
X013673Y001903D03*
D852*
X013673Y001903D03*
D853*
X013673Y001904D03*
D854*
X013673Y001904D03*
D855*
X013673Y001904D03*
D856*
X013673Y001905D03*
D857*
X013673Y001905D03*
D858*
X013673Y001906D03*
D859*
X013673Y001906D03*
D860*
X013673Y001907D03*
D861*
X013673Y001908D03*
D862*
X013673Y001908D03*
D863*
X013673Y001909D03*
D864*
X013673Y001909D03*
D865*
X013673Y001909D03*
D866*
X013673Y001910D03*
D867*
X013673Y001910D03*
D868*
X013673Y001911D03*
D869*
X013673Y001911D03*
D870*
X013673Y001912D03*
D871*
X013673Y001913D03*
D872*
X013673Y001913D03*
D873*
X013673Y001914D03*
D874*
X013673Y001914D03*
D875*
X013673Y001914D03*
D876*
X013673Y001915D03*
D877*
X013673Y001915D03*
D878*
X013673Y001916D03*
D879*
X013673Y001916D03*
D880*
X013673Y001917D03*
D881*
X013673Y001918D03*
D882*
X013673Y001918D03*
D883*
X013673Y001919D03*
D884*
X013673Y001919D03*
D885*
X013673Y001919D03*
D886*
X013673Y001920D03*
D887*
X013673Y001920D03*
D888*
X013673Y001921D03*
D889*
X013673Y001921D03*
D890*
X013673Y001922D03*
D891*
X013673Y001923D03*
D892*
X013673Y001923D03*
D893*
X013673Y001924D03*
D894*
X013673Y001924D03*
D895*
X013673Y001924D03*
D896*
X013673Y001925D03*
D897*
X013673Y001925D03*
D898*
X013673Y001926D03*
D899*
X013673Y001926D03*
D900*
X013673Y001927D03*
D901*
X013673Y001928D03*
D902*
X013673Y001928D03*
D903*
X013673Y001929D03*
D904*
X013673Y001929D03*
D905*
X013673Y001929D03*
D906*
X013673Y001930D03*
D907*
X013673Y001930D03*
D908*
X013673Y001931D03*
D909*
X013673Y001931D03*
D910*
X013673Y001932D03*
D911*
X013673Y001933D03*
D912*
X013673Y001933D03*
D913*
X013673Y001934D03*
D914*
X013673Y001934D03*
D915*
X013673Y001934D03*
D916*
X013673Y001935D03*
D917*
X013673Y001935D03*
D918*
X013673Y001936D03*
D919*
X013673Y001936D03*
D920*
X013673Y001937D03*
D921*
X013673Y001938D03*
D922*
X013673Y001938D03*
D923*
X013673Y001939D03*
D924*
X013673Y001939D03*
D925*
X013673Y001939D03*
D926*
X013673Y001940D03*
D927*
X013673Y001940D03*
D928*
X013673Y001941D03*
D929*
X013673Y001941D03*
D930*
X013673Y001942D03*
D931*
X013673Y001943D03*
D932*
X013673Y001943D03*
D933*
X013673Y001944D03*
D934*
X013673Y001944D03*
D935*
X013673Y001944D03*
D936*
X013673Y001945D03*
D937*
X013673Y001945D03*
D938*
X013673Y001946D03*
D939*
X013673Y001946D03*
D940*
X013673Y001947D03*
D941*
X013673Y001948D03*
D942*
X013673Y001948D03*
D943*
X013673Y001949D03*
D944*
X013673Y001949D03*
D945*
X013673Y001949D03*
D946*
X013673Y001950D03*
D947*
X013673Y001950D03*
D948*
X013673Y001951D03*
D949*
X013673Y001951D03*
D950*
X013673Y001952D03*
D951*
X013673Y001953D03*
D952*
X013673Y001953D03*
D953*
X013673Y001954D03*
D954*
X013673Y001954D03*
D955*
X013673Y001954D03*
D956*
X013673Y001955D03*
D957*
X013673Y001955D03*
D958*
X013673Y001956D03*
D959*
X013673Y001956D03*
D960*
X013673Y001957D03*
D961*
X013673Y001958D03*
D962*
X013673Y001958D03*
D963*
X013673Y001959D03*
D964*
X013673Y001959D03*
D965*
X013673Y001959D03*
D966*
X013673Y001960D03*
D967*
X013673Y001960D03*
D968*
X013673Y001961D03*
D969*
X013673Y001961D03*
D970*
X013673Y001962D03*
D971*
X013673Y001963D03*
D972*
X013673Y001963D03*
D973*
X013673Y001964D03*
D974*
X013673Y001964D03*
D975*
X013673Y001964D03*
D976*
X013673Y001965D03*
D977*
X013673Y001965D03*
D978*
X013673Y001966D03*
D979*
X013673Y001966D03*
D980*
X013673Y001967D03*
D981*
X013673Y001968D03*
D982*
X013673Y001968D03*
D983*
X013673Y001969D03*
D984*
X013673Y001969D03*
D985*
X013673Y001969D03*
D986*
X013673Y001970D03*
D987*
X013673Y001970D03*
D988*
X013673Y001971D03*
D989*
X013673Y001971D03*
D990*
X013673Y001972D03*
D991*
X013673Y001973D03*
D992*
X013673Y001973D03*
D993*
X013673Y001974D03*
D994*
X013673Y001974D03*
D995*
X013673Y001974D03*
D996*
X013673Y001975D03*
D997*
X013673Y001975D03*
D998*
X013673Y001976D03*
D999*
X013673Y001976D03*
D1000*
X013673Y001977D03*
D1001*
X013673Y001978D03*
D1002*
X013673Y001978D03*
D1003*
X013673Y001979D03*
D1004*
X013673Y001979D03*
D1005*
X013673Y001979D03*
D1006*
X013673Y001980D03*
D1007*
X013673Y001980D03*
D1008*
X013673Y001981D03*
D1009*
X013673Y001981D03*
D1010*
X013673Y001982D03*
D1011*
X013673Y001983D03*
D1012*
X013673Y001983D03*
D1013*
X013673Y001984D03*
D1014*
X013673Y001984D03*
D1015*
X013673Y001984D03*
D1016*
X013673Y001985D03*
D1017*
X013673Y001985D03*
D1018*
X013673Y001986D03*
D1019*
X013673Y001986D03*
D1020*
X013673Y001987D03*
D1021*
X013673Y001988D03*
D1022*
X013673Y001988D03*
D1023*
X013673Y001989D03*
D1024*
X013673Y001989D03*
D1025*
X013673Y001989D03*
D1026*
X013673Y001990D03*
D1027*
X013673Y001990D03*
D1028*
X013673Y001991D03*
D1029*
X013673Y001991D03*
D1030*
X013673Y001992D03*
D1031*
X013673Y001993D03*
D1032*
X013673Y001993D03*
D1033*
X013673Y001994D03*
D1034*
X013673Y001994D03*
D1035*
X013673Y001994D03*
D1036*
X013673Y001995D03*
D1037*
X013673Y001995D03*
D1038*
X013673Y001996D03*
D1039*
X013673Y001996D03*
D1040*
X013673Y001997D03*
D1041*
X013673Y001998D03*
D1042*
X013673Y001998D03*
D1043*
X013673Y001999D03*
D1044*
X013673Y001999D03*
D1045*
X013673Y001999D03*
D1046*
X013673Y002000D03*
D1047*
X013673Y002000D03*
D1048*
X013673Y002001D03*
D1049*
X013673Y002001D03*
D1050*
X013673Y002002D03*
D1051*
X013673Y002003D03*
D1052*
X013673Y002003D03*
D1053*
X013673Y002004D03*
D1054*
X013673Y002004D03*
D1055*
X013673Y002004D03*
D1056*
X013673Y002005D03*
D1057*
X013673Y002005D03*
D1058*
X013673Y002006D03*
D1059*
X013673Y002006D03*
D1060*
X013673Y002007D03*
D1061*
X013673Y002008D03*
D1062*
X013673Y002008D03*
D1063*
X013673Y002009D03*
D1064*
X013673Y002009D03*
D1065*
X013673Y002009D03*
D1066*
X013673Y002010D03*
D1067*
X013673Y002010D03*
D1068*
X013673Y002011D03*
D1069*
X013673Y002011D03*
D1070*
X013673Y002012D03*
D1071*
X013673Y002013D03*
D1072*
X013673Y002013D03*
D1073*
X013673Y002014D03*
D1074*
X013673Y002014D03*
D1075*
X013673Y002014D03*
D1076*
X013673Y002015D03*
D1077*
X013673Y002015D03*
D1078*
X013673Y002016D03*
D1079*
X013673Y002016D03*
D1080*
X013672Y002017D03*
D1081*
X013672Y002018D03*
D1082*
X013672Y002018D03*
D1083*
X013672Y002019D03*
D1084*
X013672Y002019D03*
D1085*
X013672Y002019D03*
D1086*
X013672Y002020D03*
D1087*
X013672Y002020D03*
D1088*
X013672Y002021D03*
D1089*
X013672Y002021D03*
D1090*
X013169Y000968D02*
X013170Y000968D01*
X013170Y000968D01*
X013169Y000968D01*
X013169Y000968D01*
X013169Y000967D01*
X013169Y000968D02*
X013169Y000968D01*
X013169Y000968D01*
X013168Y000968D01*
X013168Y000968D01*
X013168Y000968D01*
X013168Y000968D01*
X013168Y000968D01*
X013168Y000968D01*
X013168Y000968D01*
X013168Y000968D01*
X013168Y000968D01*
X013167Y000968D01*
X013167Y000968D01*
X013167Y000968D01*
X013168Y000968D01*
X013167Y000969D02*
X013167Y000968D01*
X013167Y000968D01*
X013167Y000968D01*
X013166Y000968D02*
X013166Y000968D01*
X013166Y000968D01*
X013166Y000968D01*
X013166Y000968D01*
X013166Y000968D01*
X013166Y000968D01*
X013166Y000968D01*
X013166Y000968D01*
X013165Y000968D02*
X013165Y000968D01*
X013165Y000968D01*
X013165Y000968D01*
X013165Y000967D01*
X013165Y000967D01*
X013165Y000967D01*
X013165Y000968D02*
X013165Y000968D01*
X013165Y000968D01*
X013164Y000968D02*
X013164Y000968D01*
X013164Y000968D01*
X013164Y000968D01*
X013164Y000968D01*
X013164Y000968D01*
X013164Y000968D01*
X013164Y000968D01*
X013164Y000968D01*
X013163Y000968D01*
X013163Y000969D02*
X013163Y000969D01*
X013163Y000968D01*
X013162Y000967D02*
X013163Y000967D01*
X013162Y000968D02*
X013162Y000968D01*
X013162Y000968D01*
X013162Y000968D01*
X013162Y000969D02*
X013162Y000969D01*
X013161Y000968D02*
X013161Y000968D01*
X013161Y000968D01*
X013161Y000968D01*
X013161Y000968D01*
X013161Y000968D01*
X013161Y000968D01*
X013161Y000968D01*
X013160Y000968D02*
X013160Y000969D01*
X013159Y000968D02*
X013159Y000968D01*
X013159Y000968D01*
X013159Y000968D01*
X013159Y000968D01*
X013158Y000968D01*
X013158Y000968D01*
X013158Y000968D01*
X013157Y000968D01*
X013157Y000968D01*
X013157Y000968D01*
X013158Y000968D01*
X013158Y000968D01*
X013158Y000968D01*
X013158Y000968D01*
X013159Y000968D01*
X013160Y000968D01*
X013160Y000968D01*
X013159Y000968D01*
X013159Y000968D01*
X013158Y000968D02*
X013157Y000968D01*
X013157Y000968D01*
X013156Y000968D01*
X013156Y000968D01*
X013156Y000968D01*
X013157Y000968D01*
X013157Y000969D02*
X013157Y000969D01*
X013155Y000968D02*
X013155Y000969D01*
X013154Y000968D02*
X013154Y000968D01*
X013154Y000968D01*
X013154Y000968D01*
X013154Y000968D01*
X013154Y000968D01*
X013154Y000968D01*
X013154Y000968D01*
X013154Y000968D01*
X013153Y000968D02*
X013153Y000968D01*
X013153Y000968D01*
X013153Y000968D01*
X013153Y000968D01*
X013153Y000968D01*
X013153Y000968D01*
X013153Y000968D01*
X013152Y000968D01*
X013152Y000968D01*
X013152Y000968D01*
X013152Y000968D01*
X013152Y000968D01*
X013152Y000968D01*
X013151Y000968D01*
X013151Y000968D01*
X013151Y000968D01*
X013151Y000969D01*
X013150Y000968D01*
X013152Y000968D02*
X013152Y000968D01*
X013153Y000968D02*
X013153Y000968D01*
X013152Y000968D01*
M02*
