G75*
%MOIN*%
%OFA0B0*%
%FSLAX24Y24*%
%IPPOS*%
%LPD*%
%AMOC8*
5,1,8,0,0,1.08239X$1,22.5*
%
%ADD10C,0.0080*%
%ADD11C,0.0650*%
%ADD12R,0.0650X0.0650*%
%ADD13R,0.0236X0.0472*%
%ADD14R,0.0394X0.0551*%
%ADD15R,0.0551X0.0394*%
%ADD16R,0.0512X0.0610*%
%ADD17R,0.0472X0.0472*%
%ADD18R,0.0870X0.0240*%
%ADD19R,0.0315X0.0354*%
%ADD20C,0.0740*%
%ADD21C,0.0160*%
%ADD22C,0.0100*%
%ADD23C,0.0400*%
D10*
X000900Y000520D02*
X020700Y000520D01*
X020734Y000522D01*
X020767Y000528D01*
X020799Y000537D01*
X020830Y000550D01*
X020860Y000566D01*
X020887Y000585D01*
X020912Y000608D01*
X020935Y000633D01*
X020954Y000660D01*
X020970Y000690D01*
X020983Y000721D01*
X020992Y000753D01*
X020998Y000786D01*
X021000Y000820D01*
X021000Y008720D01*
X020998Y008754D01*
X020992Y008787D01*
X020983Y008819D01*
X020970Y008850D01*
X020954Y008880D01*
X020935Y008907D01*
X020912Y008932D01*
X020887Y008955D01*
X020860Y008974D01*
X020830Y008990D01*
X020799Y009003D01*
X020767Y009012D01*
X020734Y009018D01*
X020700Y009020D01*
X001000Y009020D01*
X000961Y009018D01*
X000922Y009012D01*
X000884Y009003D01*
X000847Y008990D01*
X000811Y008973D01*
X000778Y008953D01*
X000746Y008929D01*
X000717Y008903D01*
X000691Y008874D01*
X000667Y008842D01*
X000647Y008809D01*
X000630Y008773D01*
X000617Y008736D01*
X000608Y008698D01*
X000602Y008659D01*
X000600Y008620D01*
X000600Y000820D01*
X000602Y000786D01*
X000608Y000753D01*
X000617Y000721D01*
X000630Y000690D01*
X000646Y000660D01*
X000665Y000633D01*
X000688Y000608D01*
X000713Y000585D01*
X000740Y000566D01*
X000770Y000550D01*
X000801Y000537D01*
X000833Y000528D01*
X000866Y000522D01*
X000900Y000520D01*
D11*
X002300Y007320D03*
X003300Y007320D03*
X004300Y007320D03*
X005300Y007320D03*
X006300Y007320D03*
X007300Y007320D03*
X008300Y007320D03*
X009300Y007320D03*
X010300Y007320D03*
X011300Y007320D03*
X012300Y007320D03*
X013300Y007320D03*
X014300Y007320D03*
X015300Y007320D03*
X016300Y007320D03*
X017300Y007320D03*
X018300Y007320D03*
X019300Y007320D03*
X020300Y007320D03*
X020300Y008320D03*
X019300Y008320D03*
X018300Y008320D03*
X017300Y008320D03*
X016300Y008320D03*
X015300Y008320D03*
X014300Y008320D03*
X013300Y008320D03*
X012300Y008320D03*
X011300Y008320D03*
X010300Y008320D03*
X009300Y008320D03*
X008300Y008320D03*
X007300Y008320D03*
X006300Y008320D03*
X005300Y008320D03*
X004300Y008320D03*
X003300Y008320D03*
X002300Y008320D03*
X001300Y008320D03*
D12*
X001300Y007320D03*
D13*
X019446Y004229D03*
X020154Y004229D03*
X020154Y002811D03*
X019446Y002811D03*
D14*
X019426Y001920D03*
X020174Y001920D03*
X020074Y005220D03*
X019326Y005220D03*
X014574Y005920D03*
X013826Y005920D03*
X006374Y006020D03*
X005626Y006020D03*
X005626Y005020D03*
X006374Y005020D03*
X006374Y004020D03*
X005626Y004020D03*
X005626Y003020D03*
X006374Y003020D03*
X006374Y002120D03*
X005626Y002120D03*
X005626Y001120D03*
X006374Y001120D03*
D15*
X001300Y001346D03*
X001300Y002094D03*
X013850Y003196D03*
X013850Y003944D03*
X018300Y003794D03*
X018300Y003046D03*
X018300Y004846D03*
X018300Y005594D03*
D16*
X002886Y006085D03*
X001114Y006085D03*
X001114Y002955D03*
X002886Y002955D03*
D17*
X003887Y003020D03*
X004713Y003020D03*
X004713Y002120D03*
X003887Y002120D03*
X003887Y001120D03*
X004713Y001120D03*
X004713Y004020D03*
X003887Y004020D03*
X003887Y005020D03*
X004713Y005020D03*
X004713Y006020D03*
X003887Y006020D03*
D18*
X014930Y004618D03*
X014930Y004118D03*
X014930Y003618D03*
X014930Y003118D03*
X016990Y003118D03*
X016990Y003618D03*
X016990Y004118D03*
X016990Y004618D03*
D19*
X016274Y001914D03*
X015526Y001914D03*
X015900Y001087D03*
D20*
X011800Y001520D03*
X010800Y001520D03*
X009800Y001520D03*
X008800Y001520D03*
X008800Y003020D03*
X009800Y003020D03*
X010800Y003020D03*
X009800Y004420D03*
X008800Y004420D03*
X008800Y005920D03*
X009800Y005920D03*
D21*
X010330Y005909D02*
X013469Y005909D01*
X013469Y005751D02*
X010303Y005751D01*
X010330Y005815D02*
X010330Y006025D01*
X010249Y006220D01*
X010100Y006369D01*
X009905Y006450D01*
X009695Y006450D01*
X009500Y006369D01*
X009351Y006220D01*
X009300Y006098D01*
X009249Y006220D01*
X009100Y006369D01*
X008905Y006450D01*
X008695Y006450D01*
X008579Y006402D01*
X008887Y006710D01*
X009010Y006833D01*
X009010Y006924D01*
X009025Y006909D01*
X009204Y006835D01*
X009396Y006835D01*
X009575Y006909D01*
X009711Y007045D01*
X009785Y007224D01*
X009785Y007416D01*
X009711Y007595D01*
X009575Y007731D01*
X009396Y007805D01*
X009204Y007805D01*
X009025Y007731D01*
X009010Y007716D01*
X009010Y007924D01*
X009025Y007909D01*
X009204Y007835D01*
X009396Y007835D01*
X009575Y007909D01*
X009711Y008045D01*
X009785Y008224D01*
X009785Y008416D01*
X009711Y008595D01*
X009575Y008731D01*
X009396Y008805D01*
X009204Y008805D01*
X009025Y008731D01*
X008889Y008595D01*
X008826Y008443D01*
X008790Y008407D01*
X008785Y008402D01*
X008785Y008416D01*
X008711Y008595D01*
X008575Y008731D01*
X008396Y008805D01*
X008204Y008805D01*
X008025Y008731D01*
X007889Y008595D01*
X007815Y008416D01*
X007815Y008332D01*
X007783Y008300D01*
X007320Y008300D01*
X007320Y008340D01*
X007805Y008340D01*
X007805Y008360D01*
X007793Y008438D01*
X007768Y008514D01*
X007732Y008585D01*
X007685Y008649D01*
X007629Y008705D01*
X007565Y008752D01*
X007494Y008788D01*
X007418Y008813D01*
X007371Y008820D01*
X010229Y008820D01*
X010182Y008813D01*
X010106Y008788D01*
X010035Y008752D01*
X009971Y008705D01*
X009915Y008649D01*
X009868Y008585D01*
X009832Y008514D01*
X009807Y008438D01*
X009795Y008360D01*
X009795Y008340D01*
X010280Y008340D01*
X010280Y008300D01*
X010320Y008300D01*
X010320Y008340D01*
X010805Y008340D01*
X010805Y008360D01*
X010793Y008438D01*
X010768Y008514D01*
X010732Y008585D01*
X010685Y008649D01*
X010629Y008705D01*
X010565Y008752D01*
X010494Y008788D01*
X010418Y008813D01*
X010371Y008820D01*
X015229Y008820D01*
X015182Y008813D01*
X015106Y008788D01*
X015035Y008752D01*
X014971Y008705D01*
X014915Y008649D01*
X014868Y008585D01*
X014832Y008514D01*
X014807Y008438D01*
X014795Y008360D01*
X014795Y008340D01*
X015280Y008340D01*
X015280Y008300D01*
X015320Y008300D01*
X015320Y008340D01*
X015805Y008340D01*
X015805Y008360D01*
X015793Y008438D01*
X015768Y008514D01*
X015732Y008585D01*
X015685Y008649D01*
X015629Y008705D01*
X015565Y008752D01*
X015494Y008788D01*
X015418Y008813D01*
X015371Y008820D01*
X017229Y008820D01*
X017182Y008813D01*
X017106Y008788D01*
X017035Y008752D01*
X016971Y008705D01*
X016915Y008649D01*
X016868Y008585D01*
X016832Y008514D01*
X016807Y008438D01*
X016795Y008360D01*
X016795Y008340D01*
X017280Y008340D01*
X017280Y008300D01*
X017320Y008300D01*
X017320Y008340D01*
X017805Y008340D01*
X017805Y008360D01*
X017793Y008438D01*
X017768Y008514D01*
X017732Y008585D01*
X017685Y008649D01*
X017629Y008705D01*
X017565Y008752D01*
X017494Y008788D01*
X017418Y008813D01*
X017371Y008820D01*
X020700Y008820D01*
X020720Y008818D01*
X020756Y008803D01*
X020783Y008776D01*
X020798Y008740D01*
X020800Y008720D01*
X020800Y007391D01*
X020793Y007438D01*
X020768Y007514D01*
X020732Y007585D01*
X020685Y007649D01*
X020629Y007705D01*
X020565Y007752D01*
X020494Y007788D01*
X020418Y007813D01*
X020340Y007825D01*
X020320Y007825D01*
X020320Y007340D01*
X020280Y007340D01*
X020280Y007825D01*
X020260Y007825D01*
X020182Y007813D01*
X020106Y007788D01*
X020035Y007752D01*
X019971Y007705D01*
X019915Y007649D01*
X019868Y007585D01*
X019832Y007514D01*
X019807Y007438D01*
X019795Y007360D01*
X019795Y007340D01*
X020280Y007340D01*
X020280Y007300D01*
X020320Y007300D01*
X020320Y006815D01*
X020340Y006815D01*
X020418Y006827D01*
X020494Y006852D01*
X020565Y006888D01*
X020629Y006935D01*
X020685Y006991D01*
X020732Y007055D01*
X020768Y007126D01*
X020793Y007202D01*
X020800Y007249D01*
X020800Y000820D01*
X020798Y000800D01*
X020783Y000764D01*
X020756Y000737D01*
X020720Y000722D01*
X020700Y000720D01*
X006673Y000720D01*
X006731Y000778D01*
X006731Y001154D01*
X008416Y001154D01*
X008351Y001220D02*
X008500Y001071D01*
X008695Y000990D01*
X008905Y000990D01*
X009100Y001071D01*
X009249Y001220D01*
X009300Y001342D01*
X009351Y001220D01*
X009500Y001071D01*
X009695Y000990D01*
X009905Y000990D01*
X010100Y001071D01*
X010249Y001220D01*
X010300Y001342D01*
X010351Y001220D01*
X010500Y001071D01*
X010695Y000990D01*
X010905Y000990D01*
X011100Y001071D01*
X011249Y001220D01*
X011300Y001342D01*
X011351Y001220D01*
X011500Y001071D01*
X011695Y000990D01*
X011905Y000990D01*
X012100Y001071D01*
X012249Y001220D01*
X012330Y001415D01*
X012330Y001625D01*
X012249Y001820D01*
X012100Y001969D01*
X011905Y002050D01*
X011695Y002050D01*
X011500Y001969D01*
X011351Y001820D01*
X011300Y001698D01*
X011249Y001820D01*
X011100Y001969D01*
X010905Y002050D01*
X010695Y002050D01*
X010500Y001969D01*
X010351Y001820D01*
X010300Y001698D01*
X010249Y001820D01*
X010100Y001969D01*
X009905Y002050D01*
X009695Y002050D01*
X009500Y001969D01*
X009351Y001820D01*
X009300Y001698D01*
X009249Y001820D01*
X009100Y001969D01*
X008905Y002050D01*
X008695Y002050D01*
X008500Y001969D01*
X008351Y001820D01*
X008270Y001625D01*
X008270Y001415D01*
X008351Y001220D01*
X008312Y001313D02*
X006889Y001313D01*
X007048Y001471D02*
X008270Y001471D01*
X008272Y001630D02*
X007206Y001630D01*
X007365Y001788D02*
X008337Y001788D01*
X008477Y001947D02*
X007510Y001947D01*
X007510Y001933D02*
X007510Y002833D01*
X008087Y003410D01*
X008210Y003533D01*
X008210Y006033D01*
X008318Y006141D01*
X008270Y006025D01*
X008270Y005815D01*
X008351Y005620D01*
X008500Y005471D01*
X008695Y005390D01*
X008905Y005390D01*
X009100Y005471D01*
X009249Y005620D01*
X009300Y005742D01*
X009351Y005620D01*
X009440Y005530D01*
X009313Y005530D01*
X009190Y005407D01*
X008733Y004950D01*
X008695Y004950D01*
X008500Y004869D01*
X008351Y004720D01*
X008270Y004525D01*
X008270Y004315D01*
X008351Y004120D01*
X008500Y003971D01*
X008695Y003890D01*
X008905Y003890D01*
X009100Y003971D01*
X009249Y004120D01*
X009300Y004242D01*
X009351Y004120D01*
X009500Y003971D01*
X009695Y003890D01*
X009905Y003890D01*
X010100Y003971D01*
X010249Y004120D01*
X010330Y004315D01*
X010330Y004410D01*
X013640Y004410D01*
X013640Y004301D01*
X013508Y004301D01*
X013414Y004207D01*
X013414Y003681D01*
X013508Y003587D01*
X014192Y003587D01*
X014286Y003681D01*
X014286Y004207D01*
X014192Y004301D01*
X014060Y004301D01*
X014060Y004409D01*
X014357Y004409D01*
X014385Y004382D01*
X014384Y004382D01*
X014351Y004348D01*
X014327Y004307D01*
X014315Y004261D01*
X014315Y004118D01*
X014930Y004118D01*
X014930Y004117D01*
X014930Y003618D01*
X014930Y003818D01*
X014930Y004117D01*
X014930Y004117D01*
X014315Y004117D01*
X014315Y003974D01*
X014327Y003928D01*
X014351Y003887D01*
X014370Y003867D01*
X014351Y003848D01*
X014327Y003807D01*
X014315Y003761D01*
X014315Y003618D01*
X014930Y003618D01*
X014930Y003618D01*
X014930Y003617D01*
X014315Y003617D01*
X014315Y003474D01*
X014327Y003428D01*
X014351Y003387D01*
X014384Y003353D01*
X014385Y003353D01*
X014335Y003304D01*
X014335Y002931D01*
X014429Y002838D01*
X014690Y002838D01*
X014690Y002033D01*
X014813Y001910D01*
X015019Y001704D01*
X015209Y001704D01*
X015209Y001670D01*
X015302Y001577D01*
X015750Y001577D01*
X015843Y001670D01*
X015843Y002157D01*
X015750Y002251D01*
X015302Y002251D01*
X015209Y002157D01*
X015209Y002124D01*
X015193Y002124D01*
X015110Y002207D01*
X015110Y002838D01*
X015431Y002838D01*
X015525Y002931D01*
X015525Y003304D01*
X015475Y003353D01*
X015476Y003353D01*
X015509Y003387D01*
X015533Y003428D01*
X015545Y003474D01*
X015545Y003617D01*
X014930Y003617D01*
X014930Y003618D01*
X015545Y003618D01*
X015545Y003761D01*
X015533Y003807D01*
X015509Y003848D01*
X015490Y003868D01*
X015509Y003887D01*
X015533Y003928D01*
X015545Y003974D01*
X015545Y004117D01*
X014930Y004117D01*
X014930Y004118D01*
X015545Y004118D01*
X015545Y004261D01*
X015533Y004307D01*
X015509Y004348D01*
X015476Y004382D01*
X015475Y004382D01*
X015525Y004431D01*
X015525Y004804D01*
X015431Y004897D01*
X014429Y004897D01*
X014360Y004829D01*
X013887Y004830D01*
X013800Y004830D01*
X013713Y004830D01*
X010140Y004830D01*
X010100Y004869D01*
X009905Y004950D01*
X009695Y004950D01*
X009500Y004869D01*
X009351Y004720D01*
X009300Y004598D01*
X009249Y004720D01*
X009173Y004796D01*
X009487Y005110D01*
X016813Y005110D01*
X016828Y005096D01*
X016828Y004897D01*
X016489Y004897D01*
X016395Y004804D01*
X016395Y004431D01*
X016459Y004367D01*
X016419Y004327D01*
X016394Y004327D01*
X016373Y004379D01*
X016271Y004480D01*
X016139Y004535D01*
X015996Y004535D01*
X015864Y004480D01*
X015762Y004379D01*
X015708Y004247D01*
X015708Y004103D01*
X015762Y003971D01*
X015864Y003870D01*
X015996Y003815D01*
X016139Y003815D01*
X016271Y003870D01*
X016309Y003908D01*
X016419Y003908D01*
X016445Y003882D01*
X016444Y003882D01*
X016411Y003848D01*
X016387Y003807D01*
X016375Y003761D01*
X016375Y003618D01*
X016990Y003618D01*
X017605Y003618D01*
X017605Y003761D01*
X017593Y003807D01*
X017569Y003848D01*
X017536Y003882D01*
X017535Y003882D01*
X017585Y003931D01*
X017585Y004083D01*
X017737Y004235D01*
X017991Y004489D01*
X018642Y004489D01*
X018736Y004583D01*
X018736Y004636D01*
X019167Y004636D01*
X019190Y004659D01*
X019190Y004553D01*
X019168Y004531D01*
X019168Y003926D01*
X019261Y003832D01*
X019630Y003832D01*
X019724Y003926D01*
X019724Y004531D01*
X019630Y004625D01*
X019610Y004625D01*
X019610Y004805D01*
X019683Y004878D01*
X019683Y005562D01*
X019610Y005635D01*
X019610Y005721D01*
X019705Y005816D01*
X019760Y005948D01*
X019760Y006092D01*
X019705Y006224D01*
X019604Y006325D01*
X019472Y006380D01*
X019328Y006380D01*
X019196Y006325D01*
X019095Y006224D01*
X019040Y006092D01*
X019040Y005948D01*
X019095Y005816D01*
X019190Y005721D01*
X019190Y005656D01*
X019063Y005656D01*
X018969Y005562D01*
X018969Y005056D01*
X018736Y005056D01*
X018736Y005109D01*
X018642Y005203D01*
X017958Y005203D01*
X017864Y005109D01*
X017864Y004956D01*
X017860Y004952D01*
X017860Y005322D01*
X017880Y005287D01*
X017914Y005253D01*
X017955Y005229D01*
X018001Y005217D01*
X018282Y005217D01*
X018282Y005576D01*
X018318Y005576D01*
X018318Y005612D01*
X018282Y005612D01*
X018282Y005971D01*
X018001Y005971D01*
X017955Y005959D01*
X017914Y005935D01*
X017880Y005901D01*
X017857Y005860D01*
X017844Y005815D01*
X017844Y005723D01*
X017737Y005830D01*
X017437Y006130D01*
X014931Y006130D01*
X014931Y006262D01*
X014837Y006356D01*
X014311Y006356D01*
X014217Y006262D01*
X014217Y005578D01*
X014265Y005530D01*
X014135Y005530D01*
X014183Y005578D01*
X014183Y006262D01*
X014089Y006356D01*
X013563Y006356D01*
X013469Y006262D01*
X013469Y005578D01*
X013517Y005530D01*
X010160Y005530D01*
X010249Y005620D01*
X010330Y005815D01*
X010313Y006068D02*
X013469Y006068D01*
X013469Y006226D02*
X010244Y006226D01*
X010064Y006385D02*
X020800Y006385D01*
X020800Y006226D02*
X019703Y006226D01*
X019760Y006068D02*
X020800Y006068D01*
X020800Y005909D02*
X019744Y005909D01*
X019640Y005751D02*
X020800Y005751D01*
X020800Y005592D02*
X020423Y005592D01*
X020415Y005606D02*
X020381Y005640D01*
X020340Y005663D01*
X020295Y005676D01*
X020092Y005676D01*
X020092Y005238D01*
X020056Y005238D01*
X020056Y005202D01*
X019697Y005202D01*
X019697Y004921D01*
X019709Y004875D01*
X019733Y004834D01*
X019767Y004800D01*
X019808Y004777D01*
X019853Y004764D01*
X020056Y004764D01*
X020056Y005202D01*
X020092Y005202D01*
X020092Y004764D01*
X020295Y004764D01*
X020340Y004777D01*
X020381Y004800D01*
X020415Y004834D01*
X020439Y004875D01*
X020451Y004921D01*
X020451Y005202D01*
X020092Y005202D01*
X020092Y005238D01*
X020451Y005238D01*
X020451Y005519D01*
X020439Y005565D01*
X020415Y005606D01*
X020451Y005434D02*
X020800Y005434D01*
X020800Y005275D02*
X020451Y005275D01*
X020451Y005117D02*
X020800Y005117D01*
X020800Y004958D02*
X020451Y004958D01*
X020380Y004800D02*
X020800Y004800D01*
X020800Y004641D02*
X020311Y004641D01*
X020296Y004645D02*
X020154Y004645D01*
X020013Y004645D01*
X019967Y004633D01*
X019926Y004609D01*
X019892Y004575D01*
X019868Y004534D01*
X019856Y004489D01*
X019856Y004229D01*
X020154Y004229D01*
X020154Y004645D01*
X020154Y004229D01*
X020154Y004229D01*
X020154Y004229D01*
X019856Y004229D01*
X019856Y003969D01*
X019868Y003923D01*
X019892Y003882D01*
X019926Y003848D01*
X019967Y003825D01*
X020013Y003812D01*
X020154Y003812D01*
X020154Y004229D01*
X020452Y004229D01*
X020452Y004489D01*
X020440Y004534D01*
X020416Y004575D01*
X020383Y004609D01*
X020342Y004633D01*
X020296Y004645D01*
X020154Y004641D02*
X020154Y004641D01*
X019998Y004641D02*
X019610Y004641D01*
X019724Y004483D02*
X019856Y004483D01*
X019856Y004324D02*
X019724Y004324D01*
X019724Y004166D02*
X019856Y004166D01*
X019856Y004007D02*
X019724Y004007D01*
X019646Y003849D02*
X019926Y003849D01*
X020154Y003849D02*
X020154Y003849D01*
X020154Y003812D02*
X020296Y003812D01*
X020342Y003825D01*
X020383Y003848D01*
X020416Y003882D01*
X020440Y003923D01*
X020452Y003969D01*
X020452Y004229D01*
X020154Y004229D01*
X020154Y004229D01*
X020154Y004229D01*
X020154Y003812D01*
X020383Y003849D02*
X020800Y003849D01*
X020800Y003690D02*
X018756Y003690D01*
X018756Y003776D02*
X018318Y003776D01*
X018318Y003812D01*
X018282Y003812D01*
X018282Y003776D01*
X018318Y003776D01*
X018318Y003417D01*
X018599Y003417D01*
X018645Y003429D01*
X018686Y003453D01*
X018720Y003487D01*
X018743Y003528D01*
X018756Y003573D01*
X018756Y003776D01*
X018756Y003812D02*
X018756Y004015D01*
X018743Y004060D01*
X018720Y004101D01*
X018686Y004135D01*
X018645Y004159D01*
X018599Y004171D01*
X018318Y004171D01*
X018318Y003812D01*
X018756Y003812D01*
X018756Y003849D02*
X019245Y003849D01*
X019168Y004007D02*
X018756Y004007D01*
X018619Y004166D02*
X019168Y004166D01*
X019168Y004324D02*
X017826Y004324D01*
X017737Y004235D02*
X017737Y004235D01*
X017667Y004166D02*
X017981Y004166D01*
X018001Y004171D02*
X017955Y004159D01*
X017914Y004135D01*
X017880Y004101D01*
X017857Y004060D01*
X017844Y004015D01*
X017844Y003812D01*
X018282Y003812D01*
X018282Y004171D01*
X018001Y004171D01*
X017844Y004007D02*
X017585Y004007D01*
X017569Y003849D02*
X017844Y003849D01*
X017844Y003776D02*
X017844Y003573D01*
X017857Y003528D01*
X017880Y003487D01*
X017914Y003453D01*
X017955Y003429D01*
X018001Y003417D01*
X018282Y003417D01*
X018282Y003776D01*
X017844Y003776D01*
X017844Y003690D02*
X017605Y003690D01*
X017605Y003617D02*
X016990Y003617D01*
X016990Y003618D01*
X016990Y003617D01*
X016375Y003617D01*
X016375Y003474D01*
X016387Y003428D01*
X016411Y003387D01*
X016444Y003353D01*
X016445Y003353D01*
X016395Y003304D01*
X016395Y002931D01*
X016489Y002838D01*
X017491Y002838D01*
X017561Y002907D01*
X017864Y002907D01*
X017864Y002783D01*
X017958Y002689D01*
X018642Y002689D01*
X018736Y002783D01*
X018736Y002907D01*
X019015Y002907D01*
X019168Y002775D01*
X019168Y002509D01*
X019261Y002415D01*
X019630Y002415D01*
X019724Y002509D01*
X019724Y003114D01*
X019630Y003208D01*
X019310Y003208D01*
X019237Y003271D01*
X019181Y003327D01*
X019172Y003327D01*
X019166Y003333D01*
X019086Y003327D01*
X018717Y003327D01*
X018642Y003403D01*
X017958Y003403D01*
X017883Y003327D01*
X017562Y003327D01*
X017535Y003353D01*
X017536Y003353D01*
X017569Y003387D01*
X017593Y003428D01*
X017605Y003474D01*
X017605Y003617D01*
X017605Y003532D02*
X017856Y003532D01*
X017928Y003373D02*
X017555Y003373D01*
X018282Y003532D02*
X018318Y003532D01*
X018318Y003690D02*
X018282Y003690D01*
X018282Y003849D02*
X018318Y003849D01*
X018318Y004007D02*
X018282Y004007D01*
X018282Y004166D02*
X018318Y004166D01*
X017984Y004483D02*
X019168Y004483D01*
X019172Y004641D02*
X019190Y004641D01*
X019610Y004800D02*
X019768Y004800D01*
X020056Y004800D02*
X020092Y004800D01*
X020092Y004958D02*
X020056Y004958D01*
X020056Y005117D02*
X020092Y005117D01*
X020056Y005238D02*
X019697Y005238D01*
X019697Y005519D01*
X019709Y005565D01*
X019733Y005606D01*
X019767Y005640D01*
X019808Y005663D01*
X019853Y005676D01*
X020056Y005676D01*
X020056Y005238D01*
X020056Y005275D02*
X020092Y005275D01*
X020092Y005434D02*
X020056Y005434D01*
X020056Y005592D02*
X020092Y005592D01*
X019725Y005592D02*
X019653Y005592D01*
X019683Y005434D02*
X019697Y005434D01*
X019683Y005275D02*
X019697Y005275D01*
X019683Y005117D02*
X019697Y005117D01*
X019683Y004958D02*
X019697Y004958D01*
X018969Y005117D02*
X018728Y005117D01*
X018645Y005229D02*
X018599Y005217D01*
X018318Y005217D01*
X018318Y005576D01*
X018756Y005576D01*
X018756Y005373D01*
X018743Y005328D01*
X018720Y005287D01*
X018686Y005253D01*
X018645Y005229D01*
X018708Y005275D02*
X018969Y005275D01*
X018969Y005434D02*
X018756Y005434D01*
X018756Y005612D02*
X018756Y005815D01*
X018743Y005860D01*
X018720Y005901D01*
X018686Y005935D01*
X018645Y005959D01*
X018599Y005971D01*
X018318Y005971D01*
X018318Y005612D01*
X018756Y005612D01*
X018999Y005592D02*
X018318Y005592D01*
X018318Y005434D02*
X018282Y005434D01*
X018282Y005275D02*
X018318Y005275D01*
X017892Y005275D02*
X017860Y005275D01*
X017860Y005117D02*
X017872Y005117D01*
X017860Y004958D02*
X017864Y004958D01*
X016828Y004958D02*
X009335Y004958D01*
X009430Y004800D02*
X009176Y004800D01*
X009282Y004641D02*
X009318Y004641D01*
X008741Y004958D02*
X008210Y004958D01*
X008210Y005117D02*
X008900Y005117D01*
X009058Y005275D02*
X008210Y005275D01*
X008210Y005434D02*
X008590Y005434D01*
X008378Y005592D02*
X008210Y005592D01*
X008210Y005751D02*
X008297Y005751D01*
X008270Y005909D02*
X008210Y005909D01*
X008244Y006068D02*
X008287Y006068D01*
X009064Y006385D02*
X009536Y006385D01*
X009356Y006226D02*
X009244Y006226D01*
X008720Y006543D02*
X020800Y006543D01*
X020800Y006702D02*
X008878Y006702D01*
X009010Y006860D02*
X009143Y006860D01*
X009457Y006860D02*
X010143Y006860D01*
X010204Y006835D02*
X010025Y006909D01*
X009889Y007045D01*
X009815Y007224D01*
X009815Y007416D01*
X009889Y007595D01*
X010025Y007731D01*
X010204Y007805D01*
X010396Y007805D01*
X010575Y007731D01*
X010711Y007595D01*
X010785Y007416D01*
X010785Y007224D01*
X010711Y007045D01*
X010575Y006909D01*
X010396Y006835D01*
X010204Y006835D01*
X010457Y006860D02*
X011143Y006860D01*
X011204Y006835D02*
X011396Y006835D01*
X011575Y006909D01*
X011711Y007045D01*
X011785Y007224D01*
X011785Y007416D01*
X011711Y007595D01*
X011575Y007731D01*
X011396Y007805D01*
X011204Y007805D01*
X011025Y007731D01*
X010889Y007595D01*
X010815Y007416D01*
X010815Y007224D01*
X010889Y007045D01*
X011025Y006909D01*
X011204Y006835D01*
X011457Y006860D02*
X012143Y006860D01*
X012204Y006835D02*
X012396Y006835D01*
X012575Y006909D01*
X012711Y007045D01*
X012785Y007224D01*
X012785Y007416D01*
X012711Y007595D01*
X012575Y007731D01*
X012396Y007805D01*
X012204Y007805D01*
X012025Y007731D01*
X011889Y007595D01*
X011815Y007416D01*
X011815Y007224D01*
X011889Y007045D01*
X012025Y006909D01*
X012204Y006835D01*
X012457Y006860D02*
X013090Y006860D01*
X013106Y006852D02*
X013182Y006827D01*
X013260Y006815D01*
X013280Y006815D01*
X013280Y007300D01*
X013320Y007300D01*
X013320Y007340D01*
X013805Y007340D01*
X013805Y007360D01*
X013793Y007438D01*
X013768Y007514D01*
X013732Y007585D01*
X013685Y007649D01*
X013629Y007705D01*
X013565Y007752D01*
X013494Y007788D01*
X013418Y007813D01*
X013340Y007825D01*
X013320Y007825D01*
X013320Y007340D01*
X013280Y007340D01*
X013280Y007825D01*
X013260Y007825D01*
X013182Y007813D01*
X013106Y007788D01*
X013035Y007752D01*
X012971Y007705D01*
X012915Y007649D01*
X012868Y007585D01*
X012832Y007514D01*
X012807Y007438D01*
X012795Y007360D01*
X012795Y007340D01*
X013280Y007340D01*
X013280Y007300D01*
X012795Y007300D01*
X012795Y007280D01*
X012807Y007202D01*
X012832Y007126D01*
X012868Y007055D01*
X012915Y006991D01*
X012971Y006935D01*
X013035Y006888D01*
X013106Y006852D01*
X013280Y006860D02*
X013320Y006860D01*
X013320Y006815D02*
X013340Y006815D01*
X013418Y006827D01*
X013494Y006852D01*
X013565Y006888D01*
X013629Y006935D01*
X013685Y006991D01*
X013732Y007055D01*
X013768Y007126D01*
X013793Y007202D01*
X013805Y007280D01*
X013805Y007300D01*
X013320Y007300D01*
X013320Y006815D01*
X013510Y006860D02*
X014143Y006860D01*
X014204Y006835D02*
X014025Y006909D01*
X013889Y007045D01*
X013815Y007224D01*
X013815Y007416D01*
X013889Y007595D01*
X014025Y007731D01*
X014204Y007805D01*
X014396Y007805D01*
X014575Y007731D01*
X014711Y007595D01*
X014785Y007416D01*
X014785Y007224D01*
X014711Y007045D01*
X014575Y006909D01*
X014396Y006835D01*
X014204Y006835D01*
X014457Y006860D02*
X015143Y006860D01*
X015204Y006835D02*
X015396Y006835D01*
X015575Y006909D01*
X015711Y007045D01*
X015785Y007224D01*
X015785Y007416D01*
X015711Y007595D01*
X015575Y007731D01*
X015396Y007805D01*
X015204Y007805D01*
X015025Y007731D01*
X014889Y007595D01*
X014815Y007416D01*
X014815Y007224D01*
X014889Y007045D01*
X015025Y006909D01*
X015204Y006835D01*
X015457Y006860D02*
X016143Y006860D01*
X016204Y006835D02*
X016396Y006835D01*
X016575Y006909D01*
X016711Y007045D01*
X016785Y007224D01*
X016785Y007416D01*
X016711Y007595D01*
X016575Y007731D01*
X016396Y007805D01*
X016204Y007805D01*
X016025Y007731D01*
X015889Y007595D01*
X015815Y007416D01*
X015815Y007224D01*
X015889Y007045D01*
X016025Y006909D01*
X016204Y006835D01*
X016457Y006860D02*
X017143Y006860D01*
X017204Y006835D02*
X017025Y006909D01*
X016889Y007045D01*
X016815Y007224D01*
X016815Y007416D01*
X016889Y007595D01*
X017025Y007731D01*
X017204Y007805D01*
X017396Y007805D01*
X017575Y007731D01*
X017711Y007595D01*
X017785Y007416D01*
X017785Y007224D01*
X017711Y007045D01*
X017575Y006909D01*
X017396Y006835D01*
X017204Y006835D01*
X017457Y006860D02*
X018143Y006860D01*
X018204Y006835D02*
X018396Y006835D01*
X018575Y006909D01*
X018711Y007045D01*
X018785Y007224D01*
X018785Y007416D01*
X018711Y007595D01*
X018575Y007731D01*
X018396Y007805D01*
X018204Y007805D01*
X018025Y007731D01*
X017889Y007595D01*
X017815Y007416D01*
X017815Y007224D01*
X017889Y007045D01*
X018025Y006909D01*
X018204Y006835D01*
X018457Y006860D02*
X019143Y006860D01*
X019204Y006835D02*
X019396Y006835D01*
X019575Y006909D01*
X019711Y007045D01*
X019785Y007224D01*
X019785Y007416D01*
X019711Y007595D01*
X019575Y007731D01*
X019396Y007805D01*
X019204Y007805D01*
X019025Y007731D01*
X018889Y007595D01*
X018815Y007416D01*
X018815Y007224D01*
X018889Y007045D01*
X019025Y006909D01*
X019204Y006835D01*
X019457Y006860D02*
X020090Y006860D01*
X020106Y006852D02*
X020182Y006827D01*
X020260Y006815D01*
X020280Y006815D01*
X020280Y007300D01*
X019795Y007300D01*
X019795Y007280D01*
X019807Y007202D01*
X019832Y007126D01*
X019868Y007055D01*
X019915Y006991D01*
X019971Y006935D01*
X020035Y006888D01*
X020106Y006852D01*
X020280Y006860D02*
X020320Y006860D01*
X020510Y006860D02*
X020800Y006860D01*
X020800Y007019D02*
X020705Y007019D01*
X020785Y007177D02*
X020800Y007177D01*
X020800Y007494D02*
X020774Y007494D01*
X020800Y007653D02*
X020682Y007653D01*
X020800Y007811D02*
X020423Y007811D01*
X020396Y007835D02*
X020575Y007909D01*
X020711Y008045D01*
X020785Y008224D01*
X020785Y008416D01*
X020711Y008595D01*
X020575Y008731D01*
X020396Y008805D01*
X020204Y008805D01*
X020025Y008731D01*
X019889Y008595D01*
X019815Y008416D01*
X019815Y008224D01*
X019889Y008045D01*
X020025Y007909D01*
X020204Y007835D01*
X020396Y007835D01*
X020320Y007811D02*
X020280Y007811D01*
X020177Y007811D02*
X013423Y007811D01*
X013396Y007835D02*
X013575Y007909D01*
X013711Y008045D01*
X013785Y008224D01*
X013785Y008416D01*
X013711Y008595D01*
X013575Y008731D01*
X013396Y008805D01*
X013204Y008805D01*
X013025Y008731D01*
X012889Y008595D01*
X012815Y008416D01*
X012815Y008224D01*
X012889Y008045D01*
X013025Y007909D01*
X013204Y007835D01*
X013396Y007835D01*
X013320Y007811D02*
X013280Y007811D01*
X013177Y007811D02*
X009010Y007811D01*
X009635Y007970D02*
X009936Y007970D01*
X009915Y007991D02*
X009971Y007935D01*
X010035Y007888D01*
X010106Y007852D01*
X010182Y007827D01*
X010260Y007815D01*
X010280Y007815D01*
X010280Y008300D01*
X009795Y008300D01*
X009795Y008280D01*
X009807Y008202D01*
X009832Y008126D01*
X009868Y008055D01*
X009915Y007991D01*
X009831Y008128D02*
X009745Y008128D01*
X009785Y008287D02*
X009795Y008287D01*
X009810Y008445D02*
X009773Y008445D01*
X009702Y008604D02*
X009882Y008604D01*
X010055Y008762D02*
X009500Y008762D01*
X009100Y008762D02*
X008500Y008762D01*
X008702Y008604D02*
X008898Y008604D01*
X008827Y008445D02*
X008773Y008445D01*
X008100Y008762D02*
X007545Y008762D01*
X007229Y008820D02*
X007182Y008813D01*
X007106Y008788D01*
X007035Y008752D01*
X006971Y008705D01*
X006915Y008649D01*
X006868Y008585D01*
X006832Y008514D01*
X006807Y008438D01*
X006795Y008360D01*
X006795Y008340D01*
X007280Y008340D01*
X007280Y008300D01*
X007320Y008300D01*
X007320Y007815D01*
X007340Y007815D01*
X007418Y007827D01*
X007494Y007852D01*
X007565Y007888D01*
X007590Y007906D01*
X007590Y007716D01*
X007575Y007731D01*
X007396Y007805D01*
X007204Y007805D01*
X007025Y007731D01*
X007010Y007716D01*
X007010Y007906D01*
X007035Y007888D01*
X007106Y007852D01*
X007182Y007827D01*
X007260Y007815D01*
X007280Y007815D01*
X007280Y008300D01*
X006817Y008300D01*
X006785Y008332D01*
X006785Y008416D01*
X006711Y008595D01*
X006575Y008731D01*
X006396Y008805D01*
X006204Y008805D01*
X006025Y008731D01*
X005889Y008595D01*
X005815Y008416D01*
X005815Y008224D01*
X005889Y008045D01*
X006025Y007909D01*
X006204Y007835D01*
X006396Y007835D01*
X006575Y007909D01*
X006590Y007924D01*
X006590Y007716D01*
X006575Y007731D01*
X006396Y007805D01*
X006204Y007805D01*
X006025Y007731D01*
X005889Y007595D01*
X005815Y007416D01*
X005815Y007224D01*
X005889Y007045D01*
X006025Y006909D01*
X006090Y006882D01*
X006090Y006435D01*
X006017Y006362D01*
X006017Y005678D01*
X006111Y005584D01*
X006590Y005584D01*
X006590Y005511D01*
X006531Y005456D01*
X006111Y005456D01*
X006017Y005362D01*
X006017Y004678D01*
X006111Y004584D01*
X006637Y004584D01*
X006731Y004678D01*
X006731Y005067D01*
X006883Y005210D01*
X006887Y005210D01*
X006890Y005213D01*
X006890Y004732D01*
X006614Y004456D01*
X006111Y004456D01*
X006017Y004362D01*
X006017Y003678D01*
X006111Y003584D01*
X006567Y003584D01*
X006439Y003456D01*
X006111Y003456D01*
X006017Y003362D01*
X006017Y002678D01*
X006111Y002584D01*
X006567Y002584D01*
X006539Y002556D01*
X006111Y002556D01*
X006017Y002462D01*
X006017Y001778D01*
X006111Y001684D01*
X006637Y001684D01*
X006731Y001778D01*
X006731Y002154D01*
X006987Y002410D01*
X007090Y002513D01*
X007090Y002107D01*
X006539Y001556D01*
X006111Y001556D01*
X006017Y001462D01*
X006017Y000778D01*
X006075Y000720D01*
X005925Y000720D01*
X005983Y000778D01*
X005983Y001462D01*
X005889Y001556D01*
X005363Y001556D01*
X005269Y001462D01*
X005269Y001330D01*
X005110Y001330D01*
X005110Y001422D01*
X005016Y001516D01*
X004411Y001516D01*
X004317Y001422D01*
X004317Y000818D01*
X004411Y000724D01*
X005016Y000724D01*
X005110Y000818D01*
X005110Y000910D01*
X005269Y000910D01*
X005269Y000778D01*
X005327Y000720D01*
X004199Y000720D01*
X004233Y000740D01*
X004267Y000773D01*
X004291Y000814D01*
X004303Y000860D01*
X004303Y001082D01*
X003925Y001082D01*
X003925Y001158D01*
X004303Y001158D01*
X004303Y001380D01*
X004291Y001426D01*
X004267Y001467D01*
X004233Y001500D01*
X004192Y001524D01*
X004147Y001536D01*
X003925Y001536D01*
X003925Y001158D01*
X003849Y001158D01*
X003849Y001536D01*
X003627Y001536D01*
X003581Y001524D01*
X003540Y001500D01*
X003506Y001467D01*
X003483Y001426D01*
X003470Y001380D01*
X003470Y001158D01*
X003848Y001158D01*
X003848Y001082D01*
X003470Y001082D01*
X003470Y000860D01*
X003483Y000814D01*
X003506Y000773D01*
X003540Y000740D01*
X003574Y000720D01*
X000900Y000720D01*
X000880Y000722D01*
X000844Y000737D01*
X000817Y000764D01*
X000802Y000800D01*
X000800Y000820D01*
X000800Y002490D01*
X001090Y002490D01*
X001090Y002451D01*
X000958Y002451D01*
X000864Y002357D01*
X000864Y001831D01*
X000958Y001737D01*
X001642Y001737D01*
X001736Y001831D01*
X001736Y002357D01*
X001642Y002451D01*
X001510Y002451D01*
X001510Y002564D01*
X001530Y002584D01*
X001530Y003326D01*
X001436Y003420D01*
X001324Y003420D01*
X001324Y005620D01*
X001436Y005620D01*
X001530Y005714D01*
X001530Y006456D01*
X001476Y006510D01*
X002495Y006510D01*
X002486Y006501D01*
X002462Y006460D01*
X002450Y006414D01*
X002450Y006133D01*
X002838Y006133D01*
X002838Y006037D01*
X002934Y006037D01*
X002934Y006133D01*
X003322Y006133D01*
X003322Y006414D01*
X003309Y006460D01*
X003286Y006501D01*
X003276Y006510D01*
X004287Y006510D01*
X004387Y006610D01*
X004510Y006733D01*
X004510Y006882D01*
X004575Y006909D01*
X004711Y007045D01*
X004785Y007224D01*
X004785Y007416D01*
X004711Y007595D01*
X004575Y007731D01*
X004396Y007805D01*
X004204Y007805D01*
X004025Y007731D01*
X003889Y007595D01*
X003815Y007416D01*
X003815Y007224D01*
X003889Y007045D01*
X004004Y006930D01*
X003596Y006930D01*
X003711Y007045D01*
X003785Y007224D01*
X003785Y007416D01*
X003711Y007595D01*
X003575Y007731D01*
X003396Y007805D01*
X003204Y007805D01*
X003025Y007731D01*
X002889Y007595D01*
X002815Y007416D01*
X002815Y007224D01*
X002889Y007045D01*
X003004Y006930D01*
X002596Y006930D01*
X002711Y007045D01*
X002785Y007224D01*
X002785Y007416D01*
X002711Y007595D01*
X002575Y007731D01*
X002396Y007805D01*
X002204Y007805D01*
X002025Y007731D01*
X001889Y007595D01*
X001815Y007416D01*
X001815Y007224D01*
X001889Y007045D01*
X002004Y006930D01*
X001785Y006930D01*
X001785Y007711D01*
X001691Y007805D01*
X000909Y007805D01*
X000815Y007711D01*
X000815Y006929D01*
X000909Y006835D01*
X001118Y006835D01*
X001090Y006807D01*
X001027Y006744D01*
X000904Y006621D01*
X000904Y006550D01*
X000800Y006550D01*
X000800Y008620D01*
X000804Y008659D01*
X000834Y008731D01*
X000889Y008786D01*
X000961Y008816D01*
X001000Y008820D01*
X003229Y008820D01*
X003182Y008813D01*
X003106Y008788D01*
X003035Y008752D01*
X002971Y008705D01*
X002915Y008649D01*
X002868Y008585D01*
X002832Y008514D01*
X002807Y008438D01*
X002795Y008360D01*
X002795Y008340D01*
X003280Y008340D01*
X003280Y008300D01*
X003320Y008300D01*
X003320Y008340D01*
X003805Y008340D01*
X003805Y008360D01*
X003793Y008438D01*
X003768Y008514D01*
X003732Y008585D01*
X003685Y008649D01*
X003629Y008705D01*
X003565Y008752D01*
X003494Y008788D01*
X003418Y008813D01*
X003371Y008820D01*
X007229Y008820D01*
X007055Y008762D02*
X006500Y008762D01*
X006702Y008604D02*
X006882Y008604D01*
X006810Y008445D02*
X006773Y008445D01*
X007280Y008287D02*
X007320Y008287D01*
X007320Y008128D02*
X007280Y008128D01*
X007280Y007970D02*
X007320Y007970D01*
X007590Y007811D02*
X007010Y007811D01*
X006590Y007811D02*
X005423Y007811D01*
X005418Y007813D02*
X005340Y007825D01*
X005320Y007825D01*
X005320Y007340D01*
X005805Y007340D01*
X005805Y007360D01*
X005793Y007438D01*
X005768Y007514D01*
X005732Y007585D01*
X005685Y007649D01*
X005629Y007705D01*
X005565Y007752D01*
X005494Y007788D01*
X005418Y007813D01*
X005396Y007835D02*
X005575Y007909D01*
X005711Y008045D01*
X005785Y008224D01*
X005785Y008416D01*
X005711Y008595D01*
X005575Y008731D01*
X005396Y008805D01*
X005204Y008805D01*
X005025Y008731D01*
X004889Y008595D01*
X004815Y008416D01*
X004815Y008224D01*
X004889Y008045D01*
X005025Y007909D01*
X005204Y007835D01*
X005396Y007835D01*
X005320Y007811D02*
X005280Y007811D01*
X005280Y007825D02*
X005260Y007825D01*
X005182Y007813D01*
X005106Y007788D01*
X005035Y007752D01*
X004971Y007705D01*
X004915Y007649D01*
X004868Y007585D01*
X004832Y007514D01*
X004807Y007438D01*
X004795Y007360D01*
X004795Y007340D01*
X005280Y007340D01*
X005280Y007825D01*
X005177Y007811D02*
X000800Y007811D01*
X001025Y007909D02*
X001204Y007835D01*
X001396Y007835D01*
X001575Y007909D01*
X001711Y008045D01*
X001785Y008224D01*
X001785Y008416D01*
X001711Y008595D01*
X001575Y008731D01*
X001396Y008805D01*
X001204Y008805D01*
X001025Y008731D01*
X000889Y008595D01*
X000815Y008416D01*
X000815Y008224D01*
X000889Y008045D01*
X001025Y007909D01*
X000965Y007970D02*
X000800Y007970D01*
X000800Y008128D02*
X000855Y008128D01*
X000815Y008287D02*
X000800Y008287D01*
X000800Y008445D02*
X000827Y008445D01*
X000800Y008604D02*
X000898Y008604D01*
X000865Y008762D02*
X001100Y008762D01*
X001500Y008762D02*
X002100Y008762D01*
X002025Y008731D02*
X001889Y008595D01*
X001815Y008416D01*
X001815Y008224D01*
X001889Y008045D01*
X002025Y007909D01*
X002204Y007835D01*
X002396Y007835D01*
X002575Y007909D01*
X002711Y008045D01*
X002785Y008224D01*
X002785Y008416D01*
X002711Y008595D01*
X002575Y008731D01*
X002396Y008805D01*
X002204Y008805D01*
X002025Y008731D01*
X001898Y008604D02*
X001702Y008604D01*
X001773Y008445D02*
X001827Y008445D01*
X001815Y008287D02*
X001785Y008287D01*
X001745Y008128D02*
X001855Y008128D01*
X001965Y007970D02*
X001635Y007970D01*
X001785Y007653D02*
X001947Y007653D01*
X001847Y007494D02*
X001785Y007494D01*
X001785Y007336D02*
X001815Y007336D01*
X001834Y007177D02*
X001785Y007177D01*
X001785Y007019D02*
X001916Y007019D01*
X002684Y007019D02*
X002916Y007019D01*
X002834Y007177D02*
X002766Y007177D01*
X002785Y007336D02*
X002815Y007336D01*
X002847Y007494D02*
X002753Y007494D01*
X002653Y007653D02*
X002947Y007653D01*
X003106Y007852D02*
X003182Y007827D01*
X003260Y007815D01*
X003280Y007815D01*
X003280Y008300D01*
X002795Y008300D01*
X002795Y008280D01*
X002807Y008202D01*
X002832Y008126D01*
X002868Y008055D01*
X002915Y007991D01*
X002971Y007935D01*
X003035Y007888D01*
X003106Y007852D01*
X002936Y007970D02*
X002635Y007970D01*
X002745Y008128D02*
X002831Y008128D01*
X002795Y008287D02*
X002785Y008287D01*
X002773Y008445D02*
X002810Y008445D01*
X002882Y008604D02*
X002702Y008604D01*
X002500Y008762D02*
X003055Y008762D01*
X003545Y008762D02*
X004100Y008762D01*
X004025Y008731D02*
X003889Y008595D01*
X003815Y008416D01*
X003815Y008224D01*
X003889Y008045D01*
X004025Y007909D01*
X004204Y007835D01*
X004396Y007835D01*
X004575Y007909D01*
X004711Y008045D01*
X004785Y008224D01*
X004785Y008416D01*
X004711Y008595D01*
X004575Y008731D01*
X004396Y008805D01*
X004204Y008805D01*
X004025Y008731D01*
X003898Y008604D02*
X003718Y008604D01*
X003790Y008445D02*
X003827Y008445D01*
X003805Y008300D02*
X003320Y008300D01*
X003320Y007815D01*
X003340Y007815D01*
X003418Y007827D01*
X003494Y007852D01*
X003565Y007888D01*
X003629Y007935D01*
X003685Y007991D01*
X003732Y008055D01*
X003768Y008126D01*
X003793Y008202D01*
X003805Y008280D01*
X003805Y008300D01*
X003805Y008287D02*
X003815Y008287D01*
X003855Y008128D02*
X003769Y008128D01*
X003664Y007970D02*
X003965Y007970D01*
X003320Y007970D02*
X003280Y007970D01*
X003280Y008128D02*
X003320Y008128D01*
X003320Y008287D02*
X003280Y008287D01*
X004500Y008762D02*
X005100Y008762D01*
X005500Y008762D02*
X006100Y008762D01*
X005898Y008604D02*
X005702Y008604D01*
X005773Y008445D02*
X005827Y008445D01*
X005815Y008287D02*
X005785Y008287D01*
X005745Y008128D02*
X005855Y008128D01*
X005965Y007970D02*
X005635Y007970D01*
X004965Y007970D02*
X004635Y007970D01*
X004745Y008128D02*
X004855Y008128D01*
X004815Y008287D02*
X004785Y008287D01*
X004773Y008445D02*
X004827Y008445D01*
X004898Y008604D02*
X004702Y008604D01*
X004653Y007653D02*
X004918Y007653D01*
X004826Y007494D02*
X004753Y007494D01*
X004785Y007336D02*
X005280Y007336D01*
X005280Y007340D02*
X005280Y007300D01*
X005320Y007300D01*
X005320Y007340D01*
X005280Y007340D01*
X005280Y007300D02*
X004795Y007300D01*
X004795Y007280D01*
X004807Y007202D01*
X004832Y007126D01*
X004868Y007055D01*
X004915Y006991D01*
X004971Y006935D01*
X005035Y006888D01*
X005106Y006852D01*
X005182Y006827D01*
X005260Y006815D01*
X005280Y006815D01*
X005280Y007300D01*
X005320Y007300D02*
X005320Y006815D01*
X005340Y006815D01*
X005418Y006827D01*
X005494Y006852D01*
X005565Y006888D01*
X005629Y006935D01*
X005685Y006991D01*
X005732Y007055D01*
X005768Y007126D01*
X005793Y007202D01*
X005805Y007280D01*
X005805Y007300D01*
X005320Y007300D01*
X005320Y007336D02*
X005815Y007336D01*
X005834Y007177D02*
X005785Y007177D01*
X005705Y007019D02*
X005916Y007019D01*
X006090Y006860D02*
X005510Y006860D01*
X005320Y006860D02*
X005280Y006860D01*
X005090Y006860D02*
X004510Y006860D01*
X004478Y006702D02*
X006090Y006702D01*
X006090Y006543D02*
X004320Y006543D01*
X004411Y006416D02*
X004317Y006322D01*
X004317Y005718D01*
X004411Y005624D01*
X005016Y005624D01*
X005110Y005718D01*
X005110Y005810D01*
X005269Y005810D01*
X005269Y005678D01*
X005363Y005584D01*
X005889Y005584D01*
X005983Y005678D01*
X005983Y006362D01*
X005889Y006456D01*
X005363Y006456D01*
X005269Y006362D01*
X005269Y006230D01*
X005110Y006230D01*
X005110Y006322D01*
X005016Y006416D01*
X004411Y006416D01*
X004379Y006385D02*
X004249Y006385D01*
X004233Y006400D02*
X004267Y006367D01*
X004291Y006326D01*
X004303Y006280D01*
X004303Y006058D01*
X003925Y006058D01*
X003925Y005982D01*
X004303Y005982D01*
X004303Y005760D01*
X004291Y005714D01*
X004267Y005673D01*
X004233Y005640D01*
X004192Y005616D01*
X004147Y005604D01*
X003925Y005604D01*
X003925Y005982D01*
X003849Y005982D01*
X003849Y005604D01*
X003627Y005604D01*
X003581Y005616D01*
X003540Y005640D01*
X003506Y005673D01*
X003483Y005714D01*
X003470Y005760D01*
X003470Y005982D01*
X003848Y005982D01*
X003848Y006058D01*
X003470Y006058D01*
X003470Y006280D01*
X003483Y006326D01*
X003506Y006367D01*
X003540Y006400D01*
X003581Y006424D01*
X003627Y006436D01*
X003849Y006436D01*
X003849Y006058D01*
X003925Y006058D01*
X003925Y006436D01*
X004147Y006436D01*
X004192Y006424D01*
X004233Y006400D01*
X003925Y006385D02*
X003849Y006385D01*
X003849Y006226D02*
X003925Y006226D01*
X003925Y006068D02*
X003849Y006068D01*
X003849Y005909D02*
X003925Y005909D01*
X003925Y005751D02*
X003849Y005751D01*
X003473Y005751D02*
X003320Y005751D01*
X003322Y005756D02*
X003322Y006037D01*
X002934Y006037D01*
X002934Y005600D01*
X003165Y005600D01*
X003211Y005612D01*
X003252Y005636D01*
X003286Y005669D01*
X003309Y005710D01*
X003322Y005756D01*
X003322Y005909D02*
X003470Y005909D01*
X003470Y006068D02*
X002934Y006068D01*
X002838Y006068D02*
X001530Y006068D01*
X001530Y006226D02*
X002450Y006226D01*
X002450Y006385D02*
X001530Y006385D01*
X000985Y006702D02*
X000800Y006702D01*
X000800Y006860D02*
X000884Y006860D01*
X000815Y007019D02*
X000800Y007019D01*
X000800Y007177D02*
X000815Y007177D01*
X000800Y007336D02*
X000815Y007336D01*
X000800Y007494D02*
X000815Y007494D01*
X000800Y007653D02*
X000815Y007653D01*
X003322Y006385D02*
X003524Y006385D01*
X003470Y006226D02*
X003322Y006226D01*
X002838Y006037D02*
X002838Y005600D01*
X002606Y005600D01*
X002560Y005612D01*
X002519Y005636D01*
X002486Y005669D01*
X002462Y005710D01*
X002450Y005756D01*
X002450Y006037D01*
X002838Y006037D01*
X002838Y005909D02*
X002934Y005909D01*
X002934Y005751D02*
X002838Y005751D01*
X002451Y005751D02*
X001530Y005751D01*
X001530Y005909D02*
X002450Y005909D01*
X001324Y005592D02*
X005355Y005592D01*
X005363Y005456D02*
X005269Y005362D01*
X005269Y005230D01*
X005110Y005230D01*
X005110Y005322D01*
X005016Y005416D01*
X004411Y005416D01*
X004317Y005322D01*
X004317Y004718D01*
X004411Y004624D01*
X005016Y004624D01*
X005110Y004718D01*
X005110Y004810D01*
X005269Y004810D01*
X005269Y004678D01*
X005363Y004584D01*
X005889Y004584D01*
X005983Y004678D01*
X005983Y005362D01*
X005889Y005456D01*
X005363Y005456D01*
X005341Y005434D02*
X004157Y005434D01*
X004147Y005436D02*
X003925Y005436D01*
X003925Y005058D01*
X004303Y005058D01*
X004303Y005280D01*
X004291Y005326D01*
X004267Y005367D01*
X004233Y005400D01*
X004192Y005424D01*
X004147Y005436D01*
X003925Y005434D02*
X003849Y005434D01*
X003849Y005436D02*
X003627Y005436D01*
X003581Y005424D01*
X003540Y005400D01*
X003506Y005367D01*
X003483Y005326D01*
X003470Y005280D01*
X003470Y005058D01*
X003848Y005058D01*
X003848Y004982D01*
X003470Y004982D01*
X003470Y004760D01*
X003483Y004714D01*
X003506Y004673D01*
X003540Y004640D01*
X003581Y004616D01*
X003627Y004604D01*
X003849Y004604D01*
X003849Y004982D01*
X003925Y004982D01*
X003925Y005058D01*
X003849Y005058D01*
X003849Y005436D01*
X003617Y005434D02*
X001324Y005434D01*
X001324Y005275D02*
X003470Y005275D01*
X003470Y005117D02*
X001324Y005117D01*
X001324Y004958D02*
X003470Y004958D01*
X003470Y004800D02*
X001324Y004800D01*
X001324Y004641D02*
X003539Y004641D01*
X003581Y004424D02*
X003540Y004400D01*
X003506Y004367D01*
X003483Y004326D01*
X003470Y004280D01*
X003470Y004058D01*
X003848Y004058D01*
X003848Y003982D01*
X003470Y003982D01*
X003470Y003760D01*
X003483Y003714D01*
X003506Y003673D01*
X003540Y003640D01*
X003581Y003616D01*
X003627Y003604D01*
X003849Y003604D01*
X003849Y003982D01*
X003925Y003982D01*
X003925Y004058D01*
X004303Y004058D01*
X004303Y004280D01*
X004291Y004326D01*
X004267Y004367D01*
X004233Y004400D01*
X004192Y004424D01*
X004147Y004436D01*
X003925Y004436D01*
X003925Y004058D01*
X003849Y004058D01*
X003849Y004436D01*
X003627Y004436D01*
X003581Y004424D01*
X003482Y004324D02*
X001324Y004324D01*
X001324Y004166D02*
X003470Y004166D01*
X003849Y004166D02*
X003925Y004166D01*
X003925Y004007D02*
X004317Y004007D01*
X004303Y003982D02*
X003925Y003982D01*
X003925Y003604D01*
X004147Y003604D01*
X004192Y003616D01*
X004233Y003640D01*
X004267Y003673D01*
X004291Y003714D01*
X004303Y003760D01*
X004303Y003982D01*
X004303Y004166D02*
X004317Y004166D01*
X004317Y004322D02*
X004317Y003718D01*
X004411Y003624D01*
X005016Y003624D01*
X005110Y003718D01*
X005110Y003810D01*
X005269Y003810D01*
X005269Y003678D01*
X005363Y003584D01*
X005889Y003584D01*
X005983Y003678D01*
X005983Y004362D01*
X005889Y004456D01*
X005363Y004456D01*
X005269Y004362D01*
X005269Y004230D01*
X005110Y004230D01*
X005110Y004322D01*
X005016Y004416D01*
X004411Y004416D01*
X004317Y004322D01*
X004319Y004324D02*
X004291Y004324D01*
X003925Y004324D02*
X003849Y004324D01*
X003925Y004604D02*
X004147Y004604D01*
X004192Y004616D01*
X004233Y004640D01*
X004267Y004673D01*
X004291Y004714D01*
X004303Y004760D01*
X004303Y004982D01*
X003925Y004982D01*
X003925Y004604D01*
X003925Y004641D02*
X003849Y004641D01*
X004235Y004641D02*
X004394Y004641D01*
X004317Y004800D02*
X004303Y004800D01*
X004303Y004958D02*
X004317Y004958D01*
X004303Y005117D02*
X004317Y005117D01*
X004303Y005275D02*
X004317Y005275D01*
X003925Y005275D02*
X003849Y005275D01*
X003849Y005117D02*
X003925Y005117D01*
X003925Y004958D02*
X003849Y004958D01*
X003849Y004800D02*
X003925Y004800D01*
X005033Y004641D02*
X005306Y004641D01*
X005269Y004800D02*
X005110Y004800D01*
X005946Y004641D02*
X006054Y004641D01*
X006017Y004800D02*
X005983Y004800D01*
X005983Y004958D02*
X006017Y004958D01*
X006017Y005117D02*
X005983Y005117D01*
X005983Y005275D02*
X006017Y005275D01*
X006089Y005434D02*
X005911Y005434D01*
X005897Y005592D02*
X006103Y005592D01*
X006017Y005751D02*
X005983Y005751D01*
X005983Y005909D02*
X006017Y005909D01*
X006017Y006068D02*
X005983Y006068D01*
X005983Y006226D02*
X006017Y006226D01*
X006040Y006385D02*
X005960Y006385D01*
X005292Y006385D02*
X005048Y006385D01*
X004317Y006226D02*
X004303Y006226D01*
X004303Y006068D02*
X004317Y006068D01*
X004303Y005909D02*
X004317Y005909D01*
X004300Y005751D02*
X004317Y005751D01*
X005110Y005751D02*
X005269Y005751D01*
X005269Y005275D02*
X005110Y005275D01*
X006731Y004958D02*
X006890Y004958D01*
X006890Y005117D02*
X006784Y005117D01*
X006731Y004800D02*
X006890Y004800D01*
X006799Y004641D02*
X006694Y004641D01*
X006641Y004483D02*
X001324Y004483D01*
X001324Y004007D02*
X003848Y004007D01*
X003849Y003849D02*
X003925Y003849D01*
X003925Y003690D02*
X003849Y003690D01*
X003497Y003690D02*
X001324Y003690D01*
X001324Y003849D02*
X003470Y003849D01*
X003581Y003424D02*
X003540Y003400D01*
X003506Y003367D01*
X003483Y003326D01*
X003470Y003280D01*
X003470Y003058D01*
X003848Y003058D01*
X003848Y002982D01*
X003470Y002982D01*
X003470Y002760D01*
X003483Y002714D01*
X003506Y002673D01*
X003540Y002640D01*
X003581Y002616D01*
X003627Y002604D01*
X003849Y002604D01*
X003849Y002982D01*
X003925Y002982D01*
X003925Y003058D01*
X004303Y003058D01*
X004303Y003280D01*
X004291Y003326D01*
X004267Y003367D01*
X004233Y003400D01*
X004192Y003424D01*
X004147Y003436D01*
X003925Y003436D01*
X003925Y003058D01*
X003849Y003058D01*
X003849Y003436D01*
X003627Y003436D01*
X003581Y003424D01*
X003513Y003373D02*
X003283Y003373D01*
X003286Y003371D02*
X003252Y003404D01*
X003211Y003428D01*
X003165Y003440D01*
X002934Y003440D01*
X002934Y003003D01*
X003322Y003003D01*
X003322Y003284D01*
X003309Y003330D01*
X003286Y003371D01*
X003322Y003215D02*
X003470Y003215D01*
X003322Y003056D02*
X003848Y003056D01*
X003925Y003056D02*
X004317Y003056D01*
X004303Y002982D02*
X003925Y002982D01*
X003925Y002604D01*
X004147Y002604D01*
X004192Y002616D01*
X004233Y002640D01*
X004267Y002673D01*
X004291Y002714D01*
X004303Y002760D01*
X004303Y002982D01*
X004303Y002898D02*
X004317Y002898D01*
X004317Y002739D02*
X004297Y002739D01*
X004317Y002718D02*
X004411Y002624D01*
X005016Y002624D01*
X005110Y002718D01*
X005110Y002810D01*
X005269Y002810D01*
X005269Y002678D01*
X005363Y002584D01*
X005889Y002584D01*
X005983Y002678D01*
X005983Y003362D01*
X005889Y003456D01*
X005363Y003456D01*
X005269Y003362D01*
X005269Y003230D01*
X005110Y003230D01*
X005110Y003322D01*
X005016Y003416D01*
X004411Y003416D01*
X004317Y003322D01*
X004317Y002718D01*
X004192Y002524D02*
X004147Y002536D01*
X003925Y002536D01*
X003925Y002158D01*
X004303Y002158D01*
X004303Y002380D01*
X004291Y002426D01*
X004267Y002467D01*
X004233Y002500D01*
X004192Y002524D01*
X004317Y002422D02*
X004317Y001818D01*
X004411Y001724D01*
X005016Y001724D01*
X005110Y001818D01*
X005110Y001910D01*
X005269Y001910D01*
X005269Y001778D01*
X005363Y001684D01*
X005889Y001684D01*
X005983Y001778D01*
X005983Y002462D01*
X005889Y002556D01*
X005363Y002556D01*
X005269Y002462D01*
X005269Y002330D01*
X005110Y002330D01*
X005110Y002422D01*
X005269Y002422D01*
X005110Y002422D02*
X005016Y002516D01*
X004411Y002516D01*
X004317Y002422D01*
X004292Y002422D01*
X004303Y002264D02*
X004317Y002264D01*
X004317Y002105D02*
X003925Y002105D01*
X003925Y002082D02*
X003925Y002158D01*
X003849Y002158D01*
X003849Y002536D01*
X003627Y002536D01*
X003581Y002524D01*
X003540Y002500D01*
X003506Y002467D01*
X003483Y002426D01*
X003470Y002380D01*
X003470Y002158D01*
X003848Y002158D01*
X003848Y002082D01*
X003470Y002082D01*
X003470Y001860D01*
X003483Y001814D01*
X003506Y001773D01*
X003540Y001740D01*
X003581Y001716D01*
X003627Y001704D01*
X003849Y001704D01*
X003849Y002082D01*
X003925Y002082D01*
X004303Y002082D01*
X004303Y001860D01*
X004291Y001814D01*
X004267Y001773D01*
X004233Y001740D01*
X004192Y001716D01*
X004147Y001704D01*
X003925Y001704D01*
X003925Y002082D01*
X003848Y002105D02*
X001736Y002105D01*
X001736Y001947D02*
X003470Y001947D01*
X003498Y001788D02*
X001693Y001788D01*
X001642Y001703D02*
X001736Y001609D01*
X001736Y001565D01*
X001796Y001625D01*
X001928Y001680D01*
X002072Y001680D01*
X002204Y001625D01*
X002305Y001524D01*
X002360Y001392D01*
X002360Y001248D01*
X002305Y001116D01*
X002204Y001015D01*
X002072Y000960D01*
X001928Y000960D01*
X001796Y001015D01*
X001732Y001079D01*
X001642Y000989D01*
X000958Y000989D01*
X000864Y001083D01*
X000864Y001609D01*
X000958Y001703D01*
X001642Y001703D01*
X001715Y001630D02*
X001806Y001630D01*
X002194Y001630D02*
X006613Y001630D01*
X006731Y001788D02*
X006771Y001788D01*
X006731Y001947D02*
X006930Y001947D01*
X007088Y002105D02*
X006731Y002105D01*
X006840Y002264D02*
X007090Y002264D01*
X007090Y002422D02*
X006999Y002422D01*
X006987Y002410D02*
X006987Y002410D01*
X006564Y002581D02*
X003309Y002581D01*
X003309Y002580D02*
X003322Y002626D01*
X003322Y002907D01*
X002934Y002907D01*
X002934Y003003D01*
X002838Y003003D01*
X002838Y003440D01*
X002606Y003440D01*
X002560Y003428D01*
X002519Y003404D01*
X002486Y003371D01*
X002462Y003330D01*
X002450Y003284D01*
X002450Y003003D01*
X002838Y003003D01*
X002838Y002907D01*
X002934Y002907D01*
X002934Y002470D01*
X003165Y002470D01*
X003211Y002482D01*
X003252Y002506D01*
X003286Y002539D01*
X003309Y002580D01*
X003322Y002739D02*
X003476Y002739D01*
X003470Y002898D02*
X003322Y002898D01*
X002934Y002898D02*
X002838Y002898D01*
X002838Y002907D02*
X002838Y002470D01*
X002606Y002470D01*
X002560Y002482D01*
X002519Y002506D01*
X002486Y002539D01*
X002462Y002580D01*
X002450Y002626D01*
X002450Y002907D01*
X002838Y002907D01*
X002838Y003056D02*
X002934Y003056D01*
X002934Y003215D02*
X002838Y003215D01*
X002838Y003373D02*
X002934Y003373D01*
X002488Y003373D02*
X001484Y003373D01*
X001530Y003215D02*
X002450Y003215D01*
X002450Y003056D02*
X001530Y003056D01*
X001530Y002898D02*
X002450Y002898D01*
X002450Y002739D02*
X001530Y002739D01*
X001527Y002581D02*
X002462Y002581D01*
X002838Y002581D02*
X002934Y002581D01*
X002934Y002739D02*
X002838Y002739D01*
X003482Y002422D02*
X001671Y002422D01*
X001736Y002264D02*
X003470Y002264D01*
X003849Y002264D02*
X003925Y002264D01*
X003925Y002422D02*
X003849Y002422D01*
X003849Y002739D02*
X003925Y002739D01*
X003925Y002898D02*
X003849Y002898D01*
X003849Y003215D02*
X003925Y003215D01*
X003925Y003373D02*
X003849Y003373D01*
X004261Y003373D02*
X004368Y003373D01*
X004317Y003215D02*
X004303Y003215D01*
X005059Y003373D02*
X005280Y003373D01*
X005269Y003690D02*
X005082Y003690D01*
X004345Y003690D02*
X004277Y003690D01*
X004303Y003849D02*
X004317Y003849D01*
X005108Y004324D02*
X005269Y004324D01*
X005983Y004324D02*
X006017Y004324D01*
X006017Y004166D02*
X005983Y004166D01*
X005983Y004007D02*
X006017Y004007D01*
X006017Y003849D02*
X005983Y003849D01*
X005983Y003690D02*
X006017Y003690D01*
X006515Y003532D02*
X001324Y003532D01*
X000929Y002422D02*
X000800Y002422D01*
X000800Y002264D02*
X000864Y002264D01*
X000864Y002105D02*
X000800Y002105D01*
X000800Y001947D02*
X000864Y001947D01*
X000907Y001788D02*
X000800Y001788D01*
X000800Y001630D02*
X000885Y001630D01*
X000864Y001471D02*
X000800Y001471D01*
X000800Y001313D02*
X000864Y001313D01*
X000864Y001154D02*
X000800Y001154D01*
X000800Y000996D02*
X000952Y000996D01*
X000800Y000837D02*
X003477Y000837D01*
X003470Y000996D02*
X002157Y000996D01*
X002321Y001154D02*
X003848Y001154D01*
X003925Y001154D02*
X004317Y001154D01*
X004303Y000996D02*
X004317Y000996D01*
X004317Y000837D02*
X004297Y000837D01*
X005110Y000837D02*
X005269Y000837D01*
X005983Y000837D02*
X006017Y000837D01*
X006017Y000996D02*
X005983Y000996D01*
X005983Y001154D02*
X006017Y001154D01*
X006017Y001313D02*
X005983Y001313D01*
X005974Y001471D02*
X006026Y001471D01*
X006017Y001788D02*
X005983Y001788D01*
X005983Y001947D02*
X006017Y001947D01*
X006017Y002105D02*
X005983Y002105D01*
X005983Y002264D02*
X006017Y002264D01*
X006017Y002422D02*
X005983Y002422D01*
X005983Y002739D02*
X006017Y002739D01*
X006017Y002898D02*
X005983Y002898D01*
X005983Y003056D02*
X006017Y003056D01*
X006017Y003215D02*
X005983Y003215D01*
X005972Y003373D02*
X006028Y003373D01*
X005269Y002739D02*
X005110Y002739D01*
X004317Y001947D02*
X004303Y001947D01*
X004275Y001788D02*
X004347Y001788D01*
X003925Y001788D02*
X003849Y001788D01*
X003849Y001947D02*
X003925Y001947D01*
X003925Y001471D02*
X003849Y001471D01*
X003849Y001313D02*
X003925Y001313D01*
X004263Y001471D02*
X004366Y001471D01*
X004317Y001313D02*
X004303Y001313D01*
X005061Y001471D02*
X005278Y001471D01*
X005269Y001788D02*
X005080Y001788D01*
X003511Y001471D02*
X002327Y001471D01*
X002360Y001313D02*
X003470Y001313D01*
X001843Y000996D02*
X001648Y000996D01*
X006731Y000996D02*
X008681Y000996D01*
X008919Y000996D02*
X009681Y000996D01*
X009919Y000996D02*
X010681Y000996D01*
X010919Y000996D02*
X011681Y000996D01*
X011919Y000996D02*
X015563Y000996D01*
X015563Y001087D02*
X015563Y000886D01*
X015575Y000840D01*
X015598Y000799D01*
X015632Y000766D01*
X015673Y000742D01*
X015719Y000730D01*
X015900Y000730D01*
X016081Y000730D01*
X016127Y000742D01*
X016168Y000766D01*
X016202Y000799D01*
X016225Y000840D01*
X016237Y000886D01*
X016237Y001087D01*
X016237Y001288D01*
X016225Y001334D01*
X016202Y001375D01*
X016168Y001408D01*
X016127Y001432D01*
X016081Y001444D01*
X015900Y001444D01*
X015719Y001444D01*
X015673Y001432D01*
X015632Y001408D01*
X015598Y001375D01*
X015575Y001334D01*
X015563Y001288D01*
X015563Y001087D01*
X015900Y001087D01*
X015900Y001444D01*
X015900Y001087D01*
X015900Y001087D01*
X016237Y001087D01*
X015900Y001087D01*
X015900Y001087D01*
X015900Y001087D01*
X015563Y001087D01*
X015563Y001154D02*
X012184Y001154D01*
X012288Y001313D02*
X015569Y001313D01*
X015900Y001313D02*
X015900Y001313D01*
X016231Y001313D02*
X020800Y001313D01*
X020800Y001471D02*
X012330Y001471D01*
X012328Y001630D02*
X015249Y001630D01*
X014935Y001788D02*
X012263Y001788D01*
X012123Y001947D02*
X014777Y001947D01*
X014690Y002105D02*
X007510Y002105D01*
X007510Y002264D02*
X014690Y002264D01*
X014690Y002422D02*
X014111Y002422D01*
X014155Y002466D02*
X014054Y002365D01*
X013922Y002310D01*
X013778Y002310D01*
X013646Y002365D01*
X013545Y002466D01*
X013490Y002598D01*
X013490Y002742D01*
X013530Y002839D01*
X013508Y002839D01*
X013414Y002933D01*
X013414Y003459D01*
X013508Y003553D01*
X014192Y003553D01*
X014286Y003459D01*
X014286Y002933D01*
X014192Y002839D01*
X014170Y002839D01*
X014210Y002742D01*
X014210Y002598D01*
X014155Y002466D01*
X014203Y002581D02*
X014690Y002581D01*
X014690Y002739D02*
X014210Y002739D01*
X014250Y002898D02*
X014369Y002898D01*
X014335Y003056D02*
X014286Y003056D01*
X014286Y003215D02*
X014335Y003215D01*
X014365Y003373D02*
X014286Y003373D01*
X014315Y003532D02*
X014213Y003532D01*
X014286Y003690D02*
X014315Y003690D01*
X014286Y003849D02*
X014351Y003849D01*
X014315Y004007D02*
X014286Y004007D01*
X014286Y004166D02*
X014315Y004166D01*
X014337Y004324D02*
X014060Y004324D01*
X013640Y004324D02*
X010330Y004324D01*
X010268Y004166D02*
X013414Y004166D01*
X013414Y004007D02*
X010137Y004007D01*
X009463Y004007D02*
X009137Y004007D01*
X009268Y004166D02*
X009332Y004166D01*
X008463Y004007D02*
X008210Y004007D01*
X008210Y004166D02*
X008332Y004166D01*
X008270Y004324D02*
X008210Y004324D01*
X008210Y004483D02*
X008270Y004483D01*
X008318Y004641D02*
X008210Y004641D01*
X008210Y004800D02*
X008430Y004800D01*
X009010Y005434D02*
X009217Y005434D01*
X009222Y005592D02*
X009378Y005592D01*
X010222Y005592D02*
X013469Y005592D01*
X014183Y005592D02*
X014217Y005592D01*
X014217Y005751D02*
X014183Y005751D01*
X014183Y005909D02*
X014217Y005909D01*
X014217Y006068D02*
X014183Y006068D01*
X014183Y006226D02*
X014217Y006226D01*
X014931Y006226D02*
X019097Y006226D01*
X019040Y006068D02*
X017499Y006068D01*
X017658Y005909D02*
X017888Y005909D01*
X017844Y005751D02*
X017816Y005751D01*
X018282Y005751D02*
X018318Y005751D01*
X018318Y005909D02*
X018282Y005909D01*
X018712Y005909D02*
X019056Y005909D01*
X019160Y005751D02*
X018756Y005751D01*
X016395Y004800D02*
X015525Y004800D01*
X015525Y004641D02*
X016395Y004641D01*
X016395Y004483D02*
X016266Y004483D01*
X015869Y004483D02*
X015525Y004483D01*
X015523Y004324D02*
X015740Y004324D01*
X015708Y004166D02*
X015545Y004166D01*
X015545Y004007D02*
X015747Y004007D01*
X015915Y003849D02*
X015509Y003849D01*
X015545Y003690D02*
X016375Y003690D01*
X016411Y003849D02*
X016220Y003849D01*
X016375Y003532D02*
X015545Y003532D01*
X015495Y003373D02*
X016425Y003373D01*
X016395Y003215D02*
X015525Y003215D01*
X015525Y003056D02*
X016395Y003056D01*
X016429Y002898D02*
X015491Y002898D01*
X015110Y002739D02*
X017908Y002739D01*
X017864Y002898D02*
X017551Y002898D01*
X018296Y002225D02*
X018428Y002280D01*
X018572Y002280D01*
X018704Y002225D01*
X018799Y002130D01*
X019069Y002130D01*
X019069Y002262D01*
X019163Y002356D01*
X019689Y002356D01*
X019783Y002262D01*
X019783Y001578D01*
X019689Y001484D01*
X019163Y001484D01*
X019069Y001578D01*
X019069Y001710D01*
X018799Y001710D01*
X018704Y001615D01*
X018572Y001560D01*
X018428Y001560D01*
X018296Y001615D01*
X018201Y001710D01*
X016591Y001710D01*
X016591Y001670D01*
X016498Y001577D01*
X016050Y001577D01*
X015957Y001670D01*
X015957Y002157D01*
X016050Y002251D01*
X016498Y002251D01*
X016591Y002157D01*
X016591Y002130D01*
X018201Y002130D01*
X018296Y002225D01*
X018389Y002264D02*
X015110Y002264D01*
X015110Y002422D02*
X019254Y002422D01*
X019071Y002264D02*
X018611Y002264D01*
X019168Y002581D02*
X015110Y002581D01*
X015843Y002105D02*
X015957Y002105D01*
X015957Y001947D02*
X015843Y001947D01*
X015843Y001788D02*
X015957Y001788D01*
X015997Y001630D02*
X015803Y001630D01*
X016551Y001630D02*
X018281Y001630D01*
X018719Y001630D02*
X019069Y001630D01*
X019783Y001630D02*
X019817Y001630D01*
X019817Y001578D02*
X019911Y001484D01*
X020437Y001484D01*
X020531Y001578D01*
X020531Y002262D01*
X020437Y002356D01*
X020358Y002356D01*
X020359Y002436D01*
X020432Y002509D01*
X020432Y003114D01*
X020339Y003208D01*
X019970Y003208D01*
X019876Y003114D01*
X019876Y002509D01*
X019939Y002446D01*
X019938Y002356D01*
X019911Y002356D01*
X019817Y002262D01*
X019817Y001578D01*
X019817Y001788D02*
X019783Y001788D01*
X019783Y001947D02*
X019817Y001947D01*
X019817Y002105D02*
X019783Y002105D01*
X019781Y002264D02*
X019819Y002264D01*
X019939Y002422D02*
X019637Y002422D01*
X019724Y002581D02*
X019876Y002581D01*
X019876Y002739D02*
X019724Y002739D01*
X019724Y002898D02*
X019876Y002898D01*
X019876Y003056D02*
X019724Y003056D01*
X019302Y003215D02*
X020800Y003215D01*
X020800Y003373D02*
X018672Y003373D01*
X018744Y003532D02*
X020800Y003532D01*
X020800Y004007D02*
X020452Y004007D01*
X020452Y004166D02*
X020800Y004166D01*
X020800Y004324D02*
X020452Y004324D01*
X020154Y004324D02*
X020154Y004324D01*
X020154Y004166D02*
X020154Y004166D01*
X020154Y004007D02*
X020154Y004007D01*
X020154Y004483D02*
X020154Y004483D01*
X020452Y004483D02*
X020800Y004483D01*
X020800Y003056D02*
X020432Y003056D01*
X020432Y002898D02*
X020800Y002898D01*
X020800Y002739D02*
X020432Y002739D01*
X020432Y002581D02*
X020800Y002581D01*
X020800Y002422D02*
X020359Y002422D01*
X020529Y002264D02*
X020800Y002264D01*
X020800Y002105D02*
X020531Y002105D01*
X020531Y001947D02*
X020800Y001947D01*
X020800Y001788D02*
X020531Y001788D01*
X020531Y001630D02*
X020800Y001630D01*
X020800Y001154D02*
X016237Y001154D01*
X016237Y000996D02*
X020800Y000996D01*
X020800Y000837D02*
X016223Y000837D01*
X015900Y000837D02*
X015900Y000837D01*
X015900Y000730D02*
X015900Y001087D01*
X015900Y001087D01*
X015900Y000730D01*
X015577Y000837D02*
X006731Y000837D01*
X006731Y001154D02*
X007510Y001933D01*
X007510Y002422D02*
X013589Y002422D01*
X013497Y002581D02*
X011131Y002581D01*
X011158Y002600D02*
X011220Y002662D01*
X011270Y002732D01*
X011310Y002809D01*
X011336Y002891D01*
X011350Y002977D01*
X011350Y003000D01*
X010820Y003000D01*
X010820Y003040D01*
X010780Y003040D01*
X010780Y003570D01*
X010757Y003570D01*
X010671Y003556D01*
X010589Y003530D01*
X010512Y003490D01*
X010442Y003440D01*
X010380Y003378D01*
X010330Y003308D01*
X010290Y003231D01*
X010289Y003226D01*
X010249Y003320D01*
X010100Y003469D01*
X009905Y003550D01*
X009695Y003550D01*
X009500Y003469D01*
X009351Y003320D01*
X009300Y003198D01*
X009249Y003320D01*
X009100Y003469D01*
X008905Y003550D01*
X008695Y003550D01*
X008500Y003469D01*
X008351Y003320D01*
X008270Y003125D01*
X008270Y002915D01*
X008351Y002720D01*
X008500Y002571D01*
X008695Y002490D01*
X008905Y002490D01*
X009100Y002571D01*
X009249Y002720D01*
X009300Y002842D01*
X009351Y002720D01*
X009500Y002571D01*
X009695Y002490D01*
X009905Y002490D01*
X010100Y002571D01*
X010249Y002720D01*
X010289Y002814D01*
X010290Y002809D01*
X010330Y002732D01*
X010380Y002662D01*
X010442Y002600D01*
X010512Y002550D01*
X010589Y002510D01*
X010671Y002484D01*
X010757Y002470D01*
X010780Y002470D01*
X010780Y003000D01*
X010820Y003000D01*
X010820Y002470D01*
X010843Y002470D01*
X010929Y002484D01*
X011011Y002510D01*
X011088Y002550D01*
X011158Y002600D01*
X010820Y002581D02*
X010780Y002581D01*
X010469Y002581D02*
X010110Y002581D01*
X010257Y002739D02*
X010326Y002739D01*
X010780Y002739D02*
X010820Y002739D01*
X010820Y002898D02*
X010780Y002898D01*
X010820Y003040D02*
X011350Y003040D01*
X011350Y003063D01*
X011336Y003149D01*
X011310Y003231D01*
X011270Y003308D01*
X011220Y003378D01*
X011158Y003440D01*
X011088Y003490D01*
X011011Y003530D01*
X010929Y003556D01*
X010843Y003570D01*
X010820Y003570D01*
X010820Y003040D01*
X010820Y003056D02*
X010780Y003056D01*
X010780Y003215D02*
X010820Y003215D01*
X010820Y003373D02*
X010780Y003373D01*
X010780Y003532D02*
X010820Y003532D01*
X011006Y003532D02*
X013487Y003532D01*
X013414Y003690D02*
X008210Y003690D01*
X008210Y003849D02*
X013414Y003849D01*
X013414Y003373D02*
X011223Y003373D01*
X011315Y003215D02*
X013414Y003215D01*
X013414Y003056D02*
X011350Y003056D01*
X011337Y002898D02*
X013450Y002898D01*
X013490Y002739D02*
X011274Y002739D01*
X010377Y003373D02*
X010197Y003373D01*
X009950Y003532D02*
X010594Y003532D01*
X009650Y003532D02*
X008950Y003532D01*
X009197Y003373D02*
X009403Y003373D01*
X009307Y003215D02*
X009293Y003215D01*
X008650Y003532D02*
X008208Y003532D01*
X008050Y003373D02*
X008403Y003373D01*
X008307Y003215D02*
X007891Y003215D01*
X007733Y003056D02*
X008270Y003056D01*
X008277Y002898D02*
X007574Y002898D01*
X007510Y002739D02*
X008343Y002739D01*
X008490Y002581D02*
X007510Y002581D01*
X009110Y002581D02*
X009490Y002581D01*
X009343Y002739D02*
X009257Y002739D01*
X009123Y001947D02*
X009477Y001947D01*
X009337Y001788D02*
X009263Y001788D01*
X010123Y001947D02*
X010477Y001947D01*
X010337Y001788D02*
X010263Y001788D01*
X011123Y001947D02*
X011477Y001947D01*
X011337Y001788D02*
X011263Y001788D01*
X011288Y001313D02*
X011312Y001313D01*
X011416Y001154D02*
X011184Y001154D01*
X010416Y001154D02*
X010184Y001154D01*
X010288Y001313D02*
X010312Y001313D01*
X009416Y001154D02*
X009184Y001154D01*
X009288Y001313D02*
X009312Y001313D01*
X014930Y003690D02*
X014930Y003690D01*
X014930Y003849D02*
X014930Y003849D01*
X014930Y004007D02*
X014930Y004007D01*
X013887Y004830D02*
X013887Y004830D01*
X013713Y004830D02*
X013713Y004830D01*
X013705Y007019D02*
X013916Y007019D01*
X013834Y007177D02*
X013785Y007177D01*
X013815Y007336D02*
X013320Y007336D01*
X013280Y007336D02*
X012785Y007336D01*
X012766Y007177D02*
X012815Y007177D01*
X012895Y007019D02*
X012684Y007019D01*
X013280Y007019D02*
X013320Y007019D01*
X013320Y007177D02*
X013280Y007177D01*
X013280Y007494D02*
X013320Y007494D01*
X013320Y007653D02*
X013280Y007653D01*
X012918Y007653D02*
X012653Y007653D01*
X012753Y007494D02*
X012826Y007494D01*
X012575Y007909D02*
X012396Y007835D01*
X012204Y007835D01*
X012025Y007909D01*
X011889Y008045D01*
X011815Y008224D01*
X011815Y008416D01*
X011889Y008595D01*
X012025Y008731D01*
X012204Y008805D01*
X012396Y008805D01*
X012575Y008731D01*
X012711Y008595D01*
X012785Y008416D01*
X012785Y008224D01*
X012711Y008045D01*
X012575Y007909D01*
X012635Y007970D02*
X012965Y007970D01*
X012855Y008128D02*
X012745Y008128D01*
X012785Y008287D02*
X012815Y008287D01*
X012827Y008445D02*
X012773Y008445D01*
X012702Y008604D02*
X012898Y008604D01*
X013100Y008762D02*
X012500Y008762D01*
X012100Y008762D02*
X011500Y008762D01*
X011575Y008731D02*
X011396Y008805D01*
X011204Y008805D01*
X011025Y008731D01*
X010889Y008595D01*
X010815Y008416D01*
X010815Y008224D01*
X010889Y008045D01*
X011025Y007909D01*
X011204Y007835D01*
X011396Y007835D01*
X011575Y007909D01*
X011711Y008045D01*
X011785Y008224D01*
X011785Y008416D01*
X011711Y008595D01*
X011575Y008731D01*
X011702Y008604D02*
X011898Y008604D01*
X011827Y008445D02*
X011773Y008445D01*
X011785Y008287D02*
X011815Y008287D01*
X011855Y008128D02*
X011745Y008128D01*
X011635Y007970D02*
X011965Y007970D01*
X011947Y007653D02*
X011653Y007653D01*
X011753Y007494D02*
X011847Y007494D01*
X011815Y007336D02*
X011785Y007336D01*
X011766Y007177D02*
X011834Y007177D01*
X011916Y007019D02*
X011684Y007019D01*
X010916Y007019D02*
X010684Y007019D01*
X010766Y007177D02*
X010834Y007177D01*
X010815Y007336D02*
X010785Y007336D01*
X010753Y007494D02*
X010847Y007494D01*
X010947Y007653D02*
X010653Y007653D01*
X010494Y007852D02*
X010418Y007827D01*
X010340Y007815D01*
X010320Y007815D01*
X010320Y008300D01*
X010805Y008300D01*
X010805Y008280D01*
X010793Y008202D01*
X010768Y008126D01*
X010732Y008055D01*
X010685Y007991D01*
X010629Y007935D01*
X010565Y007888D01*
X010494Y007852D01*
X010664Y007970D02*
X010965Y007970D01*
X010855Y008128D02*
X010769Y008128D01*
X010805Y008287D02*
X010815Y008287D01*
X010827Y008445D02*
X010790Y008445D01*
X010718Y008604D02*
X010898Y008604D01*
X011100Y008762D02*
X010545Y008762D01*
X010320Y008287D02*
X010280Y008287D01*
X010280Y008128D02*
X010320Y008128D01*
X010320Y007970D02*
X010280Y007970D01*
X009947Y007653D02*
X009653Y007653D01*
X009753Y007494D02*
X009847Y007494D01*
X009815Y007336D02*
X009785Y007336D01*
X009766Y007177D02*
X009834Y007177D01*
X009916Y007019D02*
X009684Y007019D01*
X007827Y008445D02*
X007790Y008445D01*
X007718Y008604D02*
X007898Y008604D01*
X005947Y007653D02*
X005682Y007653D01*
X005774Y007494D02*
X005847Y007494D01*
X005320Y007494D02*
X005280Y007494D01*
X005280Y007653D02*
X005320Y007653D01*
X005320Y007177D02*
X005280Y007177D01*
X005280Y007019D02*
X005320Y007019D01*
X004895Y007019D02*
X004684Y007019D01*
X004766Y007177D02*
X004815Y007177D01*
X003916Y007019D02*
X003684Y007019D01*
X003766Y007177D02*
X003834Y007177D01*
X003815Y007336D02*
X003785Y007336D01*
X003753Y007494D02*
X003847Y007494D01*
X003947Y007653D02*
X003653Y007653D01*
X013500Y008762D02*
X014100Y008762D01*
X014025Y008731D02*
X013889Y008595D01*
X013815Y008416D01*
X013815Y008224D01*
X013889Y008045D01*
X014025Y007909D01*
X014204Y007835D01*
X014396Y007835D01*
X014575Y007909D01*
X014711Y008045D01*
X014785Y008224D01*
X014785Y008416D01*
X014711Y008595D01*
X014575Y008731D01*
X014396Y008805D01*
X014204Y008805D01*
X014025Y008731D01*
X013898Y008604D02*
X013702Y008604D01*
X013773Y008445D02*
X013827Y008445D01*
X013815Y008287D02*
X013785Y008287D01*
X013745Y008128D02*
X013855Y008128D01*
X013965Y007970D02*
X013635Y007970D01*
X013682Y007653D02*
X013947Y007653D01*
X013847Y007494D02*
X013774Y007494D01*
X014653Y007653D02*
X014947Y007653D01*
X014847Y007494D02*
X014753Y007494D01*
X014785Y007336D02*
X014815Y007336D01*
X014834Y007177D02*
X014766Y007177D01*
X014684Y007019D02*
X014916Y007019D01*
X015684Y007019D02*
X015916Y007019D01*
X015834Y007177D02*
X015766Y007177D01*
X015785Y007336D02*
X015815Y007336D01*
X015847Y007494D02*
X015753Y007494D01*
X015653Y007653D02*
X015947Y007653D01*
X016025Y007909D02*
X016204Y007835D01*
X016396Y007835D01*
X016575Y007909D01*
X016711Y008045D01*
X016785Y008224D01*
X016785Y008416D01*
X016711Y008595D01*
X016575Y008731D01*
X016396Y008805D01*
X016204Y008805D01*
X016025Y008731D01*
X015889Y008595D01*
X015815Y008416D01*
X015815Y008224D01*
X015889Y008045D01*
X016025Y007909D01*
X015965Y007970D02*
X015664Y007970D01*
X015685Y007991D02*
X015629Y007935D01*
X015565Y007888D01*
X015494Y007852D01*
X015418Y007827D01*
X015340Y007815D01*
X015320Y007815D01*
X015320Y008300D01*
X015805Y008300D01*
X015805Y008280D01*
X015793Y008202D01*
X015768Y008126D01*
X015732Y008055D01*
X015685Y007991D01*
X015769Y008128D02*
X015855Y008128D01*
X015815Y008287D02*
X015805Y008287D01*
X015790Y008445D02*
X015827Y008445D01*
X015898Y008604D02*
X015718Y008604D01*
X015545Y008762D02*
X016100Y008762D01*
X016500Y008762D02*
X017055Y008762D01*
X016882Y008604D02*
X016702Y008604D01*
X016773Y008445D02*
X016810Y008445D01*
X016795Y008300D02*
X016795Y008280D01*
X016807Y008202D01*
X016832Y008126D01*
X016868Y008055D01*
X016915Y007991D01*
X016971Y007935D01*
X017035Y007888D01*
X017106Y007852D01*
X017182Y007827D01*
X017260Y007815D01*
X017280Y007815D01*
X017280Y008300D01*
X016795Y008300D01*
X016795Y008287D02*
X016785Y008287D01*
X016745Y008128D02*
X016831Y008128D01*
X016936Y007970D02*
X016635Y007970D01*
X017280Y007970D02*
X017320Y007970D01*
X017320Y008128D02*
X017280Y008128D01*
X017280Y008287D02*
X017320Y008287D01*
X017320Y008300D02*
X017320Y007815D01*
X017340Y007815D01*
X017418Y007827D01*
X017494Y007852D01*
X017565Y007888D01*
X017629Y007935D01*
X017685Y007991D01*
X017732Y008055D01*
X017768Y008126D01*
X017793Y008202D01*
X017805Y008280D01*
X017805Y008300D01*
X017320Y008300D01*
X017769Y008128D02*
X017855Y008128D01*
X017889Y008045D02*
X018025Y007909D01*
X018204Y007835D01*
X018396Y007835D01*
X018575Y007909D01*
X018711Y008045D01*
X018785Y008224D01*
X018785Y008416D01*
X018711Y008595D01*
X018575Y008731D01*
X018396Y008805D01*
X018204Y008805D01*
X018025Y008731D01*
X017889Y008595D01*
X017815Y008416D01*
X017815Y008224D01*
X017889Y008045D01*
X017965Y007970D02*
X017664Y007970D01*
X017805Y008287D02*
X017815Y008287D01*
X017827Y008445D02*
X017790Y008445D01*
X017718Y008604D02*
X017898Y008604D01*
X018100Y008762D02*
X017545Y008762D01*
X018500Y008762D02*
X019100Y008762D01*
X019025Y008731D02*
X019204Y008805D01*
X019396Y008805D01*
X019575Y008731D01*
X019711Y008595D01*
X019785Y008416D01*
X019785Y008224D01*
X019711Y008045D01*
X019575Y007909D01*
X019396Y007835D01*
X019204Y007835D01*
X019025Y007909D01*
X018889Y008045D01*
X018815Y008224D01*
X018815Y008416D01*
X018889Y008595D01*
X019025Y008731D01*
X018898Y008604D02*
X018702Y008604D01*
X018773Y008445D02*
X018827Y008445D01*
X018815Y008287D02*
X018785Y008287D01*
X018745Y008128D02*
X018855Y008128D01*
X018965Y007970D02*
X018635Y007970D01*
X018653Y007653D02*
X018947Y007653D01*
X018847Y007494D02*
X018753Y007494D01*
X018785Y007336D02*
X018815Y007336D01*
X018834Y007177D02*
X018766Y007177D01*
X018684Y007019D02*
X018916Y007019D01*
X019684Y007019D02*
X019895Y007019D01*
X019815Y007177D02*
X019766Y007177D01*
X019785Y007336D02*
X020280Y007336D01*
X020280Y007177D02*
X020320Y007177D01*
X020320Y007019D02*
X020280Y007019D01*
X020280Y007494D02*
X020320Y007494D01*
X020320Y007653D02*
X020280Y007653D01*
X019918Y007653D02*
X019653Y007653D01*
X019753Y007494D02*
X019826Y007494D01*
X019965Y007970D02*
X019635Y007970D01*
X019745Y008128D02*
X019855Y008128D01*
X019815Y008287D02*
X019785Y008287D01*
X019773Y008445D02*
X019827Y008445D01*
X019898Y008604D02*
X019702Y008604D01*
X019500Y008762D02*
X020100Y008762D01*
X020500Y008762D02*
X020789Y008762D01*
X020800Y008604D02*
X020702Y008604D01*
X020773Y008445D02*
X020800Y008445D01*
X020785Y008287D02*
X020800Y008287D01*
X020800Y008128D02*
X020745Y008128D01*
X020800Y007970D02*
X020635Y007970D01*
X017947Y007653D02*
X017653Y007653D01*
X017753Y007494D02*
X017847Y007494D01*
X017815Y007336D02*
X017785Y007336D01*
X017766Y007177D02*
X017834Y007177D01*
X017916Y007019D02*
X017684Y007019D01*
X016916Y007019D02*
X016684Y007019D01*
X016766Y007177D02*
X016834Y007177D01*
X016815Y007336D02*
X016785Y007336D01*
X016753Y007494D02*
X016847Y007494D01*
X016947Y007653D02*
X016653Y007653D01*
X015320Y007970D02*
X015280Y007970D01*
X015280Y008128D02*
X015320Y008128D01*
X015320Y008287D02*
X015280Y008287D01*
X015280Y008300D02*
X015280Y007815D01*
X015260Y007815D01*
X015182Y007827D01*
X015106Y007852D01*
X015035Y007888D01*
X014971Y007935D01*
X014915Y007991D01*
X014868Y008055D01*
X014832Y008126D01*
X014807Y008202D01*
X014795Y008280D01*
X014795Y008300D01*
X015280Y008300D01*
X014831Y008128D02*
X014745Y008128D01*
X014635Y007970D02*
X014936Y007970D01*
X014795Y008287D02*
X014785Y008287D01*
X014773Y008445D02*
X014810Y008445D01*
X014882Y008604D02*
X014702Y008604D01*
X014500Y008762D02*
X015055Y008762D01*
X018736Y002898D02*
X019026Y002898D01*
X019168Y002739D02*
X018692Y002739D01*
X015900Y001154D02*
X015900Y001154D01*
X015900Y000996D02*
X015900Y000996D01*
D22*
X015526Y001914D02*
X015106Y001914D01*
X014900Y002120D01*
X014900Y003088D01*
X014930Y003118D01*
X013850Y003196D02*
X013850Y002670D01*
X016274Y001914D02*
X016280Y001920D01*
X018500Y001920D01*
X019426Y001920D01*
X020143Y001963D02*
X020174Y001920D01*
X020143Y001963D02*
X020154Y002811D01*
X019446Y002811D02*
X019094Y003117D01*
X018300Y003117D01*
X018300Y003046D01*
X018300Y003117D02*
X016990Y003117D01*
X016990Y003118D01*
X016990Y004118D02*
X016125Y004118D01*
X016068Y004175D01*
X016990Y004118D02*
X017018Y004145D01*
X017350Y004145D01*
X017650Y004445D01*
X018071Y004866D01*
X018300Y004846D01*
X019080Y004846D01*
X019400Y005166D01*
X019326Y005220D01*
X019388Y005169D01*
X019400Y005169D01*
X019400Y006020D01*
X017650Y005620D02*
X017650Y004445D01*
X017038Y004665D02*
X017038Y005183D01*
X016900Y005320D01*
X013900Y005320D01*
X013800Y005420D01*
X013800Y005894D01*
X013826Y005920D01*
X014574Y005920D02*
X017350Y005920D01*
X017650Y005620D01*
X018300Y004846D02*
X018313Y004853D01*
X019400Y005166D02*
X019400Y004228D01*
X019446Y004229D01*
X017038Y004665D02*
X016990Y004618D01*
X014930Y004618D02*
X013800Y004620D01*
X013850Y004570D01*
X013850Y003944D01*
X013800Y004620D02*
X010000Y004620D01*
X009800Y004420D01*
X009400Y005320D02*
X008800Y004720D01*
X008800Y004420D01*
X007700Y003920D02*
X006900Y003120D01*
X006900Y002620D01*
X006400Y002120D01*
X006374Y002120D01*
X005626Y002120D02*
X004713Y002120D01*
X004713Y003020D02*
X005626Y003020D01*
X006352Y003084D02*
X006364Y003084D01*
X007400Y004120D01*
X007400Y006620D01*
X007800Y007020D01*
X007800Y008020D01*
X008100Y008320D01*
X008300Y008320D01*
X008800Y008120D02*
X009000Y008320D01*
X009300Y008320D01*
X008800Y008120D02*
X008800Y006920D01*
X008000Y006120D01*
X008000Y003620D01*
X007300Y002920D01*
X007300Y002020D01*
X006413Y001133D01*
X006400Y001133D01*
X005626Y001120D02*
X004713Y001120D01*
X002000Y001320D02*
X001326Y001320D01*
X001300Y001346D01*
X001300Y002094D02*
X001300Y002769D01*
X001114Y002955D01*
X001114Y006085D01*
X001114Y006534D01*
X001300Y006720D01*
X004200Y006720D01*
X004300Y006820D01*
X004300Y007320D01*
X006300Y007320D02*
X006300Y006094D01*
X006374Y006020D01*
X005626Y006020D02*
X004713Y006020D01*
X006374Y005020D02*
X006800Y005420D01*
X006800Y008020D01*
X006500Y008320D01*
X006300Y008320D01*
X007300Y007320D02*
X007100Y007083D01*
X007100Y004645D01*
X006475Y004020D01*
X006374Y004020D01*
X005626Y004020D02*
X004713Y004020D01*
X004713Y005020D02*
X005626Y005020D01*
X007700Y003920D02*
X007700Y006320D01*
X008300Y006920D01*
X008300Y007320D01*
X009400Y005320D02*
X013900Y005320D01*
D23*
X016068Y004175D03*
X013850Y002670D03*
X018500Y001920D03*
X019400Y006020D03*
X002000Y001320D03*
M02*
