G75*
%MOIN*%
%OFA0B0*%
%FSLAX24Y24*%
%IPPOS*%
%LPD*%
%AMOC8*
5,1,8,0,0,1.08239X$1,22.5*
%
%ADD10C,0.0730*%
%ADD11R,0.0730X0.0730*%
%ADD12R,0.0316X0.0552*%
%ADD13R,0.0474X0.0631*%
%ADD14R,0.0631X0.0474*%
%ADD15R,0.0592X0.0690*%
%ADD16R,0.0552X0.0552*%
%ADD17R,0.0950X0.0320*%
%ADD18R,0.0395X0.0434*%
%ADD19C,0.0820*%
D10*
X002300Y007320D03*
X003300Y007320D03*
X004300Y007320D03*
X005300Y007320D03*
X006300Y007320D03*
X007300Y007320D03*
X008300Y007320D03*
X009300Y007320D03*
X010300Y007320D03*
X011300Y007320D03*
X012300Y007320D03*
X013300Y007320D03*
X014300Y007320D03*
X015300Y007320D03*
X016300Y007320D03*
X017300Y007320D03*
X018300Y007320D03*
X019300Y007320D03*
X020300Y007320D03*
X020300Y008320D03*
X019300Y008320D03*
X018300Y008320D03*
X017300Y008320D03*
X016300Y008320D03*
X015300Y008320D03*
X014300Y008320D03*
X013300Y008320D03*
X012300Y008320D03*
X011300Y008320D03*
X010300Y008320D03*
X009300Y008320D03*
X008300Y008320D03*
X007300Y008320D03*
X006300Y008320D03*
X005300Y008320D03*
X004300Y008320D03*
X003300Y008320D03*
X002300Y008320D03*
X001300Y008320D03*
D11*
X001300Y007320D03*
D12*
X019446Y004229D03*
X020154Y004229D03*
X020154Y002811D03*
X019446Y002811D03*
D13*
X019426Y001920D03*
X020174Y001920D03*
X020074Y005220D03*
X019326Y005220D03*
X014574Y005920D03*
X013826Y005920D03*
X006374Y006020D03*
X005626Y006020D03*
X005626Y005020D03*
X006374Y005020D03*
X006374Y004020D03*
X005626Y004020D03*
X005626Y003020D03*
X006374Y003020D03*
X006374Y002120D03*
X005626Y002120D03*
X005626Y001120D03*
X006374Y001120D03*
D14*
X001300Y001346D03*
X001300Y002094D03*
X013850Y003196D03*
X013850Y003944D03*
X018300Y003794D03*
X018300Y003046D03*
X018300Y004846D03*
X018300Y005594D03*
D15*
X002886Y006085D03*
X001114Y006085D03*
X001114Y002955D03*
X002886Y002955D03*
D16*
X003887Y003020D03*
X004713Y003020D03*
X004713Y002120D03*
X003887Y002120D03*
X003887Y001120D03*
X004713Y001120D03*
X004713Y004020D03*
X003887Y004020D03*
X003887Y005020D03*
X004713Y005020D03*
X004713Y006020D03*
X003887Y006020D03*
D17*
X014930Y004618D03*
X014930Y004118D03*
X014930Y003618D03*
X014930Y003118D03*
X016990Y003118D03*
X016990Y003618D03*
X016990Y004118D03*
X016990Y004618D03*
D18*
X016274Y001914D03*
X015526Y001914D03*
X015900Y001087D03*
D19*
X011800Y001520D03*
X010800Y001520D03*
X009800Y001520D03*
X008800Y001520D03*
X008800Y003020D03*
X009800Y003020D03*
X010800Y003020D03*
X009800Y004420D03*
X008800Y004420D03*
X008800Y005920D03*
X009800Y005920D03*
M02*
